%TF.GenerationSoftware,KiCad,Pcbnew,(6.0.8)*%
%TF.CreationDate,2023-04-08T01:55:34-04:00*%
%TF.ProjectId,keeb,6b656562-2e6b-4696-9361-645f70636258,rev?*%
%TF.SameCoordinates,Original*%
%TF.FileFunction,Paste,Bot*%
%TF.FilePolarity,Positive*%
%FSLAX46Y46*%
G04 Gerber Fmt 4.6, Leading zero omitted, Abs format (unit mm)*
G04 Created by KiCad (PCBNEW (6.0.8)) date 2023-04-08 01:55:34*
%MOMM*%
%LPD*%
G01*
G04 APERTURE LIST*
G04 Aperture macros list*
%AMRoundRect*
0 Rectangle with rounded corners*
0 $1 Rounding radius*
0 $2 $3 $4 $5 $6 $7 $8 $9 X,Y pos of 4 corners*
0 Add a 4 corners polygon primitive as box body*
4,1,4,$2,$3,$4,$5,$6,$7,$8,$9,$2,$3,0*
0 Add four circle primitives for the rounded corners*
1,1,$1+$1,$2,$3*
1,1,$1+$1,$4,$5*
1,1,$1+$1,$6,$7*
1,1,$1+$1,$8,$9*
0 Add four rect primitives between the rounded corners*
20,1,$1+$1,$2,$3,$4,$5,0*
20,1,$1+$1,$4,$5,$6,$7,0*
20,1,$1+$1,$6,$7,$8,$9,0*
20,1,$1+$1,$8,$9,$2,$3,0*%
G04 Aperture macros list end*
%ADD10R,1.700000X1.000000*%
%ADD11RoundRect,0.250000X-0.475000X0.337500X-0.475000X-0.337500X0.475000X-0.337500X0.475000X0.337500X0*%
%ADD12RoundRect,0.082000X0.718000X-0.328000X0.718000X0.328000X-0.718000X0.328000X-0.718000X-0.328000X0*%
%ADD13RoundRect,0.082000X-0.718000X0.328000X-0.718000X-0.328000X0.718000X-0.328000X0.718000X0.328000X0*%
%ADD14R,1.200000X0.900000*%
%ADD15RoundRect,0.250000X-0.350000X-0.450000X0.350000X-0.450000X0.350000X0.450000X-0.350000X0.450000X0*%
%ADD16RoundRect,0.250000X0.475000X-0.337500X0.475000X0.337500X-0.475000X0.337500X-0.475000X-0.337500X0*%
%ADD17RoundRect,0.250000X0.337500X0.475000X-0.337500X0.475000X-0.337500X-0.475000X0.337500X-0.475000X0*%
%ADD18RoundRect,0.250000X-0.450000X0.350000X-0.450000X-0.350000X0.450000X-0.350000X0.450000X0.350000X0*%
%ADD19R,0.700000X1.000000*%
%ADD20R,0.700000X0.600000*%
%ADD21RoundRect,0.250000X0.350000X0.450000X-0.350000X0.450000X-0.350000X-0.450000X0.350000X-0.450000X0*%
%ADD22R,0.900000X1.200000*%
%ADD23R,0.550000X1.500000*%
%ADD24R,1.500000X0.550000*%
%ADD25R,0.600000X2.450000*%
%ADD26R,0.300000X2.450000*%
%ADD27RoundRect,0.250000X-0.337500X-0.475000X0.337500X-0.475000X0.337500X0.475000X-0.337500X0.475000X0*%
%ADD28R,1.800000X2.100000*%
G04 APERTURE END LIST*
D10*
%TO.C,SW1*%
X231800000Y-156700000D03*
X225500000Y-156700000D03*
X225500000Y-160500000D03*
X231800000Y-160500000D03*
%TD*%
D11*
%TO.C,C30*%
X257150000Y-105875000D03*
X257150000Y-103800000D03*
%TD*%
D12*
%TO.C,D56*%
X288350000Y-143942500D03*
X288350000Y-142442500D03*
X283150000Y-142442500D03*
X283150000Y-143942500D03*
%TD*%
%TO.C,D36*%
X164491000Y-124892500D03*
X164491000Y-123392500D03*
X159291000Y-123392500D03*
X159291000Y-124892500D03*
%TD*%
%TO.C,D20*%
X140712500Y-105842500D03*
X140712500Y-104342500D03*
X135512500Y-104342500D03*
X135512500Y-105842500D03*
%TD*%
%TO.C,D42*%
X278825000Y-124892500D03*
X278825000Y-123392500D03*
X273625000Y-123392500D03*
X273625000Y-124892500D03*
%TD*%
%TO.C,D24*%
X216912500Y-105842500D03*
X216912500Y-104342500D03*
X211712500Y-104342500D03*
X211712500Y-105842500D03*
%TD*%
%TO.C,D33*%
X107375000Y-124892500D03*
X107375000Y-123392500D03*
X102175000Y-123392500D03*
X102175000Y-124892500D03*
%TD*%
%TO.C,D46*%
X88325000Y-143942500D03*
X88325000Y-142442500D03*
X83125000Y-142442500D03*
X83125000Y-143942500D03*
%TD*%
%TO.C,D68*%
X359787500Y-162992500D03*
X359787500Y-161492500D03*
X354587500Y-161492500D03*
X354587500Y-162992500D03*
%TD*%
%TO.C,D43*%
X297875000Y-124892500D03*
X297875000Y-123392500D03*
X292675000Y-123392500D03*
X292675000Y-124892500D03*
%TD*%
%TO.C,D55*%
X269327305Y-143942500D03*
X269327305Y-142442500D03*
X264127305Y-142442500D03*
X264127305Y-143942500D03*
%TD*%
%TO.C,D37*%
X183575000Y-124892500D03*
X183575000Y-123392500D03*
X178375000Y-123392500D03*
X178375000Y-124892500D03*
%TD*%
%TO.C,D58*%
X340737500Y-143942500D03*
X340737500Y-142442500D03*
X335537500Y-142442500D03*
X335537500Y-143942500D03*
%TD*%
%TO.C,D25*%
X235977250Y-105842500D03*
X235977250Y-104342500D03*
X230777250Y-104342500D03*
X230777250Y-105842500D03*
%TD*%
%TO.C,D61*%
X100246000Y-162992500D03*
X100246000Y-161492500D03*
X95046000Y-161492500D03*
X95046000Y-162992500D03*
%TD*%
%TO.C,D5*%
X131202250Y-86792500D03*
X131202250Y-85292500D03*
X126002250Y-85292500D03*
X126002250Y-86792500D03*
%TD*%
%TO.C,D34*%
X126391000Y-124892500D03*
X126391000Y-123392500D03*
X121191000Y-123392500D03*
X121191000Y-124892500D03*
%TD*%
%TO.C,D31*%
X359787500Y-105842500D03*
X359787500Y-104342500D03*
X354587500Y-104342500D03*
X354587500Y-105842500D03*
%TD*%
%TO.C,D10*%
X226437500Y-86792500D03*
X226437500Y-85292500D03*
X221237500Y-85292500D03*
X221237500Y-86792500D03*
%TD*%
%TO.C,D44*%
X328797250Y-124892500D03*
X328797250Y-123392500D03*
X323597250Y-123392500D03*
X323597250Y-124892500D03*
%TD*%
%TO.C,D19*%
X121677250Y-105842500D03*
X121677250Y-104342500D03*
X116477250Y-104342500D03*
X116477250Y-105842500D03*
%TD*%
%TO.C,D48*%
X135964750Y-143942500D03*
X135964750Y-142442500D03*
X130764750Y-142442500D03*
X130764750Y-143942500D03*
%TD*%
%TO.C,D47*%
X116914750Y-143942500D03*
X116914750Y-142442500D03*
X111714750Y-142442500D03*
X111714750Y-143942500D03*
%TD*%
%TO.C,D66*%
X321687500Y-162992500D03*
X321687500Y-161492500D03*
X316487500Y-161492500D03*
X316487500Y-162992500D03*
%TD*%
%TO.C,D41*%
X259775000Y-124892500D03*
X259775000Y-123392500D03*
X254575000Y-123392500D03*
X254575000Y-124892500D03*
%TD*%
D13*
%TO.C,D2*%
X68837500Y-75132500D03*
X68837500Y-76632500D03*
X74037500Y-76632500D03*
X74037500Y-75132500D03*
%TD*%
D12*
%TO.C,D53*%
X231200000Y-143942500D03*
X231200000Y-142442500D03*
X226000000Y-142442500D03*
X226000000Y-143942500D03*
%TD*%
%TO.C,D21*%
X159777250Y-105842500D03*
X159777250Y-104342500D03*
X154577250Y-104342500D03*
X154577250Y-105842500D03*
%TD*%
%TO.C,D63*%
X195496007Y-162992500D03*
X195496007Y-161492500D03*
X190296007Y-161492500D03*
X190296007Y-162992500D03*
%TD*%
%TO.C,D6*%
X150252250Y-86792500D03*
X150252250Y-85292500D03*
X145052250Y-85292500D03*
X145052250Y-86792500D03*
%TD*%
%TO.C,D18*%
X102627250Y-105842500D03*
X102627250Y-104342500D03*
X97427250Y-104342500D03*
X97427250Y-105842500D03*
%TD*%
%TO.C,D54*%
X250250000Y-143942500D03*
X250250000Y-142442500D03*
X245050000Y-142442500D03*
X245050000Y-143942500D03*
%TD*%
%TO.C,D32*%
X81403500Y-124892500D03*
X81403500Y-123392500D03*
X76203500Y-123392500D03*
X76203500Y-124892500D03*
%TD*%
%TO.C,D27*%
X274062500Y-105842500D03*
X274062500Y-104342500D03*
X268862500Y-104342500D03*
X268862500Y-105842500D03*
%TD*%
%TO.C,D12*%
X264552250Y-86792500D03*
X264552250Y-85292500D03*
X259352250Y-85292500D03*
X259352250Y-86792500D03*
%TD*%
%TO.C,D30*%
X335989750Y-105842500D03*
X335989750Y-104342500D03*
X330789750Y-104342500D03*
X330789750Y-105842500D03*
%TD*%
%TO.C,D22*%
X178812500Y-105842500D03*
X178812500Y-104342500D03*
X173612500Y-104342500D03*
X173612500Y-105842500D03*
%TD*%
%TO.C,D50*%
X174050000Y-143942500D03*
X174050000Y-142442500D03*
X168850000Y-142442500D03*
X168850000Y-143942500D03*
%TD*%
%TO.C,D62*%
X124058500Y-162992500D03*
X124058500Y-161492500D03*
X118858500Y-161492500D03*
X118858500Y-162992500D03*
%TD*%
D13*
%TO.C,D3*%
X87902250Y-75132500D03*
X87902250Y-76632500D03*
X93102250Y-76632500D03*
X93102250Y-75132500D03*
%TD*%
D12*
%TO.C,D11*%
X245502250Y-86792500D03*
X245502250Y-85292500D03*
X240302250Y-85292500D03*
X240302250Y-86792500D03*
%TD*%
%TO.C,D26*%
X255012500Y-105842500D03*
X255012500Y-104342500D03*
X249812500Y-104342500D03*
X249812500Y-105842500D03*
%TD*%
%TO.C,D35*%
X145441000Y-124892500D03*
X145441000Y-123392500D03*
X140241000Y-123392500D03*
X140241000Y-124892500D03*
%TD*%
%TO.C,D14*%
X302652250Y-86792500D03*
X302652250Y-85292500D03*
X297452250Y-85292500D03*
X297452250Y-86792500D03*
%TD*%
%TO.C,D4*%
X112137500Y-86792500D03*
X112137500Y-85292500D03*
X106937500Y-85292500D03*
X106937500Y-86792500D03*
%TD*%
%TO.C,D57*%
X314363555Y-143942500D03*
X314363555Y-142442500D03*
X309163555Y-142442500D03*
X309163555Y-143942500D03*
%TD*%
%TO.C,D28*%
X293112500Y-105842500D03*
X293112500Y-104342500D03*
X287912500Y-104342500D03*
X287912500Y-105842500D03*
%TD*%
%TO.C,D59*%
X359787500Y-143942500D03*
X359787500Y-142442500D03*
X354587500Y-142442500D03*
X354587500Y-143942500D03*
%TD*%
%TO.C,D38*%
X202625000Y-124892500D03*
X202625000Y-123392500D03*
X197425000Y-123392500D03*
X197425000Y-124892500D03*
%TD*%
%TO.C,D67*%
X340737500Y-162992500D03*
X340737500Y-161492500D03*
X335537500Y-161492500D03*
X335537500Y-162992500D03*
%TD*%
%TO.C,D15*%
X331212500Y-86792500D03*
X331212500Y-85292500D03*
X326012500Y-85292500D03*
X326012500Y-86792500D03*
%TD*%
%TO.C,D64*%
X266918750Y-162992500D03*
X266918750Y-161492500D03*
X261718750Y-161492500D03*
X261718750Y-162992500D03*
%TD*%
%TO.C,D9*%
X207402250Y-86792500D03*
X207402250Y-85292500D03*
X202202250Y-85292500D03*
X202202250Y-86792500D03*
%TD*%
%TO.C,D29*%
X312162500Y-105842500D03*
X312162500Y-104342500D03*
X306962500Y-104342500D03*
X306962500Y-105842500D03*
%TD*%
%TO.C,D23*%
X197862500Y-105842500D03*
X197862500Y-104342500D03*
X192662500Y-104342500D03*
X192662500Y-105842500D03*
%TD*%
%TO.C,D52*%
X212223805Y-143942500D03*
X212223805Y-142442500D03*
X207023805Y-142442500D03*
X207023805Y-143942500D03*
%TD*%
%TO.C,D8*%
X188352250Y-86792500D03*
X188352250Y-85292500D03*
X183152250Y-85292500D03*
X183152250Y-86792500D03*
%TD*%
%TO.C,D49*%
X155000000Y-143942500D03*
X155000000Y-142442500D03*
X149800000Y-142442500D03*
X149800000Y-143942500D03*
%TD*%
%TO.C,D51*%
X193127305Y-143942500D03*
X193127305Y-142442500D03*
X187927305Y-142442500D03*
X187927305Y-143942500D03*
%TD*%
%TO.C,D65*%
X290746000Y-162992500D03*
X290746000Y-161492500D03*
X285546000Y-161492500D03*
X285546000Y-162992500D03*
%TD*%
%TO.C,D60*%
X76493250Y-162992500D03*
X76493250Y-161492500D03*
X71293250Y-161492500D03*
X71293250Y-162992500D03*
%TD*%
%TO.C,D13*%
X283617000Y-86792500D03*
X283617000Y-85292500D03*
X278417000Y-85292500D03*
X278417000Y-86792500D03*
%TD*%
%TO.C,D39*%
X221675000Y-124892500D03*
X221675000Y-123392500D03*
X216475000Y-123392500D03*
X216475000Y-124892500D03*
%TD*%
%TO.C,D7*%
X169334000Y-86792500D03*
X169334000Y-85292500D03*
X164134000Y-85292500D03*
X164134000Y-86792500D03*
%TD*%
%TO.C,D40*%
X240725000Y-124892500D03*
X240725000Y-123392500D03*
X235525000Y-123392500D03*
X235525000Y-124892500D03*
%TD*%
%TO.C,D45*%
X359787500Y-124892500D03*
X359787500Y-123392500D03*
X354587500Y-123392500D03*
X354587500Y-124892500D03*
%TD*%
%TO.C,D17*%
X78814750Y-105842500D03*
X78814750Y-104342500D03*
X73614750Y-104342500D03*
X73614750Y-105842500D03*
%TD*%
D11*
%TO.C,C18*%
X138050000Y-141937500D03*
X138050000Y-144012500D03*
%TD*%
D14*
%TO.C,D128*%
X169828500Y-119856250D03*
X169828500Y-116556250D03*
%TD*%
D15*
%TO.C,R6*%
X155672996Y-162309750D03*
X157672996Y-162309750D03*
%TD*%
D11*
%TO.C,C43*%
X247660000Y-84910000D03*
X247660000Y-86985000D03*
%TD*%
D14*
%TO.C,D100*%
X193689750Y-81818750D03*
X193689750Y-78518750D03*
%TD*%
D16*
%TO.C,C15*%
X85850000Y-76925000D03*
X85850000Y-74850000D03*
%TD*%
D14*
%TO.C,D138*%
X91150000Y-141550000D03*
X91150000Y-138250000D03*
%TD*%
D11*
%TO.C,C62*%
X102650000Y-160750000D03*
X102650000Y-162825000D03*
%TD*%
D14*
%TO.C,D140*%
X142153555Y-138887500D03*
X142153555Y-135587500D03*
%TD*%
D11*
%TO.C,C42*%
X204800000Y-123050000D03*
X204800000Y-125125000D03*
%TD*%
D14*
%TO.C,D117*%
X241314750Y-100868750D03*
X241314750Y-97568750D03*
%TD*%
D11*
%TO.C,C60*%
X119050000Y-142000000D03*
X119050000Y-144075000D03*
%TD*%
%TO.C,C35*%
X316550000Y-142000000D03*
X316550000Y-144075000D03*
%TD*%
%TO.C,C33*%
X343050000Y-142250000D03*
X343050000Y-144325000D03*
%TD*%
D15*
%TO.C,R4*%
X77278500Y-87312500D03*
X79278500Y-87312500D03*
%TD*%
D11*
%TO.C,C59*%
X276400000Y-103900000D03*
X276400000Y-105975000D03*
%TD*%
D14*
%TO.C,D121*%
X317514750Y-100868750D03*
X317514750Y-97568750D03*
%TD*%
%TO.C,D134*%
X284128500Y-119918750D03*
X284128500Y-116618750D03*
%TD*%
D11*
%TO.C,C44*%
X142950000Y-104000000D03*
X142950000Y-106075000D03*
%TD*%
D14*
%TO.C,D124*%
X86741000Y-119981250D03*
X86741000Y-116681250D03*
%TD*%
D11*
%TO.C,C14*%
X324100000Y-160750000D03*
X324100000Y-162825000D03*
%TD*%
D14*
%TO.C,D125*%
X113521000Y-119918750D03*
X113521000Y-116618750D03*
%TD*%
%TO.C,D150*%
X346102305Y-139031250D03*
X346102305Y-135731250D03*
%TD*%
D17*
%TO.C,C8*%
X158573167Y-146842664D03*
X156498167Y-146842664D03*
%TD*%
D11*
%TO.C,C22*%
X361900000Y-104062500D03*
X361900000Y-106137500D03*
%TD*%
%TO.C,C10*%
X104850000Y-103975000D03*
X104850000Y-106050000D03*
%TD*%
%TO.C,C65*%
X285710000Y-84882500D03*
X285710000Y-86957500D03*
%TD*%
D14*
%TO.C,D97*%
X136317500Y-81881250D03*
X136317500Y-78581250D03*
%TD*%
%TO.C,D151*%
X365152305Y-138968750D03*
X365152305Y-135668750D03*
%TD*%
%TO.C,D112*%
X146064750Y-101312500D03*
X146064750Y-98012500D03*
%TD*%
%TO.C,D131*%
X226978500Y-119918750D03*
X226978500Y-116618750D03*
%TD*%
D11*
%TO.C,C66*%
X83610000Y-122850000D03*
X83610000Y-124925000D03*
%TD*%
%TO.C,C11*%
X362000000Y-123050000D03*
X362000000Y-125125000D03*
%TD*%
%TO.C,C64*%
X181150000Y-103712500D03*
X181150000Y-105787500D03*
%TD*%
D16*
%TO.C,C20*%
X65896000Y-77237500D03*
X65896000Y-75162500D03*
%TD*%
D14*
%TO.C,D149*%
X320113805Y-139031250D03*
X320113805Y-135731250D03*
%TD*%
%TO.C,D118*%
X260364750Y-100868750D03*
X260364750Y-97568750D03*
%TD*%
D11*
%TO.C,C32*%
X343000000Y-160612500D03*
X343000000Y-162687500D03*
%TD*%
D14*
%TO.C,D155*%
X200833500Y-158081250D03*
X200833500Y-154781250D03*
%TD*%
%TO.C,D107*%
X309880625Y-82200000D03*
X309880625Y-78900000D03*
%TD*%
%TO.C,D110*%
X108218750Y-100868750D03*
X108218750Y-97568750D03*
%TD*%
D11*
%TO.C,C28*%
X280900000Y-122950000D03*
X280900000Y-125025000D03*
%TD*%
%TO.C,C52*%
X300050000Y-123062500D03*
X300050000Y-125137500D03*
%TD*%
%TO.C,C16*%
X223950000Y-123062500D03*
X223950000Y-125137500D03*
%TD*%
%TO.C,C34*%
X123830000Y-104142500D03*
X123830000Y-106217500D03*
%TD*%
D18*
%TO.C,R2*%
X90450000Y-102200000D03*
X90450000Y-104200000D03*
%TD*%
D14*
%TO.C,D106*%
X289243125Y-82200000D03*
X289243125Y-78900000D03*
%TD*%
D11*
%TO.C,C9*%
X126450000Y-160762500D03*
X126450000Y-162837500D03*
%TD*%
%TO.C,C54*%
X81050000Y-104000000D03*
X81050000Y-106075000D03*
%TD*%
D14*
%TO.C,D104*%
X251143125Y-82262500D03*
X251143125Y-78962500D03*
%TD*%
D19*
%TO.C,D1*%
X90273167Y-98391464D03*
D20*
X90273167Y-100091464D03*
X88273167Y-100091464D03*
X88273167Y-98191464D03*
%TD*%
D11*
%TO.C,C6*%
X170500000Y-150502500D03*
X170500000Y-152577500D03*
%TD*%
D14*
%TO.C,D148*%
X294555055Y-138968750D03*
X294555055Y-135668750D03*
%TD*%
D11*
%TO.C,C41*%
X78650000Y-160800000D03*
X78650000Y-162875000D03*
%TD*%
D21*
%TO.C,R3*%
X86891917Y-83343750D03*
X84891917Y-83343750D03*
%TD*%
D14*
%TO.C,D130*%
X207928500Y-119918750D03*
X207928500Y-116618750D03*
%TD*%
%TO.C,D98*%
X155589750Y-81818750D03*
X155589750Y-78518750D03*
%TD*%
D22*
%TO.C,D94*%
X76277250Y-89693750D03*
X72977250Y-89693750D03*
%TD*%
D17*
%TO.C,C2*%
X175710667Y-150216464D03*
X173635667Y-150216464D03*
%TD*%
D16*
%TO.C,C23*%
X234950000Y-159125000D03*
X234950000Y-157050000D03*
%TD*%
D23*
%TO.C,U1*%
X158392750Y-148933500D03*
X159192750Y-148933500D03*
X159992750Y-148933500D03*
X160792750Y-148933500D03*
X161592750Y-148933500D03*
X162392750Y-148933500D03*
X163192750Y-148933500D03*
X163992750Y-148933500D03*
X164792750Y-148933500D03*
X165592750Y-148933500D03*
X166392750Y-148933500D03*
D24*
X168092750Y-150633500D03*
X168092750Y-151433500D03*
X168092750Y-152233500D03*
X168092750Y-153033500D03*
X168092750Y-153833500D03*
X168092750Y-154633500D03*
X168092750Y-155433500D03*
X168092750Y-156233500D03*
X168092750Y-157033500D03*
X168092750Y-157833500D03*
X168092750Y-158633500D03*
D23*
X166392750Y-160333500D03*
X165592750Y-160333500D03*
X164792750Y-160333500D03*
X163992750Y-160333500D03*
X163192750Y-160333500D03*
X162392750Y-160333500D03*
X161592750Y-160333500D03*
X160792750Y-160333500D03*
X159992750Y-160333500D03*
X159192750Y-160333500D03*
X158392750Y-160333500D03*
D24*
X156692750Y-158633500D03*
X156692750Y-157833500D03*
X156692750Y-157033500D03*
X156692750Y-156233500D03*
X156692750Y-155433500D03*
X156692750Y-154633500D03*
X156692750Y-153833500D03*
X156692750Y-153033500D03*
X156692750Y-152233500D03*
X156692750Y-151433500D03*
X156692750Y-150633500D03*
%TD*%
D11*
%TO.C,C61*%
X271600000Y-142100000D03*
X271600000Y-144175000D03*
%TD*%
%TO.C,C17*%
X91000000Y-143250000D03*
X91000000Y-145325000D03*
%TD*%
D14*
%TO.C,D119*%
X279414750Y-100868750D03*
X279414750Y-97568750D03*
%TD*%
D11*
%TO.C,C48*%
X157100000Y-141942500D03*
X157100000Y-144017500D03*
%TD*%
D14*
%TO.C,D147*%
X274664805Y-138968750D03*
X274664805Y-135668750D03*
%TD*%
%TO.C,D129*%
X188978500Y-119981250D03*
X188978500Y-116681250D03*
%TD*%
%TO.C,D156*%
X272271000Y-158018750D03*
X272271000Y-154718750D03*
%TD*%
D11*
%TO.C,C53*%
X362100000Y-160750000D03*
X362100000Y-162825000D03*
%TD*%
D14*
%TO.C,D116*%
X222264750Y-100868750D03*
X222264750Y-97568750D03*
%TD*%
D25*
%TO.C,USB1*%
X83462330Y-72865635D03*
X82687330Y-72865635D03*
D26*
X81987330Y-72865635D03*
X81487330Y-72865635D03*
X80987330Y-72865635D03*
X80487330Y-72865635D03*
X79987330Y-72865635D03*
X79487330Y-72865635D03*
X78987330Y-72865635D03*
X78487330Y-72865635D03*
D25*
X77787330Y-72865635D03*
X77012330Y-72865635D03*
%TD*%
D14*
%TO.C,D127*%
X150778500Y-119918750D03*
X150778500Y-116618750D03*
%TD*%
%TO.C,D102*%
X231789750Y-81818750D03*
X231789750Y-78518750D03*
%TD*%
%TO.C,D146*%
X255614805Y-138968750D03*
X255614805Y-135668750D03*
%TD*%
%TO.C,D135*%
X303178500Y-119918750D03*
X303178500Y-116618750D03*
%TD*%
D11*
%TO.C,C55*%
X190530000Y-85050000D03*
X190530000Y-87125000D03*
%TD*%
D14*
%TO.C,D120*%
X298464750Y-100868750D03*
X298464750Y-97568750D03*
%TD*%
D11*
%TO.C,C45*%
X171510000Y-84650000D03*
X171510000Y-86725000D03*
%TD*%
D14*
%TO.C,D141*%
X160364805Y-139031250D03*
X160364805Y-135731250D03*
%TD*%
D11*
%TO.C,C5*%
X153704246Y-158891000D03*
X153704246Y-160966000D03*
%TD*%
%TO.C,C51*%
X290500000Y-142150000D03*
X290500000Y-144225000D03*
%TD*%
D14*
%TO.C,D123*%
X365139750Y-100868750D03*
X365139750Y-97568750D03*
%TD*%
D11*
%TO.C,C7*%
X154563867Y-150247714D03*
X154563867Y-152322714D03*
%TD*%
D14*
%TO.C,D136*%
X318410000Y-125870000D03*
X318410000Y-122570000D03*
%TD*%
%TO.C,D160*%
X365125000Y-158240000D03*
X365125000Y-154940000D03*
%TD*%
%TO.C,D137*%
X365137500Y-119918750D03*
X365137500Y-116618750D03*
%TD*%
D11*
%TO.C,C47*%
X292850000Y-160900000D03*
X292850000Y-162975000D03*
%TD*%
D22*
%TO.C,D95*%
X96183500Y-89693750D03*
X92883500Y-89693750D03*
%TD*%
D11*
%TO.C,C40*%
X333750000Y-84760000D03*
X333750000Y-86835000D03*
%TD*%
%TO.C,C75*%
X338250000Y-103925000D03*
X338250000Y-106000000D03*
%TD*%
%TO.C,C72*%
X109600000Y-123050000D03*
X109600000Y-125125000D03*
%TD*%
D14*
%TO.C,D144*%
X218355055Y-138968750D03*
X218355055Y-135668750D03*
%TD*%
%TO.C,D133*%
X265078500Y-119918750D03*
X265078500Y-116618750D03*
%TD*%
D11*
%TO.C,C67*%
X233300000Y-142050000D03*
X233300000Y-144125000D03*
%TD*%
%TO.C,C26*%
X176400000Y-142000000D03*
X176400000Y-144075000D03*
%TD*%
%TO.C,C19*%
X261950000Y-122950000D03*
X261950000Y-125025000D03*
%TD*%
%TO.C,C24*%
X152540000Y-84970000D03*
X152540000Y-87045000D03*
%TD*%
%TO.C,C25*%
X197600000Y-160712500D03*
X197600000Y-162787500D03*
%TD*%
%TO.C,C21*%
X162000000Y-104050000D03*
X162000000Y-106125000D03*
%TD*%
D14*
%TO.C,D152*%
X81993250Y-158018750D03*
X81993250Y-154718750D03*
%TD*%
D11*
%TO.C,C63*%
X209680000Y-84950000D03*
X209680000Y-87025000D03*
%TD*%
%TO.C,C56*%
X295400000Y-103750000D03*
X295400000Y-105825000D03*
%TD*%
D14*
%TO.C,D157*%
X295876000Y-158081250D03*
X295876000Y-154781250D03*
%TD*%
%TO.C,D158*%
X327818750Y-158018750D03*
X327818750Y-154718750D03*
%TD*%
%TO.C,D145*%
X236564805Y-138968750D03*
X236564805Y-135668750D03*
%TD*%
%TO.C,D111*%
X127014750Y-100868750D03*
X127014750Y-97568750D03*
%TD*%
D27*
%TO.C,C3*%
X162816417Y-146563264D03*
X164891417Y-146563264D03*
%TD*%
D11*
%TO.C,C74*%
X238200000Y-104050000D03*
X238200000Y-106125000D03*
%TD*%
%TO.C,C58*%
X228630000Y-84790000D03*
X228630000Y-86865000D03*
%TD*%
%TO.C,C69*%
X242900000Y-123050000D03*
X242900000Y-125125000D03*
%TD*%
D14*
%TO.C,D122*%
X341327250Y-100868750D03*
X341327250Y-97568750D03*
%TD*%
D11*
%TO.C,C57*%
X166750000Y-122975000D03*
X166750000Y-125050000D03*
%TD*%
%TO.C,C46*%
X214450000Y-142050000D03*
X214450000Y-144125000D03*
%TD*%
D14*
%TO.C,D126*%
X131728500Y-119918750D03*
X131728500Y-116618750D03*
%TD*%
%TO.C,D153*%
X105583500Y-158018750D03*
X105583500Y-154718750D03*
%TD*%
%TO.C,D142*%
X180208555Y-138968750D03*
X180208555Y-135668750D03*
%TD*%
%TO.C,D96*%
X117793125Y-81818750D03*
X117793125Y-78518750D03*
%TD*%
D18*
%TO.C,R1*%
X88000000Y-102150000D03*
X88000000Y-104150000D03*
%TD*%
D11*
%TO.C,C50*%
X304900000Y-85040000D03*
X304900000Y-87115000D03*
%TD*%
D14*
%TO.C,D99*%
X174639750Y-81818750D03*
X174639750Y-78518750D03*
%TD*%
D11*
%TO.C,C13*%
X200150000Y-103962500D03*
X200150000Y-106037500D03*
%TD*%
D14*
%TO.C,D159*%
X346868750Y-158018750D03*
X346868750Y-154718750D03*
%TD*%
%TO.C,D143*%
X199258555Y-138968750D03*
X199258555Y-135668750D03*
%TD*%
D11*
%TO.C,C39*%
X252550000Y-141975000D03*
X252550000Y-144050000D03*
%TD*%
D27*
%TO.C,C4*%
X165250917Y-162320000D03*
X167325917Y-162320000D03*
%TD*%
D11*
%TO.C,C37*%
X133370000Y-85040000D03*
X133370000Y-87115000D03*
%TD*%
D14*
%TO.C,D114*%
X184164750Y-100868750D03*
X184164750Y-97568750D03*
%TD*%
D11*
%TO.C,C31*%
X269550000Y-160600000D03*
X269550000Y-162675000D03*
%TD*%
%TO.C,C12*%
X331000000Y-123162500D03*
X331000000Y-125237500D03*
%TD*%
D18*
%TO.C,R5*%
X204008500Y-158337500D03*
X204008500Y-160337500D03*
%TD*%
D27*
%TO.C,C1*%
X173494667Y-157899964D03*
X175569667Y-157899964D03*
%TD*%
D14*
%TO.C,D139*%
X122360680Y-138968750D03*
X122360680Y-135668750D03*
%TD*%
%TO.C,D103*%
X347980000Y-79755000D03*
X347980000Y-76455000D03*
%TD*%
%TO.C,D101*%
X212739750Y-81818750D03*
X212739750Y-78518750D03*
%TD*%
D28*
%TO.C,Y1*%
X173269667Y-155497714D03*
X173269667Y-152597714D03*
X175569667Y-152597714D03*
X175569667Y-155497714D03*
%TD*%
D14*
%TO.C,D105*%
X270193125Y-81818750D03*
X270193125Y-78518750D03*
%TD*%
D11*
%TO.C,C70*%
X361950000Y-142162500D03*
X361950000Y-144237500D03*
%TD*%
D14*
%TO.C,D132*%
X246028500Y-119981250D03*
X246028500Y-116681250D03*
%TD*%
%TO.C,D115*%
X203214750Y-100868750D03*
X203214750Y-97568750D03*
%TD*%
%TO.C,D113*%
X165114750Y-100868750D03*
X165114750Y-97568750D03*
%TD*%
D11*
%TO.C,C71*%
X147700000Y-122875000D03*
X147700000Y-124950000D03*
%TD*%
%TO.C,C38*%
X314350000Y-103950000D03*
X314350000Y-106025000D03*
%TD*%
D14*
%TO.C,D108*%
X322292000Y-87312500D03*
X322292000Y-84012500D03*
%TD*%
D11*
%TO.C,C68*%
X128450000Y-122612500D03*
X128450000Y-124687500D03*
%TD*%
D14*
%TO.C,D109*%
X84152250Y-100868750D03*
X84152250Y-97568750D03*
%TD*%
D11*
%TO.C,C73*%
X195350000Y-142012500D03*
X195350000Y-144087500D03*
%TD*%
%TO.C,C49*%
X114200000Y-84902500D03*
X114200000Y-86977500D03*
%TD*%
D14*
%TO.C,D154*%
X129396000Y-157956250D03*
X129396000Y-154656250D03*
%TD*%
D11*
%TO.C,C36*%
X219050000Y-104000000D03*
X219050000Y-106075000D03*
%TD*%
%TO.C,C29*%
X266630000Y-84642500D03*
X266630000Y-86717500D03*
%TD*%
%TO.C,C27*%
X185650000Y-122975000D03*
X185650000Y-125050000D03*
%TD*%
M02*
