%TF.GenerationSoftware,KiCad,Pcbnew,(6.0.8)*%
%TF.CreationDate,2023-04-08T23:31:14-04:00*%
%TF.ProjectId,keeb,6b656562-2e6b-4696-9361-645f70636258,rev?*%
%TF.SameCoordinates,Original*%
%TF.FileFunction,Drillmap*%
%TF.FilePolarity,Positive*%
%FSLAX45Y45*%
G04 Gerber Fmt 4.5, Leading zero omitted, Abs format (unit mm)*
G04 Created by KiCad (PCBNEW (6.0.8)) date 2023-04-08 23:31:14*
%MOMM*%
%LPD*%
G01*
G04 APERTURE LIST*
%ADD10C,0.250000*%
%ADD11C,0.200000*%
%ADD12C,0.040000*%
%ADD13C,0.060000*%
%ADD14C,0.100000*%
%ADD15C,0.260000*%
G04 APERTURE END LIST*
D10*
X8543605Y-6665056D02*
X8538764Y-6637624D01*
X8525386Y-6614306D01*
X8505192Y-6596823D01*
X8479900Y-6586893D01*
X8463821Y-6585273D01*
X7586218Y-6585273D02*
X7558785Y-6590114D01*
X7535468Y-6603491D01*
X7517984Y-6623685D01*
X7508055Y-6648977D01*
X7506434Y-6665056D01*
X6190028Y-7383097D02*
X6190028Y-16159140D01*
X20790174Y-7143750D02*
X36427486Y-7143750D01*
X6429375Y-7143750D02*
X7346871Y-7143750D01*
X36666830Y-7383097D02*
X36666830Y-16159140D01*
X7586218Y-6585273D02*
X8463821Y-6585273D01*
X8543605Y-6984185D02*
X8546847Y-7016343D01*
X8556144Y-7046295D01*
X8570856Y-7073399D01*
X8590339Y-7097014D01*
X8613954Y-7116499D01*
X8641058Y-7131210D01*
X8671010Y-7140508D01*
X8703168Y-7143750D01*
X8703168Y-7143750D02*
X20790174Y-7143750D01*
X6429375Y-7143750D02*
X6392925Y-7146508D01*
X6358201Y-7154510D01*
X6325609Y-7167352D01*
X6295554Y-7184626D01*
X6268444Y-7205927D01*
X6244684Y-7230849D01*
X6224679Y-7258986D01*
X6208837Y-7289931D01*
X6197564Y-7323280D01*
X6191264Y-7358625D01*
X6190028Y-7383097D01*
X6429375Y-16398486D02*
X36427486Y-16398486D01*
X36427486Y-16398486D02*
X36463935Y-16395729D01*
X36498658Y-16387726D01*
X36531250Y-16374884D01*
X36561304Y-16357610D01*
X36588414Y-16336309D01*
X36612174Y-16311387D01*
X36632179Y-16283250D01*
X36648021Y-16252305D01*
X36659295Y-16218957D01*
X36665595Y-16183612D01*
X36666830Y-16159140D01*
X7346871Y-7143750D02*
X7379029Y-7140508D01*
X7408981Y-7131210D01*
X7436085Y-7116499D01*
X7459700Y-7097014D01*
X7479183Y-7073399D01*
X7493895Y-7046295D01*
X7503192Y-7016343D01*
X7506434Y-6984185D01*
X6190028Y-16159140D02*
X6192786Y-16195590D01*
X6200789Y-16230315D01*
X6213631Y-16262907D01*
X6230905Y-16292961D01*
X6252206Y-16320072D01*
X6277129Y-16343832D01*
X6305265Y-16363836D01*
X6336211Y-16379677D01*
X6369559Y-16390951D01*
X6404903Y-16397251D01*
X6429375Y-16398486D01*
X7506434Y-6665056D02*
X7506434Y-6984185D01*
X8543605Y-6665056D02*
X8543605Y-6984185D01*
X36666830Y-7383094D02*
X36664073Y-7346644D01*
X36656070Y-7311920D01*
X36643228Y-7279328D01*
X36625953Y-7249274D01*
X36604652Y-7222164D01*
X36579729Y-7198404D01*
X36551593Y-7178400D01*
X36520648Y-7162559D01*
X36487301Y-7151285D01*
X36451957Y-7144986D01*
X36427486Y-7143750D01*
D11*
D12*
X6392500Y-7402500D02*
X6432500Y-7442500D01*
X6432500Y-7402500D02*
X6392500Y-7442500D01*
X6515000Y-10988000D02*
X6555000Y-11028000D01*
X6555000Y-10988000D02*
X6515000Y-11028000D01*
X6543000Y-16179000D02*
X6583000Y-16219000D01*
X6583000Y-16179000D02*
X6543000Y-16219000D01*
X6671200Y-12743500D02*
X6711200Y-12783500D01*
X6711200Y-12743500D02*
X6671200Y-12783500D01*
X6671200Y-15275000D02*
X6711200Y-15315000D01*
X6711200Y-15275000D02*
X6671200Y-15315000D01*
X6838062Y-11527500D02*
X6878062Y-11567500D01*
X6878062Y-11527500D02*
X6838062Y-11567500D01*
X6909325Y-14957500D02*
X6949325Y-14997500D01*
X6949325Y-14957500D02*
X6909325Y-14997500D01*
X6917437Y-9384375D02*
X6957437Y-9424375D01*
X6957437Y-9384375D02*
X6917437Y-9424375D01*
X6942000Y-12603000D02*
X6982000Y-12643000D01*
X6982000Y-12603000D02*
X6942000Y-12643000D01*
X6966475Y-10146875D02*
X7006475Y-10186875D01*
X7006475Y-10146875D02*
X6966475Y-10186875D01*
X7014000Y-12470000D02*
X7054000Y-12510000D01*
X7054000Y-12470000D02*
X7014000Y-12510000D01*
X7036000Y-11087000D02*
X7076000Y-11127000D01*
X7076000Y-11087000D02*
X7036000Y-11127000D01*
X7328000Y-13289000D02*
X7368000Y-13329000D01*
X7368000Y-13289000D02*
X7328000Y-13329000D01*
X7342000Y-14280000D02*
X7382000Y-14320000D01*
X7382000Y-14280000D02*
X7342000Y-14320000D01*
X7442725Y-14878125D02*
X7482725Y-14918125D01*
X7482725Y-14878125D02*
X7442725Y-14918125D01*
X7451000Y-12605000D02*
X7491000Y-12645000D01*
X7491000Y-12605000D02*
X7451000Y-12645000D01*
X7587500Y-7577500D02*
X7627500Y-7617500D01*
X7627500Y-7577500D02*
X7587500Y-7617500D01*
X7601475Y-12655625D02*
X7641475Y-12695625D01*
X7641475Y-12655625D02*
X7601475Y-12695625D01*
X7601475Y-13370000D02*
X7641475Y-13410000D01*
X7641475Y-13370000D02*
X7601475Y-13410000D01*
X7716692Y-8941646D02*
X7756692Y-8981646D01*
X7756692Y-8941646D02*
X7716692Y-8981646D01*
X7752500Y-7507500D02*
X7792500Y-7547500D01*
X7792500Y-7507500D02*
X7752500Y-7547500D01*
X7785000Y-7785000D02*
X7825000Y-7825000D01*
X7825000Y-7785000D02*
X7785000Y-7825000D01*
X7796067Y-8068521D02*
X7836067Y-8108521D01*
X7836067Y-8068521D02*
X7796067Y-8108521D01*
X7947513Y-8553212D02*
X7987513Y-8593212D01*
X7987513Y-8553212D02*
X7947513Y-8593212D01*
X7981000Y-6990400D02*
X8021000Y-7030400D01*
X8021000Y-6990400D02*
X7981000Y-7030400D01*
X8053000Y-16299000D02*
X8093000Y-16339000D01*
X8093000Y-16299000D02*
X8053000Y-16339000D01*
X8109000Y-10722000D02*
X8149000Y-10762000D01*
X8149000Y-10722000D02*
X8109000Y-10762000D01*
X8395000Y-10780550D02*
X8435000Y-10820550D01*
X8435000Y-10780550D02*
X8395000Y-10820550D01*
X8398000Y-10211000D02*
X8438000Y-10251000D01*
X8438000Y-10211000D02*
X8398000Y-10251000D01*
X8400000Y-7605000D02*
X8440000Y-7645000D01*
X8440000Y-7605000D02*
X8400000Y-7645000D01*
X8483000Y-12547000D02*
X8523000Y-12587000D01*
X8523000Y-12547000D02*
X8483000Y-12587000D01*
X8587500Y-12442500D02*
X8627500Y-12482500D01*
X8627500Y-12442500D02*
X8587500Y-12482500D01*
X8589817Y-8723750D02*
X8629817Y-8763750D01*
X8629817Y-8723750D02*
X8589817Y-8763750D01*
X8589817Y-12743500D02*
X8629817Y-12783500D01*
X8629817Y-12743500D02*
X8589817Y-12783500D01*
X8669192Y-9814771D02*
X8709192Y-9854771D01*
X8709192Y-9814771D02*
X8669192Y-9854771D01*
X8685000Y-7365000D02*
X8725000Y-7405000D01*
X8725000Y-7365000D02*
X8685000Y-7405000D01*
X8748567Y-8875575D02*
X8788567Y-8915575D01*
X8788567Y-8875575D02*
X8748567Y-8915575D01*
X8882105Y-10578463D02*
X8922105Y-10618463D01*
X8922105Y-10578463D02*
X8882105Y-10618463D01*
X8986692Y-9417896D02*
X9026692Y-9457896D01*
X9026692Y-9417896D02*
X8986692Y-9457896D01*
X8986692Y-10584125D02*
X9026692Y-10624125D01*
X9026692Y-10584125D02*
X8986692Y-10624125D01*
X9030225Y-15226875D02*
X9070225Y-15266875D01*
X9070225Y-15226875D02*
X9030225Y-15266875D01*
X9097450Y-8828750D02*
X9137450Y-8868750D01*
X9137450Y-8828750D02*
X9097450Y-8868750D01*
X9097450Y-9543125D02*
X9137450Y-9583125D01*
X9137450Y-9543125D02*
X9097450Y-9583125D01*
X9224817Y-12751646D02*
X9264817Y-12791646D01*
X9264817Y-12751646D02*
X9224817Y-12791646D01*
X9224817Y-13386646D02*
X9264817Y-13426646D01*
X9264817Y-13386646D02*
X9224817Y-13426646D01*
X9230000Y-14590000D02*
X9270000Y-14630000D01*
X9270000Y-14590000D02*
X9230000Y-14630000D01*
X9237000Y-13861000D02*
X9277000Y-13901000D01*
X9277000Y-13861000D02*
X9237000Y-13901000D01*
X9238300Y-14851700D02*
X9278300Y-14891700D01*
X9278300Y-14851700D02*
X9238300Y-14891700D01*
X9268350Y-9956875D02*
X9308350Y-9996875D01*
X9308350Y-9956875D02*
X9268350Y-9996875D01*
X9427100Y-8607500D02*
X9467100Y-8647500D01*
X9467100Y-8607500D02*
X9427100Y-8647500D01*
X9462942Y-12655625D02*
X9502942Y-12695625D01*
X9502942Y-12655625D02*
X9462942Y-12695625D01*
X9465000Y-7485000D02*
X9505000Y-7525000D01*
X9505000Y-7485000D02*
X9465000Y-7525000D01*
X9542317Y-11561021D02*
X9582317Y-11601021D01*
X9582317Y-11561021D02*
X9542317Y-11601021D01*
X9612500Y-12460000D02*
X9652500Y-12500000D01*
X9652500Y-12460000D02*
X9612500Y-12500000D01*
X9614767Y-10925450D02*
X9654767Y-10965450D01*
X9654767Y-10925450D02*
X9614767Y-10965450D01*
X9715713Y-8961875D02*
X9755713Y-9001875D01*
X9755713Y-8961875D02*
X9715713Y-9001875D01*
X9715713Y-9438125D02*
X9755713Y-9478125D01*
X9755713Y-9438125D02*
X9715713Y-9478125D01*
X9791425Y-11981500D02*
X9831425Y-12021500D01*
X9831425Y-11981500D02*
X9791425Y-12021500D01*
X9798350Y-11465000D02*
X9838350Y-11505000D01*
X9838350Y-11465000D02*
X9798350Y-11505000D01*
X9807000Y-11150000D02*
X9847000Y-11190000D01*
X9847000Y-11150000D02*
X9807000Y-11190000D01*
X9891200Y-7320625D02*
X9931200Y-7360625D01*
X9931200Y-7320625D02*
X9891200Y-7360625D01*
X9891200Y-8114375D02*
X9931200Y-8154375D01*
X9931200Y-8114375D02*
X9891200Y-8154375D01*
X9955000Y-13822500D02*
X9995000Y-13862500D01*
X9995000Y-13822500D02*
X9955000Y-13862500D01*
X10007500Y-7875000D02*
X10047500Y-7915000D01*
X10047500Y-7875000D02*
X10007500Y-7915000D01*
X10062500Y-8697500D02*
X10102500Y-8737500D01*
X10102500Y-8697500D02*
X10062500Y-8737500D01*
X10203500Y-14394500D02*
X10243500Y-14434500D01*
X10243500Y-14394500D02*
X10203500Y-14434500D01*
X10209000Y-12645550D02*
X10249000Y-12685550D01*
X10249000Y-12645550D02*
X10209000Y-12685550D01*
X10220850Y-8051875D02*
X10260850Y-8091875D01*
X10260850Y-8051875D02*
X10220850Y-8091875D01*
X10220850Y-9242500D02*
X10260850Y-9282500D01*
X10260850Y-9242500D02*
X10220850Y-9282500D01*
X10460000Y-16292000D02*
X10500000Y-16332000D01*
X10500000Y-16292000D02*
X10460000Y-16332000D01*
X10533000Y-14696000D02*
X10573000Y-14736000D01*
X10573000Y-14696000D02*
X10533000Y-14736000D01*
X10557000Y-14422000D02*
X10597000Y-14462000D01*
X10597000Y-14422000D02*
X10557000Y-14462000D01*
X10611000Y-10869450D02*
X10651000Y-10909450D01*
X10651000Y-10869450D02*
X10611000Y-10909450D01*
X10625000Y-10542500D02*
X10665000Y-10582500D01*
X10665000Y-10542500D02*
X10625000Y-10582500D01*
X10644000Y-13723000D02*
X10684000Y-13763000D01*
X10684000Y-13723000D02*
X10644000Y-13763000D01*
X10654840Y-14442428D02*
X10694840Y-14482428D01*
X10694840Y-14442428D02*
X10654840Y-14482428D01*
X10660000Y-10640000D02*
X10700000Y-10680000D01*
X10700000Y-10640000D02*
X10660000Y-10680000D01*
X10677606Y-13053800D02*
X10717606Y-13093800D01*
X10717606Y-13053800D02*
X10677606Y-13093800D01*
X10677606Y-13353125D02*
X10717606Y-13393125D01*
X10717606Y-13353125D02*
X10677606Y-13393125D01*
X10680000Y-13862500D02*
X10720000Y-13902500D01*
X10720000Y-13862500D02*
X10680000Y-13902500D01*
X10749000Y-10704950D02*
X10789000Y-10744950D01*
X10789000Y-10704950D02*
X10749000Y-10744950D01*
X10750817Y-11130600D02*
X10790817Y-11170600D01*
X10790817Y-11130600D02*
X10750817Y-11170600D01*
X10776475Y-10178125D02*
X10816475Y-10218125D01*
X10816475Y-10178125D02*
X10776475Y-10218125D01*
X10838500Y-14712000D02*
X10878500Y-14752000D01*
X10878500Y-14712000D02*
X10838500Y-14752000D01*
X11093975Y-9242500D02*
X11133975Y-9282500D01*
X11133975Y-9242500D02*
X11093975Y-9282500D01*
X11093975Y-11046350D02*
X11133975Y-11086350D01*
X11133975Y-11046350D02*
X11093975Y-11086350D01*
X11105000Y-12475000D02*
X11145000Y-12515000D01*
X11145000Y-12475000D02*
X11105000Y-12515000D01*
X11203687Y-9543125D02*
X11243687Y-9583125D01*
X11243687Y-9543125D02*
X11203687Y-9583125D01*
X11283062Y-9225625D02*
X11323062Y-9265625D01*
X11323062Y-9225625D02*
X11283062Y-9265625D01*
X11332100Y-15258125D02*
X11372100Y-15298125D01*
X11372100Y-15258125D02*
X11332100Y-15298125D01*
X11346500Y-14712000D02*
X11386500Y-14752000D01*
X11386500Y-14712000D02*
X11346500Y-14752000D01*
X11346500Y-15004100D02*
X11386500Y-15044100D01*
X11386500Y-15004100D02*
X11346500Y-15044100D01*
X11452175Y-12831021D02*
X11492175Y-12871021D01*
X11492175Y-12831021D02*
X11452175Y-12871021D01*
X11453000Y-10636700D02*
X11493000Y-10676700D01*
X11493000Y-10636700D02*
X11453000Y-10676700D01*
X11455000Y-14902500D02*
X11495000Y-14942500D01*
X11495000Y-14902500D02*
X11455000Y-14942500D01*
X11468000Y-10793450D02*
X11508000Y-10833450D01*
X11508000Y-10793450D02*
X11468000Y-10833450D01*
X11544600Y-11130625D02*
X11584600Y-11170625D01*
X11584600Y-11130625D02*
X11544600Y-11170625D01*
X11567000Y-8732000D02*
X11607000Y-8772000D01*
X11607000Y-8732000D02*
X11567000Y-8772000D01*
X11582500Y-12787500D02*
X11622500Y-12827500D01*
X11622500Y-12787500D02*
X11582500Y-12827500D01*
X11696425Y-11845000D02*
X11736425Y-11885000D01*
X11736425Y-11845000D02*
X11696425Y-11885000D01*
X11703350Y-11465000D02*
X11743350Y-11505000D01*
X11743350Y-11465000D02*
X11703350Y-11505000D01*
X11728975Y-11058175D02*
X11768975Y-11098175D01*
X11768975Y-11058175D02*
X11728975Y-11098175D01*
X11759312Y-8273125D02*
X11799312Y-8313125D01*
X11799312Y-8273125D02*
X11759312Y-8313125D01*
X11759312Y-8987500D02*
X11799312Y-9027500D01*
X11799312Y-8987500D02*
X11759312Y-9027500D01*
X11795000Y-7275000D02*
X11835000Y-7315000D01*
X11835000Y-7275000D02*
X11795000Y-7315000D01*
X11935000Y-8987500D02*
X11975000Y-9027500D01*
X11975000Y-8987500D02*
X11935000Y-9027500D01*
X12034000Y-14720000D02*
X12074000Y-14760000D01*
X12074000Y-14720000D02*
X12034000Y-14760000D01*
X12070000Y-14430000D02*
X12110000Y-14470000D01*
X12110000Y-14430000D02*
X12070000Y-14470000D01*
X12075000Y-8850000D02*
X12115000Y-8890000D01*
X12115000Y-8850000D02*
X12075000Y-8890000D01*
X12125850Y-8051875D02*
X12165850Y-8091875D01*
X12165850Y-8051875D02*
X12125850Y-8091875D01*
X12229458Y-12825349D02*
X12269458Y-12865349D01*
X12269458Y-12825349D02*
X12229458Y-12865349D01*
X12299000Y-14352450D02*
X12339000Y-14392450D01*
X12339000Y-14352450D02*
X12299000Y-14392450D01*
X12324400Y-12982002D02*
X12364400Y-13022002D01*
X12364400Y-12982002D02*
X12324400Y-13022002D01*
X12389272Y-14395358D02*
X12429272Y-14435358D01*
X12429272Y-14395358D02*
X12389272Y-14435358D01*
X12426000Y-14712000D02*
X12466000Y-14752000D01*
X12466000Y-14712000D02*
X12426000Y-14752000D01*
X12426000Y-14966000D02*
X12466000Y-15006000D01*
X12466000Y-14966000D02*
X12426000Y-15006000D01*
X12462000Y-13755000D02*
X12502000Y-13795000D01*
X12502000Y-13755000D02*
X12462000Y-13795000D01*
X12478000Y-16005990D02*
X12518000Y-16045990D01*
X12518000Y-16005990D02*
X12478000Y-16045990D01*
X12485416Y-14368040D02*
X12525416Y-14408040D01*
X12525416Y-14368040D02*
X12485416Y-14408040D01*
X12489000Y-12905000D02*
X12529000Y-12945000D01*
X12529000Y-12905000D02*
X12489000Y-12945000D01*
X12491000Y-13162000D02*
X12531000Y-13202000D01*
X12531000Y-13162000D02*
X12491000Y-13202000D01*
X12527500Y-10655000D02*
X12567500Y-10695000D01*
X12567500Y-10655000D02*
X12527500Y-10695000D01*
X12564000Y-14459000D02*
X12604000Y-14499000D01*
X12604000Y-14459000D02*
X12564000Y-14499000D01*
X12582605Y-13370000D02*
X12622605Y-13410000D01*
X12622605Y-13370000D02*
X12582605Y-13410000D01*
X12655850Y-11147500D02*
X12695850Y-11187500D01*
X12695850Y-11147500D02*
X12655850Y-11187500D01*
X12675000Y-14770000D02*
X12715000Y-14810000D01*
X12715000Y-14770000D02*
X12675000Y-14810000D01*
X12681475Y-10195000D02*
X12721475Y-10235000D01*
X12721475Y-10195000D02*
X12681475Y-10235000D01*
X12734000Y-10881000D02*
X12774000Y-10921000D01*
X12774000Y-10881000D02*
X12734000Y-10921000D01*
X12739000Y-9078000D02*
X12779000Y-9118000D01*
X12779000Y-9078000D02*
X12739000Y-9118000D01*
X12747000Y-12682550D02*
X12787000Y-12722550D01*
X12787000Y-12682550D02*
X12747000Y-12722550D01*
X12817500Y-8870050D02*
X12857500Y-8910050D01*
X12857500Y-8870050D02*
X12817500Y-8910050D01*
X12819700Y-10687896D02*
X12859700Y-10727896D01*
X12859700Y-10687896D02*
X12819700Y-10727896D01*
X12895000Y-16272000D02*
X12935000Y-16312000D01*
X12935000Y-16272000D02*
X12895000Y-16312000D01*
X12924312Y-11191300D02*
X12964312Y-11231300D01*
X12964312Y-11191300D02*
X12924312Y-11231300D01*
X12934000Y-14893550D02*
X12974000Y-14933550D01*
X12974000Y-14893550D02*
X12934000Y-14933550D01*
X12949937Y-9225625D02*
X12989937Y-9265625D01*
X12989937Y-9225625D02*
X12949937Y-9265625D01*
X12955000Y-15947500D02*
X12995000Y-15987500D01*
X12995000Y-15947500D02*
X12955000Y-15987500D01*
X12996762Y-9917500D02*
X13036762Y-9957500D01*
X13036762Y-9917500D02*
X12996762Y-9957500D01*
X13005000Y-12450000D02*
X13045000Y-12490000D01*
X13045000Y-12450000D02*
X13005000Y-12490000D01*
X13022387Y-9543125D02*
X13062387Y-9583125D01*
X13062387Y-9543125D02*
X13022387Y-9583125D01*
X13028000Y-10866000D02*
X13068000Y-10906000D01*
X13068000Y-10866000D02*
X13028000Y-10906000D01*
X13031273Y-14870573D02*
X13071273Y-14910573D01*
X13071273Y-14870573D02*
X13031273Y-14910573D01*
X13035000Y-11130000D02*
X13075000Y-11170000D01*
X13075000Y-11130000D02*
X13035000Y-11170000D01*
X13065000Y-15740000D02*
X13105000Y-15780000D01*
X13105000Y-15740000D02*
X13065000Y-15780000D01*
X13066200Y-9146250D02*
X13106200Y-9186250D01*
X13106200Y-9146250D02*
X13066200Y-9186250D01*
X13076875Y-12988550D02*
X13116875Y-13028550D01*
X13116875Y-12988550D02*
X13076875Y-13028550D01*
X13124500Y-15283500D02*
X13164500Y-15323500D01*
X13164500Y-15283500D02*
X13124500Y-15323500D01*
X13135000Y-10850050D02*
X13175000Y-10890050D01*
X13175000Y-10850050D02*
X13135000Y-10890050D01*
X13220000Y-12885000D02*
X13260000Y-12925000D01*
X13260000Y-12885000D02*
X13220000Y-12925000D01*
X13267500Y-10905050D02*
X13307500Y-10945050D01*
X13307500Y-10905050D02*
X13267500Y-10945050D01*
X13281000Y-12682550D02*
X13321000Y-12722550D01*
X13321000Y-12682550D02*
X13281000Y-12722550D01*
X13347500Y-15845000D02*
X13387500Y-15885000D01*
X13387500Y-15845000D02*
X13347500Y-15885000D01*
X13370225Y-11465000D02*
X13410225Y-11505000D01*
X13410225Y-11465000D02*
X13370225Y-11505000D01*
X13395000Y-10701696D02*
X13435000Y-10741696D01*
X13435000Y-10701696D02*
X13395000Y-10741696D01*
X13475000Y-12847500D02*
X13515000Y-12887500D01*
X13515000Y-12847500D02*
X13475000Y-12887500D01*
X13483000Y-8710000D02*
X13523000Y-8750000D01*
X13523000Y-8710000D02*
X13483000Y-8750000D01*
X13644975Y-11210000D02*
X13684975Y-11250000D01*
X13684975Y-11210000D02*
X13644975Y-11250000D01*
X13786000Y-16200000D02*
X13826000Y-16240000D01*
X13826000Y-16200000D02*
X13786000Y-16240000D01*
X13842500Y-8277500D02*
X13882500Y-8317500D01*
X13882500Y-8277500D02*
X13842500Y-8317500D01*
X13879025Y-8870000D02*
X13919025Y-8910000D01*
X13919025Y-8870000D02*
X13879025Y-8910000D01*
X13924600Y-16289950D02*
X13964600Y-16329950D01*
X13964600Y-16289950D02*
X13924600Y-16329950D01*
X13930900Y-9242500D02*
X13970900Y-9282500D01*
X13970900Y-9242500D02*
X13930900Y-9282500D01*
X13951475Y-7337500D02*
X13991475Y-7377500D01*
X13991475Y-7337500D02*
X13951475Y-7377500D01*
X13976000Y-14459000D02*
X14016000Y-14499000D01*
X14016000Y-14459000D02*
X13976000Y-14499000D01*
X14013500Y-14648500D02*
X14053500Y-14688500D01*
X14053500Y-14648500D02*
X14013500Y-14688500D01*
X14030000Y-16022450D02*
X14070000Y-16062450D01*
X14070000Y-16022450D02*
X14030000Y-16062450D01*
X14030850Y-8051875D02*
X14070850Y-8091875D01*
X14070850Y-8051875D02*
X14030850Y-8091875D01*
X14030850Y-9242500D02*
X14070850Y-9282500D01*
X14070850Y-9242500D02*
X14030850Y-9282500D01*
X14181000Y-12698550D02*
X14221000Y-12738550D01*
X14221000Y-12698550D02*
X14181000Y-12738550D01*
X14204000Y-13148521D02*
X14244000Y-13188521D01*
X14244000Y-13148521D02*
X14204000Y-13188521D01*
X14267500Y-14394500D02*
X14307500Y-14434500D01*
X14307500Y-14394500D02*
X14267500Y-14434500D01*
X14339950Y-13353125D02*
X14379950Y-13393125D01*
X14379950Y-13353125D02*
X14339950Y-13393125D01*
X14343700Y-12845100D02*
X14383700Y-12885100D01*
X14383700Y-12845100D02*
X14343700Y-12885100D01*
X14363000Y-14450000D02*
X14403000Y-14490000D01*
X14403000Y-14450000D02*
X14363000Y-14490000D01*
X14407200Y-15778800D02*
X14447200Y-15818800D01*
X14447200Y-15778800D02*
X14407200Y-15818800D01*
X14440000Y-10602500D02*
X14480000Y-10642500D01*
X14480000Y-10602500D02*
X14440000Y-10642500D01*
X14458000Y-12909462D02*
X14498000Y-12949462D01*
X14498000Y-12909462D02*
X14458000Y-12949462D01*
X14467230Y-14448230D02*
X14507230Y-14488230D01*
X14507230Y-14448230D02*
X14467230Y-14488230D01*
X14521500Y-14648500D02*
X14561500Y-14688500D01*
X14561500Y-14648500D02*
X14521500Y-14688500D01*
X14539624Y-12967147D02*
X14579624Y-13007147D01*
X14579624Y-12967147D02*
X14539624Y-13007147D01*
X14557676Y-12869950D02*
X14597676Y-12909950D01*
X14597676Y-12869950D02*
X14557676Y-12909950D01*
X14559600Y-15562900D02*
X14599600Y-15602900D01*
X14599600Y-15562900D02*
X14559600Y-15602900D01*
X14567638Y-14446179D02*
X14607638Y-14486179D01*
X14607638Y-14446179D02*
X14567638Y-14486179D01*
X14585000Y-8870000D02*
X14625000Y-8910000D01*
X14625000Y-8870000D02*
X14585000Y-8910000D01*
X14608000Y-13980000D02*
X14648000Y-14020000D01*
X14648000Y-13980000D02*
X14608000Y-14020000D01*
X14611395Y-14692192D02*
X14651395Y-14732192D01*
X14651395Y-14692192D02*
X14611395Y-14732192D01*
X14678284Y-14454364D02*
X14718284Y-14494364D01*
X14718284Y-14454364D02*
X14678284Y-14494364D01*
X14712000Y-10695650D02*
X14752000Y-10735650D01*
X14752000Y-10695650D02*
X14712000Y-10735650D01*
X14735000Y-14192000D02*
X14775000Y-14232000D01*
X14775000Y-14192000D02*
X14735000Y-14232000D01*
X14736270Y-14365730D02*
X14776270Y-14405730D01*
X14776270Y-14365730D02*
X14736270Y-14405730D01*
X14775500Y-12934000D02*
X14815500Y-12974000D01*
X14815500Y-12934000D02*
X14775500Y-12974000D01*
X14787733Y-11110298D02*
X14827733Y-11150298D01*
X14827733Y-11110298D02*
X14787733Y-11150298D01*
X14830000Y-9097550D02*
X14870000Y-9137550D01*
X14870000Y-9097550D02*
X14830000Y-9137550D01*
X14838000Y-15177000D02*
X14878000Y-15217000D01*
X14878000Y-15177000D02*
X14838000Y-15217000D01*
X14839000Y-15664500D02*
X14879000Y-15704500D01*
X14879000Y-15664500D02*
X14839000Y-15704500D01*
X14857620Y-16038720D02*
X14897620Y-16078720D01*
X14897620Y-16038720D02*
X14857620Y-16078720D01*
X14866000Y-15069000D02*
X14906000Y-15109000D01*
X14906000Y-15069000D02*
X14866000Y-15109000D01*
X14878350Y-11068125D02*
X14918350Y-11108125D01*
X14918350Y-11068125D02*
X14878350Y-11108125D01*
X14902500Y-15338050D02*
X14942500Y-15378050D01*
X14942500Y-15338050D02*
X14902500Y-15378050D01*
X14903975Y-9956875D02*
X14943975Y-9996875D01*
X14943975Y-9956875D02*
X14903975Y-9996875D01*
X14945000Y-12460000D02*
X14985000Y-12500000D01*
X14985000Y-12460000D02*
X14945000Y-12500000D01*
X14978700Y-9251000D02*
X15018700Y-9291000D01*
X15018700Y-9251000D02*
X14978700Y-9291000D01*
X14983350Y-12686875D02*
X15023350Y-12726875D01*
X15023350Y-12686875D02*
X14983350Y-12726875D01*
X15034000Y-15247000D02*
X15074000Y-15287000D01*
X15074000Y-15247000D02*
X15034000Y-15287000D01*
X15060650Y-11465000D02*
X15100650Y-11505000D01*
X15100650Y-11465000D02*
X15060650Y-11505000D01*
X15072970Y-15528550D02*
X15112970Y-15568550D01*
X15112970Y-15528550D02*
X15072970Y-15568550D01*
X15150000Y-16055000D02*
X15190000Y-16095000D01*
X15190000Y-16055000D02*
X15150000Y-16095000D01*
X15155717Y-15847271D02*
X15195717Y-15887271D01*
X15195717Y-15847271D02*
X15155717Y-15887271D01*
X15160000Y-16220000D02*
X15200000Y-16260000D01*
X15200000Y-16220000D02*
X15160000Y-16260000D01*
X15207300Y-10695650D02*
X15247300Y-10735650D01*
X15247300Y-10695650D02*
X15207300Y-10735650D01*
X15217000Y-14966000D02*
X15257000Y-15006000D01*
X15257000Y-14966000D02*
X15217000Y-15006000D01*
X15220000Y-12934000D02*
X15260000Y-12974000D01*
X15260000Y-12934000D02*
X15220000Y-12974000D01*
X15284000Y-15234000D02*
X15324000Y-15274000D01*
X15324000Y-15234000D02*
X15284000Y-15274000D01*
X15344000Y-12607000D02*
X15384000Y-12647000D01*
X15384000Y-12607000D02*
X15344000Y-12647000D01*
X15347000Y-15338050D02*
X15387000Y-15378050D01*
X15387000Y-15338050D02*
X15347000Y-15378050D01*
X15401000Y-8684000D02*
X15441000Y-8724000D01*
X15441000Y-8684000D02*
X15401000Y-8724000D01*
X15410500Y-14839000D02*
X15450500Y-14879000D01*
X15450500Y-14839000D02*
X15410500Y-14879000D01*
X15433975Y-11861875D02*
X15473975Y-11901875D01*
X15473975Y-11861875D02*
X15433975Y-11901875D01*
X15683000Y-7431000D02*
X15723000Y-7471000D01*
X15723000Y-7431000D02*
X15683000Y-7471000D01*
X15697550Y-9008000D02*
X15737550Y-9048000D01*
X15737550Y-9008000D02*
X15697550Y-9048000D01*
X15832500Y-14395000D02*
X15872500Y-14435000D01*
X15872500Y-14395000D02*
X15832500Y-14435000D01*
X15842450Y-8787500D02*
X15882450Y-8827500D01*
X15882450Y-8787500D02*
X15842450Y-8827500D01*
X15851500Y-15035500D02*
X15891500Y-15075500D01*
X15891500Y-15035500D02*
X15851500Y-15075500D01*
X15856475Y-7337500D02*
X15896475Y-7377500D01*
X15896475Y-7337500D02*
X15856475Y-7377500D01*
X15856475Y-9242500D02*
X15896475Y-9282500D01*
X15896475Y-9242500D02*
X15856475Y-9282500D01*
X15862000Y-15475000D02*
X15902000Y-15515000D01*
X15902000Y-15475000D02*
X15862000Y-15515000D01*
X15883050Y-15624000D02*
X15923050Y-15664000D01*
X15923050Y-15624000D02*
X15883050Y-15664000D01*
X15939058Y-15411344D02*
X15979058Y-15451344D01*
X15979058Y-15411344D02*
X15939058Y-15451344D01*
X15966187Y-8035000D02*
X16006187Y-8075000D01*
X16006187Y-8035000D02*
X15966187Y-8075000D01*
X15969000Y-15307000D02*
X16009000Y-15347000D01*
X16009000Y-15307000D02*
X15969000Y-15347000D01*
X15989325Y-14597847D02*
X16029325Y-14637847D01*
X16029325Y-14597847D02*
X15989325Y-14637847D01*
X16018000Y-14490000D02*
X16058000Y-14530000D01*
X16058000Y-14490000D02*
X16018000Y-14530000D01*
X16043000Y-15098000D02*
X16083000Y-15138000D01*
X16083000Y-15098000D02*
X16043000Y-15138000D01*
X16049000Y-12712550D02*
X16089000Y-12752550D01*
X16089000Y-12712550D02*
X16049000Y-12752550D01*
X16100505Y-13156250D02*
X16140505Y-13196250D01*
X16140505Y-13156250D02*
X16100505Y-13196250D01*
X16105000Y-16275000D02*
X16145000Y-16315000D01*
X16145000Y-16275000D02*
X16105000Y-16315000D01*
X16120424Y-15256068D02*
X16160424Y-15296068D01*
X16160424Y-15256068D02*
X16120424Y-15296068D01*
X16137398Y-15614248D02*
X16177398Y-15654248D01*
X16177398Y-15614248D02*
X16137398Y-15654248D01*
X16169055Y-12808550D02*
X16209055Y-12848550D01*
X16209055Y-12808550D02*
X16169055Y-12848550D01*
X16190645Y-15184941D02*
X16230645Y-15224941D01*
X16230645Y-15184941D02*
X16190645Y-15224941D01*
X16232500Y-15645000D02*
X16272500Y-15685000D01*
X16272500Y-15645000D02*
X16232500Y-15685000D01*
X16241000Y-15533000D02*
X16281000Y-15573000D01*
X16281000Y-15533000D02*
X16241000Y-15573000D01*
X16263095Y-15108500D02*
X16303095Y-15148500D01*
X16303095Y-15108500D02*
X16263095Y-15148500D01*
X16335000Y-10596000D02*
X16375000Y-10636000D01*
X16375000Y-10596000D02*
X16335000Y-10636000D01*
X16346565Y-15170272D02*
X16386565Y-15210272D01*
X16386565Y-15170272D02*
X16346565Y-15210272D01*
X16360000Y-12763550D02*
X16400000Y-12803550D01*
X16400000Y-12763550D02*
X16360000Y-12803550D01*
X16380000Y-15870000D02*
X16420000Y-15910000D01*
X16420000Y-15870000D02*
X16380000Y-15910000D01*
X16388400Y-14483400D02*
X16428400Y-14523400D01*
X16428400Y-14483400D02*
X16388400Y-14523400D01*
X16392605Y-13083800D02*
X16432605Y-13123800D01*
X16432605Y-13083800D02*
X16392605Y-13123800D01*
X16395000Y-13257500D02*
X16435000Y-13297500D01*
X16435000Y-13257500D02*
X16395000Y-13297500D01*
X16398000Y-9016000D02*
X16438000Y-9056000D01*
X16438000Y-9016000D02*
X16398000Y-9056000D01*
X16462000Y-14232000D02*
X16502000Y-14272000D01*
X16502000Y-14232000D02*
X16462000Y-14272000D01*
X16491475Y-12918075D02*
X16531475Y-12958075D01*
X16531475Y-12918075D02*
X16491475Y-12958075D01*
X16505500Y-15183500D02*
X16545500Y-15223500D01*
X16545500Y-15183500D02*
X16505500Y-15223500D01*
X16507000Y-15045000D02*
X16547000Y-15085000D01*
X16547000Y-15045000D02*
X16507000Y-15085000D01*
X16510000Y-14493206D02*
X16550000Y-14533206D01*
X16550000Y-14493206D02*
X16510000Y-14533206D01*
X16520000Y-9105000D02*
X16560000Y-9145000D01*
X16560000Y-9105000D02*
X16520000Y-9145000D01*
X16520000Y-9590000D02*
X16560000Y-9630000D01*
X16560000Y-9590000D02*
X16520000Y-9630000D01*
X16540800Y-15740700D02*
X16580800Y-15780700D01*
X16580800Y-15740700D02*
X16540800Y-15780700D01*
X16545000Y-15890000D02*
X16585000Y-15930000D01*
X16585000Y-15890000D02*
X16545000Y-15930000D01*
X16592850Y-11141875D02*
X16632850Y-11181875D01*
X16632850Y-11141875D02*
X16592850Y-11181875D01*
X16593000Y-10835050D02*
X16633000Y-10875050D01*
X16633000Y-10835050D02*
X16593000Y-10875050D01*
X16618000Y-14525000D02*
X16658000Y-14565000D01*
X16658000Y-14525000D02*
X16618000Y-14565000D01*
X16619918Y-9107550D02*
X16659918Y-9147550D01*
X16659918Y-9107550D02*
X16619918Y-9147550D01*
X16630014Y-10677450D02*
X16670014Y-10717450D01*
X16670014Y-10677450D02*
X16630014Y-10717450D01*
X16637616Y-15118247D02*
X16677616Y-15158247D01*
X16677616Y-15118247D02*
X16637616Y-15158247D01*
X16638000Y-14209000D02*
X16678000Y-14249000D01*
X16678000Y-14209000D02*
X16638000Y-14249000D01*
X16701480Y-14713480D02*
X16741480Y-14753480D01*
X16741480Y-14713480D02*
X16701480Y-14753480D01*
X16720000Y-14331000D02*
X16760000Y-14371000D01*
X16760000Y-14331000D02*
X16720000Y-14371000D01*
X16732000Y-8945013D02*
X16772000Y-8985013D01*
X16772000Y-8945013D02*
X16732000Y-8985013D01*
X16775630Y-14646458D02*
X16815630Y-14686458D01*
X16815630Y-14646458D02*
X16775630Y-14686458D01*
X16787430Y-10771682D02*
X16827430Y-10811682D01*
X16827430Y-10771682D02*
X16787430Y-10811682D01*
X16808975Y-9956875D02*
X16848975Y-9996875D01*
X16848975Y-9956875D02*
X16808975Y-9996875D01*
X16808975Y-12918075D02*
X16848975Y-12958075D01*
X16848975Y-12918075D02*
X16808975Y-12958075D01*
X16835000Y-12470000D02*
X16875000Y-12510000D01*
X16875000Y-12470000D02*
X16835000Y-12510000D01*
X16844000Y-14123000D02*
X16884000Y-14163000D01*
X16884000Y-14123000D02*
X16844000Y-14163000D01*
X16875000Y-14661000D02*
X16915000Y-14701000D01*
X16915000Y-14661000D02*
X16875000Y-14701000D01*
X16885000Y-10750000D02*
X16925000Y-10790000D01*
X16925000Y-10750000D02*
X16885000Y-10790000D01*
X16918688Y-8945013D02*
X16958688Y-8985013D01*
X16958688Y-8945013D02*
X16918688Y-8985013D01*
X16919497Y-8800063D02*
X16959497Y-8840063D01*
X16959497Y-8800063D02*
X16919497Y-8840063D01*
X16993125Y-10152500D02*
X17033125Y-10192500D01*
X17033125Y-10152500D02*
X16993125Y-10192500D01*
X17015763Y-8773175D02*
X17055763Y-8813175D01*
X17055763Y-8773175D02*
X17015763Y-8813175D01*
X17240000Y-12584800D02*
X17280000Y-12624800D01*
X17280000Y-12584800D02*
X17240000Y-12624800D01*
X17253000Y-10725000D02*
X17293000Y-10765000D01*
X17293000Y-10725000D02*
X17253000Y-10765000D01*
X17303000Y-8673000D02*
X17343000Y-8713000D01*
X17343000Y-8673000D02*
X17303000Y-8713000D01*
X17369313Y-11448125D02*
X17409313Y-11488125D01*
X17409313Y-11448125D02*
X17369313Y-11488125D01*
X17390000Y-10775000D02*
X17430000Y-10815000D01*
X17430000Y-10775000D02*
X17390000Y-10815000D01*
X17418350Y-11861875D02*
X17458350Y-11901875D01*
X17458350Y-11861875D02*
X17418350Y-11901875D01*
X17443975Y-12893750D02*
X17483975Y-12933750D01*
X17483975Y-12893750D02*
X17443975Y-12933750D01*
X17614198Y-8961758D02*
X17654198Y-9001758D01*
X17654198Y-8961758D02*
X17614198Y-9001758D01*
X17676875Y-7486300D02*
X17716875Y-7526300D01*
X17716875Y-7486300D02*
X17676875Y-7526300D01*
X17676875Y-8773175D02*
X17716875Y-8813175D01*
X17716875Y-8773175D02*
X17676875Y-8813175D01*
X17749325Y-7320625D02*
X17789325Y-7360625D01*
X17789325Y-7320625D02*
X17749325Y-7360625D01*
X17791000Y-14366000D02*
X17831000Y-14406000D01*
X17831000Y-14366000D02*
X17791000Y-14406000D01*
X17855000Y-14276000D02*
X17895000Y-14316000D01*
X17895000Y-14276000D02*
X17855000Y-14316000D01*
X17886000Y-14122000D02*
X17926000Y-14162000D01*
X17926000Y-14122000D02*
X17886000Y-14162000D01*
X17900000Y-7990000D02*
X17940000Y-8030000D01*
X17940000Y-7990000D02*
X17900000Y-8030000D01*
X17915000Y-8777500D02*
X17955000Y-8817500D01*
X17955000Y-8777500D02*
X17915000Y-8817500D01*
X17945625Y-7486300D02*
X17985625Y-7526300D01*
X17985625Y-7486300D02*
X17945625Y-7526300D01*
X17950500Y-7282500D02*
X17990500Y-7322500D01*
X17990500Y-7282500D02*
X17950500Y-7322500D01*
X18005506Y-13076875D02*
X18045506Y-13116875D01*
X18045506Y-13076875D02*
X18005506Y-13116875D01*
X18015000Y-14012500D02*
X18055000Y-14052500D01*
X18055000Y-14012500D02*
X18015000Y-14052500D01*
X18087500Y-13777500D02*
X18127500Y-13817500D01*
X18127500Y-13777500D02*
X18087500Y-13817500D01*
X18107500Y-13232500D02*
X18147500Y-13272500D01*
X18147500Y-13232500D02*
X18107500Y-13272500D01*
X18140000Y-14512550D02*
X18180000Y-14552550D01*
X18180000Y-14512550D02*
X18140000Y-14552550D01*
X18226472Y-12869950D02*
X18266472Y-12909950D01*
X18266472Y-12869950D02*
X18226472Y-12909950D01*
X18233000Y-14215000D02*
X18273000Y-14255000D01*
X18273000Y-14215000D02*
X18233000Y-14255000D01*
X18274000Y-10567000D02*
X18314000Y-10607000D01*
X18314000Y-10567000D02*
X18274000Y-10607000D01*
X18327943Y-13115000D02*
X18367943Y-13155000D01*
X18367943Y-13115000D02*
X18327943Y-13155000D01*
X18327943Y-13353125D02*
X18367943Y-13393125D01*
X18367943Y-13353125D02*
X18327943Y-13393125D01*
X18353725Y-12725050D02*
X18393725Y-12765050D01*
X18393725Y-12725050D02*
X18353725Y-12765050D01*
X18395000Y-10874950D02*
X18435000Y-10914950D01*
X18435000Y-10874950D02*
X18395000Y-10914950D01*
X18396475Y-10178125D02*
X18436475Y-10218125D01*
X18436475Y-10178125D02*
X18396475Y-10218125D01*
X18475850Y-8845625D02*
X18515850Y-8885625D01*
X18515850Y-8845625D02*
X18475850Y-8885625D01*
X18493671Y-14465550D02*
X18533671Y-14505550D01*
X18533671Y-14465550D02*
X18493671Y-14505550D01*
X18496425Y-10733800D02*
X18536425Y-10773800D01*
X18536425Y-10733800D02*
X18496425Y-10773800D01*
X18499000Y-12946000D02*
X18539000Y-12986000D01*
X18539000Y-12946000D02*
X18499000Y-12986000D01*
X18513000Y-12725050D02*
X18553000Y-12765050D01*
X18553000Y-12725050D02*
X18513000Y-12765050D01*
X18522000Y-14228000D02*
X18562000Y-14268000D01*
X18562000Y-14228000D02*
X18522000Y-14268000D01*
X18660000Y-14897500D02*
X18700000Y-14937500D01*
X18700000Y-14897500D02*
X18660000Y-14937500D01*
X18687400Y-15911300D02*
X18727400Y-15951300D01*
X18727400Y-15911300D02*
X18687400Y-15951300D01*
X18717500Y-12510000D02*
X18757500Y-12550000D01*
X18757500Y-12510000D02*
X18717500Y-12550000D01*
X18742000Y-16272000D02*
X18782000Y-16312000D01*
X18782000Y-16272000D02*
X18742000Y-16312000D01*
X18749817Y-14974146D02*
X18789817Y-15014146D01*
X18789817Y-14974146D02*
X18749817Y-15014146D01*
X18772500Y-15215000D02*
X18812500Y-15255000D01*
X18812500Y-15215000D02*
X18772500Y-15255000D01*
X18781200Y-9004325D02*
X18821200Y-9044325D01*
X18821200Y-9004325D02*
X18781200Y-9044325D01*
X18781200Y-9543125D02*
X18821200Y-9583125D01*
X18821200Y-9543125D02*
X18781200Y-9583125D01*
X18814100Y-9981250D02*
X18854100Y-10021250D01*
X18854100Y-9981250D02*
X18814100Y-10021250D01*
X18818788Y-11771918D02*
X18858788Y-11811918D01*
X18858788Y-11771918D02*
X18818788Y-11811918D01*
X18843838Y-12869950D02*
X18883838Y-12909950D01*
X18883838Y-12869950D02*
X18843838Y-12909950D01*
X18940000Y-12916050D02*
X18980000Y-12956050D01*
X18980000Y-12916050D02*
X18940000Y-12956050D01*
X18940000Y-13227500D02*
X18980000Y-13267500D01*
X18980000Y-13227500D02*
X18940000Y-13267500D01*
X18982438Y-10971875D02*
X19022438Y-11011875D01*
X19022438Y-10971875D02*
X18982438Y-11011875D01*
X19042318Y-13115000D02*
X19082318Y-13155000D01*
X19082318Y-13115000D02*
X19042318Y-13155000D01*
X19061813Y-11058175D02*
X19101813Y-11098175D01*
X19101813Y-11058175D02*
X19061813Y-11098175D01*
X19089143Y-12725050D02*
X19129143Y-12765050D01*
X19129143Y-12725050D02*
X19089143Y-12765050D01*
X19108638Y-11845000D02*
X19148638Y-11885000D01*
X19148638Y-11845000D02*
X19108638Y-11885000D01*
X19195000Y-8767000D02*
X19235000Y-8807000D01*
X19235000Y-8767000D02*
X19195000Y-8807000D01*
X19200560Y-12664099D02*
X19240560Y-12704099D01*
X19240560Y-12664099D02*
X19200560Y-12704099D01*
X19207356Y-13061000D02*
X19247356Y-13101000D01*
X19247356Y-13061000D02*
X19207356Y-13101000D01*
X19243975Y-11465000D02*
X19283975Y-11505000D01*
X19283975Y-11465000D02*
X19243975Y-11505000D01*
X19249025Y-10781975D02*
X19289025Y-10821975D01*
X19289025Y-10781975D02*
X19249025Y-10821975D01*
X19323350Y-12655625D02*
X19363350Y-12695625D01*
X19363350Y-12655625D02*
X19323350Y-12695625D01*
X19399463Y-10826975D02*
X19439463Y-10866975D01*
X19439463Y-10826975D02*
X19399463Y-10866975D01*
X19672500Y-14392500D02*
X19712500Y-14432500D01*
X19712500Y-14392500D02*
X19672500Y-14432500D01*
X19696000Y-8033000D02*
X19736000Y-8073000D01*
X19736000Y-8033000D02*
X19696000Y-8073000D01*
X19733929Y-14710709D02*
X19773929Y-14750709D01*
X19773929Y-14710709D02*
X19733929Y-14750709D01*
X19764000Y-7291450D02*
X19804000Y-7331450D01*
X19804000Y-7291450D02*
X19764000Y-7331450D01*
X19776188Y-9225625D02*
X19816188Y-9265625D01*
X19816188Y-9225625D02*
X19776188Y-9265625D01*
X19778000Y-14621000D02*
X19818000Y-14661000D01*
X19818000Y-14621000D02*
X19778000Y-14661000D01*
X19790000Y-14793450D02*
X19830000Y-14833450D01*
X19830000Y-14793450D02*
X19790000Y-14833450D01*
X19822000Y-14428000D02*
X19862000Y-14468000D01*
X19862000Y-14428000D02*
X19822000Y-14468000D01*
X19852000Y-13139000D02*
X19892000Y-13179000D01*
X19892000Y-13139000D02*
X19852000Y-13179000D01*
X19910000Y-16275000D02*
X19950000Y-16315000D01*
X19950000Y-16275000D02*
X19910000Y-16315000D01*
X19912500Y-14880000D02*
X19952500Y-14920000D01*
X19952500Y-14880000D02*
X19912500Y-14920000D01*
X20038000Y-9062550D02*
X20078000Y-9102550D01*
X20078000Y-9062550D02*
X20038000Y-9102550D01*
X20038000Y-16254000D02*
X20078000Y-16294000D01*
X20078000Y-16254000D02*
X20038000Y-16294000D01*
X20042500Y-13820000D02*
X20082500Y-13860000D01*
X20082500Y-13820000D02*
X20042500Y-13860000D01*
X20067000Y-12959000D02*
X20107000Y-12999000D01*
X20107000Y-12959000D02*
X20067000Y-12999000D01*
X20070275Y-15959000D02*
X20110275Y-15999000D01*
X20110275Y-15959000D02*
X20070275Y-15999000D01*
X20138871Y-15064301D02*
X20178871Y-15104301D01*
X20178871Y-15064301D02*
X20138871Y-15104301D01*
X20140000Y-16090000D02*
X20180000Y-16130000D01*
X20180000Y-16090000D02*
X20140000Y-16130000D01*
X20143000Y-10589000D02*
X20183000Y-10629000D01*
X20183000Y-10589000D02*
X20143000Y-10629000D01*
X20167219Y-13061000D02*
X20207219Y-13101000D01*
X20207219Y-13061000D02*
X20167219Y-13101000D01*
X20169547Y-16189507D02*
X20209547Y-16229507D01*
X20209547Y-16189507D02*
X20169547Y-16229507D01*
X20253093Y-13357450D02*
X20293093Y-13397450D01*
X20293093Y-13357450D02*
X20253093Y-13397450D01*
X20275850Y-12655625D02*
X20315850Y-12695625D01*
X20315850Y-12655625D02*
X20275850Y-12695625D01*
X20315092Y-15688521D02*
X20355092Y-15728521D01*
X20355092Y-15688521D02*
X20315092Y-15728521D01*
X20325400Y-14813600D02*
X20365400Y-14853600D01*
X20365400Y-14813600D02*
X20325400Y-14853600D01*
X20351963Y-8859425D02*
X20391963Y-8899425D01*
X20391963Y-8859425D02*
X20351963Y-8899425D01*
X20351963Y-9146250D02*
X20391963Y-9186250D01*
X20391963Y-9146250D02*
X20351963Y-9186250D01*
X20444000Y-14439000D02*
X20484000Y-14479000D01*
X20484000Y-14439000D02*
X20444000Y-14479000D01*
X20448075Y-10826975D02*
X20488075Y-10866975D01*
X20488075Y-10826975D02*
X20448075Y-10866975D01*
X20451913Y-8859425D02*
X20491913Y-8899425D01*
X20491913Y-8859425D02*
X20451913Y-8899425D01*
X20478000Y-14830000D02*
X20518000Y-14870000D01*
X20518000Y-14830000D02*
X20478000Y-14870000D01*
X20553217Y-16006021D02*
X20593217Y-16046021D01*
X20593217Y-16006021D02*
X20553217Y-16046021D01*
X20587000Y-14512550D02*
X20627000Y-14552550D01*
X20627000Y-14512550D02*
X20587000Y-14552550D01*
X20607500Y-12500000D02*
X20647500Y-12540000D01*
X20647500Y-12500000D02*
X20607500Y-12540000D01*
X20652616Y-9517500D02*
X20692616Y-9557500D01*
X20692616Y-9517500D02*
X20652616Y-9557500D01*
X20652616Y-9914375D02*
X20692616Y-9954375D01*
X20692616Y-9914375D02*
X20652616Y-9954375D01*
X20686200Y-9146250D02*
X20726200Y-9186250D01*
X20726200Y-9146250D02*
X20686200Y-9186250D01*
X20799000Y-14596000D02*
X20839000Y-14636000D01*
X20839000Y-14596000D02*
X20799000Y-14636000D01*
X20808063Y-9225625D02*
X20848063Y-9265625D01*
X20848063Y-9225625D02*
X20808063Y-9265625D01*
X20808063Y-10754475D02*
X20848063Y-10794475D01*
X20848063Y-10754475D02*
X20808063Y-10794475D01*
X20816270Y-12907550D02*
X20856270Y-12947550D01*
X20856270Y-12907550D02*
X20816270Y-12947550D01*
X20944000Y-14827000D02*
X20984000Y-14867000D01*
X20984000Y-14827000D02*
X20944000Y-14867000D01*
X20990000Y-13160000D02*
X21030000Y-13200000D01*
X21030000Y-13160000D02*
X20990000Y-13200000D01*
X21004000Y-12992000D02*
X21044000Y-13032000D01*
X21044000Y-12992000D02*
X21004000Y-13032000D01*
X21124447Y-8732414D02*
X21164447Y-8772414D01*
X21164447Y-8732414D02*
X21124447Y-8772414D01*
X21179313Y-11448125D02*
X21219313Y-11488125D01*
X21219313Y-11448125D02*
X21179313Y-11488125D01*
X21204938Y-10781925D02*
X21244938Y-10821925D01*
X21244938Y-10781925D02*
X21204938Y-10821925D01*
X21224000Y-8741313D02*
X21264000Y-8781313D01*
X21264000Y-8741313D02*
X21224000Y-8781313D01*
X21225088Y-9218700D02*
X21265088Y-9258700D01*
X21265088Y-9218700D02*
X21225088Y-9258700D01*
X21267500Y-14719500D02*
X21307500Y-14759500D01*
X21307500Y-14719500D02*
X21267500Y-14759500D01*
X21590000Y-14464000D02*
X21630000Y-14504000D01*
X21630000Y-14464000D02*
X21590000Y-14504000D01*
X21600000Y-8786313D02*
X21640000Y-8826313D01*
X21640000Y-8786313D02*
X21600000Y-8826313D01*
X21650850Y-7655000D02*
X21690850Y-7695000D01*
X21690850Y-7655000D02*
X21650850Y-7695000D01*
X21662000Y-7414000D02*
X21702000Y-7454000D01*
X21702000Y-7414000D02*
X21662000Y-7454000D01*
X21681188Y-8035000D02*
X21721188Y-8075000D01*
X21721188Y-8035000D02*
X21681188Y-8075000D01*
X21684491Y-9200000D02*
X21724491Y-9240000D01*
X21724491Y-9200000D02*
X21684491Y-9240000D01*
X21715000Y-8786313D02*
X21755000Y-8826313D01*
X21755000Y-8786313D02*
X21715000Y-8826313D01*
X21788920Y-16028920D02*
X21828920Y-16068920D01*
X21828920Y-16028920D02*
X21788920Y-16068920D01*
X21810856Y-13165800D02*
X21850856Y-13205800D01*
X21850856Y-13165800D02*
X21810856Y-13205800D01*
X21830350Y-12869668D02*
X21870350Y-12909668D01*
X21870350Y-12869668D02*
X21830350Y-12909668D01*
X21845442Y-9200000D02*
X21885442Y-9240000D01*
X21885442Y-9200000D02*
X21845442Y-9240000D01*
X21948856Y-13750000D02*
X21988856Y-13790000D01*
X21988856Y-13750000D02*
X21948856Y-13790000D01*
X22042000Y-10605000D02*
X22082000Y-10645000D01*
X22082000Y-10605000D02*
X22042000Y-10645000D01*
X22095692Y-8786313D02*
X22135692Y-8826313D01*
X22135692Y-8786313D02*
X22095692Y-8826313D01*
X22104000Y-15041000D02*
X22144000Y-15081000D01*
X22144000Y-15041000D02*
X22104000Y-15081000D01*
X22122906Y-13327500D02*
X22162906Y-13367500D01*
X22162906Y-13327500D02*
X22122906Y-13367500D01*
X22147675Y-12963175D02*
X22187675Y-13003175D01*
X22187675Y-12963175D02*
X22147675Y-13003175D01*
X22195000Y-15870000D02*
X22235000Y-15910000D01*
X22235000Y-15870000D02*
X22195000Y-15910000D01*
X22401850Y-10679750D02*
X22441850Y-10719750D01*
X22441850Y-10679750D02*
X22401850Y-10719750D01*
X22470199Y-10767401D02*
X22510199Y-10807401D01*
X22510199Y-10767401D02*
X22470199Y-10807401D01*
X22480442Y-9497271D02*
X22520442Y-9537271D01*
X22520442Y-9497271D02*
X22480442Y-9537271D01*
X22487500Y-9076825D02*
X22527500Y-9116825D01*
X22527500Y-9076825D02*
X22487500Y-9116825D01*
X22511825Y-9940000D02*
X22551825Y-9980000D01*
X22551825Y-9940000D02*
X22511825Y-9980000D01*
X22532500Y-12497500D02*
X22572500Y-12537500D01*
X22572500Y-12497500D02*
X22532500Y-12537500D01*
X22603350Y-9004375D02*
X22643350Y-9044375D01*
X22643350Y-9004375D02*
X22603350Y-9044375D01*
X22611230Y-10708770D02*
X22651230Y-10748770D01*
X22651230Y-10708770D02*
X22611230Y-10748770D01*
X22692942Y-12876875D02*
X22732942Y-12916875D01*
X22732942Y-12876875D02*
X22692942Y-12916875D01*
X22718567Y-9290346D02*
X22758567Y-9330346D01*
X22758567Y-9290346D02*
X22718567Y-9330346D01*
X22780000Y-10980000D02*
X22820000Y-11020000D01*
X22820000Y-10980000D02*
X22780000Y-11020000D01*
X22785372Y-12963175D02*
X22825372Y-13003175D01*
X22825372Y-12963175D02*
X22785372Y-13003175D01*
X22857822Y-13156250D02*
X22897822Y-13196250D01*
X22897822Y-13156250D02*
X22857822Y-13196250D01*
X22890800Y-12963225D02*
X22930800Y-13003225D01*
X22930800Y-12963225D02*
X22890800Y-13003225D01*
X23002000Y-8698000D02*
X23042000Y-8738000D01*
X23042000Y-8698000D02*
X23002000Y-8738000D01*
X23005100Y-10978638D02*
X23045100Y-11018638D01*
X23045100Y-10978638D02*
X23005100Y-11018638D01*
X23025000Y-12595000D02*
X23065000Y-12635000D01*
X23065000Y-12595000D02*
X23025000Y-12635000D01*
X23084312Y-11448125D02*
X23124312Y-11488125D01*
X23124312Y-11448125D02*
X23084312Y-11488125D01*
X23109937Y-10733750D02*
X23149937Y-10773750D01*
X23149937Y-10733750D02*
X23109937Y-10773750D01*
X23359000Y-7291450D02*
X23399000Y-7331450D01*
X23399000Y-7291450D02*
X23359000Y-7331450D01*
X23406000Y-9080675D02*
X23446000Y-9120675D01*
X23446000Y-9080675D02*
X23406000Y-9120675D01*
X23450000Y-14395000D02*
X23490000Y-14435000D01*
X23490000Y-14395000D02*
X23450000Y-14435000D01*
X23480000Y-7365000D02*
X23520000Y-7405000D01*
X23520000Y-7365000D02*
X23480000Y-7405000D01*
X23500550Y-8396000D02*
X23540550Y-8436000D01*
X23540550Y-8396000D02*
X23500550Y-8436000D01*
X23555850Y-8051875D02*
X23595850Y-8091875D01*
X23595850Y-8051875D02*
X23555850Y-8091875D01*
X23555850Y-8845625D02*
X23595850Y-8885625D01*
X23595850Y-8845625D02*
X23555850Y-8885625D01*
X23617000Y-7342000D02*
X23657000Y-7382000D01*
X23657000Y-7342000D02*
X23617000Y-7382000D01*
X23721000Y-12651000D02*
X23761000Y-12691000D01*
X23761000Y-12651000D02*
X23721000Y-12691000D01*
X23778000Y-15045000D02*
X23818000Y-15085000D01*
X23818000Y-15045000D02*
X23778000Y-15085000D01*
X23830600Y-12883200D02*
X23870600Y-12923200D01*
X23870600Y-12883200D02*
X23830600Y-12923200D01*
X23843300Y-12718100D02*
X23883300Y-12758100D01*
X23883300Y-12718100D02*
X23843300Y-12758100D01*
X23856000Y-13188000D02*
X23896000Y-13228000D01*
X23896000Y-13188000D02*
X23856000Y-13228000D01*
X23856000Y-16210600D02*
X23896000Y-16250600D01*
X23896000Y-16210600D02*
X23856000Y-16250600D01*
X23956000Y-10606000D02*
X23996000Y-10646000D01*
X23996000Y-10606000D02*
X23956000Y-10646000D01*
X23962500Y-15342500D02*
X24002500Y-15382500D01*
X24002500Y-15342500D02*
X23962500Y-15382500D01*
X24012605Y-13829375D02*
X24052605Y-13869375D01*
X24052605Y-13829375D02*
X24012605Y-13869375D01*
X24019950Y-12797500D02*
X24059950Y-12837500D01*
X24059950Y-12797500D02*
X24019950Y-12837500D01*
X24042943Y-13353125D02*
X24082943Y-13393125D01*
X24082943Y-13353125D02*
X24042943Y-13393125D01*
X24062437Y-12963175D02*
X24102437Y-13003175D01*
X24102437Y-12963175D02*
X24062437Y-13003175D01*
X24164000Y-12798050D02*
X24204000Y-12838050D01*
X24204000Y-12798050D02*
X24164000Y-12838050D01*
X24241000Y-10851550D02*
X24281000Y-10891550D01*
X24281000Y-10851550D02*
X24241000Y-10891550D01*
X24323975Y-11130625D02*
X24363975Y-11170625D01*
X24363975Y-11130625D02*
X24323975Y-11170625D01*
X24428975Y-9225625D02*
X24468975Y-9265625D01*
X24468975Y-9225625D02*
X24428975Y-9265625D01*
X24432500Y-12560000D02*
X24472500Y-12600000D01*
X24472500Y-12560000D02*
X24432500Y-12600000D01*
X24508350Y-9956875D02*
X24548350Y-9996875D01*
X24548350Y-9956875D02*
X24508350Y-9996875D01*
X24677317Y-12576250D02*
X24717317Y-12616250D01*
X24717317Y-12576250D02*
X24677317Y-12616250D01*
X24902000Y-8684000D02*
X24942000Y-8724000D01*
X24942000Y-8684000D02*
X24902000Y-8724000D01*
X24935500Y-12946700D02*
X24975500Y-12986700D01*
X24975500Y-12946700D02*
X24935500Y-12986700D01*
X24935562Y-10733750D02*
X24975562Y-10773750D01*
X24975562Y-10733750D02*
X24935562Y-10773750D01*
X24989312Y-11099375D02*
X25029312Y-11139375D01*
X25029312Y-11099375D02*
X24989312Y-11139375D01*
X24989312Y-11448125D02*
X25029312Y-11488125D01*
X25029312Y-11448125D02*
X24989312Y-11488125D01*
X25227600Y-7248150D02*
X25267600Y-7288150D01*
X25267600Y-7248150D02*
X25227600Y-7288150D01*
X25245000Y-8087500D02*
X25285000Y-8127500D01*
X25285000Y-8087500D02*
X25245000Y-8127500D01*
X25382500Y-14392500D02*
X25422500Y-14432500D01*
X25422500Y-14392500D02*
X25382500Y-14432500D01*
X25460850Y-8051875D02*
X25500850Y-8091875D01*
X25500850Y-8051875D02*
X25460850Y-8091875D01*
X25460850Y-9004375D02*
X25500850Y-9044375D01*
X25500850Y-9004375D02*
X25460850Y-9044375D01*
X25571000Y-15203000D02*
X25611000Y-15243000D01*
X25611000Y-15203000D02*
X25571000Y-15243000D01*
X25630000Y-16300436D02*
X25670000Y-16340436D01*
X25670000Y-16300436D02*
X25630000Y-16340436D01*
X25830000Y-14977500D02*
X25870000Y-15017500D01*
X25870000Y-14977500D02*
X25830000Y-15017500D01*
X25844000Y-10588000D02*
X25884000Y-10628000D01*
X25884000Y-10588000D02*
X25844000Y-10628000D01*
X25874072Y-13307271D02*
X25914072Y-13347271D01*
X25914072Y-13307271D02*
X25874072Y-13347271D01*
X25893567Y-12680000D02*
X25933567Y-12720000D01*
X25933567Y-12680000D02*
X25893567Y-12720000D01*
X25917605Y-13750000D02*
X25957605Y-13790000D01*
X25957605Y-13750000D02*
X25917605Y-13790000D01*
X26106000Y-8918125D02*
X26146000Y-8958125D01*
X26146000Y-8918125D02*
X26106000Y-8958125D01*
X26185442Y-11084771D02*
X26225442Y-11124771D01*
X26225442Y-11084771D02*
X26185442Y-11124771D01*
X26227500Y-10806200D02*
X26267500Y-10846200D01*
X26267500Y-10806200D02*
X26227500Y-10846200D01*
X26251000Y-8942500D02*
X26291000Y-8982500D01*
X26291000Y-8942500D02*
X26251000Y-8982500D01*
X26295900Y-9940000D02*
X26335900Y-9980000D01*
X26335900Y-9940000D02*
X26295900Y-9980000D01*
X26337500Y-12472500D02*
X26377500Y-12512500D01*
X26377500Y-12472500D02*
X26337500Y-12512500D01*
X26361038Y-10771450D02*
X26401038Y-10811450D01*
X26401038Y-10771450D02*
X26361038Y-10811450D01*
X26393544Y-10674004D02*
X26433544Y-10714004D01*
X26433544Y-10674004D02*
X26393544Y-10714004D01*
X26438524Y-10090075D02*
X26478524Y-10130075D01*
X26478524Y-10090075D02*
X26438524Y-10130075D01*
X26443687Y-9153175D02*
X26483687Y-9193175D01*
X26483687Y-9153175D02*
X26443687Y-9193175D01*
X26497000Y-10690000D02*
X26537000Y-10730000D01*
X26537000Y-10690000D02*
X26497000Y-10730000D01*
X26622587Y-8803125D02*
X26662587Y-8843125D01*
X26662587Y-8803125D02*
X26622587Y-8843125D01*
X26622587Y-9298075D02*
X26662587Y-9338075D01*
X26662587Y-9298075D02*
X26622587Y-9338075D01*
X26818000Y-8687000D02*
X26858000Y-8727000D01*
X26858000Y-8687000D02*
X26818000Y-8727000D01*
X26863975Y-11465000D02*
X26903975Y-11505000D01*
X26903975Y-11465000D02*
X26863975Y-11505000D01*
X26887000Y-10800450D02*
X26927000Y-10840450D01*
X26927000Y-10800450D02*
X26887000Y-10840450D01*
X27105000Y-16260000D02*
X27145000Y-16300000D01*
X27145000Y-16260000D02*
X27105000Y-16300000D01*
X27242942Y-14577271D02*
X27282942Y-14617271D01*
X27282942Y-14577271D02*
X27242942Y-14617271D01*
X27277500Y-14405000D02*
X27317500Y-14445000D01*
X27317500Y-14405000D02*
X27277500Y-14445000D01*
X27300092Y-15609146D02*
X27340092Y-15649146D01*
X27340092Y-15609146D02*
X27300092Y-15649146D01*
X27396187Y-8035000D02*
X27436187Y-8075000D01*
X27436187Y-8035000D02*
X27396187Y-8075000D01*
X27396187Y-9153175D02*
X27436187Y-9193175D01*
X27436187Y-9153175D02*
X27396187Y-9193175D01*
X27764000Y-10578000D02*
X27804000Y-10618000D01*
X27804000Y-10578000D02*
X27764000Y-10618000D01*
X27816475Y-12654425D02*
X27856475Y-12694425D01*
X27856475Y-12654425D02*
X27816475Y-12694425D01*
X27822605Y-13353125D02*
X27862605Y-13393125D01*
X27862605Y-13353125D02*
X27822605Y-13393125D01*
X27825000Y-13052450D02*
X27865000Y-13092450D01*
X27865000Y-13052450D02*
X27825000Y-13092450D01*
X27852943Y-13750000D02*
X27892943Y-13790000D01*
X27892943Y-13750000D02*
X27852943Y-13790000D01*
X27855717Y-15291646D02*
X27895717Y-15331646D01*
X27895717Y-15291646D02*
X27855717Y-15331646D01*
X27877942Y-14894771D02*
X27917942Y-14934771D01*
X27917942Y-14894771D02*
X27877942Y-14934771D01*
X27877942Y-14994722D02*
X27917942Y-15034722D01*
X27917942Y-14994722D02*
X27877942Y-15034722D01*
X27997404Y-8990550D02*
X28037404Y-9030550D01*
X28037404Y-8990550D02*
X27997404Y-9030550D01*
X28021600Y-10978200D02*
X28061600Y-11018200D01*
X28061600Y-10978200D02*
X28021600Y-11018200D01*
X28110500Y-11091696D02*
X28150500Y-11131696D01*
X28150500Y-11091696D02*
X28110500Y-11131696D01*
X28150000Y-9135050D02*
X28190000Y-9175050D01*
X28190000Y-9135050D02*
X28150000Y-9175050D01*
X28251000Y-12552000D02*
X28291000Y-12592000D01*
X28291000Y-12552000D02*
X28251000Y-12592000D01*
X28354192Y-9894146D02*
X28394192Y-9934146D01*
X28394192Y-9894146D02*
X28354192Y-9934146D01*
X28397725Y-10954475D02*
X28437725Y-10994475D01*
X28437725Y-10954475D02*
X28397725Y-10994475D01*
X28402600Y-13086400D02*
X28442600Y-13126400D01*
X28442600Y-13086400D02*
X28402600Y-13126400D01*
X28570000Y-12031000D02*
X28610000Y-12071000D01*
X28610000Y-12031000D02*
X28570000Y-12071000D01*
X28577225Y-12923700D02*
X28617225Y-12963700D01*
X28617225Y-12923700D02*
X28577225Y-12963700D01*
X28725000Y-8674000D02*
X28765000Y-8714000D01*
X28765000Y-8674000D02*
X28725000Y-8714000D01*
X28756825Y-11448125D02*
X28796825Y-11488125D01*
X28796825Y-11448125D02*
X28756825Y-11488125D01*
X28782450Y-11005396D02*
X28822450Y-11045396D01*
X28822450Y-11005396D02*
X28782450Y-11045396D01*
X29042500Y-9108175D02*
X29082500Y-9148175D01*
X29082500Y-9108175D02*
X29042500Y-9148175D01*
X29170000Y-14420000D02*
X29210000Y-14460000D01*
X29210000Y-14420000D02*
X29170000Y-14460000D01*
X29291600Y-8068521D02*
X29331600Y-8108521D01*
X29331600Y-8068521D02*
X29291600Y-8108521D01*
X29440000Y-16290000D02*
X29480000Y-16330000D01*
X29480000Y-16290000D02*
X29440000Y-16330000D01*
X29682000Y-10577000D02*
X29722000Y-10617000D01*
X29722000Y-10577000D02*
X29682000Y-10617000D01*
X29977000Y-8866000D02*
X30017000Y-8906000D01*
X30017000Y-8866000D02*
X29977000Y-8906000D01*
X30035712Y-9517500D02*
X30075712Y-9557500D01*
X30075712Y-9517500D02*
X30035712Y-9557500D01*
X30147000Y-12542000D02*
X30187000Y-12582000D01*
X30187000Y-12542000D02*
X30147000Y-12582000D01*
X30154975Y-11171825D02*
X30194975Y-11211825D01*
X30194975Y-11171825D02*
X30154975Y-11211825D01*
X30156000Y-8914550D02*
X30196000Y-8954550D01*
X30196000Y-8914550D02*
X30156000Y-8954550D01*
X30220000Y-10972500D02*
X30260000Y-11012500D01*
X30260000Y-10972500D02*
X30220000Y-11012500D01*
X30223350Y-9956875D02*
X30263350Y-9996875D01*
X30263350Y-9956875D02*
X30223350Y-9996875D01*
X30362605Y-13370000D02*
X30402605Y-13410000D01*
X30402605Y-13370000D02*
X30362605Y-13410000D01*
X30382100Y-10750625D02*
X30422100Y-10790625D01*
X30422100Y-10750625D02*
X30382100Y-10790625D01*
X30518000Y-10894000D02*
X30558000Y-10934000D01*
X30558000Y-10894000D02*
X30518000Y-10934000D01*
X30521355Y-13750000D02*
X30561355Y-13790000D01*
X30561355Y-13750000D02*
X30521355Y-13790000D01*
X30529000Y-11275000D02*
X30569000Y-11315000D01*
X30569000Y-11275000D02*
X30529000Y-11315000D01*
X30540850Y-14957500D02*
X30580850Y-14997500D01*
X30580850Y-14957500D02*
X30540850Y-14997500D01*
X30609000Y-8685000D02*
X30649000Y-8725000D01*
X30649000Y-8685000D02*
X30609000Y-8725000D01*
X30760000Y-13011000D02*
X30800000Y-13051000D01*
X30800000Y-13011000D02*
X30760000Y-13051000D01*
X30769000Y-10805000D02*
X30809000Y-10845000D01*
X30809000Y-10805000D02*
X30769000Y-10845000D01*
X30839650Y-11171825D02*
X30879650Y-11211825D01*
X30879650Y-11171825D02*
X30839650Y-11211825D01*
X30894975Y-12902250D02*
X30934975Y-12942250D01*
X30934975Y-12902250D02*
X30894975Y-12942250D01*
X30912100Y-12576250D02*
X30952100Y-12616250D01*
X30952100Y-12576250D02*
X30912100Y-12616250D01*
X30985000Y-10922500D02*
X31025000Y-10962500D01*
X31025000Y-10922500D02*
X30985000Y-10962500D01*
X30991475Y-11099375D02*
X31031475Y-11139375D01*
X31031475Y-11099375D02*
X30991475Y-11139375D01*
X30991475Y-11473500D02*
X31031475Y-11513500D01*
X31031475Y-11473500D02*
X30991475Y-11513500D01*
X31004950Y-7265050D02*
X31044950Y-7305050D01*
X31044950Y-7265050D02*
X31004950Y-7305050D01*
X31004950Y-7479375D02*
X31044950Y-7519375D01*
X31044950Y-7479375D02*
X31004950Y-7519375D01*
X31175850Y-14868175D02*
X31215850Y-14908175D01*
X31215850Y-14868175D02*
X31175850Y-14908175D01*
X31183962Y-15258125D02*
X31223962Y-15298125D01*
X31223962Y-15258125D02*
X31183962Y-15298125D01*
X31321000Y-7370000D02*
X31361000Y-7410000D01*
X31361000Y-7370000D02*
X31321000Y-7410000D01*
X31342000Y-9043000D02*
X31382000Y-9083000D01*
X31382000Y-9043000D02*
X31342000Y-9083000D01*
X31412000Y-8479000D02*
X31452000Y-8519000D01*
X31452000Y-8479000D02*
X31412000Y-8519000D01*
X31462500Y-9108175D02*
X31502500Y-9148175D01*
X31502500Y-9108175D02*
X31462500Y-9148175D01*
X31571000Y-10589000D02*
X31611000Y-10629000D01*
X31611000Y-10589000D02*
X31571000Y-10629000D01*
X31677500Y-12145000D02*
X31717500Y-12185000D01*
X31717500Y-12145000D02*
X31677500Y-12185000D01*
X31680000Y-12477500D02*
X31720000Y-12517500D01*
X31720000Y-12477500D02*
X31680000Y-12517500D01*
X31757500Y-11162500D02*
X31797500Y-11202500D01*
X31797500Y-11162500D02*
X31757500Y-11202500D01*
X31767317Y-11045000D02*
X31807317Y-11085000D01*
X31807317Y-11045000D02*
X31767317Y-11085000D01*
X31780000Y-11937500D02*
X31820000Y-11977500D01*
X31820000Y-11937500D02*
X31780000Y-11977500D01*
X31790000Y-14395000D02*
X31830000Y-14435000D01*
X31830000Y-14395000D02*
X31790000Y-14435000D01*
X31864600Y-11465000D02*
X31904600Y-11505000D01*
X31904600Y-11465000D02*
X31864600Y-11505000D01*
X31890225Y-9153175D02*
X31930225Y-9193175D01*
X31930225Y-9153175D02*
X31890225Y-9193175D01*
X31962000Y-8934000D02*
X32002000Y-8974000D01*
X32002000Y-8934000D02*
X31962000Y-8974000D01*
X32036825Y-8193750D02*
X32076825Y-8233750D01*
X32076825Y-8193750D02*
X32036825Y-8233750D01*
X32036825Y-8749375D02*
X32076825Y-8789375D01*
X32076825Y-8749375D02*
X32036825Y-8789375D01*
X32110000Y-10880050D02*
X32150000Y-10920050D01*
X32150000Y-10880050D02*
X32110000Y-10920050D01*
X32116200Y-7346000D02*
X32156200Y-7386000D01*
X32156200Y-7346000D02*
X32116200Y-7386000D01*
X32116200Y-7479375D02*
X32156200Y-7519375D01*
X32156200Y-7479375D02*
X32116200Y-7519375D01*
X32128350Y-8051875D02*
X32168350Y-8091875D01*
X32168350Y-8051875D02*
X32128350Y-8091875D01*
X32195575Y-7409500D02*
X32235575Y-7449500D01*
X32235575Y-7409500D02*
X32195575Y-7449500D01*
X32200800Y-8571000D02*
X32240800Y-8611000D01*
X32240800Y-8571000D02*
X32200800Y-8611000D01*
X32218000Y-11297000D02*
X32258000Y-11337000D01*
X32258000Y-11297000D02*
X32218000Y-11337000D01*
X32232500Y-8242500D02*
X32272500Y-8282500D01*
X32272500Y-8242500D02*
X32232500Y-8282500D01*
X32276000Y-10862000D02*
X32316000Y-10902000D01*
X32316000Y-10862000D02*
X32276000Y-10902000D01*
X32452775Y-9330375D02*
X32492775Y-9370375D01*
X32492775Y-9330375D02*
X32452775Y-9370375D01*
X32456850Y-11235375D02*
X32496850Y-11275375D01*
X32496850Y-11235375D02*
X32456850Y-11275375D01*
X32525225Y-9560000D02*
X32565225Y-9600000D01*
X32565225Y-9560000D02*
X32525225Y-9600000D01*
X32540000Y-16265000D02*
X32580000Y-16305000D01*
X32580000Y-16265000D02*
X32540000Y-16305000D01*
X32972587Y-9153175D02*
X33012587Y-9193175D01*
X33012587Y-9153175D02*
X32972587Y-9193175D01*
X32972587Y-9358750D02*
X33012587Y-9398750D01*
X33012587Y-9358750D02*
X32972587Y-9398750D01*
X33058625Y-15258125D02*
X33098625Y-15298125D01*
X33098625Y-15258125D02*
X33058625Y-15298125D01*
X33061355Y-13052500D02*
X33101355Y-13092500D01*
X33101355Y-13052500D02*
X33061355Y-13092500D01*
X33061355Y-13370000D02*
X33101355Y-13410000D01*
X33101355Y-13370000D02*
X33061355Y-13410000D01*
X33080850Y-14940625D02*
X33120850Y-14980625D01*
X33120850Y-14940625D02*
X33080850Y-14980625D01*
X33094000Y-8378000D02*
X33134000Y-8418000D01*
X33134000Y-8378000D02*
X33094000Y-8418000D01*
X33114000Y-8918000D02*
X33154000Y-8958000D01*
X33154000Y-8918000D02*
X33114000Y-8958000D01*
X33140115Y-13726880D02*
X33180115Y-13766880D01*
X33180115Y-13726880D02*
X33140115Y-13766880D01*
X33178615Y-14961410D02*
X33218615Y-15001410D01*
X33218615Y-14961410D02*
X33178615Y-15001410D01*
X33250000Y-12502500D02*
X33290000Y-12542500D01*
X33290000Y-12502500D02*
X33250000Y-12542500D01*
X33444500Y-7320625D02*
X33484500Y-7360625D01*
X33484500Y-7320625D02*
X33444500Y-7360625D01*
X33487942Y-11640396D02*
X33527942Y-11680396D01*
X33527942Y-11640396D02*
X33487942Y-11680396D01*
X33500000Y-11057500D02*
X33540000Y-11097500D01*
X33540000Y-11057500D02*
X33500000Y-11097500D01*
X33502587Y-12057500D02*
X33542587Y-12097500D01*
X33542587Y-12057500D02*
X33502587Y-12097500D01*
X33508000Y-7876250D02*
X33548000Y-7916250D01*
X33548000Y-7876250D02*
X33508000Y-7916250D01*
X33527000Y-8735000D02*
X33567000Y-8775000D01*
X33567000Y-8735000D02*
X33527000Y-8775000D01*
X33528212Y-12692500D02*
X33568213Y-12732500D01*
X33568213Y-12692500D02*
X33528212Y-12732500D01*
X33965000Y-10619000D02*
X34005000Y-10659000D01*
X34005000Y-10619000D02*
X33965000Y-10659000D01*
X34425000Y-14415000D02*
X34465000Y-14455000D01*
X34465000Y-14415000D02*
X34425000Y-14455000D01*
X34455000Y-16270000D02*
X34495000Y-16310000D01*
X34495000Y-16270000D02*
X34455000Y-16310000D01*
X34746250Y-9028750D02*
X34786250Y-9068750D01*
X34786250Y-9028750D02*
X34746250Y-9068750D01*
X34852500Y-12902250D02*
X34892500Y-12942250D01*
X34892500Y-12902250D02*
X34852500Y-12942250D01*
X34874831Y-13069146D02*
X34914831Y-13109146D01*
X34914831Y-13069146D02*
X34874831Y-13109146D01*
X34963625Y-15275000D02*
X35003625Y-15315000D01*
X35003625Y-15275000D02*
X34963625Y-15315000D01*
X34966356Y-13370000D02*
X35006356Y-13410000D01*
X35006356Y-13370000D02*
X34966356Y-13410000D01*
X34968500Y-10838500D02*
X35008500Y-10878500D01*
X35008500Y-10838500D02*
X34968500Y-10878500D01*
X34985850Y-14957500D02*
X35025850Y-14997500D01*
X35025850Y-14957500D02*
X34985850Y-14997500D01*
X35016188Y-9098538D02*
X35056188Y-9138538D01*
X35056188Y-9098538D02*
X35016188Y-9138538D01*
X35016188Y-9543125D02*
X35056188Y-9583125D01*
X35056188Y-9543125D02*
X35016188Y-9583125D01*
X35541475Y-9225625D02*
X35581475Y-9265625D01*
X35581475Y-9225625D02*
X35541475Y-9265625D01*
X36327500Y-12515000D02*
X36367500Y-12555000D01*
X36367500Y-12515000D02*
X36327500Y-12555000D01*
X36327500Y-14420000D02*
X36367500Y-14460000D01*
X36367500Y-14420000D02*
X36327500Y-14460000D01*
X36331000Y-10673000D02*
X36371000Y-10713000D01*
X36371000Y-10673000D02*
X36331000Y-10713000D01*
X36355000Y-16270000D02*
X36395000Y-16310000D01*
X36395000Y-16270000D02*
X36355000Y-16310000D01*
X36382000Y-12813000D02*
X36422000Y-12853000D01*
X36422000Y-12813000D02*
X36382000Y-12853000D01*
X36414000Y-12146000D02*
X36454000Y-12186000D01*
X36454000Y-12146000D02*
X36414000Y-12186000D01*
X36472000Y-10269000D02*
X36512000Y-10309000D01*
X36512000Y-10269000D02*
X36472000Y-10309000D01*
X36482000Y-14041000D02*
X36522000Y-14081000D01*
X36522000Y-14041000D02*
X36482000Y-14081000D01*
X36504000Y-13044000D02*
X36544000Y-13084000D01*
X36544000Y-13044000D02*
X36504000Y-13084000D01*
X36511000Y-11055000D02*
X36551000Y-11095000D01*
X36551000Y-11055000D02*
X36511000Y-11095000D01*
D13*
X7621733Y-6727063D02*
G75*
G03*
X7621733Y-6727063I-30000J0D01*
G01*
D11*
X7561733Y-6697063D02*
X7561733Y-6757063D01*
X7621733Y-6697063D02*
X7621733Y-6757063D01*
X7561733Y-6757063D02*
G75*
G03*
X7621733Y-6757063I30000J0D01*
G01*
X7621733Y-6697063D02*
G75*
G03*
X7561733Y-6697063I-30000J0D01*
G01*
D13*
X7621733Y-7145063D02*
G75*
G03*
X7621733Y-7145063I-30000J0D01*
G01*
D11*
X7561733Y-7090063D02*
X7561733Y-7200063D01*
X7621733Y-7090063D02*
X7621733Y-7200063D01*
X7561733Y-7200063D02*
G75*
G03*
X7621733Y-7200063I30000J0D01*
G01*
X7621733Y-7090063D02*
G75*
G03*
X7561733Y-7090063I-30000J0D01*
G01*
D13*
X8485733Y-6727063D02*
G75*
G03*
X8485733Y-6727063I-30000J0D01*
G01*
D11*
X8425733Y-6697063D02*
X8425733Y-6757063D01*
X8485733Y-6697063D02*
X8485733Y-6757063D01*
X8425733Y-6757063D02*
G75*
G03*
X8485733Y-6757063I30000J0D01*
G01*
X8485733Y-6697063D02*
G75*
G03*
X8425733Y-6697063I-30000J0D01*
G01*
D13*
X8485733Y-7145063D02*
G75*
G03*
X8485733Y-7145063I-30000J0D01*
G01*
D11*
X8425733Y-7090063D02*
X8425733Y-7200063D01*
X8485733Y-7090063D02*
X8485733Y-7200063D01*
X8425733Y-7200063D02*
G75*
G03*
X8485733Y-7200063I30000J0D01*
G01*
X8485733Y-7090063D02*
G75*
G03*
X8425733Y-7090063I-30000J0D01*
G01*
D14*
X20908850Y-15412250D02*
X20908850Y-15512250D01*
X20858850Y-15462250D02*
X20958850Y-15462250D01*
X20908850Y-15666250D02*
X20908850Y-15766250D01*
X20858850Y-15716250D02*
X20958850Y-15716250D01*
X20908850Y-15920250D02*
X20908850Y-16020250D01*
X20858850Y-15970250D02*
X20958850Y-15970250D01*
X21162850Y-15412250D02*
X21162850Y-15512250D01*
X21112850Y-15462250D02*
X21212850Y-15462250D01*
X21162850Y-15666250D02*
X21162850Y-15766250D01*
X21112850Y-15716250D02*
X21212850Y-15716250D01*
X21162850Y-15920250D02*
X21162850Y-16020250D01*
X21112850Y-15970250D02*
X21212850Y-15970250D01*
X35468750Y-7321250D02*
X35468750Y-7421250D01*
X35418750Y-7371250D02*
X35518750Y-7371250D01*
X35468750Y-8771250D02*
X35468750Y-8871250D01*
X35418750Y-8821250D02*
X35518750Y-8821250D01*
X35718750Y-8771250D02*
X35718750Y-8871250D01*
X35668750Y-8821250D02*
X35768750Y-8821250D01*
X35968750Y-7321250D02*
X35968750Y-7421250D01*
X35918750Y-7371250D02*
X36018750Y-7371250D01*
X35968750Y-8771250D02*
X35968750Y-8871250D01*
X35918750Y-8821250D02*
X36018750Y-8821250D01*
D15*
X35250675Y-8163175D02*
X35250675Y-7979325D01*
X35066825Y-7979325D01*
X35066825Y-8163175D01*
X35250675Y-8163175D01*
X36370675Y-8163175D02*
X36370675Y-7979325D01*
X36186825Y-7979325D01*
X36186825Y-8163175D01*
X36370675Y-8163175D01*
D11*
X6435147Y-16721462D02*
X6435147Y-16521462D01*
X6482766Y-16521462D01*
X6511338Y-16530986D01*
X6530385Y-16550034D01*
X6539909Y-16569082D01*
X6549433Y-16607177D01*
X6549433Y-16635748D01*
X6539909Y-16673843D01*
X6530385Y-16692891D01*
X6511338Y-16711939D01*
X6482766Y-16721462D01*
X6435147Y-16721462D01*
X6635147Y-16721462D02*
X6635147Y-16588129D01*
X6635147Y-16626224D02*
X6644671Y-16607177D01*
X6654195Y-16597653D01*
X6673242Y-16588129D01*
X6692290Y-16588129D01*
X6758957Y-16721462D02*
X6758957Y-16588129D01*
X6758957Y-16521462D02*
X6749433Y-16530986D01*
X6758957Y-16540510D01*
X6768481Y-16530986D01*
X6758957Y-16521462D01*
X6758957Y-16540510D01*
X6882766Y-16721462D02*
X6863719Y-16711939D01*
X6854195Y-16692891D01*
X6854195Y-16521462D01*
X6987528Y-16721462D02*
X6968481Y-16711939D01*
X6958957Y-16692891D01*
X6958957Y-16521462D01*
X7216100Y-16721462D02*
X7216100Y-16521462D01*
X7282766Y-16664320D01*
X7349433Y-16521462D01*
X7349433Y-16721462D01*
X7530385Y-16721462D02*
X7530385Y-16616701D01*
X7520862Y-16597653D01*
X7501814Y-16588129D01*
X7463719Y-16588129D01*
X7444671Y-16597653D01*
X7530385Y-16711939D02*
X7511338Y-16721462D01*
X7463719Y-16721462D01*
X7444671Y-16711939D01*
X7435147Y-16692891D01*
X7435147Y-16673843D01*
X7444671Y-16654796D01*
X7463719Y-16645272D01*
X7511338Y-16645272D01*
X7530385Y-16635748D01*
X7625623Y-16588129D02*
X7625623Y-16788129D01*
X7625623Y-16597653D02*
X7644671Y-16588129D01*
X7682766Y-16588129D01*
X7701814Y-16597653D01*
X7711338Y-16607177D01*
X7720862Y-16626224D01*
X7720862Y-16683367D01*
X7711338Y-16702415D01*
X7701814Y-16711939D01*
X7682766Y-16721462D01*
X7644671Y-16721462D01*
X7625623Y-16711939D01*
X7806576Y-16702415D02*
X7816100Y-16711939D01*
X7806576Y-16721462D01*
X7797052Y-16711939D01*
X7806576Y-16702415D01*
X7806576Y-16721462D01*
X7806576Y-16597653D02*
X7816100Y-16607177D01*
X7806576Y-16616701D01*
X7797052Y-16607177D01*
X7806576Y-16597653D01*
X7806576Y-16616701D01*
D12*
X6137528Y-17030986D02*
X6177528Y-17070986D01*
X6177528Y-17030986D02*
X6137528Y-17070986D01*
D11*
X6473242Y-16941463D02*
X6492290Y-16941463D01*
X6511338Y-16950986D01*
X6520862Y-16960510D01*
X6530385Y-16979558D01*
X6539909Y-17017653D01*
X6539909Y-17065272D01*
X6530385Y-17103367D01*
X6520862Y-17122415D01*
X6511338Y-17131939D01*
X6492290Y-17141463D01*
X6473242Y-17141463D01*
X6454195Y-17131939D01*
X6444671Y-17122415D01*
X6435147Y-17103367D01*
X6425623Y-17065272D01*
X6425623Y-17017653D01*
X6435147Y-16979558D01*
X6444671Y-16960510D01*
X6454195Y-16950986D01*
X6473242Y-16941463D01*
X6625623Y-17122415D02*
X6635147Y-17131939D01*
X6625623Y-17141463D01*
X6616100Y-17131939D01*
X6625623Y-17122415D01*
X6625623Y-17141463D01*
X6806576Y-17008129D02*
X6806576Y-17141463D01*
X6758957Y-16931939D02*
X6711338Y-17074796D01*
X6835147Y-17074796D01*
X6949433Y-16941463D02*
X6968481Y-16941463D01*
X6987528Y-16950986D01*
X6997052Y-16960510D01*
X7006576Y-16979558D01*
X7016100Y-17017653D01*
X7016100Y-17065272D01*
X7006576Y-17103367D01*
X6997052Y-17122415D01*
X6987528Y-17131939D01*
X6968481Y-17141463D01*
X6949433Y-17141463D01*
X6930385Y-17131939D01*
X6920862Y-17122415D01*
X6911338Y-17103367D01*
X6901814Y-17065272D01*
X6901814Y-17017653D01*
X6911338Y-16979558D01*
X6920862Y-16960510D01*
X6930385Y-16950986D01*
X6949433Y-16941463D01*
X7139909Y-16941463D02*
X7158957Y-16941463D01*
X7178004Y-16950986D01*
X7187528Y-16960510D01*
X7197052Y-16979558D01*
X7206576Y-17017653D01*
X7206576Y-17065272D01*
X7197052Y-17103367D01*
X7187528Y-17122415D01*
X7178004Y-17131939D01*
X7158957Y-17141463D01*
X7139909Y-17141463D01*
X7120862Y-17131939D01*
X7111338Y-17122415D01*
X7101814Y-17103367D01*
X7092290Y-17065272D01*
X7092290Y-17017653D01*
X7101814Y-16979558D01*
X7111338Y-16960510D01*
X7120862Y-16950986D01*
X7139909Y-16941463D01*
X7292290Y-17141463D02*
X7292290Y-17008129D01*
X7292290Y-17027177D02*
X7301814Y-17017653D01*
X7320862Y-17008129D01*
X7349433Y-17008129D01*
X7368481Y-17017653D01*
X7378004Y-17036701D01*
X7378004Y-17141463D01*
X7378004Y-17036701D02*
X7387528Y-17017653D01*
X7406576Y-17008129D01*
X7435147Y-17008129D01*
X7454195Y-17017653D01*
X7463719Y-17036701D01*
X7463719Y-17141463D01*
X7558957Y-17141463D02*
X7558957Y-17008129D01*
X7558957Y-17027177D02*
X7568481Y-17017653D01*
X7587528Y-17008129D01*
X7616100Y-17008129D01*
X7635147Y-17017653D01*
X7644671Y-17036701D01*
X7644671Y-17141463D01*
X7644671Y-17036701D02*
X7654195Y-17017653D01*
X7673242Y-17008129D01*
X7701814Y-17008129D01*
X7720862Y-17017653D01*
X7730385Y-17036701D01*
X7730385Y-17141463D01*
X8120862Y-16931939D02*
X7949433Y-17189082D01*
X8378004Y-16941463D02*
X8397052Y-16941463D01*
X8416100Y-16950986D01*
X8425624Y-16960510D01*
X8435147Y-16979558D01*
X8444671Y-17017653D01*
X8444671Y-17065272D01*
X8435147Y-17103367D01*
X8425624Y-17122415D01*
X8416100Y-17131939D01*
X8397052Y-17141463D01*
X8378004Y-17141463D01*
X8358957Y-17131939D01*
X8349433Y-17122415D01*
X8339909Y-17103367D01*
X8330385Y-17065272D01*
X8330385Y-17017653D01*
X8339909Y-16979558D01*
X8349433Y-16960510D01*
X8358957Y-16950986D01*
X8378004Y-16941463D01*
X8530385Y-17122415D02*
X8539909Y-17131939D01*
X8530385Y-17141463D01*
X8520862Y-17131939D01*
X8530385Y-17122415D01*
X8530385Y-17141463D01*
X8663719Y-16941463D02*
X8682766Y-16941463D01*
X8701814Y-16950986D01*
X8711338Y-16960510D01*
X8720862Y-16979558D01*
X8730385Y-17017653D01*
X8730385Y-17065272D01*
X8720862Y-17103367D01*
X8711338Y-17122415D01*
X8701814Y-17131939D01*
X8682766Y-17141463D01*
X8663719Y-17141463D01*
X8644671Y-17131939D01*
X8635147Y-17122415D01*
X8625624Y-17103367D01*
X8616100Y-17065272D01*
X8616100Y-17017653D01*
X8625624Y-16979558D01*
X8635147Y-16960510D01*
X8644671Y-16950986D01*
X8663719Y-16941463D01*
X8920862Y-17141463D02*
X8806576Y-17141463D01*
X8863719Y-17141463D02*
X8863719Y-16941463D01*
X8844671Y-16970034D01*
X8825624Y-16989082D01*
X8806576Y-16998605D01*
X9101814Y-16941463D02*
X9006576Y-16941463D01*
X8997052Y-17036701D01*
X9006576Y-17027177D01*
X9025624Y-17017653D01*
X9073243Y-17017653D01*
X9092290Y-17027177D01*
X9101814Y-17036701D01*
X9111338Y-17055748D01*
X9111338Y-17103367D01*
X9101814Y-17122415D01*
X9092290Y-17131939D01*
X9073243Y-17141463D01*
X9025624Y-17141463D01*
X9006576Y-17131939D01*
X8997052Y-17122415D01*
X9178004Y-16941463D02*
X9311338Y-16941463D01*
X9225624Y-17141463D01*
X9378004Y-16941463D02*
X9378004Y-16979558D01*
X9454195Y-16941463D02*
X9454195Y-16979558D01*
X9749433Y-17217653D02*
X9739909Y-17208129D01*
X9720862Y-17179558D01*
X9711338Y-17160510D01*
X9701814Y-17131939D01*
X9692290Y-17084320D01*
X9692290Y-17046224D01*
X9701814Y-16998605D01*
X9711338Y-16970034D01*
X9720862Y-16950986D01*
X9739909Y-16922415D01*
X9749433Y-16912891D01*
X9911338Y-16941463D02*
X9873243Y-16941463D01*
X9854195Y-16950986D01*
X9844671Y-16960510D01*
X9825624Y-16989082D01*
X9816100Y-17027177D01*
X9816100Y-17103367D01*
X9825624Y-17122415D01*
X9835147Y-17131939D01*
X9854195Y-17141463D01*
X9892290Y-17141463D01*
X9911338Y-17131939D01*
X9920862Y-17122415D01*
X9930385Y-17103367D01*
X9930385Y-17055748D01*
X9920862Y-17036701D01*
X9911338Y-17027177D01*
X9892290Y-17017653D01*
X9854195Y-17017653D01*
X9835147Y-17027177D01*
X9825624Y-17036701D01*
X9816100Y-17055748D01*
X10120862Y-17141463D02*
X10006576Y-17141463D01*
X10063719Y-17141463D02*
X10063719Y-16941463D01*
X10044671Y-16970034D01*
X10025624Y-16989082D01*
X10006576Y-16998605D01*
X10216100Y-17141463D02*
X10254195Y-17141463D01*
X10273243Y-17131939D01*
X10282766Y-17122415D01*
X10301814Y-17093844D01*
X10311338Y-17055748D01*
X10311338Y-16979558D01*
X10301814Y-16960510D01*
X10292290Y-16950986D01*
X10273243Y-16941463D01*
X10235147Y-16941463D01*
X10216100Y-16950986D01*
X10206576Y-16960510D01*
X10197052Y-16979558D01*
X10197052Y-17027177D01*
X10206576Y-17046224D01*
X10216100Y-17055748D01*
X10235147Y-17065272D01*
X10273243Y-17065272D01*
X10292290Y-17055748D01*
X10301814Y-17046224D01*
X10311338Y-17027177D01*
X10549433Y-17141463D02*
X10549433Y-16941463D01*
X10635147Y-17141463D02*
X10635147Y-17036701D01*
X10625624Y-17017653D01*
X10606576Y-17008129D01*
X10578004Y-17008129D01*
X10558957Y-17017653D01*
X10549433Y-17027177D01*
X10758957Y-17141463D02*
X10739909Y-17131939D01*
X10730385Y-17122415D01*
X10720862Y-17103367D01*
X10720862Y-17046224D01*
X10730385Y-17027177D01*
X10739909Y-17017653D01*
X10758957Y-17008129D01*
X10787528Y-17008129D01*
X10806576Y-17017653D01*
X10816100Y-17027177D01*
X10825624Y-17046224D01*
X10825624Y-17103367D01*
X10816100Y-17122415D01*
X10806576Y-17131939D01*
X10787528Y-17141463D01*
X10758957Y-17141463D01*
X10939909Y-17141463D02*
X10920862Y-17131939D01*
X10911338Y-17112891D01*
X10911338Y-16941463D01*
X11092290Y-17131939D02*
X11073243Y-17141463D01*
X11035147Y-17141463D01*
X11016100Y-17131939D01*
X11006576Y-17112891D01*
X11006576Y-17036701D01*
X11016100Y-17017653D01*
X11035147Y-17008129D01*
X11073243Y-17008129D01*
X11092290Y-17017653D01*
X11101814Y-17036701D01*
X11101814Y-17055748D01*
X11006576Y-17074796D01*
X11178004Y-17131939D02*
X11197052Y-17141463D01*
X11235147Y-17141463D01*
X11254195Y-17131939D01*
X11263719Y-17112891D01*
X11263719Y-17103367D01*
X11254195Y-17084320D01*
X11235147Y-17074796D01*
X11206576Y-17074796D01*
X11187528Y-17065272D01*
X11178004Y-17046224D01*
X11178004Y-17036701D01*
X11187528Y-17017653D01*
X11206576Y-17008129D01*
X11235147Y-17008129D01*
X11254195Y-17017653D01*
X11330385Y-17217653D02*
X11339909Y-17208129D01*
X11358957Y-17179558D01*
X11368481Y-17160510D01*
X11378004Y-17131939D01*
X11387528Y-17084320D01*
X11387528Y-17046224D01*
X11378004Y-16998605D01*
X11368481Y-16970034D01*
X11358957Y-16950986D01*
X11339909Y-16922415D01*
X11330385Y-16912891D01*
D13*
X6177528Y-17314986D02*
G75*
G03*
X6177528Y-17314986I-30000J0D01*
G01*
D11*
X6473242Y-17205463D02*
X6492290Y-17205463D01*
X6511338Y-17214986D01*
X6520862Y-17224510D01*
X6530385Y-17243558D01*
X6539909Y-17281653D01*
X6539909Y-17329272D01*
X6530385Y-17367367D01*
X6520862Y-17386415D01*
X6511338Y-17395939D01*
X6492290Y-17405463D01*
X6473242Y-17405463D01*
X6454195Y-17395939D01*
X6444671Y-17386415D01*
X6435147Y-17367367D01*
X6425623Y-17329272D01*
X6425623Y-17281653D01*
X6435147Y-17243558D01*
X6444671Y-17224510D01*
X6454195Y-17214986D01*
X6473242Y-17205463D01*
X6625623Y-17386415D02*
X6635147Y-17395939D01*
X6625623Y-17405463D01*
X6616100Y-17395939D01*
X6625623Y-17386415D01*
X6625623Y-17405463D01*
X6806576Y-17205463D02*
X6768481Y-17205463D01*
X6749433Y-17214986D01*
X6739909Y-17224510D01*
X6720862Y-17253082D01*
X6711338Y-17291177D01*
X6711338Y-17367367D01*
X6720862Y-17386415D01*
X6730385Y-17395939D01*
X6749433Y-17405463D01*
X6787528Y-17405463D01*
X6806576Y-17395939D01*
X6816100Y-17386415D01*
X6825623Y-17367367D01*
X6825623Y-17319748D01*
X6816100Y-17300701D01*
X6806576Y-17291177D01*
X6787528Y-17281653D01*
X6749433Y-17281653D01*
X6730385Y-17291177D01*
X6720862Y-17300701D01*
X6711338Y-17319748D01*
X6949433Y-17205463D02*
X6968481Y-17205463D01*
X6987528Y-17214986D01*
X6997052Y-17224510D01*
X7006576Y-17243558D01*
X7016100Y-17281653D01*
X7016100Y-17329272D01*
X7006576Y-17367367D01*
X6997052Y-17386415D01*
X6987528Y-17395939D01*
X6968481Y-17405463D01*
X6949433Y-17405463D01*
X6930385Y-17395939D01*
X6920862Y-17386415D01*
X6911338Y-17367367D01*
X6901814Y-17329272D01*
X6901814Y-17281653D01*
X6911338Y-17243558D01*
X6920862Y-17224510D01*
X6930385Y-17214986D01*
X6949433Y-17205463D01*
X7139909Y-17205463D02*
X7158957Y-17205463D01*
X7178004Y-17214986D01*
X7187528Y-17224510D01*
X7197052Y-17243558D01*
X7206576Y-17281653D01*
X7206576Y-17329272D01*
X7197052Y-17367367D01*
X7187528Y-17386415D01*
X7178004Y-17395939D01*
X7158957Y-17405463D01*
X7139909Y-17405463D01*
X7120862Y-17395939D01*
X7111338Y-17386415D01*
X7101814Y-17367367D01*
X7092290Y-17329272D01*
X7092290Y-17281653D01*
X7101814Y-17243558D01*
X7111338Y-17224510D01*
X7120862Y-17214986D01*
X7139909Y-17205463D01*
X7292290Y-17405463D02*
X7292290Y-17272129D01*
X7292290Y-17291177D02*
X7301814Y-17281653D01*
X7320862Y-17272129D01*
X7349433Y-17272129D01*
X7368481Y-17281653D01*
X7378004Y-17300701D01*
X7378004Y-17405463D01*
X7378004Y-17300701D02*
X7387528Y-17281653D01*
X7406576Y-17272129D01*
X7435147Y-17272129D01*
X7454195Y-17281653D01*
X7463719Y-17300701D01*
X7463719Y-17405463D01*
X7558957Y-17405463D02*
X7558957Y-17272129D01*
X7558957Y-17291177D02*
X7568481Y-17281653D01*
X7587528Y-17272129D01*
X7616100Y-17272129D01*
X7635147Y-17281653D01*
X7644671Y-17300701D01*
X7644671Y-17405463D01*
X7644671Y-17300701D02*
X7654195Y-17281653D01*
X7673242Y-17272129D01*
X7701814Y-17272129D01*
X7720862Y-17281653D01*
X7730385Y-17300701D01*
X7730385Y-17405463D01*
X8120862Y-17195939D02*
X7949433Y-17453082D01*
X8378004Y-17205463D02*
X8397052Y-17205463D01*
X8416100Y-17214986D01*
X8425624Y-17224510D01*
X8435147Y-17243558D01*
X8444671Y-17281653D01*
X8444671Y-17329272D01*
X8435147Y-17367367D01*
X8425624Y-17386415D01*
X8416100Y-17395939D01*
X8397052Y-17405463D01*
X8378004Y-17405463D01*
X8358957Y-17395939D01*
X8349433Y-17386415D01*
X8339909Y-17367367D01*
X8330385Y-17329272D01*
X8330385Y-17281653D01*
X8339909Y-17243558D01*
X8349433Y-17224510D01*
X8358957Y-17214986D01*
X8378004Y-17205463D01*
X8530385Y-17386415D02*
X8539909Y-17395939D01*
X8530385Y-17405463D01*
X8520862Y-17395939D01*
X8530385Y-17386415D01*
X8530385Y-17405463D01*
X8663719Y-17205463D02*
X8682766Y-17205463D01*
X8701814Y-17214986D01*
X8711338Y-17224510D01*
X8720862Y-17243558D01*
X8730385Y-17281653D01*
X8730385Y-17329272D01*
X8720862Y-17367367D01*
X8711338Y-17386415D01*
X8701814Y-17395939D01*
X8682766Y-17405463D01*
X8663719Y-17405463D01*
X8644671Y-17395939D01*
X8635147Y-17386415D01*
X8625624Y-17367367D01*
X8616100Y-17329272D01*
X8616100Y-17281653D01*
X8625624Y-17243558D01*
X8635147Y-17224510D01*
X8644671Y-17214986D01*
X8663719Y-17205463D01*
X8806576Y-17224510D02*
X8816100Y-17214986D01*
X8835147Y-17205463D01*
X8882766Y-17205463D01*
X8901814Y-17214986D01*
X8911338Y-17224510D01*
X8920862Y-17243558D01*
X8920862Y-17262605D01*
X8911338Y-17291177D01*
X8797052Y-17405463D01*
X8920862Y-17405463D01*
X8987528Y-17205463D02*
X9111338Y-17205463D01*
X9044671Y-17281653D01*
X9073243Y-17281653D01*
X9092290Y-17291177D01*
X9101814Y-17300701D01*
X9111338Y-17319748D01*
X9111338Y-17367367D01*
X9101814Y-17386415D01*
X9092290Y-17395939D01*
X9073243Y-17405463D01*
X9016100Y-17405463D01*
X8997052Y-17395939D01*
X8987528Y-17386415D01*
X9282766Y-17205463D02*
X9244671Y-17205463D01*
X9225624Y-17214986D01*
X9216100Y-17224510D01*
X9197052Y-17253082D01*
X9187528Y-17291177D01*
X9187528Y-17367367D01*
X9197052Y-17386415D01*
X9206576Y-17395939D01*
X9225624Y-17405463D01*
X9263719Y-17405463D01*
X9282766Y-17395939D01*
X9292290Y-17386415D01*
X9301814Y-17367367D01*
X9301814Y-17319748D01*
X9292290Y-17300701D01*
X9282766Y-17291177D01*
X9263719Y-17281653D01*
X9225624Y-17281653D01*
X9206576Y-17291177D01*
X9197052Y-17300701D01*
X9187528Y-17319748D01*
X9378004Y-17205463D02*
X9378004Y-17243558D01*
X9454195Y-17205463D02*
X9454195Y-17243558D01*
X9749433Y-17481653D02*
X9739909Y-17472129D01*
X9720862Y-17443558D01*
X9711338Y-17424510D01*
X9701814Y-17395939D01*
X9692290Y-17348320D01*
X9692290Y-17310224D01*
X9701814Y-17262605D01*
X9711338Y-17234034D01*
X9720862Y-17214986D01*
X9739909Y-17186415D01*
X9749433Y-17176891D01*
X9863719Y-17205463D02*
X9882766Y-17205463D01*
X9901814Y-17214986D01*
X9911338Y-17224510D01*
X9920862Y-17243558D01*
X9930385Y-17281653D01*
X9930385Y-17329272D01*
X9920862Y-17367367D01*
X9911338Y-17386415D01*
X9901814Y-17395939D01*
X9882766Y-17405463D01*
X9863719Y-17405463D01*
X9844671Y-17395939D01*
X9835147Y-17386415D01*
X9825624Y-17367367D01*
X9816100Y-17329272D01*
X9816100Y-17281653D01*
X9825624Y-17243558D01*
X9835147Y-17224510D01*
X9844671Y-17214986D01*
X9863719Y-17205463D01*
X10168481Y-17405463D02*
X10168481Y-17205463D01*
X10254195Y-17405463D02*
X10254195Y-17300701D01*
X10244671Y-17281653D01*
X10225624Y-17272129D01*
X10197052Y-17272129D01*
X10178004Y-17281653D01*
X10168481Y-17291177D01*
X10378004Y-17405463D02*
X10358957Y-17395939D01*
X10349433Y-17386415D01*
X10339909Y-17367367D01*
X10339909Y-17310224D01*
X10349433Y-17291177D01*
X10358957Y-17281653D01*
X10378004Y-17272129D01*
X10406576Y-17272129D01*
X10425624Y-17281653D01*
X10435147Y-17291177D01*
X10444671Y-17310224D01*
X10444671Y-17367367D01*
X10435147Y-17386415D01*
X10425624Y-17395939D01*
X10406576Y-17405463D01*
X10378004Y-17405463D01*
X10558957Y-17405463D02*
X10539909Y-17395939D01*
X10530385Y-17376891D01*
X10530385Y-17205463D01*
X10711338Y-17395939D02*
X10692290Y-17405463D01*
X10654195Y-17405463D01*
X10635147Y-17395939D01*
X10625624Y-17376891D01*
X10625624Y-17300701D01*
X10635147Y-17281653D01*
X10654195Y-17272129D01*
X10692290Y-17272129D01*
X10711338Y-17281653D01*
X10720862Y-17300701D01*
X10720862Y-17319748D01*
X10625624Y-17338796D01*
X10797052Y-17395939D02*
X10816100Y-17405463D01*
X10854195Y-17405463D01*
X10873243Y-17395939D01*
X10882766Y-17376891D01*
X10882766Y-17367367D01*
X10873243Y-17348320D01*
X10854195Y-17338796D01*
X10825624Y-17338796D01*
X10806576Y-17329272D01*
X10797052Y-17310224D01*
X10797052Y-17300701D01*
X10806576Y-17281653D01*
X10825624Y-17272129D01*
X10854195Y-17272129D01*
X10873243Y-17281653D01*
X11120862Y-17329272D02*
X11273242Y-17329272D01*
X11197052Y-17405463D02*
X11197052Y-17253082D01*
X11606576Y-17272129D02*
X11606576Y-17405463D01*
X11558957Y-17195939D02*
X11511338Y-17338796D01*
X11635147Y-17338796D01*
X11854195Y-17395939D02*
X11873242Y-17405463D01*
X11911338Y-17405463D01*
X11930385Y-17395939D01*
X11939909Y-17376891D01*
X11939909Y-17367367D01*
X11930385Y-17348320D01*
X11911338Y-17338796D01*
X11882766Y-17338796D01*
X11863719Y-17329272D01*
X11854195Y-17310224D01*
X11854195Y-17300701D01*
X11863719Y-17281653D01*
X11882766Y-17272129D01*
X11911338Y-17272129D01*
X11930385Y-17281653D01*
X12054195Y-17405463D02*
X12035147Y-17395939D01*
X12025623Y-17376891D01*
X12025623Y-17205463D01*
X12158957Y-17405463D02*
X12139909Y-17395939D01*
X12130385Y-17386415D01*
X12120862Y-17367367D01*
X12120862Y-17310224D01*
X12130385Y-17291177D01*
X12139909Y-17281653D01*
X12158957Y-17272129D01*
X12187528Y-17272129D01*
X12206576Y-17281653D01*
X12216100Y-17291177D01*
X12225623Y-17310224D01*
X12225623Y-17367367D01*
X12216100Y-17386415D01*
X12206576Y-17395939D01*
X12187528Y-17405463D01*
X12158957Y-17405463D01*
X12282766Y-17272129D02*
X12358957Y-17272129D01*
X12311338Y-17205463D02*
X12311338Y-17376891D01*
X12320862Y-17395939D01*
X12339909Y-17405463D01*
X12358957Y-17405463D01*
X12416100Y-17395939D02*
X12435147Y-17405463D01*
X12473242Y-17405463D01*
X12492290Y-17395939D01*
X12501814Y-17376891D01*
X12501814Y-17367367D01*
X12492290Y-17348320D01*
X12473242Y-17338796D01*
X12444671Y-17338796D01*
X12425623Y-17329272D01*
X12416100Y-17310224D01*
X12416100Y-17300701D01*
X12425623Y-17281653D01*
X12444671Y-17272129D01*
X12473242Y-17272129D01*
X12492290Y-17281653D01*
X12568481Y-17481653D02*
X12578004Y-17472129D01*
X12597052Y-17443558D01*
X12606576Y-17424510D01*
X12616100Y-17395939D01*
X12625623Y-17348320D01*
X12625623Y-17310224D01*
X12616100Y-17262605D01*
X12606576Y-17234034D01*
X12597052Y-17214986D01*
X12578004Y-17186415D01*
X12568481Y-17176891D01*
D14*
X6127528Y-17528986D02*
X6127528Y-17628986D01*
X6077528Y-17578986D02*
X6177528Y-17578986D01*
D11*
X6539909Y-17669463D02*
X6425623Y-17669463D01*
X6482766Y-17669463D02*
X6482766Y-17469463D01*
X6463719Y-17498034D01*
X6444671Y-17517082D01*
X6425623Y-17526605D01*
X6625623Y-17650415D02*
X6635147Y-17659939D01*
X6625623Y-17669463D01*
X6616100Y-17659939D01*
X6625623Y-17650415D01*
X6625623Y-17669463D01*
X6758957Y-17469463D02*
X6778004Y-17469463D01*
X6797052Y-17478986D01*
X6806576Y-17488510D01*
X6816100Y-17507558D01*
X6825623Y-17545653D01*
X6825623Y-17593272D01*
X6816100Y-17631367D01*
X6806576Y-17650415D01*
X6797052Y-17659939D01*
X6778004Y-17669463D01*
X6758957Y-17669463D01*
X6739909Y-17659939D01*
X6730385Y-17650415D01*
X6720862Y-17631367D01*
X6711338Y-17593272D01*
X6711338Y-17545653D01*
X6720862Y-17507558D01*
X6730385Y-17488510D01*
X6739909Y-17478986D01*
X6758957Y-17469463D01*
X6949433Y-17469463D02*
X6968481Y-17469463D01*
X6987528Y-17478986D01*
X6997052Y-17488510D01*
X7006576Y-17507558D01*
X7016100Y-17545653D01*
X7016100Y-17593272D01*
X7006576Y-17631367D01*
X6997052Y-17650415D01*
X6987528Y-17659939D01*
X6968481Y-17669463D01*
X6949433Y-17669463D01*
X6930385Y-17659939D01*
X6920862Y-17650415D01*
X6911338Y-17631367D01*
X6901814Y-17593272D01*
X6901814Y-17545653D01*
X6911338Y-17507558D01*
X6920862Y-17488510D01*
X6930385Y-17478986D01*
X6949433Y-17469463D01*
X7139909Y-17469463D02*
X7158957Y-17469463D01*
X7178004Y-17478986D01*
X7187528Y-17488510D01*
X7197052Y-17507558D01*
X7206576Y-17545653D01*
X7206576Y-17593272D01*
X7197052Y-17631367D01*
X7187528Y-17650415D01*
X7178004Y-17659939D01*
X7158957Y-17669463D01*
X7139909Y-17669463D01*
X7120862Y-17659939D01*
X7111338Y-17650415D01*
X7101814Y-17631367D01*
X7092290Y-17593272D01*
X7092290Y-17545653D01*
X7101814Y-17507558D01*
X7111338Y-17488510D01*
X7120862Y-17478986D01*
X7139909Y-17469463D01*
X7292290Y-17669463D02*
X7292290Y-17536129D01*
X7292290Y-17555177D02*
X7301814Y-17545653D01*
X7320862Y-17536129D01*
X7349433Y-17536129D01*
X7368481Y-17545653D01*
X7378004Y-17564701D01*
X7378004Y-17669463D01*
X7378004Y-17564701D02*
X7387528Y-17545653D01*
X7406576Y-17536129D01*
X7435147Y-17536129D01*
X7454195Y-17545653D01*
X7463719Y-17564701D01*
X7463719Y-17669463D01*
X7558957Y-17669463D02*
X7558957Y-17536129D01*
X7558957Y-17555177D02*
X7568481Y-17545653D01*
X7587528Y-17536129D01*
X7616100Y-17536129D01*
X7635147Y-17545653D01*
X7644671Y-17564701D01*
X7644671Y-17669463D01*
X7644671Y-17564701D02*
X7654195Y-17545653D01*
X7673242Y-17536129D01*
X7701814Y-17536129D01*
X7720862Y-17545653D01*
X7730385Y-17564701D01*
X7730385Y-17669463D01*
X8120862Y-17459939D02*
X7949433Y-17717082D01*
X8378004Y-17469463D02*
X8397052Y-17469463D01*
X8416100Y-17478986D01*
X8425624Y-17488510D01*
X8435147Y-17507558D01*
X8444671Y-17545653D01*
X8444671Y-17593272D01*
X8435147Y-17631367D01*
X8425624Y-17650415D01*
X8416100Y-17659939D01*
X8397052Y-17669463D01*
X8378004Y-17669463D01*
X8358957Y-17659939D01*
X8349433Y-17650415D01*
X8339909Y-17631367D01*
X8330385Y-17593272D01*
X8330385Y-17545653D01*
X8339909Y-17507558D01*
X8349433Y-17488510D01*
X8358957Y-17478986D01*
X8378004Y-17469463D01*
X8530385Y-17650415D02*
X8539909Y-17659939D01*
X8530385Y-17669463D01*
X8520862Y-17659939D01*
X8530385Y-17650415D01*
X8530385Y-17669463D01*
X8663719Y-17469463D02*
X8682766Y-17469463D01*
X8701814Y-17478986D01*
X8711338Y-17488510D01*
X8720862Y-17507558D01*
X8730385Y-17545653D01*
X8730385Y-17593272D01*
X8720862Y-17631367D01*
X8711338Y-17650415D01*
X8701814Y-17659939D01*
X8682766Y-17669463D01*
X8663719Y-17669463D01*
X8644671Y-17659939D01*
X8635147Y-17650415D01*
X8625624Y-17631367D01*
X8616100Y-17593272D01*
X8616100Y-17545653D01*
X8625624Y-17507558D01*
X8635147Y-17488510D01*
X8644671Y-17478986D01*
X8663719Y-17469463D01*
X8797052Y-17469463D02*
X8920862Y-17469463D01*
X8854195Y-17545653D01*
X8882766Y-17545653D01*
X8901814Y-17555177D01*
X8911338Y-17564701D01*
X8920862Y-17583748D01*
X8920862Y-17631367D01*
X8911338Y-17650415D01*
X8901814Y-17659939D01*
X8882766Y-17669463D01*
X8825624Y-17669463D01*
X8806576Y-17659939D01*
X8797052Y-17650415D01*
X9016100Y-17669463D02*
X9054195Y-17669463D01*
X9073243Y-17659939D01*
X9082766Y-17650415D01*
X9101814Y-17621844D01*
X9111338Y-17583748D01*
X9111338Y-17507558D01*
X9101814Y-17488510D01*
X9092290Y-17478986D01*
X9073243Y-17469463D01*
X9035147Y-17469463D01*
X9016100Y-17478986D01*
X9006576Y-17488510D01*
X8997052Y-17507558D01*
X8997052Y-17555177D01*
X9006576Y-17574224D01*
X9016100Y-17583748D01*
X9035147Y-17593272D01*
X9073243Y-17593272D01*
X9092290Y-17583748D01*
X9101814Y-17574224D01*
X9111338Y-17555177D01*
X9282766Y-17536129D02*
X9282766Y-17669463D01*
X9235147Y-17459939D02*
X9187528Y-17602796D01*
X9311338Y-17602796D01*
X9378004Y-17469463D02*
X9378004Y-17507558D01*
X9454195Y-17469463D02*
X9454195Y-17507558D01*
X9749433Y-17745653D02*
X9739909Y-17736129D01*
X9720862Y-17707558D01*
X9711338Y-17688510D01*
X9701814Y-17659939D01*
X9692290Y-17612320D01*
X9692290Y-17574224D01*
X9701814Y-17526605D01*
X9711338Y-17498034D01*
X9720862Y-17478986D01*
X9739909Y-17450415D01*
X9749433Y-17440891D01*
X9930385Y-17669463D02*
X9816100Y-17669463D01*
X9873243Y-17669463D02*
X9873243Y-17469463D01*
X9854195Y-17498034D01*
X9835147Y-17517082D01*
X9816100Y-17526605D01*
X10120862Y-17669463D02*
X10006576Y-17669463D01*
X10063719Y-17669463D02*
X10063719Y-17469463D01*
X10044671Y-17498034D01*
X10025624Y-17517082D01*
X10006576Y-17526605D01*
X10358957Y-17669463D02*
X10358957Y-17469463D01*
X10444671Y-17669463D02*
X10444671Y-17564701D01*
X10435147Y-17545653D01*
X10416100Y-17536129D01*
X10387528Y-17536129D01*
X10368481Y-17545653D01*
X10358957Y-17555177D01*
X10568481Y-17669463D02*
X10549433Y-17659939D01*
X10539909Y-17650415D01*
X10530385Y-17631367D01*
X10530385Y-17574224D01*
X10539909Y-17555177D01*
X10549433Y-17545653D01*
X10568481Y-17536129D01*
X10597052Y-17536129D01*
X10616100Y-17545653D01*
X10625624Y-17555177D01*
X10635147Y-17574224D01*
X10635147Y-17631367D01*
X10625624Y-17650415D01*
X10616100Y-17659939D01*
X10597052Y-17669463D01*
X10568481Y-17669463D01*
X10749433Y-17669463D02*
X10730385Y-17659939D01*
X10720862Y-17640891D01*
X10720862Y-17469463D01*
X10901814Y-17659939D02*
X10882766Y-17669463D01*
X10844671Y-17669463D01*
X10825624Y-17659939D01*
X10816100Y-17640891D01*
X10816100Y-17564701D01*
X10825624Y-17545653D01*
X10844671Y-17536129D01*
X10882766Y-17536129D01*
X10901814Y-17545653D01*
X10911338Y-17564701D01*
X10911338Y-17583748D01*
X10816100Y-17602796D01*
X10987528Y-17659939D02*
X11006576Y-17669463D01*
X11044671Y-17669463D01*
X11063719Y-17659939D01*
X11073243Y-17640891D01*
X11073243Y-17631367D01*
X11063719Y-17612320D01*
X11044671Y-17602796D01*
X11016100Y-17602796D01*
X10997052Y-17593272D01*
X10987528Y-17574224D01*
X10987528Y-17564701D01*
X10997052Y-17545653D01*
X11016100Y-17536129D01*
X11044671Y-17536129D01*
X11063719Y-17545653D01*
X11139909Y-17745653D02*
X11149433Y-17736129D01*
X11168481Y-17707558D01*
X11178004Y-17688510D01*
X11187528Y-17659939D01*
X11197052Y-17612320D01*
X11197052Y-17574224D01*
X11187528Y-17526605D01*
X11178004Y-17498034D01*
X11168481Y-17478986D01*
X11149433Y-17450415D01*
X11139909Y-17440891D01*
X6148240Y-17913698D02*
X6148240Y-17772275D01*
X6006817Y-17772275D01*
X6006817Y-17913698D01*
X6148240Y-17913698D01*
X6425623Y-17752510D02*
X6435147Y-17742986D01*
X6454195Y-17733463D01*
X6501814Y-17733463D01*
X6520862Y-17742986D01*
X6530385Y-17752510D01*
X6539909Y-17771558D01*
X6539909Y-17790605D01*
X6530385Y-17819177D01*
X6416100Y-17933463D01*
X6539909Y-17933463D01*
X6625623Y-17914415D02*
X6635147Y-17923939D01*
X6625623Y-17933463D01*
X6616100Y-17923939D01*
X6625623Y-17914415D01*
X6625623Y-17933463D01*
X6806576Y-17733463D02*
X6768481Y-17733463D01*
X6749433Y-17742986D01*
X6739909Y-17752510D01*
X6720862Y-17781082D01*
X6711338Y-17819177D01*
X6711338Y-17895367D01*
X6720862Y-17914415D01*
X6730385Y-17923939D01*
X6749433Y-17933463D01*
X6787528Y-17933463D01*
X6806576Y-17923939D01*
X6816100Y-17914415D01*
X6825623Y-17895367D01*
X6825623Y-17847748D01*
X6816100Y-17828701D01*
X6806576Y-17819177D01*
X6787528Y-17809653D01*
X6749433Y-17809653D01*
X6730385Y-17819177D01*
X6720862Y-17828701D01*
X6711338Y-17847748D01*
X6949433Y-17733463D02*
X6968481Y-17733463D01*
X6987528Y-17742986D01*
X6997052Y-17752510D01*
X7006576Y-17771558D01*
X7016100Y-17809653D01*
X7016100Y-17857272D01*
X7006576Y-17895367D01*
X6997052Y-17914415D01*
X6987528Y-17923939D01*
X6968481Y-17933463D01*
X6949433Y-17933463D01*
X6930385Y-17923939D01*
X6920862Y-17914415D01*
X6911338Y-17895367D01*
X6901814Y-17857272D01*
X6901814Y-17809653D01*
X6911338Y-17771558D01*
X6920862Y-17752510D01*
X6930385Y-17742986D01*
X6949433Y-17733463D01*
X7139909Y-17733463D02*
X7158957Y-17733463D01*
X7178004Y-17742986D01*
X7187528Y-17752510D01*
X7197052Y-17771558D01*
X7206576Y-17809653D01*
X7206576Y-17857272D01*
X7197052Y-17895367D01*
X7187528Y-17914415D01*
X7178004Y-17923939D01*
X7158957Y-17933463D01*
X7139909Y-17933463D01*
X7120862Y-17923939D01*
X7111338Y-17914415D01*
X7101814Y-17895367D01*
X7092290Y-17857272D01*
X7092290Y-17809653D01*
X7101814Y-17771558D01*
X7111338Y-17752510D01*
X7120862Y-17742986D01*
X7139909Y-17733463D01*
X7292290Y-17933463D02*
X7292290Y-17800129D01*
X7292290Y-17819177D02*
X7301814Y-17809653D01*
X7320862Y-17800129D01*
X7349433Y-17800129D01*
X7368481Y-17809653D01*
X7378004Y-17828701D01*
X7378004Y-17933463D01*
X7378004Y-17828701D02*
X7387528Y-17809653D01*
X7406576Y-17800129D01*
X7435147Y-17800129D01*
X7454195Y-17809653D01*
X7463719Y-17828701D01*
X7463719Y-17933463D01*
X7558957Y-17933463D02*
X7558957Y-17800129D01*
X7558957Y-17819177D02*
X7568481Y-17809653D01*
X7587528Y-17800129D01*
X7616100Y-17800129D01*
X7635147Y-17809653D01*
X7644671Y-17828701D01*
X7644671Y-17933463D01*
X7644671Y-17828701D02*
X7654195Y-17809653D01*
X7673242Y-17800129D01*
X7701814Y-17800129D01*
X7720862Y-17809653D01*
X7730385Y-17828701D01*
X7730385Y-17933463D01*
X8120862Y-17723939D02*
X7949433Y-17981082D01*
X8378004Y-17733463D02*
X8397052Y-17733463D01*
X8416100Y-17742986D01*
X8425624Y-17752510D01*
X8435147Y-17771558D01*
X8444671Y-17809653D01*
X8444671Y-17857272D01*
X8435147Y-17895367D01*
X8425624Y-17914415D01*
X8416100Y-17923939D01*
X8397052Y-17933463D01*
X8378004Y-17933463D01*
X8358957Y-17923939D01*
X8349433Y-17914415D01*
X8339909Y-17895367D01*
X8330385Y-17857272D01*
X8330385Y-17809653D01*
X8339909Y-17771558D01*
X8349433Y-17752510D01*
X8358957Y-17742986D01*
X8378004Y-17733463D01*
X8530385Y-17914415D02*
X8539909Y-17923939D01*
X8530385Y-17933463D01*
X8520862Y-17923939D01*
X8530385Y-17914415D01*
X8530385Y-17933463D01*
X8730385Y-17933463D02*
X8616100Y-17933463D01*
X8673243Y-17933463D02*
X8673243Y-17733463D01*
X8654195Y-17762034D01*
X8635147Y-17781082D01*
X8616100Y-17790605D01*
X8854195Y-17733463D02*
X8873243Y-17733463D01*
X8892290Y-17742986D01*
X8901814Y-17752510D01*
X8911338Y-17771558D01*
X8920862Y-17809653D01*
X8920862Y-17857272D01*
X8911338Y-17895367D01*
X8901814Y-17914415D01*
X8892290Y-17923939D01*
X8873243Y-17933463D01*
X8854195Y-17933463D01*
X8835147Y-17923939D01*
X8825624Y-17914415D01*
X8816100Y-17895367D01*
X8806576Y-17857272D01*
X8806576Y-17809653D01*
X8816100Y-17771558D01*
X8825624Y-17752510D01*
X8835147Y-17742986D01*
X8854195Y-17733463D01*
X8997052Y-17752510D02*
X9006576Y-17742986D01*
X9025624Y-17733463D01*
X9073243Y-17733463D01*
X9092290Y-17742986D01*
X9101814Y-17752510D01*
X9111338Y-17771558D01*
X9111338Y-17790605D01*
X9101814Y-17819177D01*
X8987528Y-17933463D01*
X9111338Y-17933463D01*
X9282766Y-17800129D02*
X9282766Y-17933463D01*
X9235147Y-17723939D02*
X9187528Y-17866796D01*
X9311338Y-17866796D01*
X9378004Y-17733463D02*
X9378004Y-17771558D01*
X9454195Y-17733463D02*
X9454195Y-17771558D01*
X9749433Y-18009653D02*
X9739909Y-18000129D01*
X9720862Y-17971558D01*
X9711338Y-17952510D01*
X9701814Y-17923939D01*
X9692290Y-17876320D01*
X9692290Y-17838224D01*
X9701814Y-17790605D01*
X9711338Y-17762034D01*
X9720862Y-17742986D01*
X9739909Y-17714415D01*
X9749433Y-17704891D01*
X9816100Y-17752510D02*
X9825624Y-17742986D01*
X9844671Y-17733463D01*
X9892290Y-17733463D01*
X9911338Y-17742986D01*
X9920862Y-17752510D01*
X9930385Y-17771558D01*
X9930385Y-17790605D01*
X9920862Y-17819177D01*
X9806576Y-17933463D01*
X9930385Y-17933463D01*
X10168481Y-17933463D02*
X10168481Y-17733463D01*
X10254195Y-17933463D02*
X10254195Y-17828701D01*
X10244671Y-17809653D01*
X10225624Y-17800129D01*
X10197052Y-17800129D01*
X10178004Y-17809653D01*
X10168481Y-17819177D01*
X10378004Y-17933463D02*
X10358957Y-17923939D01*
X10349433Y-17914415D01*
X10339909Y-17895367D01*
X10339909Y-17838224D01*
X10349433Y-17819177D01*
X10358957Y-17809653D01*
X10378004Y-17800129D01*
X10406576Y-17800129D01*
X10425624Y-17809653D01*
X10435147Y-17819177D01*
X10444671Y-17838224D01*
X10444671Y-17895367D01*
X10435147Y-17914415D01*
X10425624Y-17923939D01*
X10406576Y-17933463D01*
X10378004Y-17933463D01*
X10558957Y-17933463D02*
X10539909Y-17923939D01*
X10530385Y-17904891D01*
X10530385Y-17733463D01*
X10711338Y-17923939D02*
X10692290Y-17933463D01*
X10654195Y-17933463D01*
X10635147Y-17923939D01*
X10625624Y-17904891D01*
X10625624Y-17828701D01*
X10635147Y-17809653D01*
X10654195Y-17800129D01*
X10692290Y-17800129D01*
X10711338Y-17809653D01*
X10720862Y-17828701D01*
X10720862Y-17847748D01*
X10625624Y-17866796D01*
X10797052Y-17923939D02*
X10816100Y-17933463D01*
X10854195Y-17933463D01*
X10873243Y-17923939D01*
X10882766Y-17904891D01*
X10882766Y-17895367D01*
X10873243Y-17876320D01*
X10854195Y-17866796D01*
X10825624Y-17866796D01*
X10806576Y-17857272D01*
X10797052Y-17838224D01*
X10797052Y-17828701D01*
X10806576Y-17809653D01*
X10825624Y-17800129D01*
X10854195Y-17800129D01*
X10873243Y-17809653D01*
X10949433Y-18009653D02*
X10958957Y-18000129D01*
X10978004Y-17971558D01*
X10987528Y-17952510D01*
X10997052Y-17923939D01*
X11006576Y-17876320D01*
X11006576Y-17838224D01*
X10997052Y-17790605D01*
X10987528Y-17762034D01*
X10978004Y-17742986D01*
X10958957Y-17714415D01*
X10949433Y-17704891D01*
M02*
