M48
; DRILL file {KiCad (6.0.8)} date Sat Apr  8 23:31:13 2023
; FORMAT={-:-/ absolute / inch / decimal}
; #@! TF.CreationDate,2023-04-08T23:31:13-04:00
; #@! TF.GenerationSoftware,Kicad,Pcbnew,(6.0.8)
; #@! TF.FileFunction,Plated,1,2,PTH
FMAT,2
INCH
; #@! TA.AperFunction,Plated,PTH,ViaDrill
T1C0.0157
; #@! TA.AperFunction,Plated,PTH,ComponentDrill
T2C0.0236
; #@! TA.AperFunction,Plated,PTH,ComponentDrill
T3C0.0394
; #@! TA.AperFunction,Plated,PTH,ComponentDrill
T4C0.1024
%
G90
G05
T1
X2.5246Y-2.9222
X2.5728Y-4.3339
X2.5839Y-6.3776
X2.6343Y-5.025
X2.6343Y-6.0217
X2.7Y-4.5463
X2.7281Y-5.8967
X2.7313Y-3.7025
X2.7409Y-4.9697
X2.7506Y-4.0027
X2.7693Y-4.9173
X2.778Y-4.3728
X2.8929Y-5.2398
X2.8984Y-5.6299
X2.9381Y-5.8654
X2.9413Y-4.9705
X2.9951Y-2.9911
X3.0006Y-4.9904
X3.0006Y-5.2717
X3.0459Y-3.5282
X3.06Y-2.9636
X3.0728Y-3.0728
X3.0772Y-3.1845
X3.1368Y-3.3753
X3.15Y-2.76
X3.1783Y-6.4248
X3.2004Y-4.2291
X3.313Y-4.2522
X3.3142Y-4.028
X3.315Y-3.002
X3.3476Y-4.9476
X3.3888Y-4.9065
X3.3897Y-3.4424
X3.3897Y-5.025
X3.4209Y-3.872
X3.4272Y-2.9075
X3.4522Y-3.5022
X3.5048Y-4.1726
X3.5459Y-3.7157
X3.5459Y-4.1749
X3.5631Y-6.0027
X3.5895Y-3.4838
X3.5895Y-3.765
X3.6397Y-5.0282
X3.6397Y-5.2782
X3.6417Y-5.752
X3.6445Y-5.465
X3.645Y-5.855
X3.6568Y-3.9279
X3.7193Y-3.3967
X3.7334Y-4.9904
X3.7343Y-2.9547
X3.7647Y-4.5595
X3.7923Y-4.9134
X3.7932Y-4.3092
X3.833Y-3.5362
X3.833Y-3.7237
X3.8628Y-4.725
X3.8655Y-4.5217
X3.8689Y-4.3976
X3.902Y-2.89
X3.902Y-3.2025
X3.9272Y-5.4498
X3.9478Y-3.1083
X3.9695Y-3.4321
X4.025Y-5.675
X4.0272Y-4.9864
X4.0318Y-3.1779
X4.0318Y-3.6467
X4.126Y-6.422
X4.1547Y-5.7937
X4.1642Y-5.6858
X4.1854Y-4.2872
X4.1909Y-4.1585
X4.1984Y-5.4106
X4.2027Y-5.6939
X4.2047Y-4.1969
X4.2117Y-5.1472
X4.2117Y-5.265
X4.2126Y-5.4656
X4.2398Y-4.2224
X4.2405Y-4.39
X4.2506Y-4.015
X4.275Y-5.8
X4.3756Y-3.6467
X4.3756Y-4.3568
X4.3799Y-4.9193
X4.4188Y-3.765
X4.45Y-3.64
X4.4693Y-6.015
X4.475Y-5.8
X4.475Y-5.915
X4.5166Y-5.0595
X4.5169Y-4.1956
X4.5177Y-5.875
X4.5228Y-4.2573
X4.553Y-4.39
X4.5618Y-3.4457
X4.5679Y-5.0423
X4.6128Y-4.6713
X4.6155Y-4.5217
X4.6256Y-4.3615
X4.6375Y-3.265
X4.6375Y-3.5463
X4.6516Y-2.872
X4.7067Y-3.5463
X4.7457Y-5.8031
X4.7598Y-5.689
X4.7618Y-3.4921
X4.7818Y-3.1779
X4.8226Y-5.0572
X4.85Y-5.6584
X4.86Y-5.1189
X4.8855Y-5.6753
X4.9Y-5.8
X4.9Y-5.9
X4.9142Y-5.4232
X4.9205Y-6.3094
X4.9234Y-5.6646
X4.9248Y-5.0886
X4.9256Y-5.1898
X4.94Y-4.2028
X4.9543Y-5.7004
X4.9617Y-5.2717
X4.9905Y-4.3967
X4.998Y-5.8228
X5.0006Y-4.0217
X5.0213Y-4.2917
X5.0232Y-3.5819
X5.0264Y-5.001
X5.0541Y-3.5
X5.055Y-4.2157
X5.0846Y-6.4142
X5.0962Y-4.4139
X5.1Y-5.8715
X5.1063Y-3.64
X5.1083Y-6.2864
X5.1247Y-3.9124
X5.128Y-4.9094
X5.1348Y-3.765
X5.137Y-4.2858
X5.1383Y-5.8624
X5.1398Y-4.3898
X5.1516Y-6.2047
X5.152Y-3.6088
X5.1562Y-5.1215
X5.175Y-6.025
X5.1791Y-4.2795
X5.2126Y-5.0807
X5.2313Y-4.3012
X5.2366Y-5.001
X5.2628Y-6.2461
X5.2717Y-4.5217
X5.2815Y-4.2211
X5.313Y-5.0659
X5.3161Y-3.437
X5.3799Y-4.4213
X5.4354Y-6.3858
X5.4577Y-3.2667
X5.4721Y-3.5
X5.49Y-6.4212
X5.4925Y-3.6467
X5.5006Y-2.8967
X5.5102Y-5.7004
X5.525Y-5.775
X5.5315Y-6.3159
X5.5318Y-3.1779
X5.5318Y-3.6467
X5.5909Y-5.0073
X5.6Y-5.1845
X5.625Y-5.675
X5.6535Y-5.265
X5.655Y-5.065
X5.6626Y-5.6969
X5.68Y-6.22
X5.6929Y-4.1821
X5.7Y-5.0903
X5.7036Y-5.6962
X5.725Y-5.775
X5.7321Y-5.1131
X5.7392Y-5.0748
X5.74Y-6.135
X5.7432Y-5.6953
X5.75Y-3.5
X5.7591Y-5.5118
X5.7604Y-5.7922
X5.7867Y-5.6986
X5.8Y-4.2188
X5.8091Y-5.5953
X5.8096Y-5.6637
X5.825Y-5.1
X5.8298Y-4.382
X5.8465Y-3.5896
X5.8496Y-5.9831
X5.85Y-6.175
X5.8573Y-6.3223
X5.8606Y-5.9406
X5.8655Y-4.3654
X5.875Y-6.0465
X5.8756Y-3.9279
X5.8917Y-4.9134
X5.905Y-3.65
X5.9068Y-5.0027
X5.9268Y-6.0106
X5.9373Y-4.5217
X5.9421Y-6.1215
X5.9724Y-6.3287
X5.9747Y-6.247
X5.9764Y-6.3937
X5.995Y-4.2188
X5.9988Y-5.9
X6.0Y-5.1
X6.0252Y-6.0055
X6.0488Y-4.9713
X6.05Y-6.0465
X6.0713Y-3.4268
X6.075Y-5.85
X6.0842Y-4.6779
X6.1823Y-2.9335
X6.188Y-3.5543
X6.2411Y-5.6752
X6.2451Y-3.4675
X6.2486Y-5.9274
X6.2506Y-2.8967
X6.2506Y-3.6467
X6.2528Y-6.1004
X6.261Y-6.1591
X6.2831Y-6.0753
X6.2938Y-3.1713
X6.2949Y-6.0343
X6.3029Y-5.7551
X6.3142Y-5.7126
X6.324Y-5.952
X6.3264Y-5.0128
X6.3467Y-5.1875
X6.3484Y-6.4154
X6.3545Y-6.0142
X6.3612Y-6.1552
X6.3736Y-5.0506
X6.3821Y-5.9862
X6.3986Y-6.1673
X6.402Y-6.1232
X6.4107Y-5.9561
X6.439Y-4.1795
X6.4435Y-5.9804
X6.4488Y-5.0329
X6.4567Y-6.2559
X6.46Y-5.71
X6.4617Y-5.159
X6.4626Y-5.2274
X6.4638Y-3.5575
X6.489Y-5.611
X6.5006Y-5.0937
X6.5061Y-5.9856
X6.5067Y-5.9311
X6.5079Y-5.7139
X6.5118Y-3.5925
X6.5118Y-3.7835
X6.52Y-6.205
X6.5217Y-6.2638
X6.5405Y-4.3944
X6.5406Y-4.2736
X6.5504Y-5.7264
X6.5511Y-3.5935
X6.5551Y-4.2116
X6.5581Y-5.9599
X6.5583Y-5.602
X6.5833Y-5.8006
X6.5906Y-5.65
X6.5953Y-3.5295
X6.6125Y-5.7742
X6.6171Y-4.2487
X6.6256Y-3.9279
X6.6256Y-5.0937
X6.6358Y-4.9173
X6.6394Y-5.5681
X6.6516Y-5.7799
X6.6555Y-4.2402
X6.6688Y-3.5295
X6.6691Y-3.4725
X6.6981Y-4.0049
X6.707Y-3.4619
X6.7953Y-4.9625
X6.8004Y-4.2303
X6.8201Y-3.4224
X6.8462Y-4.515
X6.8543Y-4.25
X6.8655Y-4.6779
X6.8756Y-5.0842
X6.9426Y-3.5361
X6.9673Y-2.9552
X6.9673Y-3.4619
X6.9958Y-2.89
X7.0122Y-5.6638
X7.0374Y-5.6283
X7.0496Y-5.5677
X7.0551Y-3.1535
X7.061Y-3.4636
X7.0731Y-2.9552
X7.075Y-2.875
X7.0967Y-5.1562
X7.1004Y-5.5246
X7.1289Y-5.4321
X7.1368Y-5.2175
X7.1496Y-5.7215
X7.1837Y-5.0748
X7.1862Y-5.6043
X7.2024Y-4.1681
X7.2236Y-5.1713
X7.2236Y-5.265
X7.2337Y-5.0177
X7.25Y-4.2894
X7.2506Y-4.015
X7.2818Y-3.4904
X7.2888Y-5.703
X7.2899Y-4.2338
X7.2909Y-5.1047
X7.2965Y-5.0177
X7.3Y-5.6094
X7.3543Y-5.873
X7.3651Y-6.2722
X7.377Y-4.9331
X7.3866Y-6.4142
X7.3897Y-5.9032
X7.3986Y-5.998
X7.402Y-3.5529
X7.402Y-3.765
X7.415Y-3.9375
X7.4168Y-4.6425
X7.4267Y-5.0748
X7.4646Y-5.0929
X7.4646Y-5.2156
X7.4813Y-4.3275
X7.5048Y-5.1713
X7.5125Y-4.3615
X7.5233Y-5.0177
X7.531Y-4.6713
X7.565Y-3.4594
X7.5671Y-4.9937
X7.5698Y-5.15
X7.5842Y-4.5217
X7.5862Y-4.2527
X7.6155Y-4.9904
X7.6455Y-4.2705
X7.753Y-5.6742
X7.7622Y-3.1705
X7.7771Y-5.7995
X7.789Y-2.8785
X7.7938Y-3.64
X7.7945Y-5.7642
X7.7992Y-5.8321
X7.8118Y-5.6882
X7.8236Y-5.1807
X7.8465Y-6.4154
X7.8474Y-5.8661
X7.8969Y-3.5758
X7.8969Y-6.4071
X7.8986Y-5.4488
X7.9083Y-5.1098
X7.9096Y-6.2909
X7.9366Y-5.9387
X7.937Y-6.3425
X7.9382Y-4.1768
X7.9477Y-5.15
X7.9486Y-6.3817
X7.9815Y-5.2667
X7.9905Y-4.9904
X8.0059Y-6.1845
X8.01Y-5.84
X8.0205Y-3.4958
X8.0205Y-3.6088
X8.0567Y-5.6925
X8.0583Y-4.2705
X8.0598Y-3.4958
X8.0701Y-5.8465
X8.0997Y-6.3095
X8.113Y-5.7215
X8.1211Y-4.9291
X8.1388Y-3.7549
X8.1388Y-3.9112
X8.152Y-3.6088
X8.1965Y-5.7543
X8.2Y-3.64
X8.2Y-4.2419
X8.2033Y-5.0896
X8.2535Y-5.8453
X8.2717Y-5.189
X8.2772Y-5.1228
X8.3246Y-3.4458
X8.3462Y-4.515
X8.3563Y-4.2527
X8.3638Y-3.4493
X8.3642Y-3.6373
X8.3809Y-5.803
X8.5079Y-5.7024
X8.5118Y-3.4671
X8.5318Y-3.0217
X8.5362Y-2.9268
X8.5438Y-3.1713
X8.5451Y-3.6299
X8.5571Y-3.4671
X8.5862Y-6.3185
X8.5948Y-5.1913
X8.6025Y-5.0747
X8.6084Y-3.6299
X8.6492Y-5.4213
X8.6858Y-4.1831
X8.707Y-3.4671
X8.7102Y-5.9295
X8.7177Y-5.2549
X8.7274Y-5.1115
X8.7461Y-6.2559
X8.8275Y-4.2125
X8.8544Y-4.247
X8.8584Y-3.747
X8.8612Y-3.5814
X8.8708Y-3.9213
X8.8789Y-4.9281
X8.9068Y-3.5529
X8.9099Y-4.2239
X8.9421Y-5.0775
X8.9522Y-3.6655
X8.9764Y-4.3307
X8.9785Y-5.1115
X9.007Y-5.1875
X9.02Y-5.1115
X9.0638Y-3.4323
X9.065Y-4.3302
X9.0728Y-4.9665
X9.0962Y-4.515
X9.1063Y-4.2338
X9.2043Y-2.8785
X9.2228Y-3.5829
X9.2402Y-5.6752
X9.252Y-2.9075
X9.2601Y-3.3134
X9.2818Y-3.1779
X9.2818Y-3.4904
X9.3059Y-2.8984
X9.3469Y-4.9886
X9.3693Y-5.9311
X9.39Y-5.08
X9.395Y-5.015
X9.4Y-5.2
X9.4Y-6.39
X9.4394Y-4.1835
X9.4419Y-6.0482
X9.4617Y-5.4525
X9.4645Y-5.0463
X9.4736Y-5.265
X9.4813Y-5.1115
X9.5213Y-5.0465
X9.5516Y-4.2801
X9.5842Y-4.39
X9.6256Y-3.64
X9.627Y-4.9528
X9.6568Y-3.9279
X9.7234Y-4.9592
X9.8118Y-3.4268
X9.825Y-5.105
X9.825Y-4.2338
X9.8462Y-4.3777
X9.8462Y-4.515
X9.94Y-2.8615
X9.9469Y-3.1919
X10.001Y-5.6742
X10.0318Y-3.1779
X10.0318Y-3.5529
X10.0752Y-5.9933
X10.0984Y-6.4254
X10.1772Y-5.9045
X10.1827Y-4.1764
X10.1945Y-5.247
X10.2022Y-5.0
X10.2117Y-5.4213
X10.2858Y-3.5189
X10.3171Y-4.372
X10.3337Y-4.2623
X10.3429Y-3.5285
X10.3606Y-3.9213
X10.377Y-4.9183
X10.3862Y-4.2486
X10.399Y-4.2102
X10.4167Y-3.9803
X10.4188Y-3.6115
X10.4398Y-4.2165
X10.4892Y-3.4737
X10.4892Y-3.6685
X10.5661Y-3.428
X10.5842Y-4.5217
X10.5933Y-4.26
X10.6791Y-6.4094
X10.7334Y-5.747
X10.747Y-5.6791
X10.7559Y-6.1532
X10.7938Y-3.1713
X10.7938Y-3.6115
X10.9386Y-4.1724
X10.9592Y-4.9899
X10.9617Y-5.265
X10.9626Y-5.1466
X10.9736Y-5.4213
X10.9747Y-6.0282
X10.9834Y-5.872
X10.9834Y-5.9113
X11.0305Y-3.5475
X11.04Y-4.33
X11.075Y-4.3747
X11.0906Y-3.6044
X11.1303Y-4.9496
X11.1709Y-3.9032
X11.1881Y-4.3207
X11.19Y-5.16
X11.2559Y-4.7445
X11.2587Y-5.0959
X11.3169Y-3.4228
X11.3295Y-4.515
X11.3395Y-4.3407
X11.4419Y-3.5938
X11.4921Y-5.685
X11.54Y-3.1845
X11.5984Y-6.4213
X11.6937Y-4.172
X11.8098Y-3.4984
X11.833Y-3.7549
X11.8768Y-4.9457
X11.8799Y-4.4062
X11.8803Y-3.5175
X11.9055Y-4.3278
X11.9068Y-3.9279
X11.9617Y-5.2717
X11.9693Y-4.2404
X12.0228Y-4.2969
X12.0242Y-5.4213
X12.0272Y-4.4469
X12.0318Y-5.8967
X12.0587Y-3.4272
X12.1181Y-5.1303
X12.1217Y-4.2618
X12.1495Y-4.4062
X12.1713Y-5.0875
X12.178Y-4.9592
X12.2067Y-4.3081
X12.2092Y-4.3777
X12.2092Y-4.525
X12.2145Y-2.8681
X12.2145Y-2.9525
X12.2818Y-5.8615
X12.285Y-6.015
X12.339Y-2.9094
X12.3472Y-3.5681
X12.3748Y-3.3461
X12.3947Y-3.5938
X12.4374Y-4.1768
X12.4793Y-4.7894
X12.4803Y-4.9203
X12.5108Y-4.4026
X12.5147Y-4.3563
X12.5197Y-4.7077
X12.5236Y-5.6752
X12.553Y-4.5217
X12.5631Y-3.6115
X12.5913Y-3.5252
X12.6208Y-3.2338
X12.6208Y-3.4525
X12.6496Y-4.2914
X12.652Y-2.9
X12.652Y-2.9525
X12.6568Y-3.1779
X12.6833Y-2.925
X12.6854Y-3.3823
X12.6921Y-4.4555
X12.6978Y-3.253
X12.715Y-4.2843
X12.7846Y-3.6812
X12.7862Y-4.4312
X12.8131Y-3.7717
X12.8189Y-6.4114
X12.9892Y-3.6115
X12.9892Y-3.6924
X13.0231Y-6.015
X13.0242Y-5.1467
X13.0242Y-5.2717
X13.0318Y-5.89
X13.037Y-3.3063
X13.0449Y-3.5189
X13.0552Y-5.4122
X13.0703Y-5.8982
X13.0984Y-4.9301
X13.175Y-2.89
X13.1921Y-4.5907
X13.1969Y-4.3612
X13.1979Y-4.7549
X13.2Y-3.1088
X13.2075Y-3.4469
X13.208Y-5.0049
X13.3799Y-4.1886
X13.561Y-5.6831
X13.5728Y-6.4134
X13.6875Y-3.5625
X13.7293Y-5.0875
X13.7381Y-5.1532
X13.7731Y-6.0217
X13.7742Y-5.2717
X13.775Y-4.275
X13.7818Y-5.8967
X13.7938Y-3.59
X13.7938Y-3.765
X14.0006Y-3.64
X14.31Y-4.935
X14.31Y-5.685
X14.3114Y-4.2098
X14.3209Y-6.4134
X14.3315Y-5.0524
X14.3441Y-4.7898
X14.3669Y-4.0508
X14.3709Y-5.5358
X14.3795Y-5.1433
X14.3823Y-4.3602
T3
X8.2318Y-6.0875
X8.2318Y-6.1875
X8.2318Y-6.2875
X8.3318Y-6.0875
X8.3318Y-6.1875
X8.3318Y-6.2875
X13.9641Y-2.9021
X13.9641Y-3.4729
X14.0625Y-3.4729
X14.1609Y-2.9021
X14.1609Y-3.4729
T4
X13.842Y-3.1777
X14.283Y-3.1777
T2
G00X2.9889Y-2.6366
M15
G01X2.9889Y-2.6603
M16
G05
G00X2.9889Y-2.7914
M15
G01X2.9889Y-2.8347
M16
G05
G00X3.329Y-2.6366
M15
G01X3.329Y-2.6603
M16
G05
G00X3.329Y-2.7914
M15
G01X3.329Y-2.8347
M16
G05
T0
M30
