M48
; DRILL file {KiCad (6.0.6)} date Mon Jan  9 15:54:19 2023
; FORMAT={-:-/ absolute / inch / decimal}
; #@! TF.CreationDate,2023-01-09T15:54:19-08:00
; #@! TF.GenerationSoftware,Kicad,Pcbnew,(6.0.6)
; #@! TF.FileFunction,Plated,1,2,PTH
FMAT,2
INCH
; #@! TA.AperFunction,Plated,PTH,ViaDrill
T1C0.0157
; #@! TA.AperFunction,Plated,PTH,ComponentDrill
T2C0.0236
; #@! TA.AperFunction,Plated,PTH,ComponentDrill
T3C0.0394
; #@! TA.AperFunction,Plated,PTH,ComponentDrill
T4C0.1024
%
G90
G05
T1
X0.8183Y-2.133
X0.8484Y-5.085
X0.8495Y-3.1955
X0.8796Y-5.5537
X0.9321Y-4.153
X0.9321Y-5.1497
X0.9499Y-3.2681
X0.9499Y-3.4868
X0.9978Y-3.6743
X1.0259Y-5.0247
X1.0291Y-2.8306
X1.0484Y-3.1307
X1.1109Y-4.0593
X1.1921Y-4.335
X1.1921Y-5.085
X1.2359Y-4.0593
X1.2359Y-4.9934
X1.2624Y-2.1118
X1.2984Y-4.1184
X1.2984Y-4.3997
X1.3416Y-2.7993
X1.3989Y-2.4868
X1.434Y-2.3155
X1.4346Y-2.5033
X1.4421Y-4.835
X1.4421Y-4.96
X1.4811Y-2.3306
X1.4846Y-2.1118
X1.5058Y-2.6955
X1.5243Y-2.3306
X1.537Y-2.6642
X1.5833Y-2.3205
X1.5995Y-2.5705
X1.5995Y-2.633
X1.6061Y-3.1743
X1.6061Y-3.3931
X1.6308Y-2.7892
X1.6308Y-3.9002
X1.6308Y-3.9721
X1.6346Y-3.2267
X1.6933Y-2.4142
X1.6933Y-4.883
X1.6933Y-5.6017
X1.7558Y-2.7267
X1.7671Y-4.7735
X1.7671Y-4.836
X1.7778Y-3.2892
X1.7778Y-3.4405
X1.7832Y-2.9142
X1.787Y-2.6017
X1.8128Y-4.0587
X1.8128Y-4.153
X1.8183Y-3.9297
X1.8296Y-2.6172
X1.8403Y-3.2892
X1.8403Y-3.4093
X1.8609Y-4.1843
X1.8609Y-5.1307
X1.8808Y-2.1642
X1.8874Y-2.0493
X1.8874Y-2.6118
X1.8874Y-2.8931
X1.8889Y-5.4686
X1.912Y-4.6955
X1.9159Y-2.758
X1.9186Y-3.4868
X1.9546Y-3.0559
X1.9546Y-4.1184
X1.9859Y-3.6809
X2.0171Y-2.5247
X2.037Y-3.4767
X2.037Y-4.0705
X2.0683Y-5.6017
X2.0995Y-3.3517
X2.0995Y-4.0392
X2.1308Y-2.1642
X2.1308Y-2.6642
X2.1308Y-2.8517
X2.1421Y-3.3786
X2.1421Y-4.1743
X2.1421Y-5.6485
X2.162Y-2.2267
X2.162Y-2.5392
X2.1734Y-3.503
X2.1734Y-3.6497
X2.1999Y-2.0181
X2.1999Y-2.3306
X2.2245Y-5.6017
X2.2284Y-2.1642
X2.2558Y-2.4767
X2.3296Y-2.3059
X2.3296Y-2.7747
X2.3921Y-4.2368
X2.4009Y-5.6118
X2.4234Y-4.2056
X2.4407Y-5.6113
X2.4627Y-4.1906
X2.4745Y-3.3517
X2.4745Y-3.4745
X2.4811Y-4.7056
X2.4946Y-5.6118
X2.5012Y-5.4188
X2.5058Y-5.4767
X2.5171Y-4.2681
X2.5171Y-4.3931
X2.5171Y-4.5559
X2.5171Y-4.9934
X2.5339Y-5.5806
X2.537Y-2.6955
X2.5484Y-3.518
X2.5484Y-3.1431
X2.5484Y-3.3963
X2.5796Y-2.6743
X2.5796Y-3.5419
X2.5995Y-2.5547
X2.6125Y-5.4897
X2.6308Y-4.883
X2.6308Y-5.383
X2.662Y-4.6303
X2.662Y-4.6955
X2.6734Y-2.7747
X2.6734Y-3.4849
X2.7046Y-5.5208
X2.7166Y-2.8931
X2.7245Y-3.2892
X2.7476Y-3.9686
X2.7478Y-2.7681
X2.7558Y-3.1955
X2.7759Y-5.0191
X2.7759Y-5.1431
X2.7859Y-3.585
X2.7859Y-4.3037
X2.8183Y-3.3392
X2.8183Y-3.3963
X2.8495Y-2.5392
X2.8609Y-3.5181
X2.8609Y-4.2056
X2.8921Y-3.5493
X2.8921Y-4.2368
X2.912Y-5.495
X2.9207Y-3.7993
X2.9207Y-4.1743
X2.9234Y-3.4895
X2.9234Y-3.6497
X2.9353Y-2.3931
X2.9353Y-2.6743
X2.9433Y-5.4142
X2.9491Y-1.9583
X2.9734Y-3.4895
X2.9734Y-3.585
X2.9811Y-2.647
X3.0171Y-1.9676
X3.0171Y-2.586
X3.0601Y-3.9686
X3.0764Y-4.7186
X3.0796Y-2.3059
X3.0796Y-2.5872
X3.1296Y-4.335
X3.1296Y-4.9583
X3.1734Y-4.211
X3.2005Y-4.8985
X3.2128Y-4.2395
X3.229Y-4.9868
X3.2671Y-4.1184
X3.2671Y-4.3997
X3.2671Y-4.5493
X3.2671Y-4.9556
X3.2984Y-3.1497
X3.2984Y-3.5247
X3.3171Y-4.1162
X3.3171Y-4.335
X3.3756Y-3.3333
X3.3921Y-2.5872
X3.4041Y-2.7681
X3.4041Y-3.5419
X3.4326Y-2.8931
X3.4499Y-2.7368
X3.4546Y-3.037
X3.4546Y-3.3903
X3.4811Y-4.8618
X3.4811Y-5.3306
X3.4859Y-2.5899
X3.5253Y-3.503
X3.5253Y-4.2395
X3.5484Y-4.8985
X3.5484Y-5.4922
X3.5769Y-4.1162
X3.5796Y-3.3333
X3.5796Y-3.6497
X3.5796Y-4.211
X3.597Y-3.835
X3.6082Y-3.3903
X3.6191Y-4.1185
X3.6528Y-3.3583
X3.6566Y-3.6218
X3.6853Y-4.2395
X3.6878Y-3.5493
X3.7234Y-3.3963
X3.7234Y-3.585
X3.7558Y-4.9868
X3.7859Y-3.5316
X3.7903Y-2.7747
X3.7984Y-2.0247
X3.7984Y-4.9556
X3.8071Y-5.2681
X3.8296Y-2.3059
X3.8296Y-2.7747
X3.8384Y-5.1743
X3.8484Y-3.4912
X3.9499Y-4.3618
X3.9499Y-4.8618
X3.9859Y-4.8931
X3.9886Y-4.3931
X3.9958Y-4.231
X4.0011Y-3.2939
X4.0058Y-2.5392
X4.009Y-4.2681
X4.0171Y-4.5493
X4.0253Y-4.205
X4.0259Y-5.2056
X4.037Y-2.6281
X4.0484Y-2.8047
X4.0484Y-4.2681
X4.0571Y-5.2368
X4.0671Y-2.8662
X4.0671Y-3.3963
X4.0683Y-4.1185
X4.0857Y-4.9916
X4.0995Y-2.6281
X4.0995Y-4.8931
X4.1061Y-2.7056
X4.1377Y-3.51
X4.1528Y-2.7083
X4.1734Y-3.0559
X4.1734Y-3.4934
X4.2014Y-4.7186
X4.2046Y-2.7747
X4.2046Y-4.1307
X4.2245Y-4.9142
X4.2311Y-4.3618
X4.241Y-4.1458
X4.2452Y-3.6497
X4.249Y-3.9677
X4.2558Y-5.0392
X4.2821Y-3.2218
X4.3051Y-3.4433
X4.309Y-4.2558
X4.3365Y-3.4195
X4.3403Y-4.2218
X4.3678Y-3.4433
X4.3678Y-4.1431
X4.3921Y-3.8059
X4.412Y-4.133
X4.4421Y-2.1162
X4.4421Y-2.8662
X4.4433Y-4.0392
X4.4467Y-3.3183
X4.4811Y-2.5806
X4.4811Y-2.662
X4.4859Y-2.8047
X4.5171Y-2.0537
X4.5436Y-5.0589
X4.5484Y-2.0247
X4.5484Y-2.7747
X4.5554Y-4.2549
X4.5749Y-5.2368
X4.5749Y-5.3306
X4.5903Y-4.2368
X4.5903Y-4.9405
X4.5916Y-2.2993
X4.5916Y-2.5899
X4.6199Y-4.9093
X4.6521Y-4.3155
X4.6573Y-5.3748
X4.6714Y-4.1642
X4.6821Y-5.3306
X4.6933Y-4.1044
X4.7134Y-5.2993
X4.7234Y-3.21
X4.7234Y-3.5225
X4.7446Y-5.2681
X4.7503Y-4.1458
X4.7671Y-4.2681
X4.7671Y-4.3931
X4.7676Y-5.2361
X4.7936Y-2.6798
X4.7936Y-3.2993
X4.7936Y-3.4433
X4.7936Y-5.3705
X4.7984Y-4.2368
X4.8249Y-3.2368
X4.8249Y-5.1118
X4.8249Y-5.2056
X4.836Y-2.7083
X4.8378Y-2.9093
X4.8484Y-3.5225
X4.8561Y-5.3931
X4.866Y-5.153
X4.8753Y-2.7083
X4.8753Y-3.403
X4.9186Y-2.6743
X4.9186Y-2.7993
X4.9234Y-3.0559
X4.9234Y-3.3997
X4.9234Y-4.2368
X4.9666Y-2.5806
X4.9666Y-2.6576
X4.9666Y-3.3931
X4.9959Y-3.133
X5.0046Y-3.2083
X5.0046Y-3.5537
X5.0048Y-2.5899
X5.0058Y-5.601
X5.0671Y-3.2368
X5.0683Y-4.2368
X5.0968Y-4.0266
X5.0984Y-3.2993
X5.1253Y-3.3333
X5.1421Y-1.9772
X5.1449Y-4.0905
X5.1541Y-3.3931
X5.1541Y-3.6431
X5.1734Y-2.0547
X5.1734Y-2.5547
X5.1734Y-3.8059
X5.1734Y-4.2122
X5.2046Y-2.0235
X5.2311Y-2.1431
X5.2311Y-2.7993
X5.2624Y-4.0266
X5.2624Y-4.2056
X5.2651Y-2.0833
X5.2651Y-2.5899
X5.2936Y-2.0181
X5.3249Y-2.6809
X5.3296Y-2.2747
X5.3296Y-2.6162
X5.3709Y-1.9718
X5.3709Y-2.0833
X5.3796Y-2.3958
X5.3796Y-2.585
X5.3808Y-5.5833
X5.4021Y-4.2843
X5.4021Y-4.6593
X5.4186Y-2.0181
X5.4186Y-2.1118
X5.4234Y-4.8306
X5.4499Y-4.2368
X5.4745Y-4.8517
X5.4815Y-4.2602
X5.5171Y-2.5547
X5.5171Y-3.4297
X5.5291Y-4.2993
X5.5291Y-4.3931
X5.5316Y-4.1458
X5.5484Y-3.1431
X5.5484Y-3.3618
X5.5796Y-2.6184
X5.5877Y-3.3618
X5.6296Y-2.6162
X5.6296Y-3.1475
X5.6734Y-2.6172
X5.6821Y-5.0181
X5.6821Y-5.1431
X5.6999Y-2.6809
X5.6999Y-2.8931
X5.7046Y-4.086
X5.7128Y-3.0655
X5.7245Y-4.258
X5.7247Y-3.7705
X5.7359Y-3.4297
X5.7558Y-5.4455
X5.7644Y-3.5537
X5.7791Y-3.4556
X5.7818Y-3.9767
X5.7818Y-4.2422
X5.7859Y-3.1475
X5.8103Y-3.4895
X5.8103Y-4.2993
X5.8171Y-3.427
X5.8389Y-3.7993
X5.8389Y-4.1458
X5.8753Y-4.1218
X5.8753Y-4.278
X5.884Y-3.3808
X5.8921Y-3.6497
X5.9234Y-4.1184
X5.9433Y-3.3985
X6.0171Y-2.0247
X6.0359Y-3.9794
X6.0484Y-2.6172
X6.0683Y-5.4142
X6.0916Y-2.2993
X6.0916Y-2.7681
X6.1296Y-4.3662
X6.1421Y-4.2422
X6.1734Y-5.3985
X6.1821Y-5.5806
X6.2116Y-5.0199
X6.2128Y-4.2495
X6.2128Y-4.628
X6.2134Y-5.3931
X6.2446Y-5.601
X6.2558Y-2.5439
X6.2671Y-4.2843
X6.2759Y-5.658
X6.2823Y-3.2939
X6.287Y-4.3948
X6.287Y-4.7939
X6.2984Y-4.1184
X6.3183Y-2.6239
X6.3183Y-2.7368
X6.3495Y-4.1218
X6.3561Y-3.3985
X6.3576Y-2.6239
X6.3632Y-5.2875
X6.3889Y-4.7186
X6.3945Y-5.0062
X6.4186Y-2.7056
X6.4186Y-3.3931
X6.4499Y-2.7368
X6.4499Y-3.0493
X6.4499Y-4.1743
X6.4784Y-4.1145
X6.4792Y-4.0439
X6.4978Y-2.7681
X6.4978Y-3.37
X6.5359Y-3.427
X6.5359Y-4.1145
X6.5359Y-4.335
X6.5984Y-3.427
X6.6541Y-3.3808
X6.6541Y-3.6431
X6.662Y-2.575
X6.662Y-2.7653
X6.787Y-5.508
X6.8296Y-2.0247
X6.8296Y-2.1497
X6.8416Y-2.2993
X6.8416Y-2.5951
X6.8416Y-2.7681
X6.9003Y-4.2623
X6.9003Y-4.3193
X6.912Y-2.575
X6.912Y-2.7653
X6.9186Y-5.5493
X6.9499Y-4.2056
X6.9546Y-4.5493
X6.9634Y-5.6118
X6.9946Y-5.6431
X7.0048Y-2.5951
X7.0058Y-4.2027
X7.0232Y-4.383
X7.0252Y-4.2395
X7.1253Y-3.3405
X7.1595Y-3.3931
X7.1667Y-4.7939
X7.1686Y-3.0493
X7.1881Y-4.2056
X7.2046Y-2.6809
X7.2166Y-3.3517
X7.2166Y-3.4556
X7.2166Y-4.2395
X7.2478Y-2.7993
X7.25Y-4.2188
X7.2753Y-4.3155
X7.2934Y-5.5016
X7.3756Y-3.4556
X7.3874Y-4.1431
X7.4041Y-3.3618
X7.4041Y-3.6431
X7.4105Y-1.9962
X7.4499Y-2.0806
X7.5409Y-2.2988
X7.5749Y-1.9962
X7.5796Y-2.3059
X7.5796Y-2.6184
X7.7046Y-5.5547
X7.7359Y-5.1172
X7.7624Y-4.1743
X7.7671Y-4.5806
X7.7759Y-5.1743
X7.7791Y-4.2395
X7.7791Y-4.3931
X7.7936Y-4.0887
X7.8013Y-4.169
X7.8249Y-2.2056
X7.8921Y-3.5181
X7.9234Y-2.7681
X7.9514Y-3.9686
X7.9546Y-3.2154
X7.9546Y-2.7122
X7.9546Y-2.8997
X7.9546Y-3.0559
X7.9859Y-4.0872
X8.1228Y-3.3618
X8.1228Y-4.2395
X8.1541Y-3.5057
X8.1541Y-3.6431
X8.158Y-4.2572
X8.1686Y-3.3931
X8.1999Y-2.1431
X8.2459Y-1.9785
X8.2459Y-2.378
X8.3296Y-2.3059
X8.3296Y-2.6809
X8.5171Y-4.2681
X8.5171Y-4.3931
X8.5171Y-4.5493
X8.5259Y-5.0493
X8.5278Y-4.1458
X8.6374Y-2.647
X8.6584Y-3.0493
X8.6734Y-2.6184
X8.6734Y-3.3997
X8.7166Y-2.7395
X8.7166Y-3.3618
X8.7359Y-3.1184
X8.7549Y-3.3707
X8.787Y-2.6017
X8.787Y-2.7966
X8.8249Y-2.2368
X8.8921Y-3.3997
X8.8921Y-3.6497
X8.9499Y-1.9785
X9.0916Y-2.2993
X9.0916Y-2.7395
X9.1539Y-4.7186
X9.162Y-5.4455
X9.2245Y-4.7892
X9.2511Y-5.5439
X9.2671Y-4.118
X9.2671Y-4.2993
X9.2671Y-4.3931
X9.2791Y-4.5493
X9.3384Y-5.0247
X9.3696Y-5.0493
X9.3696Y-5.1431
X9.4186Y-2.6743
X9.4186Y-3.4772
X9.4546Y-3.0559
X9.4859Y-3.4487
X9.4859Y-4.2747
X9.5566Y-3.9093
X9.5566Y-4.2462
X9.6374Y-3.4772
X9.6374Y-3.6431
X9.8576Y-3.9686
X9.8808Y-4.6955
X9.8921Y-2.3059
X9.8921Y-2.6809
X9.8921Y-2.7966
X10.0995Y-2.6017
X10.1308Y-2.883
X10.1878Y-2.633
X10.1878Y-3.5343
X10.2046Y-3.0559
X10.2046Y-3.3997
X10.2359Y-2.8059
X10.2359Y-4.1387
X10.2558Y-5.0181
X10.2671Y-3.3684
X10.2671Y-4.3997
X10.3171Y-3.4287
X10.3171Y-3.6787
X10.3296Y-4.5493
X10.3296Y-5.0247
X10.3448Y-4.0439
X10.3495Y-3.3205
X10.4574Y-3.5343
X10.4691Y-4.2155
X10.4859Y-3.3684
X10.4859Y-4.0872
X10.5124Y-1.9962
X10.5124Y-2.0806
X10.5171Y-3.5057
X10.5171Y-3.6787
X10.5671Y-4.1458
X10.5671Y-4.2441
X10.5749Y-1.9868
X10.5749Y-2.1123
X10.5796Y-4.9895
X10.5916Y-5.1431
X10.6109Y-3.8985
X10.6109Y-3.9556
X10.6734Y-2.0247
X10.6734Y-2.5181
X10.8495Y-4.7892
X10.8609Y-2.7395
X10.8609Y-3.6497
X10.8808Y-4.1017
X10.9186Y-2.3618
X10.9186Y-2.5806
X10.9499Y-1.9868
X10.9499Y-2.0806
X10.9546Y-2.3059
X10.9546Y-2.7122
X10.9546Y-3.3684
X10.9811Y-2.0181
X10.9832Y-2.3931
X11.0046Y-3.3662
X11.0046Y-3.585
X11.0796Y-2.5181
X11.0824Y-2.8093
X11.0941Y-3.5593
X11.1109Y-2.8997
X11.1933Y-4.1017
X11.2245Y-4.7892
X11.2823Y-5.5439
X11.287Y-2.7095
X11.287Y-2.8205
X11.3296Y-4.2747
X11.3296Y-4.3997
X11.3296Y-5.0181
X11.3296Y-5.1431
X11.3606Y-4.5402
X11.3681Y-5.0262
X11.5058Y-3.883
X11.5058Y-4.133
X11.6374Y-2.0181
X11.6374Y-2.2368
X11.7234Y-3.3662
X11.7234Y-4.1162
X11.912Y-2.4455
X11.9186Y-4.1743
X11.9201Y-3.2186
X11.9499Y-3.5181
X11.9734Y-4.2441
X11.9734Y-4.3037
X11.9959Y-2.6524
X12.0271Y-4.2155
X12.0436Y-4.2681
X12.0451Y-4.7186
X12.0451Y-5.4686
X12.0484Y-2.6809
X12.0484Y-3.6497
X12.0796Y-3.3997
X12.0796Y-4.3997
X12.0796Y-5.0247
X12.0796Y-5.1497
X12.0916Y-2.718
X12.0916Y-2.8931
X12.1226Y-4.7186
X12.162Y-3.9142
X12.2984Y-2.7681
X12.6061Y-3.2681
X12.6061Y-3.5181
X12.6109Y-3.9297
X12.6109Y-4.2422
X12.6346Y-3.3517
X12.6609Y-4.1475
X12.6609Y-4.7412
T3
X6.5384Y-5.2155
X6.5384Y-5.3155
X6.5384Y-5.4155
X6.6384Y-5.2155
X6.6384Y-5.3155
X6.6384Y-5.4155
X12.2943Y-1.9989
X12.2943Y-2.5697
X12.3927Y-2.5697
X12.4911Y-1.9989
X12.4911Y-2.5697
T4
X12.1722Y-2.2745
X12.6132Y-2.2745
T2
G00X1.3158Y-1.9972
M15
G01X1.3158Y-2.0209
M16
G05
G00X1.3158Y-2.152
M15
G01X1.3158Y-2.1953
M16
G05
G00X1.656Y-1.9972
M15
G01X1.656Y-2.0209
M16
G05
G00X1.656Y-2.152
M15
G01X1.656Y-2.1953
M16
G05
T0
M30
