M48
; DRILL file {KiCad (6.0.8)} date Sat Apr  8 23:31:13 2023
; FORMAT={-:-/ absolute / inch / decimal}
; #@! TF.CreationDate,2023-04-08T23:31:13-04:00
; #@! TF.GenerationSoftware,Kicad,Pcbnew,(6.0.8)
; #@! TF.FileFunction,NonPlated,1,2,NPTH
FMAT,2
INCH
; #@! TA.AperFunction,NonPlated,NPTH,ComponentDrill
T1C0.0256
; #@! TA.AperFunction,NonPlated,NPTH,ComponentDrill
T2C0.0670
; #@! TA.AperFunction,NonPlated,NPTH,ComponentDrill
T3C0.1200
; #@! TA.AperFunction,NonPlated,NPTH,ComponentDrill
T4C0.1570
%
G90
G05
T1
X3.0452Y-2.7922
X3.2727Y-2.7922
T2
X2.6131Y-3.1875
X2.7068Y-6.1875
X2.8006Y-3.9375
X2.8943Y-4.6875
X3.0131Y-3.1875
X3.0818Y-5.4375
X3.1068Y-6.1875
X3.2006Y-3.9375
X3.2943Y-4.6875
X3.3631Y-3.1875
X3.4818Y-5.4375
X3.6443Y-6.1875
X3.7382Y-3.9375
X3.7631Y-3.1875
X3.9256Y-4.6875
X4.0443Y-6.1875
X4.1131Y-3.1875
X4.1382Y-3.9375
X4.3006Y-5.4375
X4.3256Y-4.6875
X4.4881Y-3.9375
X4.5131Y-3.1875
X4.5818Y-6.1875
X4.6737Y-4.6875
X4.7006Y-5.4375
X4.8631Y-3.1875
X4.8881Y-3.9375
X4.9818Y-6.1875
X5.0506Y-5.4375
X5.0737Y-4.6875
X5.2381Y-3.9375
X5.2631Y-3.1875
X5.4237Y-4.6875
X5.4506Y-5.4375
X5.6131Y-3.1875
X5.6381Y-3.9375
X5.8011Y-5.4375
X5.8237Y-4.6875
X5.9881Y-3.9375
X6.0131Y-3.1875
X6.1737Y-4.6875
X6.2011Y-5.4375
X6.3643Y-3.1875
X6.3881Y-3.9375
X6.5511Y-5.4375
X6.5737Y-4.6875
X6.7381Y-3.9375
X6.7643Y-3.1875
X6.925Y-4.6875
X6.9511Y-5.4375
X7.1131Y-3.1875
X7.1381Y-3.9375
X7.3011Y-5.4375
X7.325Y-4.6875
X7.3943Y-6.1875
X7.4881Y-3.9375
X7.5131Y-3.1875
X7.675Y-4.6875
X7.7011Y-5.4375
X7.7943Y-6.1875
X7.8631Y-3.1875
X7.8881Y-3.9375
X8.0529Y-5.4375
X8.075Y-4.6875
X8.2371Y-3.9375
X8.2631Y-3.1875
X8.425Y-4.6875
X8.4529Y-5.4375
X8.6131Y-3.1875
X8.6371Y-3.9375
X8.8011Y-5.4375
X8.825Y-4.6875
X8.9881Y-3.9375
X9.0131Y-3.1875
X9.175Y-4.6875
X9.2011Y-5.4375
X9.3631Y-3.1875
X9.3881Y-3.9375
X9.5511Y-5.4375
X9.575Y-4.6875
X9.7381Y-3.9375
X9.7631Y-3.1875
X9.925Y-4.6875
X9.9511Y-5.4375
X10.1131Y-3.1875
X10.1381Y-3.9375
X10.2068Y-6.1875
X10.3011Y-5.4375
X10.325Y-4.6875
X10.4881Y-3.9375
X10.5131Y-3.1875
X10.6068Y-6.1875
X10.675Y-4.6875
X10.7011Y-5.4375
X10.8631Y-3.1875
X10.8881Y-3.9375
X11.0529Y-5.4375
X11.075Y-4.6875
X11.1443Y-6.1875
X11.2375Y-3.9375
X11.2631Y-3.1875
X11.425Y-4.6875
X11.4529Y-5.4375
X11.5443Y-6.1875
X11.6131Y-3.1875
X11.6375Y-3.9375
X11.825Y-4.6875
X11.9875Y-3.9375
X12.0131Y-3.1875
X12.0842Y-5.4375
X12.3625Y-6.1875
X12.3875Y-3.9375
X12.4842Y-5.4375
X12.6437Y-4.6875
X12.7381Y-3.1875
X12.7625Y-6.1875
X12.925Y-3.9375
X13.0437Y-4.6875
X13.1125Y-5.4375
X13.1125Y-6.1875
X13.1381Y-3.1875
X13.325Y-3.9375
X13.5125Y-5.4375
X13.5125Y-6.1875
X13.8625Y-3.9375
X13.8625Y-4.6875
X13.8625Y-5.4375
X13.8625Y-6.1875
X14.2625Y-3.9375
X14.2625Y-4.6875
X14.2625Y-5.4375
X14.2625Y-6.1875
T3
X2.7131Y-3.3875
X2.7568Y-6.0875
X2.8118Y-5.7125
X2.8506Y-3.8375
X2.9443Y-4.5875
X2.9631Y-3.2875
X3.0068Y-5.9875
X3.1006Y-3.7375
X3.1318Y-5.3375
X3.1943Y-4.4875
X3.3818Y-5.2375
X3.4631Y-3.3875
X3.6943Y-6.0875
X3.7131Y-3.2875
X3.7518Y-5.7125
X3.7882Y-3.8375
X3.9443Y-5.9875
X3.9756Y-4.5875
X4.0382Y-3.7375
X4.1631Y-3.0875
X4.2256Y-4.4875
X4.3506Y-5.3375
X4.4131Y-2.9875
X4.5381Y-3.8375
X4.6006Y-5.2375
X4.6318Y-6.0875
X4.7237Y-4.5875
X4.7881Y-3.7375
X4.8818Y-5.9875
X4.9131Y-3.0875
X4.9737Y-4.4875
X5.1006Y-5.3375
X5.1631Y-2.9875
X5.2881Y-3.8375
X5.3506Y-5.2375
X5.4737Y-4.5875
X5.5381Y-3.7375
X5.6243Y-6.4625
X5.6631Y-3.0875
X5.7237Y-4.4875
X5.8511Y-5.3375
X5.9131Y-2.9875
X6.0381Y-3.8375
X6.1011Y-5.2375
X6.2237Y-4.5875
X6.2881Y-3.7375
X6.4143Y-3.0875
X6.4737Y-4.4875
X6.6011Y-5.3375
X6.6643Y-2.9875
X6.7881Y-3.8375
X6.8511Y-5.2375
X6.975Y-4.5875
X7.0381Y-3.7375
X7.1631Y-3.0875
X7.225Y-4.4875
X7.3511Y-5.3375
X7.4131Y-2.9875
X7.4443Y-6.0875
X7.5381Y-3.8375
X7.6011Y-5.2375
X7.6943Y-5.9875
X7.725Y-4.5875
X7.7881Y-3.7375
X7.9131Y-3.0875
X7.975Y-4.4875
X8.1029Y-5.3375
X8.1631Y-2.9875
X8.2871Y-3.8375
X8.3529Y-5.2375
X8.475Y-4.5875
X8.5371Y-3.7375
X8.6631Y-3.0875
X8.725Y-4.4875
X8.8511Y-5.3375
X8.9131Y-2.9875
X9.0381Y-3.8375
X9.1011Y-5.2375
X9.225Y-4.5875
X9.2881Y-3.7375
X9.4131Y-3.0875
X9.475Y-4.4875
X9.5643Y-6.4625
X9.6011Y-5.3375
X9.6631Y-2.9875
X9.7881Y-3.8375
X9.8511Y-5.2375
X9.975Y-4.5875
X10.0381Y-3.7375
X10.1631Y-3.0875
X10.225Y-4.4875
X10.2568Y-6.0875
X10.3511Y-5.3375
X10.4131Y-2.9875
X10.5068Y-5.9875
X10.5381Y-3.8375
X10.6011Y-5.2375
X10.725Y-4.5875
X10.7881Y-3.7375
X10.9131Y-3.0875
X10.975Y-4.4875
X11.1029Y-5.3375
X11.1631Y-2.9875
X11.1943Y-6.0875
X11.2875Y-3.8375
X11.3529Y-5.2375
X11.4443Y-5.9875
X11.475Y-4.5875
X11.5375Y-3.7375
X11.6631Y-3.0875
X11.725Y-4.4875
X11.9131Y-2.9875
X12.0375Y-3.8375
X12.1342Y-5.3375
X12.2875Y-3.7375
X12.3737Y-4.9625
X12.3842Y-5.2375
X12.4125Y-6.0875
X12.4681Y-3.4625
X12.6625Y-5.9875
X12.6937Y-4.5875
X12.7881Y-3.0875
X12.9437Y-4.4875
X12.975Y-3.8375
X13.0381Y-2.9875
X13.1625Y-5.3375
X13.1625Y-6.0875
X13.225Y-3.7375
X13.3137Y-4.9625
X13.4081Y-3.4625
X13.4125Y-5.2375
X13.4125Y-5.9875
X13.9125Y-3.8375
X13.9125Y-4.5875
X13.9125Y-5.3375
X13.9125Y-6.0875
X14.1625Y-3.7375
X14.1625Y-4.4875
X14.1625Y-5.2375
X14.1625Y-5.9875
T4
X2.8118Y-5.1125
X2.8131Y-3.1875
X2.9068Y-6.1875
X3.0006Y-3.9375
X3.0943Y-4.6875
X3.2818Y-5.4375
X3.5631Y-3.1875
X3.7518Y-5.1125
X3.8443Y-6.1875
X3.9382Y-3.9375
X4.1256Y-4.6875
X4.3131Y-3.1875
X4.5006Y-5.4375
X4.6881Y-3.9375
X4.7818Y-6.1875
X4.8737Y-4.6875
X5.0631Y-3.1875
X5.2506Y-5.4375
X5.4381Y-3.9375
X5.6237Y-4.6875
X5.6243Y-5.8625
X5.8131Y-3.1875
X6.0011Y-5.4375
X6.1881Y-3.9375
X6.3737Y-4.6875
X6.5643Y-3.1875
X6.7511Y-5.4375
X6.9381Y-3.9375
X7.125Y-4.6875
X7.3131Y-3.1875
X7.5011Y-5.4375
X7.5943Y-6.1875
X7.6881Y-3.9375
X7.875Y-4.6875
X8.0631Y-3.1875
X8.2529Y-5.4375
X8.4371Y-3.9375
X8.625Y-4.6875
X8.8131Y-3.1875
X9.0011Y-5.4375
X9.1881Y-3.9375
X9.375Y-4.6875
X9.5631Y-3.1875
X9.5643Y-5.8625
X9.7511Y-5.4375
X9.9381Y-3.9375
X10.125Y-4.6875
X10.3131Y-3.1875
X10.4068Y-6.1875
X10.5011Y-5.4375
X10.6881Y-3.9375
X10.875Y-4.6875
X11.0631Y-3.1875
X11.2529Y-5.4375
X11.3443Y-6.1875
X11.4375Y-3.9375
X11.625Y-4.6875
X11.8131Y-3.1875
X12.1875Y-3.9375
X12.2842Y-5.4375
X12.3737Y-4.3625
X12.4681Y-2.8625
X12.5625Y-6.1875
X12.8438Y-4.6875
X12.9381Y-3.1875
X13.125Y-3.9375
X13.3125Y-5.4375
X13.3125Y-6.1875
X13.3137Y-4.3625
X13.4081Y-2.8625
X14.0625Y-3.9375
X14.0625Y-4.6875
X14.0625Y-5.4375
X14.0625Y-6.1875
T0
M30
