M48
; DRILL file {KiCad (6.0.6)} date Mon Jan  9 15:54:19 2023
; FORMAT={-:-/ absolute / inch / decimal}
; #@! TF.CreationDate,2023-01-09T15:54:19-08:00
; #@! TF.GenerationSoftware,Kicad,Pcbnew,(6.0.6)
; #@! TF.FileFunction,NonPlated,1,2,NPTH
FMAT,2
INCH
; #@! TA.AperFunction,NonPlated,NPTH,ComponentDrill
T1C0.0256
; #@! TA.AperFunction,NonPlated,NPTH,ComponentDrill
T2C0.0670
; #@! TA.AperFunction,NonPlated,NPTH,ComponentDrill
T3C0.1200
; #@! TA.AperFunction,NonPlated,NPTH,ComponentDrill
T4C0.1570
%
G90
G05
T1
X1.3721Y-2.1527
X1.5997Y-2.1527
T2
X0.9109Y-2.3155
X1.0134Y-5.3155
X1.0984Y-3.0655
X1.2003Y-3.818
X1.3109Y-2.3155
X1.3872Y-4.5655
X1.4134Y-5.3155
X1.4984Y-3.0655
X1.6003Y-3.818
X1.6609Y-2.3155
X1.7872Y-4.5655
X1.9509Y-5.3155
X2.036Y-3.0655
X2.0609Y-2.3155
X2.2335Y-3.8155
X2.3509Y-5.3155
X2.4109Y-2.3155
X2.436Y-3.0655
X2.6061Y-4.5655
X2.6335Y-3.8155
X2.7859Y-3.0655
X2.8109Y-2.3155
X2.8884Y-5.3155
X2.9816Y-3.8155
X3.0061Y-4.5655
X3.1609Y-2.3155
X3.1859Y-3.0655
X3.2884Y-5.3155
X3.3583Y-4.5623
X3.3816Y-3.8155
X3.5359Y-3.0655
X3.5609Y-2.3155
X3.7316Y-3.8155
X3.7583Y-4.5623
X3.9109Y-2.3155
X3.9359Y-3.0655
X4.1066Y-4.5655
X4.1316Y-3.8155
X4.2859Y-3.0655
X4.3109Y-2.3155
X4.4816Y-3.8155
X4.5066Y-4.5655
X4.6621Y-2.3155
X4.6859Y-3.0655
X4.8566Y-4.5655
X4.8816Y-3.8155
X5.0359Y-3.0655
X5.0621Y-2.3155
X5.2355Y-3.8155
X5.2566Y-4.5655
X5.4109Y-2.3155
X5.4359Y-3.0655
X5.6066Y-4.5655
X5.6355Y-3.8155
X5.7009Y-5.3155
X5.7859Y-3.0655
X5.8109Y-2.3155
X5.9816Y-3.8155
X6.0066Y-4.5655
X6.1009Y-5.3155
X6.1609Y-2.3155
X6.1859Y-3.0655
X6.3584Y-4.5655
X6.3816Y-3.8155
X6.5359Y-3.0655
X6.5609Y-2.3155
X6.7316Y-3.8155
X6.7584Y-4.5655
X6.9109Y-2.3155
X6.9359Y-3.0655
X7.1066Y-4.5655
X7.1316Y-3.8155
X7.2859Y-3.0655
X7.3109Y-2.3155
X7.4816Y-3.8155
X7.5066Y-4.5655
X7.6609Y-2.3155
X7.6859Y-3.0655
X7.8566Y-4.5655
X7.8816Y-3.8155
X8.0359Y-3.0655
X8.0609Y-2.3155
X8.2316Y-3.8155
X8.2566Y-4.5655
X8.4109Y-2.3155
X8.4359Y-3.0655
X8.5134Y-5.3155
X8.6066Y-4.5655
X8.6316Y-3.8155
X8.7859Y-3.0655
X8.8109Y-2.3155
X8.9134Y-5.3155
X8.9816Y-3.8155
X9.0066Y-4.5655
X9.1609Y-2.3155
X9.1859Y-3.0655
X9.3584Y-4.5655
X9.3816Y-3.8155
X9.4509Y-5.3155
X9.5359Y-3.0655
X9.5609Y-2.3155
X9.7316Y-3.8155
X9.7584Y-4.5655
X9.8509Y-5.3155
X9.9359Y-3.0655
X9.9646Y-2.3155
X10.1316Y-3.8155
X10.2859Y-3.0655
X10.3646Y-2.3155
X10.3896Y-4.5655
X10.6691Y-5.3155
X10.6859Y-3.0655
X10.7896Y-4.5655
X10.9503Y-3.818
X11.0691Y-5.3155
X11.0902Y-2.3155
X11.2234Y-3.0655
X11.3503Y-3.818
X11.4191Y-4.5655
X11.4191Y-5.3155
X11.4902Y-2.3155
X11.6234Y-3.0655
X11.8191Y-4.5655
X11.8191Y-5.3155
X12.1609Y-3.0655
X12.1691Y-4.5655
X12.1691Y-5.3155
X12.1709Y-3.8155
X12.5609Y-3.0655
X12.5691Y-4.5655
X12.5691Y-5.3155
X12.5709Y-3.8155
T3
X1.0109Y-2.5155
X1.0634Y-5.2155
X1.1172Y-4.8405
X1.1484Y-2.9655
X1.2503Y-3.718
X1.2609Y-2.4155
X1.3134Y-5.1155
X1.3984Y-2.8655
X1.4372Y-4.4655
X1.5003Y-3.618
X1.6872Y-4.3655
X1.7609Y-2.5155
X2.0009Y-5.2155
X2.0109Y-2.4155
X2.0572Y-4.8405
X2.086Y-2.9655
X2.2509Y-5.1155
X2.2835Y-3.7155
X2.336Y-2.8655
X2.4609Y-2.2155
X2.5335Y-3.6155
X2.6561Y-4.4655
X2.7109Y-2.1155
X2.8359Y-2.9655
X2.9061Y-4.3655
X2.9384Y-5.2155
X3.0316Y-3.7155
X3.0859Y-2.8655
X3.1884Y-5.1155
X3.2109Y-2.2155
X3.2816Y-3.6155
X3.4083Y-4.4623
X3.4609Y-2.1155
X3.5859Y-2.9655
X3.6583Y-4.3623
X3.7816Y-3.7155
X3.8359Y-2.8655
X3.9309Y-5.5905
X3.9609Y-2.2155
X4.0316Y-3.6155
X4.1566Y-4.4655
X4.2109Y-2.1155
X4.3359Y-2.9655
X4.4066Y-4.3655
X4.5316Y-3.7155
X4.5859Y-2.8655
X4.7121Y-2.2155
X4.7816Y-3.6155
X4.9066Y-4.4655
X4.9621Y-2.1155
X5.0859Y-2.9655
X5.1566Y-4.3655
X5.2855Y-3.7155
X5.3359Y-2.8655
X5.4609Y-2.2155
X5.5355Y-3.6155
X5.6566Y-4.4655
X5.7109Y-2.1155
X5.7509Y-5.2155
X5.8359Y-2.9655
X5.9066Y-4.3655
X6.0009Y-5.1155
X6.0316Y-3.7155
X6.0859Y-2.8655
X6.2109Y-2.2155
X6.2816Y-3.6155
X6.4084Y-4.4655
X6.4609Y-2.1155
X6.5859Y-2.9655
X6.6584Y-4.3655
X6.7816Y-3.7155
X6.8359Y-2.8655
X6.9609Y-2.2155
X7.0316Y-3.6155
X7.1566Y-4.4655
X7.2109Y-2.1155
X7.3359Y-2.9655
X7.4066Y-4.3655
X7.5316Y-3.7155
X7.5859Y-2.8655
X7.7109Y-2.2155
X7.7816Y-3.6155
X7.8709Y-5.5905
X7.9066Y-4.4655
X7.9609Y-2.1155
X8.0859Y-2.9655
X8.1566Y-4.3655
X8.2816Y-3.7155
X8.3359Y-2.8655
X8.4609Y-2.2155
X8.5316Y-3.6155
X8.5634Y-5.2155
X8.6566Y-4.4655
X8.7109Y-2.1155
X8.8134Y-5.1155
X8.8359Y-2.9655
X8.9066Y-4.3655
X9.0316Y-3.7155
X9.0859Y-2.8655
X9.2109Y-2.2155
X9.2816Y-3.6155
X9.4084Y-4.4655
X9.4609Y-2.1155
X9.5009Y-5.2155
X9.5859Y-2.9655
X9.6584Y-4.3655
X9.7509Y-5.1155
X9.7816Y-3.7155
X9.8359Y-2.8655
X10.0146Y-2.2155
X10.0316Y-3.6155
X10.2646Y-2.1155
X10.3359Y-2.9655
X10.4396Y-4.4655
X10.5859Y-2.8655
X10.6803Y-4.093
X10.6896Y-4.3655
X10.7191Y-5.2155
X10.8202Y-2.5905
X10.9691Y-5.1155
X11.0003Y-3.718
X11.1402Y-2.2155
X11.2503Y-3.618
X11.2734Y-2.9655
X11.3902Y-2.1155
X11.4691Y-4.4655
X11.4691Y-5.2155
X11.5234Y-2.8655
X11.6203Y-4.093
X11.7191Y-4.3655
X11.7191Y-5.1155
X11.7602Y-2.5905
X12.2109Y-2.9655
X12.2191Y-4.4655
X12.2191Y-5.2155
X12.2209Y-3.7155
X12.4609Y-2.8655
X12.4691Y-4.3655
X12.4691Y-5.1155
X12.4709Y-3.6155
T4
X1.1109Y-2.3155
X1.1172Y-4.2405
X1.2134Y-5.3155
X1.2984Y-3.0655
X1.4003Y-3.818
X1.5872Y-4.5655
X1.8609Y-2.3155
X2.0572Y-4.2405
X2.1509Y-5.3155
X2.236Y-3.0655
X2.4335Y-3.8155
X2.6109Y-2.3155
X2.8061Y-4.5655
X2.9859Y-3.0655
X3.0884Y-5.3155
X3.1816Y-3.8155
X3.3609Y-2.3155
X3.5583Y-4.5623
X3.7359Y-3.0655
X3.9309Y-4.9905
X3.9316Y-3.8155
X4.1109Y-2.3155
X4.3066Y-4.5655
X4.4859Y-3.0655
X4.6816Y-3.8155
X4.8621Y-2.3155
X5.0566Y-4.5655
X5.2359Y-3.0655
X5.4355Y-3.8155
X5.6109Y-2.3155
X5.8066Y-4.5655
X5.9009Y-5.3155
X5.9859Y-3.0655
X6.1816Y-3.8155
X6.3609Y-2.3155
X6.5584Y-4.5655
X6.7359Y-3.0655
X6.9316Y-3.8155
X7.1109Y-2.3155
X7.3066Y-4.5655
X7.4859Y-3.0655
X7.6816Y-3.8155
X7.8609Y-2.3155
X7.8709Y-4.9905
X8.0566Y-4.5655
X8.2359Y-3.0655
X8.4316Y-3.8155
X8.6109Y-2.3155
X8.7134Y-5.3155
X8.8066Y-4.5655
X8.9859Y-3.0655
X9.1816Y-3.8155
X9.3609Y-2.3155
X9.5584Y-4.5655
X9.6509Y-5.3155
X9.7359Y-3.0655
X9.9316Y-3.8155
X10.1646Y-2.3155
X10.4859Y-3.0655
X10.5896Y-4.5655
X10.6803Y-3.493
X10.8202Y-1.9905
X10.8691Y-5.3155
X11.1503Y-3.818
X11.2902Y-2.3155
X11.4234Y-3.0655
X11.6191Y-4.5655
X11.6191Y-5.3155
X11.6203Y-3.493
X11.7602Y-1.9905
X12.3609Y-3.0655
X12.3691Y-4.5655
X12.3691Y-5.3155
X12.3709Y-3.8155
T0
M30
