%TF.GenerationSoftware,KiCad,Pcbnew,(6.0.8)*%
%TF.CreationDate,2023-04-08T23:36:10-04:00*%
%TF.ProjectId,keeb,6b656562-2e6b-4696-9361-645f70636258,rev?*%
%TF.SameCoordinates,Original*%
%TF.FileFunction,Copper,L1,Top*%
%TF.FilePolarity,Positive*%
%FSLAX46Y46*%
G04 Gerber Fmt 4.6, Leading zero omitted, Abs format (unit mm)*
G04 Created by KiCad (PCBNEW (6.0.8)) date 2023-04-08 23:36:10*
%MOMM*%
%LPD*%
G01*
G04 APERTURE LIST*
%TA.AperFunction,ComponentPad*%
%ADD10C,1.700000*%
%TD*%
%TA.AperFunction,ComponentPad*%
%ADD11R,1.700000X1.700000*%
%TD*%
%TA.AperFunction,ComponentPad*%
%ADD12C,2.000000*%
%TD*%
%TA.AperFunction,ComponentPad*%
%ADD13C,3.200000*%
%TD*%
%TA.AperFunction,ComponentPad*%
%ADD14R,2.000000X2.000000*%
%TD*%
%TA.AperFunction,ComponentPad*%
%ADD15O,1.000000X1.600000*%
%TD*%
%TA.AperFunction,ComponentPad*%
%ADD16O,1.000000X2.100000*%
%TD*%
%TA.AperFunction,ViaPad*%
%ADD17C,0.800000*%
%TD*%
%TA.AperFunction,Conductor*%
%ADD18C,0.200000*%
%TD*%
%TA.AperFunction,Conductor*%
%ADD19C,0.250000*%
%TD*%
%TA.AperFunction,Conductor*%
%ADD20C,0.381000*%
%TD*%
G04 APERTURE END LIST*
D10*
%TO.P,J1,1,MISO*%
%TO.N,MISO*%
X209088500Y-154622500D03*
%TO.P,J1,2,VCC*%
%TO.N,+5V*%
X211628500Y-154622500D03*
%TO.P,J1,3,SCK*%
%TO.N,SCK*%
X209088500Y-157162500D03*
%TO.P,J1,4,MOSI*%
%TO.N,MOSI*%
X211628500Y-157162500D03*
%TO.P,J1,5,~{RST}*%
%TO.N,RESET*%
X209088500Y-159702500D03*
D11*
%TO.P,J1,6,GND*%
%TO.N,GND*%
X211628500Y-159702500D03*
%TD*%
D12*
%TO.P,SW2,S2,S2*%
%TO.N,Net-(D103-Pad2)*%
X354687500Y-73712500D03*
%TO.P,SW2,S1,S1*%
%TO.N,COL9*%
X359687500Y-73712500D03*
D13*
%TO.P,SW2,MP*%
%TO.N,N/C*%
X362787500Y-80712500D03*
X351587500Y-80712500D03*
D12*
%TO.P,SW2,C,C*%
%TO.N,GND*%
X357187500Y-88212500D03*
%TO.P,SW2,B,B*%
%TO.N,RE1*%
X359687500Y-88212500D03*
D14*
%TO.P,SW2,A,A*%
%TO.N,RE2*%
X354687500Y-88212500D03*
%TD*%
D15*
%TO.P,USB1,13,SHIELD*%
%TO.N,GND*%
X75917330Y-67270635D03*
D16*
X75917330Y-71450635D03*
D15*
X84557330Y-67270635D03*
D16*
X84557330Y-71450635D03*
%TD*%
D17*
%TO.N,+5V*%
X258640000Y-106080000D03*
X87050000Y-73850000D03*
X151800000Y-162400000D03*
X151700000Y-160750000D03*
X165650000Y-159100000D03*
X339850000Y-106390000D03*
X139960000Y-144790000D03*
X363750000Y-162900000D03*
X335470000Y-87550000D03*
X106450000Y-105625000D03*
X272975000Y-144250000D03*
X86891917Y-98347714D03*
X161250000Y-162950000D03*
X301670000Y-125620000D03*
X291900000Y-144400000D03*
X178110000Y-143860000D03*
X135030000Y-87300000D03*
X297020000Y-105970000D03*
X200902750Y-159790000D03*
X216100000Y-144840000D03*
X344450000Y-144350000D03*
X230220000Y-87180000D03*
X225525000Y-125175000D03*
X294600000Y-163100000D03*
X199300000Y-162950000D03*
X282710000Y-125720000D03*
X268380000Y-87070000D03*
X165255000Y-152035000D03*
X125475000Y-106750000D03*
X325600000Y-162850000D03*
X363475000Y-144400000D03*
X192150000Y-87870000D03*
X163550000Y-106160000D03*
X306290000Y-87050000D03*
X220620000Y-106250000D03*
X149650000Y-124800000D03*
X81290000Y-107420000D03*
X77725000Y-75275000D03*
X263575000Y-124925000D03*
X315910000Y-106090000D03*
X271250000Y-162800000D03*
X244525000Y-125800000D03*
X344750000Y-162900000D03*
X249220000Y-87040000D03*
X85030000Y-125670000D03*
X206275000Y-125200000D03*
X92500000Y-146100000D03*
X115870000Y-87520000D03*
X120540000Y-147400000D03*
X168550000Y-124900000D03*
X363475000Y-125350000D03*
X111250000Y-124950000D03*
X363510000Y-106930000D03*
X129150000Y-162920000D03*
X130250000Y-124700000D03*
X104800000Y-163120000D03*
X187375000Y-125300000D03*
X332700000Y-125225000D03*
X158715000Y-150555000D03*
X151757167Y-158672714D03*
X152370000Y-149860000D03*
X196925000Y-144125000D03*
X234700000Y-144150000D03*
X158525000Y-144150000D03*
X80730000Y-163190000D03*
X64125000Y-74225000D03*
X277840000Y-105980000D03*
X120900000Y-144500000D03*
X154210000Y-87040000D03*
X80010000Y-70104000D03*
X211444466Y-87524142D03*
X254025000Y-144125000D03*
X318100000Y-144150000D03*
X173230000Y-86930000D03*
X182940000Y-105870000D03*
X239760000Y-106260000D03*
X201630000Y-106090000D03*
X287450000Y-86940000D03*
X144600000Y-106225000D03*
%TO.N,D16*%
X331340000Y-89380000D03*
X197840000Y-73114500D03*
X331140000Y-83980000D03*
X164180000Y-90360000D03*
X166130000Y-108550500D03*
X233790000Y-73114500D03*
X200580000Y-90825500D03*
X319820000Y-89540000D03*
X234260000Y-91006750D03*
X313620000Y-90630000D03*
%TO.N,D59*%
X307890000Y-108250000D03*
X242610000Y-108715500D03*
X235000000Y-73850000D03*
X365240000Y-130640000D03*
X127540000Y-109010000D03*
X65630000Y-161990000D03*
X307800000Y-130310000D03*
X157175500Y-90280000D03*
X65350000Y-110080000D03*
X365020000Y-140610000D03*
X127590000Y-90980000D03*
X157030000Y-74510000D03*
%TO.N,D31*%
X364920000Y-102890000D03*
X70340000Y-124900000D03*
X305380000Y-109140000D03*
X305490000Y-112950000D03*
X70560000Y-111070000D03*
X365310000Y-110750000D03*
X322960000Y-108820000D03*
X322380000Y-113170000D03*
%TO.N,D45*%
X125090000Y-129250000D03*
X241840000Y-128180500D03*
X364020000Y-128330000D03*
X185190000Y-129660000D03*
X73480000Y-133090000D03*
X73620000Y-143000000D03*
X364340000Y-121660000D03*
X125110000Y-131820000D03*
X237410000Y-126710000D03*
X185330000Y-127450500D03*
%TO.N,ROW0*%
X159890000Y-153270000D03*
X148860000Y-150890000D03*
X152273000Y-107156500D03*
X138625000Y-82975000D03*
X117793125Y-82931250D03*
X152400000Y-129540000D03*
X235205500Y-84160000D03*
X310249500Y-72850500D03*
X138990250Y-88900000D03*
X236370000Y-73620000D03*
X310249500Y-74993750D03*
X147320000Y-107156500D03*
X145876384Y-144661786D03*
X147955000Y-129540000D03*
X321362000Y-73660000D03*
X77366917Y-89616464D03*
X97357125Y-94581250D03*
X97357125Y-89818750D03*
X335280000Y-78962500D03*
X334645000Y-73406250D03*
X90066917Y-94378964D03*
X117793125Y-90075000D03*
X321362000Y-74993750D03*
X146050000Y-88900000D03*
%TO.N,COL9*%
X163800000Y-127835500D03*
X92570000Y-138810000D03*
X350361875Y-95631250D03*
X250093125Y-111193750D03*
X329925875Y-93787500D03*
X162830951Y-151285000D03*
X329925875Y-91731750D03*
X183479430Y-131350000D03*
X350361875Y-91185375D03*
X149239750Y-99768750D03*
X183479430Y-133731250D03*
X90502250Y-152468750D03*
X150033500Y-127068750D03*
X92448167Y-127716464D03*
X148983500Y-110881250D03*
X190818125Y-110781750D03*
X324768500Y-112553750D03*
X310114750Y-114935000D03*
X183737250Y-127450500D03*
X310114750Y-111193750D03*
X92448167Y-134066464D03*
X190623180Y-131350000D03*
X324727750Y-93503750D03*
X250093125Y-114681250D03*
%TO.N,ROW1*%
X252650000Y-81075000D03*
X320568250Y-82137500D03*
X252476000Y-72681500D03*
X107964750Y-101981250D03*
X84150000Y-108005500D03*
X124460000Y-147320000D03*
X176968750Y-75063000D03*
X179656250Y-75063000D03*
X126758500Y-111675000D03*
X84180000Y-102310000D03*
X107708173Y-111506000D03*
X124092717Y-144153576D03*
X179705000Y-73025000D03*
X124460000Y-149860000D03*
X107690000Y-107249500D03*
X127014750Y-102150000D03*
X320568250Y-87693750D03*
X170357626Y-87931750D03*
X148580000Y-151970000D03*
X176968750Y-87931750D03*
X122494585Y-128453491D03*
X114721750Y-128510214D03*
X159590578Y-154313436D03*
X115646000Y-111506250D03*
X170131250Y-101725000D03*
%TO.N,Net-(D95-Pad2)*%
X86098167Y-87437500D03*
X87685667Y-88955750D03*
%TO.N,ROW2*%
X184164750Y-101981250D03*
X184150000Y-108949500D03*
X132400000Y-129050000D03*
X158820000Y-154950000D03*
X144780000Y-129294620D03*
X143830000Y-144700000D03*
X145415000Y-146685000D03*
X131550000Y-108700500D03*
%TO.N,Net-(D108-Pad2)*%
X322155750Y-74295000D03*
X322525000Y-82625000D03*
%TO.N,ROW3*%
X188387875Y-117919181D03*
X167214799Y-147334799D03*
X188638375Y-128899500D03*
X182464715Y-128899500D03*
%TO.N,ROW4*%
X189600000Y-129360500D03*
X150929700Y-155485500D03*
X218503500Y-128896685D03*
X181075000Y-137975000D03*
X228778222Y-131762500D03*
X159030500Y-156440000D03*
X200625000Y-138400000D03*
X335482125Y-127125000D03*
X189600000Y-132475000D03*
X200870000Y-129790000D03*
X285900000Y-120510000D03*
X218308555Y-131857999D03*
X335225875Y-120775000D03*
X229108000Y-129832250D03*
X146982839Y-144743643D03*
X317000000Y-124975000D03*
X316975000Y-121650000D03*
X285972250Y-129437000D03*
X181275000Y-132525000D03*
X146280000Y-140000000D03*
%TO.N,ROW5*%
X161205055Y-131762500D03*
X139446000Y-163099500D03*
X160630000Y-151180000D03*
X180350000Y-140325000D03*
X180255055Y-130968750D03*
X124980000Y-160259901D03*
%TO.N,Net-(D136-Pad2)*%
X317775000Y-111825000D03*
X318000000Y-119575000D03*
%TO.N,ROW6*%
X273200917Y-156291464D03*
X203350917Y-157085214D03*
X198100000Y-148134500D03*
X145796000Y-155829000D03*
X162610000Y-155530000D03*
X203454000Y-148336000D03*
X272629417Y-145972714D03*
X165608000Y-157607000D03*
%TO.N,GND*%
X165300000Y-145132064D03*
X147550000Y-142120000D03*
X148776200Y-160587200D03*
X153040000Y-152540000D03*
X147562701Y-143857299D03*
X168640000Y-141430000D03*
X182530000Y-142350000D03*
X164820000Y-142520000D03*
X150540000Y-152670000D03*
X178750000Y-142960000D03*
X144272000Y-157988000D03*
%TO.N,MISO*%
X167956296Y-146664585D03*
X198420000Y-144480000D03*
X209640000Y-148470000D03*
X204640000Y-144590000D03*
X204980000Y-148500000D03*
%TO.N,SCK*%
X185136709Y-144855500D03*
X166380000Y-145450000D03*
X208190000Y-146160000D03*
X165270000Y-150650000D03*
X197980000Y-146410000D03*
%TO.N,MOSI*%
X212875000Y-147395000D03*
X181600000Y-145325500D03*
X197539285Y-147307092D03*
%TO.N,RESET*%
X166576156Y-151382469D03*
X168950000Y-146810000D03*
X206070000Y-145325500D03*
X205732167Y-160260214D03*
%TO.N,D-*%
X89021053Y-105984630D03*
X160093250Y-146178467D03*
%TO.N,D+*%
X160380000Y-145100000D03*
X90066917Y-106041250D03*
%TO.N,Net-(R4-Pad2)*%
X79675131Y-85732115D03*
X78160667Y-80885214D03*
%TO.N,COL0*%
X194194625Y-108469750D03*
X262710000Y-89625000D03*
X263810380Y-107914500D03*
X235758500Y-88656250D03*
X148500000Y-91175500D03*
X168289750Y-99768750D03*
X148077326Y-111302978D03*
X130550000Y-111500000D03*
X129540000Y-149135500D03*
X204719128Y-88794250D03*
X168074299Y-107916823D03*
X165400000Y-96100000D03*
X69293250Y-149775000D03*
X204680750Y-108469750D03*
X235758500Y-80718750D03*
X202958500Y-126756250D03*
X268839750Y-114850000D03*
X123444000Y-130020019D03*
X113665000Y-147320000D03*
X269070000Y-108204500D03*
X130968750Y-130085500D03*
X202730930Y-133774500D03*
X113521000Y-152781250D03*
X123190000Y-143724500D03*
X68580625Y-115475000D03*
X113665000Y-150241000D03*
X69374375Y-94043750D03*
X193433500Y-126756250D03*
X165400000Y-91250000D03*
X129750000Y-159675000D03*
%TO.N,COL1*%
X201600000Y-161100000D03*
X108585000Y-147320000D03*
X177693250Y-73406250D03*
X201588707Y-150843007D03*
X98183500Y-114850000D03*
X288024500Y-110253964D03*
X219688555Y-137700000D03*
X99112000Y-73406250D03*
X94471000Y-86275000D03*
X280416000Y-109982000D03*
X188341000Y-100012500D03*
X228053722Y-129831750D03*
X107000000Y-138825000D03*
X187925000Y-152350000D03*
X99112000Y-81343750D03*
X190024375Y-109918750D03*
X222150000Y-158900000D03*
X187074000Y-159313000D03*
X287768250Y-114681250D03*
X254808500Y-90243750D03*
X188012000Y-95631250D03*
X226233500Y-90243750D03*
X188012000Y-90243250D03*
X221429055Y-133475000D03*
X162525000Y-156650000D03*
X280174039Y-90105500D03*
X98270000Y-111700000D03*
X106748404Y-144624282D03*
X95623167Y-115810214D03*
X99750000Y-138425000D03*
X254808500Y-80718750D03*
X98114250Y-120015000D03*
X228000000Y-110000000D03*
X221676753Y-129831750D03*
X176341978Y-89817581D03*
X187698167Y-149941464D03*
%TO.N,COL2*%
X116025000Y-128075000D03*
X117233500Y-114850000D03*
X111139750Y-110663500D03*
X249555000Y-129667000D03*
X274161875Y-91731750D03*
X207062000Y-91662500D03*
X111139750Y-92625000D03*
X206726160Y-99343750D03*
X249555625Y-107537500D03*
X318846000Y-114850000D03*
X240629430Y-133731250D03*
X240326055Y-138493750D03*
X161890548Y-128285500D03*
X239825000Y-153625000D03*
X264636875Y-91731750D03*
X117489750Y-110781750D03*
X274161875Y-80550000D03*
X264135437Y-106940035D03*
X161404241Y-152760681D03*
X319102250Y-91731750D03*
X240399500Y-128175000D03*
X240824375Y-129831750D03*
X102408500Y-80718750D03*
X117164250Y-118650000D03*
X208362701Y-129275500D03*
X102408500Y-92625000D03*
X206726160Y-95375000D03*
%TO.N,COL3*%
X293116000Y-80885214D03*
X281700000Y-91550500D03*
X120950000Y-88700000D03*
X166500142Y-106974500D03*
X262475000Y-108262000D03*
X258500000Y-149975000D03*
X278757167Y-153116464D03*
X224901987Y-107874007D03*
X186800000Y-149175000D03*
X262054417Y-111047714D03*
X238506000Y-129032000D03*
X210240000Y-130120000D03*
X121458500Y-80718750D03*
X134150000Y-107216964D03*
X281305000Y-111116964D03*
X225318250Y-99600000D03*
X259376055Y-137700000D03*
X199325000Y-149000000D03*
X278979417Y-150147217D03*
X317873167Y-110650000D03*
X259135667Y-127000000D03*
X335200000Y-110775000D03*
X166399177Y-91275500D03*
X128375000Y-88900500D03*
X227129417Y-128968750D03*
X290625000Y-91281750D03*
X128397000Y-107078964D03*
X198720000Y-131590000D03*
X164000000Y-158900000D03*
X238633000Y-127381000D03*
X335079417Y-116603964D03*
X258940722Y-133272714D03*
X133902250Y-114850000D03*
X210100000Y-131800000D03*
X225004417Y-95172714D03*
X225075000Y-90968250D03*
X314825000Y-91281750D03*
%TO.N,COL4*%
X321300000Y-109000500D03*
X140508500Y-80718750D03*
X310050000Y-109425000D03*
X311958500Y-148881750D03*
X245283500Y-99768750D03*
X140508500Y-92625000D03*
X102290000Y-126655500D03*
X76214750Y-133900000D03*
X278979417Y-149147714D03*
X246973167Y-125962500D03*
X114750000Y-149225000D03*
X201895474Y-162095073D03*
X102235000Y-144145000D03*
X150806500Y-114850000D03*
X154539750Y-118818750D03*
X76214750Y-126756250D03*
X309321000Y-125962500D03*
X321483500Y-80718750D03*
X148590000Y-156845000D03*
X149987000Y-92710000D03*
X278729430Y-137700000D03*
X192205597Y-126840992D03*
X278426055Y-133731250D03*
X133675000Y-158650000D03*
X161573980Y-156342484D03*
X153640000Y-126270000D03*
X278364750Y-126744250D03*
X312039625Y-152781250D03*
X238760000Y-162306000D03*
X278450000Y-130724500D03*
X201872186Y-130810000D03*
X238760000Y-132080000D03*
X192273555Y-130810000D03*
%TO.N,COL5*%
X331008500Y-149606250D03*
X105530000Y-147160000D03*
X174383500Y-118818750D03*
X264585242Y-101100752D03*
X154305000Y-148590000D03*
X169394969Y-88200625D03*
X145596237Y-129871475D03*
X173893125Y-114681250D03*
X106976055Y-130738000D03*
X265170000Y-107100000D03*
X105770000Y-144420000D03*
X304021000Y-107706250D03*
X145776761Y-128899500D03*
X330786250Y-152781250D03*
X92583000Y-148717000D03*
X146313947Y-147121919D03*
X158624500Y-88075000D03*
X263159000Y-99600000D03*
X305608500Y-149775000D03*
X74710000Y-126250000D03*
X106976055Y-133731250D03*
X174100000Y-107950000D03*
X305413555Y-137700000D03*
X144872299Y-144682299D03*
X169386875Y-89650125D03*
X69620000Y-126230000D03*
X69864750Y-101668750D03*
X261260000Y-89381250D03*
X174639750Y-129137500D03*
X303826055Y-133900000D03*
X106640000Y-137430000D03*
X169050000Y-107700000D03*
X159861875Y-80550000D03*
X74627250Y-148981250D03*
%TO.N,COL6*%
X191091430Y-127450500D03*
X192639750Y-114850000D03*
X230251000Y-109986375D03*
X330813555Y-133900000D03*
X91174500Y-95631250D03*
X284177250Y-109744750D03*
X191286375Y-118650000D03*
X185164252Y-107538000D03*
X350058500Y-149775000D03*
X230450000Y-126150000D03*
X331601148Y-137468797D03*
X284226000Y-131064000D03*
X92883500Y-99768750D03*
X153670000Y-153580500D03*
X179200000Y-80100000D03*
X126950000Y-147900000D03*
X126026055Y-133900000D03*
X331986153Y-149814097D03*
X179350000Y-87975000D03*
X91174500Y-88487500D03*
X124820000Y-137750000D03*
X192690247Y-108019750D03*
X125054165Y-143880404D03*
X94829417Y-126756250D03*
X283741917Y-99141464D03*
X131445000Y-153035000D03*
X349836250Y-152950000D03*
X348948305Y-130891464D03*
X330813555Y-130725000D03*
X127670000Y-127025500D03*
X149225000Y-153580500D03*
X184958500Y-88656250D03*
%TO.N,COL7*%
X130850000Y-157600000D03*
X300557125Y-95375000D03*
X208280625Y-107744750D03*
X208280625Y-92456250D03*
X139714750Y-73575000D03*
X139508997Y-92625000D03*
X129443125Y-112113000D03*
X158764750Y-92625000D03*
X302400000Y-109925000D03*
X129699375Y-92456250D03*
X302433500Y-99768750D03*
X125840000Y-144790000D03*
X113030625Y-92456250D03*
X349863555Y-133900000D03*
X212450875Y-92387000D03*
X211993125Y-114681250D03*
X143599500Y-133731250D03*
X158764750Y-73575000D03*
X266425875Y-88231250D03*
X136649750Y-112300000D03*
X130512735Y-148905733D03*
X212249375Y-108019250D03*
X266425875Y-93180750D03*
X212440000Y-87613125D03*
X143637000Y-128651000D03*
X299970000Y-88860000D03*
X112236875Y-95631250D03*
X197961875Y-92456250D03*
X134950000Y-128675000D03*
X217350000Y-88063125D03*
X197160000Y-80530000D03*
X218654417Y-92200000D03*
X349885000Y-108585000D03*
%TO.N,LED*%
X76075000Y-75975000D03*
X167520000Y-89650125D03*
X118150000Y-72950000D03*
X164084000Y-145034000D03*
X119550000Y-90075000D03*
X84200000Y-76250000D03*
%TO.N,RE2*%
X165114750Y-129380750D03*
X243439750Y-111506250D03*
X244489750Y-92456250D03*
X355614750Y-92456250D03*
X168289750Y-129380750D03*
X166128500Y-111618750D03*
X163665652Y-151902717D03*
%TO.N,RE1*%
X162106451Y-152049412D03*
X221156924Y-88063125D03*
X172600000Y-126048000D03*
X301760000Y-89345500D03*
X172730000Y-107450000D03*
X301749750Y-111918250D03*
X224218500Y-106997500D03*
X309149750Y-129222500D03*
X160690000Y-127325500D03*
X347662500Y-90487500D03*
X348725000Y-129222500D03*
X308596500Y-111918250D03*
%TO.N,COL8*%
X216708500Y-76750000D03*
X164126055Y-131038000D03*
X140335000Y-146685000D03*
X106310000Y-108894500D03*
X227385667Y-93103464D03*
X96347667Y-109454500D03*
X86075000Y-124625000D03*
X86098167Y-127635000D03*
X142240000Y-131685214D03*
X226312299Y-107287701D03*
X164150000Y-132775000D03*
X203719625Y-88794250D03*
X66912000Y-152950000D03*
X130480000Y-108860000D03*
X133010000Y-127025500D03*
X114880000Y-108134500D03*
X314320000Y-84990000D03*
X231299375Y-107537500D03*
X325452250Y-95800000D03*
X66912000Y-127635000D03*
X130167625Y-99375000D03*
X313410000Y-73900000D03*
X114730000Y-106567000D03*
X140500000Y-160424500D03*
X130862000Y-91662500D03*
X96325000Y-124800000D03*
X322208000Y-85910000D03*
X106800000Y-106600000D03*
X130423875Y-95631250D03*
X132875000Y-109250500D03*
X216200000Y-88063125D03*
X216820000Y-74340000D03*
X142010000Y-127185500D03*
X203719625Y-91662500D03*
X217011875Y-80550000D03*
X142875000Y-144145000D03*
X217044910Y-92200000D03*
X231043125Y-114681250D03*
%TO.N,Net-(D2-Pad2)*%
X94850000Y-75050000D03*
X78050000Y-78050000D03*
%TO.N,Net-(D3-Pad2)*%
X100275000Y-78950000D03*
X100825000Y-87175000D03*
%TO.N,Net-(D49-Pad2)*%
X167400000Y-143510000D03*
X166580000Y-142290000D03*
%TO.N,Net-(D50-Pad2)*%
X179060000Y-141420000D03*
X185420000Y-142480000D03*
%TO.N,Net-(D62-Pad2)*%
X187620000Y-162920000D03*
X138060000Y-162200000D03*
%TO.N,Net-(D63-Pad2)*%
X255910000Y-152230000D03*
X237980000Y-150650000D03*
X256500000Y-163204364D03*
X221240000Y-150610000D03*
X218089201Y-160489201D03*
X200580000Y-162740000D03*
%TD*%
D18*
%TO.N,D+*%
X101262389Y-145490000D02*
X89650000Y-133877611D01*
X89650000Y-133877611D02*
X89650000Y-106458167D01*
X154106825Y-145230000D02*
X153896003Y-145300000D01*
X160250000Y-145230000D02*
X154106825Y-145230000D01*
X89650000Y-106458167D02*
X90066917Y-106041250D01*
X160380000Y-145100000D02*
X160250000Y-145230000D01*
X153896003Y-145300000D02*
X153706003Y-145490000D01*
X153706003Y-145490000D02*
X101262389Y-145490000D01*
%TO.N,D-*%
X89200000Y-106163577D02*
X89021053Y-105984630D01*
X153911496Y-145890000D02*
X101096703Y-145890000D01*
X154171496Y-145630000D02*
X153911496Y-145890000D01*
X89200000Y-133993297D02*
X89200000Y-106163577D01*
X159544783Y-145630000D02*
X154171496Y-145630000D01*
X101096703Y-145890000D02*
X89200000Y-133993297D01*
X160093250Y-146178467D02*
X159544783Y-145630000D01*
D19*
%TO.N,D16*%
X318380000Y-85850000D02*
X319820000Y-87290000D01*
X319820000Y-87290000D02*
X319820000Y-89540000D01*
X313620000Y-87680000D02*
X315450000Y-85850000D01*
X313620000Y-90630000D02*
X313620000Y-87680000D01*
X315450000Y-85850000D02*
X318380000Y-85850000D01*
%TO.N,Net-(D63-Pad2)*%
X201450000Y-163080000D02*
X201110000Y-162740000D01*
X215498402Y-163080000D02*
X201450000Y-163080000D01*
X201110000Y-162740000D02*
X200580000Y-162740000D01*
X218089201Y-160489201D02*
X215498402Y-163080000D01*
%TO.N,COL1*%
X220350000Y-138361445D02*
X219688555Y-137700000D01*
X220350000Y-157100000D02*
X220350000Y-138361445D01*
X222150000Y-158900000D02*
X220350000Y-157100000D01*
%TO.N,LED*%
X76100000Y-76000000D02*
X76075000Y-75975000D01*
X84200000Y-76250000D02*
X83950000Y-76000000D01*
X83950000Y-76000000D02*
X76100000Y-76000000D01*
%TO.N,Net-(D2-Pad2)*%
X94850000Y-76450000D02*
X93250000Y-78050000D01*
X94850000Y-75050000D02*
X94850000Y-76450000D01*
X93250000Y-78050000D02*
X78050000Y-78050000D01*
%TO.N,COL8*%
X140335000Y-160259500D02*
X140335000Y-146685000D01*
X140500000Y-160424500D02*
X140335000Y-160259500D01*
%TO.N,Net-(D62-Pad2)*%
X187300000Y-163240000D02*
X187620000Y-162920000D01*
X149549396Y-161475000D02*
X162175000Y-161475000D01*
X162175000Y-161475000D02*
X163940000Y-163240000D01*
X149099396Y-161925000D02*
X149549396Y-161475000D01*
X141098604Y-161925000D02*
X149099396Y-161925000D01*
X163940000Y-163240000D02*
X187300000Y-163240000D01*
X141088604Y-161915000D02*
X141098604Y-161925000D01*
X138345000Y-161915000D02*
X141088604Y-161915000D01*
X138060000Y-162200000D02*
X138345000Y-161915000D01*
D20*
%TO.N,+5V*%
X151757167Y-160692833D02*
X151700000Y-160750000D01*
X151757167Y-158672714D02*
X151757167Y-160692833D01*
D19*
%TO.N,D16*%
X197840000Y-73114500D02*
X197950000Y-73224500D01*
X197950000Y-73224500D02*
X197950000Y-88195500D01*
X165380000Y-101395907D02*
X164320000Y-100335907D01*
X331340000Y-89380000D02*
X331340000Y-84180000D01*
X165380000Y-105450000D02*
X165380000Y-101395907D01*
X164320000Y-100335907D02*
X164320000Y-93700000D01*
X233790000Y-73114500D02*
X233790000Y-90536750D01*
X164170000Y-90810000D02*
X164170000Y-90370000D01*
X166130000Y-108550500D02*
X165380000Y-107800500D01*
X165380000Y-107800500D02*
X165380000Y-105450000D01*
X233790000Y-90536750D02*
X234260000Y-91006750D01*
X164320000Y-90960000D02*
X164170000Y-90810000D01*
X331340000Y-84180000D02*
X331140000Y-83980000D01*
X164170000Y-90370000D02*
X164180000Y-90360000D01*
X197950000Y-88195500D02*
X200580000Y-90825500D01*
X164320000Y-93700000D02*
X164320000Y-90960000D01*
%TO.N,D59*%
X307890000Y-108250000D02*
X307670000Y-108470000D01*
X235000000Y-74240000D02*
X234390000Y-74850000D01*
X65630000Y-110360000D02*
X65350000Y-110080000D01*
X127920000Y-91340000D02*
X127920000Y-91310000D01*
X157030000Y-90134500D02*
X157030000Y-74510000D01*
X241490000Y-92360000D02*
X242410000Y-93280000D01*
X235000000Y-73850000D02*
X235000000Y-74240000D01*
X234390000Y-89620000D02*
X237130000Y-92360000D01*
X307670000Y-112220000D02*
X307670000Y-130180000D01*
X365240000Y-140390000D02*
X365240000Y-130640000D01*
X127920000Y-102740000D02*
X127920000Y-91340000D01*
X65630000Y-161990000D02*
X65630000Y-110360000D01*
X365020000Y-140610000D02*
X365240000Y-140390000D01*
X237130000Y-92360000D02*
X241490000Y-92360000D01*
X127920000Y-91310000D02*
X127590000Y-90980000D01*
X307670000Y-108470000D02*
X307670000Y-112220000D01*
X234390000Y-74850000D02*
X234390000Y-89620000D01*
X242410000Y-108515500D02*
X242610000Y-108715500D01*
X127540000Y-103120000D02*
X127920000Y-102740000D01*
X307670000Y-130180000D02*
X307800000Y-130310000D01*
X127540000Y-109010000D02*
X127540000Y-103120000D01*
X157175500Y-90280000D02*
X157030000Y-90134500D01*
X242410000Y-93280000D02*
X242410000Y-108515500D01*
%TO.N,D31*%
X70560000Y-111070000D02*
X70560000Y-124680000D01*
X364920000Y-102890000D02*
X365310000Y-103280000D01*
X322380000Y-109400000D02*
X322380000Y-113170000D01*
X322960000Y-108820000D02*
X322380000Y-109400000D01*
X305490000Y-112950000D02*
X305490000Y-109250000D01*
X305490000Y-109250000D02*
X305380000Y-109140000D01*
X70560000Y-124680000D02*
X70340000Y-124900000D01*
X365310000Y-103280000D02*
X365310000Y-110750000D01*
%TO.N,D45*%
X241840000Y-128180500D02*
X240315500Y-126656000D01*
X185330000Y-127450500D02*
X185330000Y-129520000D01*
X73480000Y-133090000D02*
X73480000Y-142860000D01*
X364340000Y-128010000D02*
X364020000Y-128330000D01*
X364340000Y-121660000D02*
X364340000Y-128010000D01*
X73480000Y-142860000D02*
X73620000Y-143000000D01*
X125110000Y-129270000D02*
X125090000Y-129250000D01*
X240315500Y-126656000D02*
X237464000Y-126656000D01*
X237464000Y-126656000D02*
X237410000Y-126710000D01*
X125110000Y-131820000D02*
X125110000Y-129270000D01*
X185330000Y-129520000D02*
X185190000Y-129660000D01*
%TO.N,ROW0*%
X234980000Y-75010000D02*
X236370000Y-73620000D01*
X147320000Y-107156500D02*
X146050000Y-105886500D01*
X145490000Y-144275402D02*
X145490000Y-131861241D01*
X334645000Y-78327500D02*
X335280000Y-78962500D01*
X97357125Y-89818750D02*
X97357125Y-94581250D01*
X79375305Y-92025000D02*
X81729269Y-94378964D01*
X321362000Y-73660000D02*
X321362000Y-74993750D01*
X159890000Y-153270000D02*
X159568097Y-153270000D01*
X77366917Y-89616464D02*
X77366917Y-90041917D01*
X117793125Y-90075000D02*
X117793125Y-82931250D01*
X159568097Y-153270000D02*
X158788097Y-152490000D01*
X310249500Y-74993750D02*
X310249500Y-72850500D01*
X152400000Y-129540000D02*
X152400000Y-107283500D01*
X138990250Y-83340250D02*
X138990250Y-88900000D01*
X152400000Y-107283500D02*
X152273000Y-107156500D01*
X149220000Y-151250000D02*
X148860000Y-150890000D01*
X145876384Y-144661786D02*
X145490000Y-144275402D01*
X145490000Y-131861241D02*
X147811241Y-129540000D01*
X334645000Y-73406250D02*
X334645000Y-78327500D01*
X146050000Y-105886500D02*
X146050000Y-88900000D01*
X155030000Y-152490000D02*
X153790000Y-151250000D01*
X77366917Y-90041917D02*
X79350000Y-92025000D01*
X79350000Y-92025000D02*
X79375305Y-92025000D01*
X235205500Y-84160000D02*
X234980000Y-83934500D01*
X138625000Y-82975000D02*
X138990250Y-83340250D01*
X153790000Y-151250000D02*
X149220000Y-151250000D01*
X81729269Y-94378964D02*
X90066917Y-94378964D01*
X147811241Y-129540000D02*
X147955000Y-129540000D01*
X234980000Y-83934500D02*
X234980000Y-75010000D01*
X158788097Y-152490000D02*
X155030000Y-152490000D01*
%TO.N,COL9*%
X250093125Y-111193750D02*
X250093125Y-114681250D01*
X183542305Y-127450500D02*
X183542305Y-131287125D01*
X310114750Y-111193750D02*
X310114750Y-114935000D01*
X163800000Y-127835500D02*
X163800000Y-128282083D01*
X350361875Y-95631250D02*
X350361875Y-91185375D01*
X148964750Y-110497646D02*
X148964750Y-100043750D01*
X357200000Y-76835000D02*
X360005000Y-74030000D01*
X148964750Y-100043750D02*
X149239750Y-99768750D01*
X324471500Y-93503750D02*
X324471500Y-112256750D01*
X190366930Y-131350000D02*
X190366930Y-110781750D01*
X348798501Y-79508999D02*
X351472500Y-76835000D01*
X163800000Y-128282083D02*
X163195000Y-128887083D01*
X150700000Y-126146000D02*
X150700000Y-115768805D01*
X149777250Y-127068750D02*
X150700000Y-126146000D01*
X91730000Y-139650000D02*
X91730000Y-151241000D01*
X163195000Y-132080000D02*
X162830951Y-132444049D01*
X92570000Y-138810000D02*
X91730000Y-139650000D01*
X162830951Y-132444049D02*
X162830951Y-151285000D01*
X148983500Y-114052305D02*
X148983500Y-110881250D01*
X351472500Y-76835000D02*
X357200000Y-76835000D01*
X92448167Y-127716464D02*
X92448167Y-134066464D01*
X91730000Y-151241000D02*
X90502250Y-152468750D01*
X183542305Y-131287125D02*
X183479430Y-131350000D01*
X148950000Y-110512396D02*
X148964750Y-110497646D01*
X149239750Y-110881250D02*
X148950000Y-110591500D01*
X150700000Y-115768805D02*
X148983500Y-114052305D01*
X348798501Y-89622001D02*
X348798501Y-79508999D01*
X350361875Y-91185375D02*
X348798501Y-89622001D01*
X183479430Y-133731250D02*
X183479430Y-131350000D01*
X148950000Y-110591500D02*
X148950000Y-110512396D01*
X324471500Y-112256750D02*
X324768500Y-112553750D01*
X163195000Y-128887083D02*
X163195000Y-132080000D01*
X329925875Y-93787500D02*
X329925875Y-91731750D01*
%TO.N,ROW1*%
X124092717Y-144153576D02*
X123970000Y-144030859D01*
X114721750Y-128510214D02*
X114416917Y-128205381D01*
X154843604Y-152940000D02*
X153663604Y-151760000D01*
X153663604Y-151760000D02*
X148790000Y-151760000D01*
X179656250Y-73073750D02*
X179656250Y-75063000D01*
X123970000Y-130519324D02*
X124169000Y-130320324D01*
X124460000Y-149860000D02*
X124460000Y-147320000D01*
X169836875Y-94456250D02*
X170357626Y-93935499D01*
X252650000Y-81075000D02*
X252681250Y-81043750D01*
X107708500Y-111505673D02*
X107708173Y-111506000D01*
X170131250Y-101725000D02*
X169836875Y-101430625D01*
X252681250Y-72886750D02*
X252476000Y-72681500D01*
X169836875Y-101430625D02*
X169836875Y-94456250D01*
X107690000Y-107249500D02*
X107708500Y-107268000D01*
X123051463Y-128453491D02*
X122494585Y-128453491D01*
X114416917Y-112735333D02*
X115646000Y-111506250D01*
X84150000Y-108005500D02*
X84030750Y-107886250D01*
X170357626Y-93935499D02*
X170357626Y-87931750D01*
X107708500Y-107268000D02*
X107708500Y-111505673D01*
X126758500Y-111675000D02*
X126758500Y-102150000D01*
X159473436Y-154313436D02*
X158100000Y-152940000D01*
X320568250Y-82137500D02*
X320568250Y-87693750D01*
X148790000Y-151760000D02*
X148580000Y-151970000D01*
X107708500Y-107231000D02*
X107708500Y-101981250D01*
X252681250Y-81043750D02*
X252681250Y-72886750D01*
X84030750Y-102459250D02*
X84180000Y-102310000D01*
X114416917Y-128205381D02*
X114416917Y-112735333D01*
X176968750Y-87931750D02*
X176968750Y-75063000D01*
X84030750Y-107886250D02*
X84030750Y-102459250D01*
X107690000Y-107249500D02*
X107708500Y-107231000D01*
X158100000Y-152940000D02*
X154843604Y-152940000D01*
X123970000Y-144030859D02*
X123970000Y-130519324D01*
X124169000Y-129571028D02*
X123051463Y-128453491D01*
X179705000Y-73025000D02*
X179656250Y-73073750D01*
X159590578Y-154313436D02*
X159473436Y-154313436D01*
X124169000Y-130320324D02*
X124169000Y-129571028D01*
%TO.N,Net-(D95-Pad2)*%
X86167417Y-87437500D02*
X86098167Y-87437500D01*
X87685667Y-88955750D02*
X86167417Y-87437500D01*
%TO.N,ROW2*%
X132150000Y-128800000D02*
X132400000Y-129050000D01*
X131550000Y-108700500D02*
X132150000Y-109300500D01*
X144440000Y-144090000D02*
X144440000Y-129634620D01*
X157540000Y-153670000D02*
X154605805Y-153670000D01*
X153970305Y-154305500D02*
X147320500Y-154305500D01*
X184164750Y-101981250D02*
X184164750Y-108934750D01*
X145415000Y-152400000D02*
X145415000Y-146685000D01*
X154605805Y-153670000D02*
X153970305Y-154305500D01*
X132150000Y-109300500D02*
X132150000Y-128800000D01*
X143830000Y-144700000D02*
X144440000Y-144090000D01*
X158820000Y-154950000D02*
X157540000Y-153670000D01*
X144440000Y-129634620D02*
X144780000Y-129294620D01*
X147320500Y-154305500D02*
X145415000Y-152400000D01*
X184164750Y-108934750D02*
X184150000Y-108949500D01*
%TO.N,Net-(D108-Pad2)*%
X322525000Y-82625000D02*
X322208000Y-82308000D01*
X322208000Y-74347250D02*
X322155750Y-74295000D01*
X322208000Y-82308000D02*
X322208000Y-74347250D01*
%TO.N,ROW3*%
X188602250Y-125631445D02*
X188327250Y-125356445D01*
X188327250Y-117979806D02*
X188387875Y-117919181D01*
X164825000Y-134925000D02*
X169875000Y-129875000D01*
X188602250Y-128679375D02*
X188602250Y-125631445D01*
X169875000Y-129875000D02*
X181489215Y-129875000D01*
X164825000Y-141155000D02*
X164825000Y-134925000D01*
X167214799Y-145194799D02*
X165730000Y-143710000D01*
X165730000Y-142060000D02*
X164825000Y-141155000D01*
X181489215Y-129875000D02*
X182464715Y-128899500D01*
X188327250Y-125356445D02*
X188327250Y-117979806D01*
X165730000Y-143710000D02*
X165730000Y-142060000D01*
X167214799Y-147334799D02*
X167214799Y-145194799D01*
%TO.N,ROW4*%
X229362000Y-130175000D02*
X229362000Y-131178722D01*
X317000000Y-124975000D02*
X316975000Y-124950000D01*
X151964200Y-156520000D02*
X150929700Y-155485500D01*
X159030500Y-156440000D02*
X158950500Y-156520000D01*
X335225875Y-127125000D02*
X335225875Y-120775000D01*
X229108000Y-129921000D02*
X229362000Y-130175000D01*
X285900000Y-120510000D02*
X285716000Y-120694000D01*
X218308555Y-131857999D02*
X218308555Y-128896685D01*
X181075000Y-132725000D02*
X181275000Y-132525000D01*
X189600000Y-132475000D02*
X189600000Y-129360500D01*
X146180000Y-140100000D02*
X146180000Y-143940804D01*
X181075000Y-137975000D02*
X181075000Y-132725000D01*
X229362000Y-131178722D02*
X228778222Y-131762500D01*
X200625000Y-130035000D02*
X200870000Y-129790000D01*
X229108000Y-129832250D02*
X229108000Y-129921000D01*
X285716000Y-120694000D02*
X285716000Y-129437000D01*
X146280000Y-140000000D02*
X146180000Y-140100000D01*
X146180000Y-143940804D02*
X146982839Y-144743643D01*
X316975000Y-124950000D02*
X316975000Y-121650000D01*
X158950500Y-156520000D02*
X151964200Y-156520000D01*
X200625000Y-138400000D02*
X200625000Y-130035000D01*
%TO.N,ROW5*%
X137659500Y-163189500D02*
X136210500Y-161740500D01*
X180255055Y-140230055D02*
X180255055Y-130968750D01*
X139356000Y-163189500D02*
X137659500Y-163189500D01*
X160732000Y-151180000D02*
X161177750Y-150734250D01*
X161177750Y-150734250D02*
X161177750Y-145702019D01*
X161205055Y-145674714D02*
X161205055Y-131762500D01*
X126515401Y-159985401D02*
X125254500Y-159985401D01*
X125254500Y-159985401D02*
X124980000Y-160259901D01*
X161177750Y-145702019D02*
X161205055Y-145674714D01*
X139446000Y-163099500D02*
X139356000Y-163189500D01*
X128270500Y-161740500D02*
X126515401Y-159985401D01*
X180350000Y-140325000D02*
X180255055Y-140230055D01*
X136210500Y-161740500D02*
X128270500Y-161740500D01*
X160630000Y-151180000D02*
X160732000Y-151180000D01*
%TO.N,Net-(D136-Pad2)*%
X318000000Y-119575000D02*
X317775000Y-119350000D01*
X317775000Y-119350000D02*
X317775000Y-111825000D01*
%TO.N,ROW6*%
X203454000Y-156464000D02*
X203454000Y-156982131D01*
X152179505Y-155710000D02*
X151230005Y-154760500D01*
X146864500Y-154760500D02*
X145796000Y-155829000D01*
X167386000Y-149425396D02*
X167386000Y-151638000D01*
X166497000Y-152527000D02*
X166497000Y-156718000D01*
X198100000Y-148134500D02*
X198034500Y-148200000D01*
X151230005Y-154760500D02*
X146864500Y-154760500D01*
X169891917Y-146919479D02*
X167386000Y-149425396D01*
X187200000Y-148200000D02*
X185050000Y-146050000D01*
X198034500Y-148200000D02*
X187200000Y-148200000D01*
X203454000Y-156464000D02*
X203454000Y-148336000D01*
X203454000Y-156966047D02*
X203454000Y-156464000D01*
X160100000Y-155710000D02*
X152179505Y-155710000D01*
X185050000Y-146050000D02*
X170750000Y-146050000D01*
X167386000Y-151638000D02*
X166497000Y-152527000D01*
X162610000Y-155530000D02*
X160280000Y-155530000D01*
X273423167Y-146766464D02*
X273423167Y-156291464D01*
X169891917Y-146908083D02*
X169891917Y-146919479D01*
X170750000Y-146050000D02*
X169891917Y-146908083D01*
X272629417Y-145972714D02*
X273423167Y-146766464D01*
X160280000Y-155530000D02*
X160100000Y-155710000D01*
X166497000Y-156718000D02*
X165608000Y-157607000D01*
D20*
%TO.N,GND*%
X165100000Y-142800000D02*
X165100000Y-144932064D01*
X169150000Y-140920000D02*
X176880000Y-140920000D01*
X179850000Y-142090000D02*
X178980000Y-142960000D01*
X152910000Y-152670000D02*
X153040000Y-152540000D01*
X147550000Y-143844598D02*
X147562701Y-143857299D01*
X182270000Y-142090000D02*
X179850000Y-142090000D01*
X164820000Y-142520000D02*
X165100000Y-142800000D01*
X75917330Y-67270635D02*
X75917330Y-71450635D01*
X178980000Y-142960000D02*
X178750000Y-142960000D01*
X178750000Y-142790000D02*
X178750000Y-142960000D01*
X182530000Y-142350000D02*
X182270000Y-142090000D01*
X168640000Y-141430000D02*
X169150000Y-140920000D01*
X84557330Y-67270635D02*
X84557330Y-71450635D01*
X165100000Y-144932064D02*
X165300000Y-145132064D01*
X147550000Y-142120000D02*
X147550000Y-143844598D01*
X148776200Y-160587200D02*
X146871200Y-160587200D01*
X150540000Y-152670000D02*
X152910000Y-152670000D01*
X176880000Y-140920000D02*
X178750000Y-142790000D01*
X146871200Y-160587200D02*
X144272000Y-157988000D01*
D19*
%TO.N,MISO*%
X209088500Y-154622500D02*
X209088500Y-149021500D01*
X185786299Y-144100000D02*
X188366299Y-146680000D01*
X167956296Y-146664585D02*
X169130881Y-145490000D01*
X204980000Y-144930000D02*
X204980000Y-148500000D01*
X196220000Y-146680000D02*
X198420000Y-144480000D01*
X179230000Y-145490000D02*
X180620000Y-144100000D01*
X209088500Y-149021500D02*
X209640000Y-148470000D01*
X180620000Y-144100000D02*
X185786299Y-144100000D01*
X169130881Y-145490000D02*
X179230000Y-145490000D01*
X204640000Y-144590000D02*
X204980000Y-144930000D01*
X188366299Y-146680000D02*
X196220000Y-146680000D01*
%TO.N,SCK*%
X197411072Y-146410000D02*
X197980000Y-146410000D01*
X164900000Y-146930000D02*
X164900000Y-150280000D01*
X196591072Y-147230000D02*
X197411072Y-146410000D01*
X207525000Y-147750305D02*
X207525000Y-155599000D01*
X208190000Y-147085305D02*
X207525000Y-147750305D01*
X208190000Y-146160000D02*
X208190000Y-147085305D01*
X185516494Y-144855500D02*
X187890994Y-147230000D01*
X164900000Y-150280000D02*
X165270000Y-150650000D01*
X166380000Y-145450000D02*
X164900000Y-146930000D01*
X207525000Y-155599000D02*
X209088500Y-157162500D01*
X185136709Y-144855500D02*
X185516494Y-144855500D01*
X187890994Y-147230000D02*
X196591072Y-147230000D01*
%TO.N,MOSI*%
X197136377Y-147710000D02*
X197539285Y-147307092D01*
X185216396Y-145580000D02*
X187346396Y-147710000D01*
X187346396Y-147710000D02*
X197136377Y-147710000D01*
X213550000Y-148070000D02*
X213550000Y-155241000D01*
X213550000Y-155241000D02*
X211628500Y-157162500D01*
X181600000Y-145325500D02*
X181854500Y-145580000D01*
X181854500Y-145580000D02*
X185216396Y-145580000D01*
X212875000Y-147395000D02*
X213550000Y-148070000D01*
%TO.N,RESET*%
X166575000Y-149070479D02*
X166575000Y-149350000D01*
X166576156Y-149351156D02*
X166576156Y-151382469D01*
X205954417Y-145441083D02*
X205954417Y-160260214D01*
X206070000Y-145325500D02*
X205954417Y-145441083D01*
X166575000Y-149350000D02*
X166576156Y-149351156D01*
X168950000Y-146810000D02*
X168835479Y-146810000D01*
X168835479Y-146810000D02*
X166575000Y-149070479D01*
%TO.N,Net-(R4-Pad2)*%
X78160667Y-80885214D02*
X78160667Y-82461583D01*
X79675131Y-83976047D02*
X79675131Y-85732115D01*
X78160667Y-82461583D02*
X79675131Y-83976047D01*
%TO.N,COL0*%
X192525000Y-125847750D02*
X192525000Y-115990055D01*
X113665000Y-152637250D02*
X113665000Y-150241000D01*
X263883500Y-100141500D02*
X263883500Y-90798500D01*
X148514750Y-91190250D02*
X148514750Y-110311250D01*
X148500000Y-91175500D02*
X148514750Y-91190250D01*
X235930000Y-80890250D02*
X235758500Y-80718750D01*
X130550000Y-111500000D02*
X131450000Y-112400000D01*
X68580625Y-94837500D02*
X69374375Y-94043750D01*
X68580625Y-115475000D02*
X68580625Y-94837500D01*
X193433500Y-126756250D02*
X192525000Y-125847750D01*
X129750000Y-159675000D02*
X129540000Y-159465000D01*
X68802875Y-115475000D02*
X68802875Y-149284625D01*
X123415225Y-130037503D02*
X123415225Y-143499275D01*
X148209000Y-110630445D02*
X148077326Y-110762119D01*
X113521000Y-152781250D02*
X113665000Y-152637250D01*
X148514750Y-110311250D02*
X148209000Y-110617000D01*
X204680750Y-108469750D02*
X204680750Y-88832628D01*
X202730930Y-133774500D02*
X202730930Y-127045125D01*
X68802875Y-149284625D02*
X69293250Y-149775000D01*
X148209000Y-110617000D02*
X148209000Y-110630445D01*
X131450000Y-129604250D02*
X130968750Y-130085500D01*
X268839750Y-114850000D02*
X268839750Y-108500000D01*
X263275000Y-100750000D02*
X263883500Y-100141500D01*
X167800000Y-100258500D02*
X168289750Y-99768750D01*
X113665000Y-150241000D02*
X113665000Y-147320000D01*
X235930000Y-88484750D02*
X235930000Y-80890250D01*
X263275000Y-107379120D02*
X263275000Y-100750000D01*
X165400000Y-96100000D02*
X165400000Y-91250000D01*
X194194625Y-114320430D02*
X194194625Y-108469750D01*
X204680750Y-88832628D02*
X204719128Y-88794250D01*
X148077326Y-110762119D02*
X148077326Y-111302978D01*
X167800000Y-107642524D02*
X167800000Y-100258500D01*
X263810380Y-107914500D02*
X263275000Y-107379120D01*
X131450000Y-112400000D02*
X131450000Y-129604250D01*
X168074299Y-107916823D02*
X167800000Y-107642524D01*
X263883500Y-90798500D02*
X262710000Y-89625000D01*
X129540000Y-159465000D02*
X129540000Y-149135500D01*
X123415225Y-143499275D02*
X123190000Y-143724500D01*
X235758500Y-88656250D02*
X235930000Y-88484750D01*
X192525000Y-115990055D02*
X194194625Y-114320430D01*
X202925875Y-127045125D02*
X203214750Y-126756250D01*
%TO.N,COL1*%
X99750000Y-138425000D02*
X99695000Y-138370000D01*
X280566917Y-109831083D02*
X280416000Y-109982000D01*
X254225000Y-81302250D02*
X254225000Y-89660250D01*
X176341978Y-89817581D02*
X177693250Y-88466309D01*
X188341000Y-100012500D02*
X187925000Y-100428500D01*
X98183500Y-111786500D02*
X98183500Y-114850000D01*
X280174039Y-90105500D02*
X280566917Y-90498378D01*
X107000000Y-138825000D02*
X106748404Y-139076596D01*
X108585000Y-152635000D02*
X108585000Y-147320000D01*
X127342743Y-159535401D02*
X115485401Y-159535401D01*
X201627250Y-150881550D02*
X201588707Y-150843007D01*
X254808500Y-80718750D02*
X254225000Y-81302250D01*
X93677250Y-87068750D02*
X94471000Y-86275000D01*
X99695000Y-138370000D02*
X99695000Y-123190000D01*
X161155000Y-158020000D02*
X152129758Y-158020000D01*
X152057472Y-157947714D02*
X151456862Y-157947714D01*
X115485401Y-159535401D02*
X108585000Y-152635000D01*
X151032167Y-159355833D02*
X149075800Y-161312200D01*
X228110667Y-129774805D02*
X228053722Y-129831750D01*
X201627250Y-161072750D02*
X201627250Y-150881550D01*
X177693250Y-88466309D02*
X177693250Y-73406250D01*
X187775000Y-150077631D02*
X187775000Y-152200000D01*
X201600000Y-161100000D02*
X201627250Y-161072750D01*
X188012000Y-90243250D02*
X188012000Y-95631250D01*
X148475895Y-161312200D02*
X148454195Y-161290500D01*
X187925000Y-100428500D02*
X187925000Y-107819375D01*
X151456862Y-157947714D02*
X151032167Y-158372409D01*
X221206805Y-130301698D02*
X221676753Y-129831750D01*
X162525000Y-156650000D02*
X161155000Y-158020000D01*
X98270000Y-111700000D02*
X98183500Y-111786500D01*
X187925000Y-107819375D02*
X190024375Y-109918750D01*
X228110667Y-110106250D02*
X228110667Y-129774805D01*
X99112000Y-73406250D02*
X99112000Y-81343750D01*
X185310000Y-162790000D02*
X164265000Y-162790000D01*
X151032167Y-158372409D02*
X151032167Y-159355833D01*
X280566917Y-90498378D02*
X280566917Y-109831083D01*
X148454195Y-161290500D02*
X129097842Y-161290500D01*
X254225000Y-89660250D02*
X254808500Y-90243750D01*
X221206805Y-133252750D02*
X221206805Y-130301698D01*
X228106250Y-110106250D02*
X228000000Y-110000000D01*
X187074000Y-159313000D02*
X187074000Y-161026000D01*
X187074000Y-161026000D02*
X185310000Y-162790000D01*
X95623167Y-115810214D02*
X95623167Y-103110214D01*
X287768250Y-110253964D02*
X287768250Y-114681250D01*
X228000000Y-110000000D02*
X225550000Y-107550000D01*
X93677250Y-101164297D02*
X93677250Y-87068750D01*
X226233500Y-99710055D02*
X226233500Y-90243750D01*
X98114250Y-121609250D02*
X98114250Y-120015000D01*
X129097842Y-161290500D02*
X127342743Y-159535401D01*
X99695000Y-123190000D02*
X98114250Y-121609250D01*
X228110667Y-110106250D02*
X228106250Y-110106250D01*
X221429055Y-133475000D02*
X221206805Y-133252750D01*
X225550000Y-100393555D02*
X226233500Y-99710055D01*
X149075800Y-161312200D02*
X148475895Y-161312200D01*
X106748404Y-139076596D02*
X106748404Y-144624282D01*
X164265000Y-162790000D02*
X162525000Y-161050000D01*
X187775000Y-152200000D02*
X187925000Y-152350000D01*
X95623167Y-103110214D02*
X93677250Y-101164297D01*
X162525000Y-161050000D02*
X162525000Y-156650000D01*
X225550000Y-107550000D02*
X225550000Y-100393555D01*
X152129758Y-158020000D02*
X152057472Y-157947714D01*
%TO.N,COL2*%
X274161875Y-91731750D02*
X273350000Y-90919875D01*
X115650000Y-120164250D02*
X117164250Y-118650000D01*
X208362701Y-129275500D02*
X207775000Y-128687799D01*
X249555000Y-115316000D02*
X249301000Y-115062000D01*
X110825000Y-110348750D02*
X111139750Y-110663500D01*
X264333500Y-100327896D02*
X264333500Y-92035125D01*
X249301000Y-109601000D02*
X249555625Y-109346375D01*
X249301000Y-115062000D02*
X249301000Y-109601000D01*
X161930055Y-132062805D02*
X161655055Y-132337805D01*
X161655055Y-132337805D02*
X161655055Y-151475503D01*
X161381451Y-152737891D02*
X161404241Y-152760681D01*
X110825000Y-92939750D02*
X110825000Y-110348750D01*
X318846000Y-91731750D02*
X318846000Y-114850000D01*
X239925000Y-153600000D02*
X239700000Y-153375000D01*
X111139750Y-92625000D02*
X110825000Y-92939750D01*
X117233500Y-110781750D02*
X117233500Y-114850000D01*
X206726160Y-91998340D02*
X207062000Y-91662500D01*
X161930055Y-128325007D02*
X161930055Y-132062805D01*
X264333500Y-92035125D02*
X264636875Y-91731750D01*
X240399500Y-129406875D02*
X240824375Y-129831750D01*
X239700000Y-153375000D02*
X239700000Y-139342055D01*
X115650000Y-127700000D02*
X115650000Y-120164250D01*
X116025000Y-128075000D02*
X115650000Y-127700000D01*
X101750000Y-91966500D02*
X102408500Y-92625000D01*
X249555625Y-109346375D02*
X249555625Y-107537500D01*
X205525000Y-100288660D02*
X206469910Y-99343750D01*
X239700000Y-139342055D02*
X240548305Y-138493750D01*
X205525000Y-117743157D02*
X205525000Y-100288660D01*
X161655055Y-151475503D02*
X161381451Y-151749107D01*
X240629430Y-133731250D02*
X240629430Y-130187375D01*
X161890548Y-128285500D02*
X161930055Y-128325007D01*
X273350000Y-90919875D02*
X273350000Y-81361875D01*
X263725000Y-106529598D02*
X263725000Y-100936396D01*
X206726160Y-95375000D02*
X206726160Y-91998340D01*
X161381451Y-151749107D02*
X161381451Y-152737891D01*
X101750000Y-81377250D02*
X101750000Y-91966500D01*
X207775000Y-128687799D02*
X207775000Y-119993157D01*
X102408500Y-80718750D02*
X101750000Y-81377250D01*
X264135437Y-106940035D02*
X263725000Y-106529598D01*
X273350000Y-81361875D02*
X274161875Y-80550000D01*
X207775000Y-119993157D02*
X205525000Y-117743157D01*
X263725000Y-100936396D02*
X264333500Y-100327896D01*
X249555000Y-129667000D02*
X249555000Y-115316000D01*
X240399500Y-129406875D02*
X240399500Y-128175000D01*
%TO.N,COL3*%
X166275000Y-106749358D02*
X166500142Y-106974500D01*
X164000000Y-161750000D02*
X164590000Y-162340000D01*
X335200000Y-110775000D02*
X335200000Y-116483381D01*
X120975000Y-81202250D02*
X121458500Y-80718750D01*
X258625000Y-138451055D02*
X258625000Y-149850000D01*
X134150000Y-107216964D02*
X133900000Y-107466964D01*
X281700000Y-91550500D02*
X281360667Y-91889833D01*
X120975000Y-88675000D02*
X120975000Y-81202250D01*
X290375000Y-91031750D02*
X290375000Y-84529000D01*
X128375000Y-88900500D02*
X128397000Y-88922500D01*
X210240000Y-130120000D02*
X210100000Y-130260000D01*
X198770000Y-131640000D02*
X198770000Y-143804695D01*
X281360667Y-91889833D02*
X281360667Y-111047714D01*
X293116000Y-81788000D02*
X293116000Y-80885214D01*
X314825000Y-91281750D02*
X314825000Y-91771344D01*
X210100000Y-130260000D02*
X210100000Y-131800000D01*
X186349500Y-158550500D02*
X186350000Y-158550000D01*
X227129417Y-111792847D02*
X227129417Y-128968750D01*
X317873167Y-94819511D02*
X317873167Y-110650000D01*
X120950000Y-88700000D02*
X120975000Y-88675000D01*
X186350000Y-158550000D02*
X186350000Y-149625000D01*
X186349500Y-161000500D02*
X186349500Y-158550500D01*
X258625000Y-149850000D02*
X258500000Y-149975000D01*
X238506000Y-129032000D02*
X238506000Y-127508000D01*
X225004417Y-109667847D02*
X227129417Y-111792847D01*
X164000000Y-158900000D02*
X164000000Y-161750000D01*
X335200000Y-116483381D02*
X335079417Y-116603964D01*
X186350000Y-149625000D02*
X186800000Y-149175000D01*
X225004417Y-91038833D02*
X225004417Y-95172714D01*
X314825000Y-91771344D02*
X317873167Y-94819511D01*
X198720000Y-131590000D02*
X198770000Y-131640000D01*
X238506000Y-127508000D02*
X238633000Y-127381000D01*
X290375000Y-84529000D02*
X293116000Y-81788000D01*
X225318250Y-99600000D02*
X225004417Y-99913833D01*
X198770000Y-143804695D02*
X199325000Y-144359695D01*
X259376055Y-137700000D02*
X258625000Y-138451055D01*
X128397000Y-88922500D02*
X128397000Y-107078964D01*
X133900000Y-114847750D02*
X133902250Y-114850000D01*
X133900000Y-107466964D02*
X133900000Y-114847750D01*
X278757167Y-150147217D02*
X278757167Y-153116464D01*
X199325000Y-144359695D02*
X199325000Y-149000000D01*
X166399177Y-91275500D02*
X166275000Y-91399677D01*
X290625000Y-91281750D02*
X290375000Y-91031750D01*
X262310667Y-108426333D02*
X262310667Y-111047714D01*
X225075000Y-90968250D02*
X225004417Y-91038833D01*
X185010000Y-162340000D02*
X186349500Y-161000500D01*
X164590000Y-162340000D02*
X185010000Y-162340000D01*
X166275000Y-91399677D02*
X166275000Y-106749358D01*
X262475000Y-108262000D02*
X262310667Y-108426333D01*
X258940722Y-133272714D02*
X258940722Y-127000000D01*
X225004417Y-99913833D02*
X225004417Y-109667847D01*
%TO.N,COL4*%
X116800000Y-151275000D02*
X114750000Y-149225000D01*
X245400000Y-100062125D02*
X245283500Y-99945625D01*
X202565000Y-150794702D02*
X201909875Y-150139577D01*
X321300000Y-109000500D02*
X321483500Y-108817000D01*
X278979417Y-137949987D02*
X278729430Y-137700000D01*
X310050000Y-109425000D02*
X309389750Y-110085250D01*
X140508500Y-80718750D02*
X140508500Y-92625000D01*
X309389750Y-110085250D02*
X309389750Y-125893750D01*
X119925000Y-151275000D02*
X116800000Y-151275000D01*
X149987000Y-100046805D02*
X149987000Y-92710000D01*
X127500000Y-158800000D02*
X125875000Y-158800000D01*
X133675000Y-158650000D02*
X133475000Y-158650000D01*
X278979417Y-149147714D02*
X278979417Y-137949987D01*
X150495000Y-156210000D02*
X149225000Y-156210000D01*
X150806500Y-114850000D02*
X149777250Y-113820750D01*
X151625000Y-157340000D02*
X150495000Y-156210000D01*
X133475000Y-158650000D02*
X131625000Y-160500000D01*
X153640000Y-126270000D02*
X153700000Y-126210000D01*
X312261875Y-152781250D02*
X312261875Y-149185125D01*
X124325000Y-157250000D02*
X124325000Y-155675000D01*
X278426055Y-130700555D02*
X278426055Y-126744250D01*
X124325000Y-155675000D02*
X119925000Y-151275000D01*
X149777250Y-113820750D02*
X149777250Y-110649695D01*
X153700000Y-126210000D02*
X153700000Y-119658500D01*
X161573980Y-156342484D02*
X160576464Y-157340000D01*
X201937180Y-150139577D02*
X201300000Y-149502397D01*
X102235000Y-144145000D02*
X102235000Y-126710500D01*
X125875000Y-158800000D02*
X124325000Y-157250000D01*
X149500000Y-110372445D02*
X149500000Y-100533805D01*
X245400000Y-124389333D02*
X245400000Y-100062125D01*
X149777250Y-110649695D02*
X149500000Y-110372445D01*
X245283500Y-99945625D02*
X245283500Y-99768750D01*
X309389750Y-125893750D02*
X309321000Y-125962500D01*
X321483500Y-108817000D02*
X321483500Y-80718750D01*
X246973167Y-125962500D02*
X245400000Y-124389333D01*
X278450000Y-130724500D02*
X278426055Y-130748445D01*
X149500000Y-100533805D02*
X149987000Y-100046805D01*
X202565000Y-161425547D02*
X202565000Y-150794702D01*
X201300000Y-138750305D02*
X201872186Y-138178119D01*
X131625000Y-160500000D02*
X129200000Y-160500000D01*
X129200000Y-160500000D02*
X127500000Y-158800000D01*
X192273555Y-126841250D02*
X192273555Y-130810000D01*
X149225000Y-156210000D02*
X148590000Y-156845000D01*
X76214750Y-133900000D02*
X76214750Y-126756250D01*
X153700000Y-119658500D02*
X154539750Y-118818750D01*
X312261875Y-149185125D02*
X311958500Y-148881750D01*
X201872186Y-138178119D02*
X201872186Y-130810000D01*
X201300000Y-149502397D02*
X201300000Y-138750305D01*
X278426055Y-130748445D02*
X278426055Y-133731250D01*
X102235000Y-126710500D02*
X102290000Y-126655500D01*
X238760000Y-162306000D02*
X238760000Y-132080000D01*
X278450000Y-130724500D02*
X278426055Y-130700555D01*
X201895474Y-162095073D02*
X202565000Y-161425547D01*
X160576464Y-157340000D02*
X151625000Y-157340000D01*
%TO.N,COL5*%
X74627250Y-148981250D02*
X74627250Y-126332750D01*
X173525000Y-128279000D02*
X174383500Y-129137500D01*
X173893125Y-114681250D02*
X173893125Y-108331250D01*
X261260000Y-89381250D02*
X263159000Y-91280250D01*
X147782028Y-148590000D02*
X154305000Y-148590000D01*
X69429417Y-126039417D02*
X69429417Y-102104083D01*
X169386875Y-99696930D02*
X169386875Y-89650125D01*
X92964000Y-149098000D02*
X92583000Y-148717000D01*
X158500000Y-87950500D02*
X158500000Y-81911875D01*
X158624500Y-88075000D02*
X158500000Y-87950500D01*
X168375000Y-107025000D02*
X168375000Y-100708805D01*
X69620000Y-126230000D02*
X69429417Y-126039417D01*
X105530000Y-148724000D02*
X105156000Y-149098000D01*
X105530000Y-147160000D02*
X105530000Y-148724000D01*
X263159000Y-91280250D02*
X263159000Y-99600000D01*
X105850000Y-144340000D02*
X105770000Y-144420000D01*
X69429417Y-102104083D02*
X69864750Y-101668750D01*
X305413555Y-149775000D02*
X305413555Y-137700000D01*
X265170000Y-107100000D02*
X265170000Y-106950000D01*
X169386875Y-89650125D02*
X169386875Y-88208719D01*
X145596237Y-129871475D02*
X145581816Y-129857054D01*
X106976055Y-130738000D02*
X106976055Y-133731250D01*
X303569805Y-133900000D02*
X303569805Y-107706250D01*
X144920000Y-144634598D02*
X144872299Y-144682299D01*
X146313947Y-147121919D02*
X147782028Y-148590000D01*
X169050000Y-107700000D02*
X168375000Y-107025000D01*
X174383500Y-118818750D02*
X173525000Y-119677250D01*
X74627250Y-126332750D02*
X74710000Y-126250000D01*
X105850000Y-138220000D02*
X105850000Y-144340000D01*
X145596237Y-129871475D02*
X144920000Y-130547712D01*
X331008500Y-152781250D02*
X331008500Y-149606250D01*
X264175000Y-105955000D02*
X264175000Y-101510994D01*
X106640000Y-137430000D02*
X105850000Y-138220000D01*
X265170000Y-106950000D02*
X264175000Y-105955000D01*
X145581816Y-129857054D02*
X145581816Y-128899500D01*
X144920000Y-130547712D02*
X144920000Y-144634598D01*
X173525000Y-119677250D02*
X173525000Y-128279000D01*
X105156000Y-149098000D02*
X92964000Y-149098000D01*
X264175000Y-101510994D02*
X264585242Y-101100752D01*
X168375000Y-100708805D02*
X169386875Y-99696930D01*
X158500000Y-81911875D02*
X159861875Y-80550000D01*
X169386875Y-88208719D02*
X169394969Y-88200625D01*
%TO.N,COL6*%
X124820000Y-137750000D02*
X124860000Y-137790000D01*
X130980000Y-147840000D02*
X131445000Y-148305000D01*
X349863555Y-135184000D02*
X349863555Y-149775000D01*
X331791208Y-137658857D02*
X331601148Y-137468797D01*
X191091430Y-127255055D02*
X191286375Y-127450000D01*
X348948305Y-134268750D02*
X349863555Y-135184000D01*
X192639750Y-108225503D02*
X192639750Y-114850000D01*
X282300000Y-100583381D02*
X282300000Y-107867500D01*
X149225000Y-153580500D02*
X153670000Y-153580500D01*
X282300000Y-107867500D02*
X284177250Y-109744750D01*
X185164252Y-88862002D02*
X184958500Y-88656250D01*
X126950000Y-147900000D02*
X127010000Y-147840000D01*
X91174500Y-88487500D02*
X91174500Y-95631250D01*
X124860000Y-143686239D02*
X125054165Y-143880404D01*
X185164252Y-107538000D02*
X185164252Y-88862002D01*
X348948305Y-130891464D02*
X348948305Y-134268750D01*
X284226000Y-131064000D02*
X284226000Y-109793500D01*
X179175000Y-87800000D02*
X179175000Y-80125000D01*
X283741917Y-99141464D02*
X282300000Y-100583381D01*
X179175000Y-80125000D02*
X179200000Y-80100000D01*
X191091430Y-118844945D02*
X191091430Y-127255055D01*
X127010000Y-147840000D02*
X130980000Y-147840000D01*
X93227250Y-101350693D02*
X93227250Y-100112500D01*
X179350000Y-87975000D02*
X179175000Y-87800000D01*
X126000000Y-128695500D02*
X126000000Y-133873945D01*
X94829417Y-102952860D02*
X93227250Y-101350693D01*
X284226000Y-109793500D02*
X284177250Y-109744750D01*
X93227250Y-100112500D02*
X92883500Y-99768750D01*
X131445000Y-148305000D02*
X131445000Y-153035000D01*
X124860000Y-137790000D02*
X124860000Y-143686239D01*
X350058500Y-152950000D02*
X350058500Y-149775000D01*
X331791208Y-149814097D02*
X331791208Y-137658857D01*
X126000000Y-133873945D02*
X126026055Y-133900000D01*
X230251000Y-125951000D02*
X230251000Y-109986375D01*
X330813555Y-133900000D02*
X330813555Y-130725000D01*
X191286375Y-118650000D02*
X191091430Y-118844945D01*
X230450000Y-126150000D02*
X230251000Y-125951000D01*
X94829417Y-126756250D02*
X94829417Y-102952860D01*
X127670000Y-127025500D02*
X126000000Y-128695500D01*
%TO.N,COL7*%
X134950000Y-128675000D02*
X134825000Y-128550000D01*
X208280625Y-107744750D02*
X206500000Y-105964125D01*
X157900000Y-91760250D02*
X157900000Y-74439750D01*
X206500000Y-105964125D02*
X206500000Y-100595215D01*
X300557125Y-89447125D02*
X300557125Y-95375000D01*
X129650000Y-131300000D02*
X133700000Y-131300000D01*
X134825000Y-128550000D02*
X134825000Y-115800000D01*
X218800875Y-89514000D02*
X218800875Y-92053542D01*
X133700000Y-131300000D02*
X134950000Y-130050000D01*
X197961875Y-92456250D02*
X197160000Y-91654375D01*
X134950000Y-130050000D02*
X134950000Y-128675000D01*
X130264500Y-149153968D02*
X130264500Y-157014500D01*
X130264500Y-157014500D02*
X130850000Y-157600000D01*
X127940000Y-133010000D02*
X129650000Y-131300000D01*
X136649750Y-113975250D02*
X136649750Y-112300000D01*
X134825000Y-115800000D02*
X136649750Y-113975250D01*
X197160000Y-91654375D02*
X197160000Y-80530000D01*
X212450875Y-89760875D02*
X212450875Y-92387000D01*
X139714750Y-73575000D02*
X139714750Y-92419247D01*
X212440000Y-87613125D02*
X212440000Y-89750000D01*
X143637000Y-128651000D02*
X143510000Y-128778000D01*
X302400000Y-109925000D02*
X302275000Y-109800000D01*
X139714750Y-92419247D02*
X139508997Y-92625000D01*
X125840000Y-144790000D02*
X125840000Y-135111360D01*
X157900000Y-74439750D02*
X158764750Y-73575000D01*
X299970000Y-88860000D02*
X300557125Y-89447125D01*
X158764750Y-92625000D02*
X157900000Y-91760250D01*
X211993125Y-114681250D02*
X211993125Y-108019250D01*
X217350000Y-88063125D02*
X218800875Y-89514000D01*
X113030625Y-92456250D02*
X112236875Y-93250000D01*
X212440000Y-89750000D02*
X212450875Y-89760875D01*
X129443125Y-92456250D02*
X129443125Y-112113000D01*
X143510000Y-128778000D02*
X143510000Y-133641750D01*
X218800875Y-92053542D02*
X218654417Y-92200000D01*
X302275000Y-109800000D02*
X302275000Y-99927250D01*
X125840000Y-135111360D02*
X127940000Y-133011360D01*
X349885000Y-133622305D02*
X349885000Y-108585000D01*
X208280625Y-98814590D02*
X208280625Y-92456250D01*
X349607305Y-133900000D02*
X349885000Y-133622305D01*
X130512735Y-148905733D02*
X130264500Y-149153968D01*
X127940000Y-133011360D02*
X127940000Y-133010000D01*
X302275000Y-99927250D02*
X302433500Y-99768750D01*
X112236875Y-93250000D02*
X112236875Y-95631250D01*
X206500000Y-100595215D02*
X208280625Y-98814590D01*
X266425875Y-88231250D02*
X266425875Y-93180750D01*
X143510000Y-133641750D02*
X143599500Y-133731250D01*
%TO.N,LED*%
X164084000Y-145034000D02*
X164071472Y-145021472D01*
X171200000Y-112700000D02*
X167375000Y-108875000D01*
X119550000Y-90075000D02*
X119550000Y-74350000D01*
X167200000Y-107775000D02*
X167225142Y-107749858D01*
X167375000Y-108875000D02*
X167200000Y-108700000D01*
X167520000Y-89650125D02*
X167225142Y-89944983D01*
X167200000Y-108700000D02*
X167200000Y-107775000D01*
X171425000Y-127700000D02*
X171425000Y-114325000D01*
X119550000Y-74350000D02*
X118150000Y-72950000D01*
X164071472Y-134853528D02*
X171225000Y-127700000D01*
X167225142Y-89944983D02*
X167225142Y-106849858D01*
X164071472Y-145021472D02*
X164071472Y-134853528D01*
X171425000Y-114325000D02*
X171200000Y-114100000D01*
X171200000Y-114100000D02*
X171200000Y-112700000D01*
X171225000Y-127700000D02*
X171425000Y-127700000D01*
X167225142Y-107749858D02*
X167225142Y-106849858D01*
%TO.N,RE2*%
X243439750Y-93506250D02*
X244489750Y-92456250D01*
X168827250Y-119443750D02*
X168827250Y-114317500D01*
X165142055Y-132882945D02*
X165142055Y-129762500D01*
X168827250Y-114317500D02*
X166128500Y-111618750D01*
X169600000Y-127814250D02*
X169600000Y-120216500D01*
X355005000Y-91846500D02*
X355005000Y-88530000D01*
X163665652Y-151902717D02*
X163665652Y-150707542D01*
X163346972Y-134678028D02*
X165142055Y-132882945D01*
X163346972Y-150388862D02*
X163346972Y-134678028D01*
X243439750Y-111506250D02*
X243439750Y-93506250D01*
X168033500Y-129380750D02*
X169600000Y-127814250D01*
X163665652Y-150707542D02*
X163346972Y-150388862D01*
X355614750Y-92456250D02*
X355005000Y-91846500D01*
X169600000Y-120216500D02*
X168827250Y-119443750D01*
%TO.N,RE1*%
X160925000Y-127560500D02*
X162190853Y-127560500D01*
X172730000Y-125918000D02*
X172600000Y-126048000D01*
X162190853Y-127560500D02*
X162615048Y-127984695D01*
X308596500Y-128669250D02*
X309149750Y-129222500D01*
X221156924Y-88171869D02*
X224218500Y-91233445D01*
X301708500Y-89397000D02*
X301708500Y-109591195D01*
X301675000Y-111843500D02*
X301749750Y-111918250D01*
X347675000Y-114300000D02*
X347675000Y-114541805D01*
X221156924Y-88063125D02*
X221156924Y-88171869D01*
X301708500Y-109591195D02*
X301675000Y-109624695D01*
X347662500Y-114287500D02*
X347675000Y-114300000D01*
X172730000Y-107450000D02*
X172730000Y-125918000D01*
X348468750Y-115335555D02*
X348468750Y-129222500D01*
X224218500Y-91233445D02*
X224218500Y-106997500D01*
X162615048Y-132014208D02*
X162106451Y-132522805D01*
X162615048Y-127984695D02*
X162615048Y-132014208D01*
X160690000Y-127325500D02*
X160925000Y-127560500D01*
X347675000Y-114541805D02*
X348468750Y-115335555D01*
X301760000Y-89345500D02*
X301708500Y-89397000D01*
X162106451Y-132522805D02*
X162106451Y-152049412D01*
X308596500Y-111918250D02*
X308596500Y-128669250D01*
X347662500Y-90487500D02*
X347662500Y-114287500D01*
X301675000Y-109624695D02*
X301675000Y-111843500D01*
%TO.N,COL8*%
X106088375Y-107311625D02*
X106800000Y-106600000D01*
X130100000Y-108480000D02*
X130100000Y-99442625D01*
X164126055Y-132751055D02*
X164150000Y-132775000D01*
X226683500Y-99896451D02*
X226683500Y-93805631D01*
X114880000Y-108134500D02*
X114880000Y-106717000D01*
X226312299Y-107287701D02*
X226050000Y-107025402D01*
X216800000Y-80550000D02*
X217011875Y-80550000D01*
X130423875Y-92100625D02*
X130862000Y-91662500D01*
X130480000Y-108860000D02*
X130100000Y-108480000D01*
X314320000Y-84990000D02*
X314339750Y-84970250D01*
X203719625Y-91662500D02*
X203719625Y-88794250D01*
X66912000Y-127635000D02*
X66912000Y-152950000D01*
X216200000Y-88063125D02*
X217011875Y-88875000D01*
X231043125Y-114681250D02*
X231043125Y-107537500D01*
X86098167Y-127635000D02*
X86098167Y-124648167D01*
X130100000Y-99442625D02*
X130167625Y-99375000D01*
X216200000Y-88063125D02*
X216200000Y-81150000D01*
X324425000Y-88017000D02*
X324425000Y-92175695D01*
X132950000Y-109325500D02*
X132875000Y-109250500D01*
X96416917Y-124708083D02*
X96325000Y-124800000D01*
X96347667Y-109454500D02*
X96416917Y-109523750D01*
X133010000Y-127025500D02*
X132950000Y-126965500D01*
X314339750Y-84970250D02*
X314339750Y-74829750D01*
X106088375Y-108672875D02*
X106088375Y-107311625D01*
X130423875Y-95631250D02*
X130423875Y-92100625D01*
X226050000Y-100529951D02*
X226683500Y-99896451D01*
X142240000Y-131685214D02*
X142240000Y-127415500D01*
X132950000Y-126965500D02*
X132950000Y-109325500D01*
X314339750Y-74829750D02*
X313410000Y-73900000D01*
X322208000Y-85910000D02*
X322318000Y-85910000D01*
X216200000Y-81150000D02*
X216800000Y-80550000D01*
X217011875Y-88875000D02*
X217011875Y-92166965D01*
X96416917Y-109523750D02*
X96416917Y-124708083D01*
X226050000Y-107025402D02*
X226050000Y-100529951D01*
X217011875Y-92166965D02*
X217044910Y-92200000D01*
X142875000Y-144145000D02*
X142875000Y-132320214D01*
X325452250Y-93202945D02*
X325452250Y-95800000D01*
X226683500Y-93805631D02*
X227385667Y-93103464D01*
X142875000Y-132320214D02*
X142240000Y-131685214D01*
X164126055Y-131038000D02*
X164126055Y-132751055D01*
X324425000Y-92175695D02*
X325452250Y-93202945D01*
X142240000Y-127415500D02*
X142010000Y-127185500D01*
X216708500Y-74451500D02*
X216708500Y-76750000D01*
X106310000Y-108894500D02*
X106088375Y-108672875D01*
X86098167Y-124648167D02*
X86075000Y-124625000D01*
X114880000Y-106717000D02*
X114730000Y-106567000D01*
X216820000Y-74340000D02*
X216708500Y-74451500D01*
X322318000Y-85910000D02*
X324425000Y-88017000D01*
%TO.N,Net-(D3-Pad2)*%
X100275000Y-86625000D02*
X100825000Y-87175000D01*
X100275000Y-78950000D02*
X100275000Y-86625000D01*
%TO.N,Net-(D49-Pad2)*%
X166580000Y-142290000D02*
X166630000Y-142290000D01*
X167400000Y-143060000D02*
X167400000Y-143510000D01*
X166630000Y-142290000D02*
X167400000Y-143060000D01*
%TO.N,Net-(D50-Pad2)*%
X179250000Y-141230000D02*
X184170000Y-141230000D01*
X179060000Y-141420000D02*
X179250000Y-141230000D01*
X184170000Y-141230000D02*
X185420000Y-142480000D01*
%TO.N,Net-(D63-Pad2)*%
X221240000Y-150610000D02*
X237940000Y-150610000D01*
X256500000Y-152820000D02*
X256500000Y-163204364D01*
X237940000Y-150610000D02*
X237980000Y-150650000D01*
X255910000Y-152230000D02*
X256500000Y-152820000D01*
%TD*%
M02*
