%TF.GenerationSoftware,KiCad,Pcbnew,(6.0.8)*%
%TF.CreationDate,2023-04-08T23:36:10-04:00*%
%TF.ProjectId,keeb,6b656562-2e6b-4696-9361-645f70636258,rev?*%
%TF.SameCoordinates,Original*%
%TF.FileFunction,Soldermask,Top*%
%TF.FilePolarity,Negative*%
%FSLAX46Y46*%
G04 Gerber Fmt 4.6, Leading zero omitted, Abs format (unit mm)*
G04 Created by KiCad (PCBNEW (6.0.8)) date 2023-04-08 23:36:10*
%MOMM*%
%LPD*%
G01*
G04 APERTURE LIST*
%ADD10C,3.987800*%
%ADD11C,3.048000*%
%ADD12C,1.701800*%
%ADD13C,1.700000*%
%ADD14R,1.700000X1.700000*%
%ADD15C,2.000000*%
%ADD16C,3.200000*%
%ADD17R,2.000000X2.000000*%
%ADD18O,1.000000X1.600000*%
%ADD19O,1.000000X2.100000*%
%ADD20C,0.650000*%
G04 APERTURE END LIST*
D10*
%TO.C,SW16*%
X328627250Y-80962500D03*
D11*
X316689250Y-87947500D03*
X324817250Y-78422500D03*
D10*
X316689250Y-72707500D03*
D12*
X333707250Y-80962500D03*
D10*
X340565250Y-72707500D03*
D12*
X323547250Y-80962500D03*
D11*
X331167250Y-75882500D03*
X340565250Y-87947500D03*
%TD*%
D13*
%TO.C,J1*%
X209088500Y-154622500D03*
X211628500Y-154622500D03*
X209088500Y-157162500D03*
X211628500Y-157162500D03*
X209088500Y-159702500D03*
D14*
X211628500Y-159702500D03*
%TD*%
D15*
%TO.C,SW2*%
X354687500Y-73712500D03*
X359687500Y-73712500D03*
D16*
X362787500Y-80712500D03*
X351587500Y-80712500D03*
D15*
X357187500Y-88212500D03*
X359687500Y-88212500D03*
D17*
X354687500Y-88212500D03*
%TD*%
D10*
%TO.C,SW61*%
X97646000Y-157162500D03*
D11*
X93836000Y-154622500D03*
X100186000Y-152082500D03*
D12*
X92566000Y-157162500D03*
X102726000Y-157162500D03*
%TD*%
D11*
%TO.C,SW50*%
X174017305Y-133032500D03*
D12*
X166397305Y-138112500D03*
D11*
X167667305Y-135572500D03*
D10*
X171477305Y-138112500D03*
D12*
X176557305Y-138112500D03*
%TD*%
D11*
%TO.C,SW57*%
X314557555Y-133032500D03*
D12*
X317097555Y-138112500D03*
X306937555Y-138112500D03*
D10*
X312017555Y-138112500D03*
D11*
X308207555Y-135572500D03*
%TD*%
D10*
%TO.C,SW38*%
X200025000Y-119062500D03*
D12*
X205105000Y-119062500D03*
D11*
X196215000Y-116522500D03*
X202565000Y-113982500D03*
D12*
X194945000Y-119062500D03*
%TD*%
D10*
%TO.C,SW31*%
X357187500Y-100012500D03*
D12*
X352107500Y-100012500D03*
D11*
X359727500Y-94932500D03*
X353377500Y-97472500D03*
D12*
X362267500Y-100012500D03*
%TD*%
D10*
%TO.C,SW5*%
X109552250Y-80962500D03*
D12*
X114632250Y-80962500D03*
X104472250Y-80962500D03*
D11*
X105742250Y-78422500D03*
X112092250Y-75882500D03*
%TD*%
D10*
%TO.C,SW46*%
X71420500Y-129857500D03*
X83358500Y-138112500D03*
D11*
X71420500Y-145097500D03*
X79548500Y-135572500D03*
D12*
X88438500Y-138112500D03*
D11*
X85898500Y-133032500D03*
D12*
X78278500Y-138112500D03*
D10*
X95296500Y-129857500D03*
D11*
X95296500Y-145097500D03*
%TD*%
D12*
%TO.C,SW54*%
X242597305Y-138112500D03*
D11*
X250217305Y-133032500D03*
D12*
X252757305Y-138112500D03*
D10*
X247677305Y-138112500D03*
D11*
X243867305Y-135572500D03*
%TD*%
%TO.C,SW22*%
X172417250Y-97472500D03*
D12*
X181307250Y-100012500D03*
X171147250Y-100012500D03*
D11*
X178767250Y-94932500D03*
D10*
X176227250Y-100012500D03*
%TD*%
D11*
%TO.C,SW28*%
X286702500Y-97472500D03*
D12*
X285432500Y-100012500D03*
X295592500Y-100012500D03*
D10*
X290512500Y-100012500D03*
D11*
X293052500Y-94932500D03*
%TD*%
%TO.C,SW42*%
X278765000Y-113982500D03*
D12*
X271145000Y-119062500D03*
X281305000Y-119062500D03*
D10*
X276225000Y-119062500D03*
D11*
X272415000Y-116522500D03*
%TD*%
D12*
%TO.C,SW39*%
X213995000Y-119062500D03*
D10*
X219075000Y-119062500D03*
D12*
X224155000Y-119062500D03*
D11*
X221615000Y-113982500D03*
X215265000Y-116522500D03*
%TD*%
D12*
%TO.C,SW55*%
X261647305Y-138112500D03*
X271807305Y-138112500D03*
D11*
X269267305Y-133032500D03*
X262917305Y-135572500D03*
D10*
X266727305Y-138112500D03*
%TD*%
D11*
%TO.C,SW4*%
X94312250Y-83502500D03*
D10*
X90502250Y-80962500D03*
D12*
X95582250Y-80962500D03*
X85422250Y-80962500D03*
D11*
X87962250Y-86042500D03*
%TD*%
%TO.C,SW36*%
X158081000Y-116522500D03*
X164431000Y-113982500D03*
D12*
X166971000Y-119062500D03*
D10*
X161891000Y-119062500D03*
D12*
X156811000Y-119062500D03*
%TD*%
%TO.C,SW30*%
X328295000Y-100012500D03*
D10*
X333375000Y-100012500D03*
D12*
X338455000Y-100012500D03*
D11*
X329565000Y-97472500D03*
X335915000Y-94932500D03*
%TD*%
%TO.C,SW59*%
X353377500Y-135572500D03*
D10*
X357187500Y-138112500D03*
D12*
X362267500Y-138112500D03*
X352107500Y-138112500D03*
D11*
X359727500Y-133032500D03*
%TD*%
D12*
%TO.C,SW66*%
X314007500Y-157162500D03*
D10*
X319087500Y-157162500D03*
D11*
X321627500Y-152082500D03*
D12*
X324167500Y-157162500D03*
D11*
X315277500Y-154622500D03*
%TD*%
%TO.C,SW6*%
X131142250Y-75882500D03*
D10*
X128602250Y-80962500D03*
D12*
X123522250Y-80962500D03*
D11*
X124792250Y-78422500D03*
D12*
X133682250Y-80962500D03*
%TD*%
%TO.C,SW60*%
X68753500Y-157162500D03*
D11*
X76373500Y-152082500D03*
X70023500Y-154622500D03*
D10*
X73833500Y-157162500D03*
D12*
X78913500Y-157162500D03*
%TD*%
D11*
%TO.C,SW29*%
X312102500Y-94932500D03*
X305752500Y-97472500D03*
D12*
X314642500Y-100012500D03*
D10*
X309562500Y-100012500D03*
D12*
X304482500Y-100012500D03*
%TD*%
%TO.C,SW67*%
X333057500Y-157162500D03*
D10*
X338137500Y-157162500D03*
D11*
X340677500Y-152082500D03*
D12*
X343217500Y-157162500D03*
D11*
X334327500Y-154622500D03*
%TD*%
%TO.C,SW37*%
X183515000Y-113982500D03*
D12*
X186055000Y-119062500D03*
X175895000Y-119062500D03*
D11*
X177165000Y-116522500D03*
D10*
X180975000Y-119062500D03*
%TD*%
D12*
%TO.C,SW14*%
X275922250Y-80962500D03*
D11*
X277192250Y-78422500D03*
X283542250Y-75882500D03*
D12*
X286082250Y-80962500D03*
D10*
X281002250Y-80962500D03*
%TD*%
D11*
%TO.C,SW51*%
X186717305Y-135572500D03*
X193067305Y-133032500D03*
D10*
X190527305Y-138112500D03*
D12*
X185447305Y-138112500D03*
X195607305Y-138112500D03*
%TD*%
D11*
%TO.C,SW7*%
X150192250Y-75882500D03*
X143842250Y-78422500D03*
D10*
X147652250Y-80962500D03*
D12*
X142572250Y-80962500D03*
X152732250Y-80962500D03*
%TD*%
D10*
%TO.C,SW53*%
X228627305Y-138112500D03*
D11*
X231167305Y-133032500D03*
D12*
X233707305Y-138112500D03*
X223547305Y-138112500D03*
D11*
X224817305Y-135572500D03*
%TD*%
%TO.C,SW58*%
X334327500Y-135572500D03*
D12*
X333057500Y-138112500D03*
D11*
X340677500Y-133032500D03*
D12*
X343217500Y-138112500D03*
D10*
X338137500Y-138112500D03*
%TD*%
D12*
%TO.C,SW26*%
X257507250Y-100012500D03*
D11*
X254967250Y-94932500D03*
D12*
X247347250Y-100012500D03*
D10*
X252427250Y-100012500D03*
D11*
X248617250Y-97472500D03*
%TD*%
D12*
%TO.C,SW33*%
X99709750Y-119062500D03*
D11*
X100979750Y-116522500D03*
D12*
X109869750Y-119062500D03*
D11*
X107329750Y-113982500D03*
D10*
X104789750Y-119062500D03*
%TD*%
D12*
%TO.C,SW8*%
X161654000Y-80962500D03*
D11*
X169274000Y-75882500D03*
D12*
X171814000Y-80962500D03*
D11*
X162924000Y-78422500D03*
D10*
X166734000Y-80962500D03*
%TD*%
D11*
%TO.C,SW27*%
X267667250Y-97472500D03*
D12*
X266397250Y-100012500D03*
D10*
X271477250Y-100012500D03*
D11*
X274017250Y-94932500D03*
D12*
X276557250Y-100012500D03*
%TD*%
D10*
%TO.C,SW64*%
X264333500Y-157162500D03*
D11*
X260523500Y-154622500D03*
X266873500Y-152082500D03*
D12*
X259253500Y-157162500D03*
X269413500Y-157162500D03*
%TD*%
D11*
%TO.C,SW9*%
X181942250Y-78422500D03*
D12*
X180672250Y-80962500D03*
D10*
X185752250Y-80962500D03*
D11*
X188292250Y-75882500D03*
D12*
X190832250Y-80962500D03*
%TD*%
D11*
%TO.C,SW45*%
X353377500Y-116522500D03*
D12*
X352107500Y-119062500D03*
D11*
X359727500Y-113982500D03*
D12*
X362267500Y-119062500D03*
D10*
X357187500Y-119062500D03*
%TD*%
D11*
%TO.C,SW13*%
X264492250Y-75882500D03*
D12*
X267032250Y-80962500D03*
X256872250Y-80962500D03*
D11*
X258142250Y-78422500D03*
D10*
X261952250Y-80962500D03*
%TD*%
D12*
%TO.C,SW11*%
X218772250Y-80962500D03*
D10*
X223852250Y-80962500D03*
D11*
X226392250Y-75882500D03*
D12*
X228932250Y-80962500D03*
D11*
X220042250Y-78422500D03*
%TD*%
%TO.C,SW48*%
X135904750Y-133032500D03*
X129554750Y-135572500D03*
D12*
X128284750Y-138112500D03*
X138444750Y-138112500D03*
D10*
X133364750Y-138112500D03*
%TD*%
%TO.C,SW43*%
X295275000Y-119062500D03*
D11*
X297815000Y-113982500D03*
D12*
X290195000Y-119062500D03*
D11*
X291465000Y-116522500D03*
D12*
X300355000Y-119062500D03*
%TD*%
D18*
%TO.C,USB1*%
X75917330Y-67270635D03*
D19*
X75917330Y-71450635D03*
D18*
X84557330Y-67270635D03*
D19*
X84557330Y-71450635D03*
D20*
X77347330Y-70920635D03*
X83127330Y-70920635D03*
%TD*%
D12*
%TO.C,SW17*%
X71134750Y-100012500D03*
D10*
X76214750Y-100012500D03*
D11*
X72404750Y-97472500D03*
X78754750Y-94932500D03*
D12*
X81294750Y-100012500D03*
%TD*%
D11*
%TO.C,SW65*%
X290686000Y-152082500D03*
X284336000Y-154622500D03*
D12*
X283066000Y-157162500D03*
D10*
X288146000Y-157162500D03*
D12*
X293226000Y-157162500D03*
%TD*%
%TO.C,SW34*%
X118711000Y-119062500D03*
D11*
X119981000Y-116522500D03*
D10*
X123791000Y-119062500D03*
D11*
X126331000Y-113982500D03*
D12*
X128871000Y-119062500D03*
%TD*%
D11*
%TO.C,SW68*%
X359727500Y-152082500D03*
X353377500Y-154622500D03*
D10*
X357187500Y-157162500D03*
D12*
X362267500Y-157162500D03*
X352107500Y-157162500D03*
%TD*%
%TO.C,SW19*%
X113997250Y-100012500D03*
D11*
X121617250Y-94932500D03*
D12*
X124157250Y-100012500D03*
D10*
X119077250Y-100012500D03*
D11*
X115267250Y-97472500D03*
%TD*%
%TO.C,SW62*%
X117648500Y-154622500D03*
D10*
X121458500Y-157162500D03*
D11*
X123998500Y-152082500D03*
D12*
X126538500Y-157162500D03*
X116378500Y-157162500D03*
%TD*%
D10*
%TO.C,SW32*%
X78596000Y-119062500D03*
D11*
X74786000Y-116522500D03*
D12*
X83676000Y-119062500D03*
D11*
X81136000Y-113982500D03*
D12*
X73516000Y-119062500D03*
%TD*%
D10*
%TO.C,SW41*%
X257175000Y-119062500D03*
D12*
X262255000Y-119062500D03*
D11*
X259715000Y-113982500D03*
D12*
X252095000Y-119062500D03*
D11*
X253365000Y-116522500D03*
%TD*%
D12*
%TO.C,SW15*%
X305132250Y-80962500D03*
X294972250Y-80962500D03*
D11*
X302592250Y-75882500D03*
X296242250Y-78422500D03*
D10*
X300052250Y-80962500D03*
%TD*%
D12*
%TO.C,SW3*%
X76532250Y-80962500D03*
D11*
X68912250Y-86042500D03*
D10*
X71452250Y-80962500D03*
D12*
X66372250Y-80962500D03*
D11*
X75262250Y-83502500D03*
%TD*%
%TO.C,SW40*%
X240665000Y-113982500D03*
X234315000Y-116522500D03*
D10*
X238125000Y-119062500D03*
D12*
X233045000Y-119062500D03*
X243205000Y-119062500D03*
%TD*%
D10*
%TO.C,SW25*%
X233377250Y-100012500D03*
D12*
X238457250Y-100012500D03*
D11*
X229567250Y-97472500D03*
X235917250Y-94932500D03*
D12*
X228297250Y-100012500D03*
%TD*%
D11*
%TO.C,SW20*%
X140667250Y-94932500D03*
D12*
X133047250Y-100012500D03*
X143207250Y-100012500D03*
D11*
X134317250Y-97472500D03*
D10*
X138127250Y-100012500D03*
%TD*%
D12*
%TO.C,SW52*%
X204543805Y-138112500D03*
D11*
X205813805Y-135572500D03*
D12*
X214703805Y-138112500D03*
D11*
X212163805Y-133032500D03*
D10*
X209623805Y-138112500D03*
%TD*%
D12*
%TO.C,SW24*%
X219381710Y-100012500D03*
D11*
X210491710Y-97472500D03*
D10*
X214301710Y-100012500D03*
D12*
X209221710Y-100012500D03*
D11*
X216841710Y-94932500D03*
%TD*%
%TO.C,SW35*%
X139031000Y-116522500D03*
D12*
X137761000Y-119062500D03*
D11*
X145381000Y-113982500D03*
D12*
X147921000Y-119062500D03*
D10*
X142841000Y-119062500D03*
%TD*%
D11*
%TO.C,SW10*%
X207342250Y-75882500D03*
D10*
X204802250Y-80962500D03*
D12*
X199722250Y-80962500D03*
X209882250Y-80962500D03*
D11*
X200992250Y-78422500D03*
%TD*%
%TO.C,SW47*%
X116854750Y-133032500D03*
D10*
X114314750Y-138112500D03*
D11*
X110504750Y-135572500D03*
D12*
X119394750Y-138112500D03*
X109234750Y-138112500D03*
%TD*%
D11*
%TO.C,SW56*%
X288363805Y-133032500D03*
D12*
X290903805Y-138112500D03*
X280743805Y-138112500D03*
D11*
X282013805Y-135572500D03*
D10*
X285823805Y-138112500D03*
%TD*%
D11*
%TO.C,SW18*%
X102571000Y-94932500D03*
X96221000Y-97472500D03*
D12*
X94951000Y-100012500D03*
D10*
X100031000Y-100012500D03*
D12*
X105111000Y-100012500D03*
%TD*%
D11*
%TO.C,SW12*%
X245442250Y-75882500D03*
D10*
X242902250Y-80962500D03*
D11*
X239092250Y-78422500D03*
D12*
X247982250Y-80962500D03*
X237822250Y-80962500D03*
%TD*%
%TO.C,SW44*%
X321151250Y-119062500D03*
D10*
X314293250Y-110807500D03*
D11*
X338169250Y-126047500D03*
X314293250Y-126047500D03*
D12*
X331311250Y-119062500D03*
D11*
X322421250Y-116522500D03*
D10*
X338169250Y-110807500D03*
X326231250Y-119062500D03*
D11*
X328771250Y-113982500D03*
%TD*%
%TO.C,SW49*%
X148617305Y-135572500D03*
D12*
X157507305Y-138112500D03*
X147347305Y-138112500D03*
D11*
X154967305Y-133032500D03*
D10*
X152427305Y-138112500D03*
%TD*%
D11*
%TO.C,SW63*%
X242934007Y-164147500D03*
D10*
X192896007Y-157162500D03*
X142858007Y-148907500D03*
D11*
X142858007Y-164147500D03*
D12*
X187816007Y-157162500D03*
D11*
X195436007Y-152082500D03*
X189086007Y-154622500D03*
D12*
X197976007Y-157162500D03*
D10*
X242934007Y-148907500D03*
%TD*%
D12*
%TO.C,SW21*%
X162257250Y-100012500D03*
D11*
X159717250Y-94932500D03*
D12*
X152097250Y-100012500D03*
D11*
X153367250Y-97472500D03*
D10*
X157177250Y-100012500D03*
%TD*%
D11*
%TO.C,SW23*%
X191467250Y-97472500D03*
D12*
X200357250Y-100012500D03*
X190197250Y-100012500D03*
D10*
X195277250Y-100012500D03*
D11*
X197817250Y-94932500D03*
%TD*%
M02*
