%TF.GenerationSoftware,KiCad,Pcbnew,(6.0.8)*%
%TF.CreationDate,2023-04-08T23:36:10-04:00*%
%TF.ProjectId,keeb,6b656562-2e6b-4696-9361-645f70636258,rev?*%
%TF.SameCoordinates,Original*%
%TF.FileFunction,Soldermask,Bot*%
%TF.FilePolarity,Negative*%
%FSLAX46Y46*%
G04 Gerber Fmt 4.6, Leading zero omitted, Abs format (unit mm)*
G04 Created by KiCad (PCBNEW (6.0.8)) date 2023-04-08 23:36:10*
%MOMM*%
%LPD*%
G01*
G04 APERTURE LIST*
G04 Aperture macros list*
%AMRoundRect*
0 Rectangle with rounded corners*
0 $1 Rounding radius*
0 $2 $3 $4 $5 $6 $7 $8 $9 X,Y pos of 4 corners*
0 Add a 4 corners polygon primitive as box body*
4,1,4,$2,$3,$4,$5,$6,$7,$8,$9,$2,$3,0*
0 Add four circle primitives for the rounded corners*
1,1,$1+$1,$2,$3*
1,1,$1+$1,$4,$5*
1,1,$1+$1,$6,$7*
1,1,$1+$1,$8,$9*
0 Add four rect primitives between the rounded corners*
20,1,$1+$1,$2,$3,$4,$5,0*
20,1,$1+$1,$4,$5,$6,$7,0*
20,1,$1+$1,$6,$7,$8,$9,0*
20,1,$1+$1,$8,$9,$2,$3,0*%
G04 Aperture macros list end*
%ADD10R,1.700000X1.000000*%
%ADD11RoundRect,0.254000X1.016000X1.016000X-1.016000X1.016000X-1.016000X-1.016000X1.016000X-1.016000X0*%
%ADD12C,3.987800*%
%ADD13C,3.048000*%
%ADD14C,1.701800*%
%ADD15RoundRect,0.250000X-0.475000X0.337500X-0.475000X-0.337500X0.475000X-0.337500X0.475000X0.337500X0*%
%ADD16RoundRect,0.082000X0.718000X-0.328000X0.718000X0.328000X-0.718000X0.328000X-0.718000X-0.328000X0*%
%ADD17RoundRect,0.082000X-0.718000X0.328000X-0.718000X-0.328000X0.718000X-0.328000X0.718000X0.328000X0*%
%ADD18C,2.000000*%
%ADD19C,3.200000*%
%ADD20R,2.000000X2.000000*%
%ADD21R,1.200000X0.900000*%
%ADD22RoundRect,0.250000X-0.350000X-0.450000X0.350000X-0.450000X0.350000X0.450000X-0.350000X0.450000X0*%
%ADD23RoundRect,0.250000X0.475000X-0.337500X0.475000X0.337500X-0.475000X0.337500X-0.475000X-0.337500X0*%
%ADD24RoundRect,0.254000X-1.016000X-1.016000X1.016000X-1.016000X1.016000X1.016000X-1.016000X1.016000X0*%
%ADD25RoundRect,0.250000X0.337500X0.475000X-0.337500X0.475000X-0.337500X-0.475000X0.337500X-0.475000X0*%
%ADD26RoundRect,0.250000X-0.450000X0.350000X-0.450000X-0.350000X0.450000X-0.350000X0.450000X0.350000X0*%
%ADD27R,0.700000X1.000000*%
%ADD28R,0.700000X0.600000*%
%ADD29RoundRect,0.250000X0.350000X0.450000X-0.350000X0.450000X-0.350000X-0.450000X0.350000X-0.450000X0*%
%ADD30R,0.900000X1.200000*%
%ADD31R,0.550000X1.500000*%
%ADD32R,1.500000X0.550000*%
%ADD33R,0.600000X2.450000*%
%ADD34R,0.300000X2.450000*%
%ADD35C,0.650000*%
%ADD36RoundRect,0.250000X-0.337500X-0.475000X0.337500X-0.475000X0.337500X0.475000X-0.337500X0.475000X0*%
%ADD37R,1.800000X2.100000*%
G04 APERTURE END LIST*
D10*
%TO.C,SW1*%
X231800000Y-156700000D03*
X225500000Y-156700000D03*
X225500000Y-160500000D03*
X231800000Y-160500000D03*
%TD*%
D11*
%TO.C,SW16*%
X321261250Y-78422500D03*
X334723250Y-75882500D03*
D12*
X328627250Y-80962500D03*
D13*
X316689250Y-87947500D03*
X324817250Y-78422500D03*
D12*
X316689250Y-72707500D03*
D14*
X333707250Y-80962500D03*
D12*
X340565250Y-72707500D03*
D14*
X323547250Y-80962500D03*
D13*
X331167250Y-75882500D03*
X340565250Y-87947500D03*
%TD*%
D15*
%TO.C,C30*%
X257150000Y-105875000D03*
X257150000Y-103800000D03*
%TD*%
D16*
%TO.C,D56*%
X288350000Y-143942500D03*
X288350000Y-142442500D03*
X283150000Y-142442500D03*
X283150000Y-143942500D03*
%TD*%
%TO.C,D36*%
X164491000Y-124892500D03*
X164491000Y-123392500D03*
X159291000Y-123392500D03*
X159291000Y-124892500D03*
%TD*%
%TO.C,D20*%
X140712500Y-105842500D03*
X140712500Y-104342500D03*
X135512500Y-104342500D03*
X135512500Y-105842500D03*
%TD*%
%TO.C,D42*%
X278825000Y-124892500D03*
X278825000Y-123392500D03*
X273625000Y-123392500D03*
X273625000Y-124892500D03*
%TD*%
%TO.C,D24*%
X216912500Y-105842500D03*
X216912500Y-104342500D03*
X211712500Y-104342500D03*
X211712500Y-105842500D03*
%TD*%
%TO.C,D33*%
X107375000Y-124892500D03*
X107375000Y-123392500D03*
X102175000Y-123392500D03*
X102175000Y-124892500D03*
%TD*%
%TO.C,D46*%
X88325000Y-143942500D03*
X88325000Y-142442500D03*
X83125000Y-142442500D03*
X83125000Y-143942500D03*
%TD*%
%TO.C,D68*%
X359787500Y-162992500D03*
X359787500Y-161492500D03*
X354587500Y-161492500D03*
X354587500Y-162992500D03*
%TD*%
%TO.C,D43*%
X297875000Y-124892500D03*
X297875000Y-123392500D03*
X292675000Y-123392500D03*
X292675000Y-124892500D03*
%TD*%
%TO.C,D55*%
X269327305Y-143942500D03*
X269327305Y-142442500D03*
X264127305Y-142442500D03*
X264127305Y-143942500D03*
%TD*%
%TO.C,D37*%
X183575000Y-124892500D03*
X183575000Y-123392500D03*
X178375000Y-123392500D03*
X178375000Y-124892500D03*
%TD*%
%TO.C,D58*%
X340737500Y-143942500D03*
X340737500Y-142442500D03*
X335537500Y-142442500D03*
X335537500Y-143942500D03*
%TD*%
%TO.C,D25*%
X235977250Y-105842500D03*
X235977250Y-104342500D03*
X230777250Y-104342500D03*
X230777250Y-105842500D03*
%TD*%
%TO.C,D61*%
X100246000Y-162992500D03*
X100246000Y-161492500D03*
X95046000Y-161492500D03*
X95046000Y-162992500D03*
%TD*%
%TO.C,D5*%
X131202250Y-86792500D03*
X131202250Y-85292500D03*
X126002250Y-85292500D03*
X126002250Y-86792500D03*
%TD*%
%TO.C,D34*%
X126391000Y-124892500D03*
X126391000Y-123392500D03*
X121191000Y-123392500D03*
X121191000Y-124892500D03*
%TD*%
%TO.C,D31*%
X359787500Y-105842500D03*
X359787500Y-104342500D03*
X354587500Y-104342500D03*
X354587500Y-105842500D03*
%TD*%
%TO.C,D10*%
X226437500Y-86792500D03*
X226437500Y-85292500D03*
X221237500Y-85292500D03*
X221237500Y-86792500D03*
%TD*%
%TO.C,D44*%
X328797250Y-124892500D03*
X328797250Y-123392500D03*
X323597250Y-123392500D03*
X323597250Y-124892500D03*
%TD*%
%TO.C,D19*%
X121677250Y-105842500D03*
X121677250Y-104342500D03*
X116477250Y-104342500D03*
X116477250Y-105842500D03*
%TD*%
%TO.C,D48*%
X135964750Y-143942500D03*
X135964750Y-142442500D03*
X130764750Y-142442500D03*
X130764750Y-143942500D03*
%TD*%
%TO.C,D47*%
X116914750Y-143942500D03*
X116914750Y-142442500D03*
X111714750Y-142442500D03*
X111714750Y-143942500D03*
%TD*%
%TO.C,D66*%
X321687500Y-162992500D03*
X321687500Y-161492500D03*
X316487500Y-161492500D03*
X316487500Y-162992500D03*
%TD*%
%TO.C,D41*%
X259775000Y-124892500D03*
X259775000Y-123392500D03*
X254575000Y-123392500D03*
X254575000Y-124892500D03*
%TD*%
D17*
%TO.C,D2*%
X68837500Y-75132500D03*
X68837500Y-76632500D03*
X74037500Y-76632500D03*
X74037500Y-75132500D03*
%TD*%
D16*
%TO.C,D53*%
X231200000Y-143942500D03*
X231200000Y-142442500D03*
X226000000Y-142442500D03*
X226000000Y-143942500D03*
%TD*%
%TO.C,D21*%
X159777250Y-105842500D03*
X159777250Y-104342500D03*
X154577250Y-104342500D03*
X154577250Y-105842500D03*
%TD*%
%TO.C,D63*%
X195496007Y-162992500D03*
X195496007Y-161492500D03*
X190296007Y-161492500D03*
X190296007Y-162992500D03*
%TD*%
%TO.C,D6*%
X150252250Y-86792500D03*
X150252250Y-85292500D03*
X145052250Y-85292500D03*
X145052250Y-86792500D03*
%TD*%
%TO.C,D18*%
X102627250Y-105842500D03*
X102627250Y-104342500D03*
X97427250Y-104342500D03*
X97427250Y-105842500D03*
%TD*%
%TO.C,D54*%
X250250000Y-143942500D03*
X250250000Y-142442500D03*
X245050000Y-142442500D03*
X245050000Y-143942500D03*
%TD*%
%TO.C,D32*%
X81403500Y-124892500D03*
X81403500Y-123392500D03*
X76203500Y-123392500D03*
X76203500Y-124892500D03*
%TD*%
%TO.C,D27*%
X274062500Y-105842500D03*
X274062500Y-104342500D03*
X268862500Y-104342500D03*
X268862500Y-105842500D03*
%TD*%
%TO.C,D12*%
X264552250Y-86792500D03*
X264552250Y-85292500D03*
X259352250Y-85292500D03*
X259352250Y-86792500D03*
%TD*%
%TO.C,D30*%
X335989750Y-105842500D03*
X335989750Y-104342500D03*
X330789750Y-104342500D03*
X330789750Y-105842500D03*
%TD*%
%TO.C,D22*%
X178812500Y-105842500D03*
X178812500Y-104342500D03*
X173612500Y-104342500D03*
X173612500Y-105842500D03*
%TD*%
%TO.C,D50*%
X174050000Y-143942500D03*
X174050000Y-142442500D03*
X168850000Y-142442500D03*
X168850000Y-143942500D03*
%TD*%
%TO.C,D62*%
X124058500Y-162992500D03*
X124058500Y-161492500D03*
X118858500Y-161492500D03*
X118858500Y-162992500D03*
%TD*%
D17*
%TO.C,D3*%
X87902250Y-75132500D03*
X87902250Y-76632500D03*
X93102250Y-76632500D03*
X93102250Y-75132500D03*
%TD*%
D16*
%TO.C,D11*%
X245502250Y-86792500D03*
X245502250Y-85292500D03*
X240302250Y-85292500D03*
X240302250Y-86792500D03*
%TD*%
%TO.C,D26*%
X255012500Y-105842500D03*
X255012500Y-104342500D03*
X249812500Y-104342500D03*
X249812500Y-105842500D03*
%TD*%
%TO.C,D35*%
X145441000Y-124892500D03*
X145441000Y-123392500D03*
X140241000Y-123392500D03*
X140241000Y-124892500D03*
%TD*%
%TO.C,D14*%
X302652250Y-86792500D03*
X302652250Y-85292500D03*
X297452250Y-85292500D03*
X297452250Y-86792500D03*
%TD*%
%TO.C,D4*%
X112137500Y-86792500D03*
X112137500Y-85292500D03*
X106937500Y-85292500D03*
X106937500Y-86792500D03*
%TD*%
%TO.C,D57*%
X314363555Y-143942500D03*
X314363555Y-142442500D03*
X309163555Y-142442500D03*
X309163555Y-143942500D03*
%TD*%
%TO.C,D28*%
X293112500Y-105842500D03*
X293112500Y-104342500D03*
X287912500Y-104342500D03*
X287912500Y-105842500D03*
%TD*%
%TO.C,D59*%
X359787500Y-143942500D03*
X359787500Y-142442500D03*
X354587500Y-142442500D03*
X354587500Y-143942500D03*
%TD*%
%TO.C,D38*%
X202625000Y-124892500D03*
X202625000Y-123392500D03*
X197425000Y-123392500D03*
X197425000Y-124892500D03*
%TD*%
%TO.C,D67*%
X340737500Y-162992500D03*
X340737500Y-161492500D03*
X335537500Y-161492500D03*
X335537500Y-162992500D03*
%TD*%
%TO.C,D15*%
X331212500Y-86792500D03*
X331212500Y-85292500D03*
X326012500Y-85292500D03*
X326012500Y-86792500D03*
%TD*%
%TO.C,D64*%
X266918750Y-162992500D03*
X266918750Y-161492500D03*
X261718750Y-161492500D03*
X261718750Y-162992500D03*
%TD*%
%TO.C,D9*%
X207402250Y-86792500D03*
X207402250Y-85292500D03*
X202202250Y-85292500D03*
X202202250Y-86792500D03*
%TD*%
%TO.C,D29*%
X312162500Y-105842500D03*
X312162500Y-104342500D03*
X306962500Y-104342500D03*
X306962500Y-105842500D03*
%TD*%
%TO.C,D23*%
X197862500Y-105842500D03*
X197862500Y-104342500D03*
X192662500Y-104342500D03*
X192662500Y-105842500D03*
%TD*%
D18*
%TO.C,SW2*%
X354687500Y-73712500D03*
X359687500Y-73712500D03*
D19*
X362787500Y-80712500D03*
X351587500Y-80712500D03*
D18*
X357187500Y-88212500D03*
X359687500Y-88212500D03*
D20*
X354687500Y-88212500D03*
%TD*%
D16*
%TO.C,D52*%
X212223805Y-143942500D03*
X212223805Y-142442500D03*
X207023805Y-142442500D03*
X207023805Y-143942500D03*
%TD*%
%TO.C,D8*%
X188352250Y-86792500D03*
X188352250Y-85292500D03*
X183152250Y-85292500D03*
X183152250Y-86792500D03*
%TD*%
%TO.C,D49*%
X155000000Y-143942500D03*
X155000000Y-142442500D03*
X149800000Y-142442500D03*
X149800000Y-143942500D03*
%TD*%
%TO.C,D51*%
X193127305Y-143942500D03*
X193127305Y-142442500D03*
X187927305Y-142442500D03*
X187927305Y-143942500D03*
%TD*%
%TO.C,D65*%
X290746000Y-162992500D03*
X290746000Y-161492500D03*
X285546000Y-161492500D03*
X285546000Y-162992500D03*
%TD*%
%TO.C,D60*%
X76493250Y-162992500D03*
X76493250Y-161492500D03*
X71293250Y-161492500D03*
X71293250Y-162992500D03*
%TD*%
%TO.C,D13*%
X283617000Y-86792500D03*
X283617000Y-85292500D03*
X278417000Y-85292500D03*
X278417000Y-86792500D03*
%TD*%
%TO.C,D39*%
X221675000Y-124892500D03*
X221675000Y-123392500D03*
X216475000Y-123392500D03*
X216475000Y-124892500D03*
%TD*%
%TO.C,D7*%
X169334000Y-86792500D03*
X169334000Y-85292500D03*
X164134000Y-85292500D03*
X164134000Y-86792500D03*
%TD*%
%TO.C,D40*%
X240725000Y-124892500D03*
X240725000Y-123392500D03*
X235525000Y-123392500D03*
X235525000Y-124892500D03*
%TD*%
%TO.C,D45*%
X359787500Y-124892500D03*
X359787500Y-123392500D03*
X354587500Y-123392500D03*
X354587500Y-124892500D03*
%TD*%
%TO.C,D17*%
X78814750Y-105842500D03*
X78814750Y-104342500D03*
X73614750Y-104342500D03*
X73614750Y-105842500D03*
%TD*%
D15*
%TO.C,C18*%
X138050000Y-141937500D03*
X138050000Y-144012500D03*
%TD*%
D11*
%TO.C,SW61*%
X90280000Y-154622500D03*
X103742000Y-152082500D03*
D12*
X97646000Y-157162500D03*
D13*
X93836000Y-154622500D03*
X100186000Y-152082500D03*
D14*
X92566000Y-157162500D03*
X102726000Y-157162500D03*
%TD*%
D21*
%TO.C,D128*%
X169828500Y-119856250D03*
X169828500Y-116556250D03*
%TD*%
D11*
%TO.C,SW50*%
X164111305Y-135572500D03*
X177573305Y-133032500D03*
D13*
X174017305Y-133032500D03*
D14*
X166397305Y-138112500D03*
D13*
X167667305Y-135572500D03*
D12*
X171477305Y-138112500D03*
D14*
X176557305Y-138112500D03*
%TD*%
D22*
%TO.C,R6*%
X155672996Y-162309750D03*
X157672996Y-162309750D03*
%TD*%
D15*
%TO.C,C43*%
X247660000Y-84910000D03*
X247660000Y-86985000D03*
%TD*%
D11*
%TO.C,SW57*%
X304651555Y-135572500D03*
X318113555Y-133032500D03*
D13*
X314557555Y-133032500D03*
D14*
X317097555Y-138112500D03*
X306937555Y-138112500D03*
D12*
X312017555Y-138112500D03*
D13*
X308207555Y-135572500D03*
%TD*%
D21*
%TO.C,D100*%
X193689750Y-81818750D03*
X193689750Y-78518750D03*
%TD*%
D11*
%TO.C,SW38*%
X192659000Y-116522500D03*
X206121000Y-113982500D03*
D12*
X200025000Y-119062500D03*
D14*
X205105000Y-119062500D03*
D13*
X196215000Y-116522500D03*
X202565000Y-113982500D03*
D14*
X194945000Y-119062500D03*
%TD*%
D11*
%TO.C,SW31*%
X349821500Y-97472500D03*
X363283500Y-94932500D03*
D12*
X357187500Y-100012500D03*
D14*
X352107500Y-100012500D03*
D13*
X359727500Y-94932500D03*
X353377500Y-97472500D03*
D14*
X362267500Y-100012500D03*
%TD*%
D23*
%TO.C,C15*%
X85850000Y-76925000D03*
X85850000Y-74850000D03*
%TD*%
D11*
%TO.C,SW5*%
X102186250Y-78422500D03*
X115648250Y-75882500D03*
D12*
X109552250Y-80962500D03*
D14*
X114632250Y-80962500D03*
X104472250Y-80962500D03*
D13*
X105742250Y-78422500D03*
X112092250Y-75882500D03*
%TD*%
D21*
%TO.C,D138*%
X91150000Y-141550000D03*
X91150000Y-138250000D03*
%TD*%
D15*
%TO.C,C62*%
X102650000Y-160750000D03*
X102650000Y-162825000D03*
%TD*%
D21*
%TO.C,D140*%
X142153555Y-138887500D03*
X142153555Y-135587500D03*
%TD*%
D15*
%TO.C,C42*%
X204800000Y-123050000D03*
X204800000Y-125125000D03*
%TD*%
D11*
%TO.C,SW46*%
X75992500Y-135572500D03*
X89454500Y-133032500D03*
D12*
X71420500Y-129857500D03*
X83358500Y-138112500D03*
D13*
X71420500Y-145097500D03*
X79548500Y-135572500D03*
D14*
X88438500Y-138112500D03*
D13*
X85898500Y-133032500D03*
D14*
X78278500Y-138112500D03*
D12*
X95296500Y-129857500D03*
D13*
X95296500Y-145097500D03*
%TD*%
D21*
%TO.C,D117*%
X241314750Y-100868750D03*
X241314750Y-97568750D03*
%TD*%
D15*
%TO.C,C60*%
X119050000Y-142000000D03*
X119050000Y-144075000D03*
%TD*%
D11*
%TO.C,SW54*%
X240311305Y-135572500D03*
X253773305Y-133032500D03*
D14*
X242597305Y-138112500D03*
D13*
X250217305Y-133032500D03*
D14*
X252757305Y-138112500D03*
D12*
X247677305Y-138112500D03*
D13*
X243867305Y-135572500D03*
%TD*%
D15*
%TO.C,C35*%
X316550000Y-142000000D03*
X316550000Y-144075000D03*
%TD*%
%TO.C,C33*%
X343050000Y-142250000D03*
X343050000Y-144325000D03*
%TD*%
D22*
%TO.C,R4*%
X77278500Y-87312500D03*
X79278500Y-87312500D03*
%TD*%
D15*
%TO.C,C59*%
X276400000Y-103900000D03*
X276400000Y-105975000D03*
%TD*%
D11*
%TO.C,SW22*%
X168861250Y-97472500D03*
X182323250Y-94932500D03*
D13*
X172417250Y-97472500D03*
D14*
X181307250Y-100012500D03*
X171147250Y-100012500D03*
D13*
X178767250Y-94932500D03*
D12*
X176227250Y-100012500D03*
%TD*%
D21*
%TO.C,D121*%
X317514750Y-100868750D03*
X317514750Y-97568750D03*
%TD*%
D11*
%TO.C,SW28*%
X283146500Y-97472500D03*
X296608500Y-94932500D03*
D13*
X286702500Y-97472500D03*
D14*
X285432500Y-100012500D03*
X295592500Y-100012500D03*
D12*
X290512500Y-100012500D03*
D13*
X293052500Y-94932500D03*
%TD*%
D11*
%TO.C,SW42*%
X268859000Y-116522500D03*
X282321000Y-113982500D03*
D13*
X278765000Y-113982500D03*
D14*
X271145000Y-119062500D03*
X281305000Y-119062500D03*
D12*
X276225000Y-119062500D03*
D13*
X272415000Y-116522500D03*
%TD*%
D11*
%TO.C,SW39*%
X211709000Y-116522500D03*
X225171000Y-113982500D03*
D14*
X213995000Y-119062500D03*
D12*
X219075000Y-119062500D03*
D14*
X224155000Y-119062500D03*
D13*
X221615000Y-113982500D03*
X215265000Y-116522500D03*
%TD*%
D21*
%TO.C,D134*%
X284128500Y-119918750D03*
X284128500Y-116618750D03*
%TD*%
D11*
%TO.C,SW55*%
X259361305Y-135572500D03*
X272823305Y-133032500D03*
D14*
X261647305Y-138112500D03*
X271807305Y-138112500D03*
D13*
X269267305Y-133032500D03*
X262917305Y-135572500D03*
D12*
X266727305Y-138112500D03*
%TD*%
D15*
%TO.C,C44*%
X142950000Y-104000000D03*
X142950000Y-106075000D03*
%TD*%
D21*
%TO.C,D124*%
X86741000Y-119981250D03*
X86741000Y-116681250D03*
%TD*%
D24*
%TO.C,SW4*%
X97868250Y-83502500D03*
X84406250Y-86042500D03*
D13*
X94312250Y-83502500D03*
D12*
X90502250Y-80962500D03*
D14*
X95582250Y-80962500D03*
X85422250Y-80962500D03*
D13*
X87962250Y-86042500D03*
%TD*%
D15*
%TO.C,C14*%
X324100000Y-160750000D03*
X324100000Y-162825000D03*
%TD*%
D21*
%TO.C,D125*%
X113521000Y-119918750D03*
X113521000Y-116618750D03*
%TD*%
D11*
%TO.C,SW36*%
X154525000Y-116522500D03*
X167987000Y-113982500D03*
D13*
X158081000Y-116522500D03*
X164431000Y-113982500D03*
D14*
X166971000Y-119062500D03*
D12*
X161891000Y-119062500D03*
D14*
X156811000Y-119062500D03*
%TD*%
D21*
%TO.C,D150*%
X346102305Y-139031250D03*
X346102305Y-135731250D03*
%TD*%
D11*
%TO.C,SW30*%
X326009000Y-97472500D03*
X339471000Y-94932500D03*
D14*
X328295000Y-100012500D03*
D12*
X333375000Y-100012500D03*
D14*
X338455000Y-100012500D03*
D13*
X329565000Y-97472500D03*
X335915000Y-94932500D03*
%TD*%
D11*
%TO.C,SW59*%
X349821500Y-135572500D03*
X363283500Y-133032500D03*
D13*
X353377500Y-135572500D03*
D12*
X357187500Y-138112500D03*
D14*
X362267500Y-138112500D03*
X352107500Y-138112500D03*
D13*
X359727500Y-133032500D03*
%TD*%
D25*
%TO.C,C8*%
X158573167Y-146842664D03*
X156498167Y-146842664D03*
%TD*%
D15*
%TO.C,C22*%
X361900000Y-104062500D03*
X361900000Y-106137500D03*
%TD*%
D11*
%TO.C,SW66*%
X311721500Y-154622500D03*
X325183500Y-152082500D03*
D14*
X314007500Y-157162500D03*
D12*
X319087500Y-157162500D03*
D13*
X321627500Y-152082500D03*
D14*
X324167500Y-157162500D03*
D13*
X315277500Y-154622500D03*
%TD*%
D15*
%TO.C,C10*%
X104850000Y-103975000D03*
X104850000Y-106050000D03*
%TD*%
D11*
%TO.C,SW6*%
X121236250Y-78422500D03*
X134698250Y-75882500D03*
D13*
X131142250Y-75882500D03*
D12*
X128602250Y-80962500D03*
D14*
X123522250Y-80962500D03*
D13*
X124792250Y-78422500D03*
D14*
X133682250Y-80962500D03*
%TD*%
D15*
%TO.C,C65*%
X285710000Y-84882500D03*
X285710000Y-86957500D03*
%TD*%
D11*
%TO.C,SW60*%
X66467500Y-154622500D03*
X79929500Y-152082500D03*
D14*
X68753500Y-157162500D03*
D13*
X76373500Y-152082500D03*
X70023500Y-154622500D03*
D12*
X73833500Y-157162500D03*
D14*
X78913500Y-157162500D03*
%TD*%
D11*
%TO.C,SW29*%
X302196500Y-97472500D03*
X315658500Y-94932500D03*
D13*
X312102500Y-94932500D03*
X305752500Y-97472500D03*
D14*
X314642500Y-100012500D03*
D12*
X309562500Y-100012500D03*
D14*
X304482500Y-100012500D03*
%TD*%
D21*
%TO.C,D97*%
X136317500Y-81881250D03*
X136317500Y-78581250D03*
%TD*%
D11*
%TO.C,SW67*%
X330771500Y-154622500D03*
X344233500Y-152082500D03*
D14*
X333057500Y-157162500D03*
D12*
X338137500Y-157162500D03*
D13*
X340677500Y-152082500D03*
D14*
X343217500Y-157162500D03*
D13*
X334327500Y-154622500D03*
%TD*%
D21*
%TO.C,D151*%
X365152305Y-138968750D03*
X365152305Y-135668750D03*
%TD*%
%TO.C,D112*%
X146064750Y-101312500D03*
X146064750Y-98012500D03*
%TD*%
%TO.C,D131*%
X226978500Y-119918750D03*
X226978500Y-116618750D03*
%TD*%
D11*
%TO.C,SW37*%
X173609000Y-116522500D03*
X187071000Y-113982500D03*
D13*
X183515000Y-113982500D03*
D14*
X186055000Y-119062500D03*
X175895000Y-119062500D03*
D13*
X177165000Y-116522500D03*
D12*
X180975000Y-119062500D03*
%TD*%
D15*
%TO.C,C66*%
X83610000Y-122850000D03*
X83610000Y-124925000D03*
%TD*%
D11*
%TO.C,SW14*%
X273636250Y-78422500D03*
X287098250Y-75882500D03*
D14*
X275922250Y-80962500D03*
D13*
X277192250Y-78422500D03*
X283542250Y-75882500D03*
D14*
X286082250Y-80962500D03*
D12*
X281002250Y-80962500D03*
%TD*%
D15*
%TO.C,C11*%
X362000000Y-123050000D03*
X362000000Y-125125000D03*
%TD*%
D11*
%TO.C,SW51*%
X183161305Y-135572500D03*
X196623305Y-133032500D03*
D13*
X186717305Y-135572500D03*
X193067305Y-133032500D03*
D12*
X190527305Y-138112500D03*
D14*
X185447305Y-138112500D03*
X195607305Y-138112500D03*
%TD*%
D15*
%TO.C,C64*%
X181150000Y-103712500D03*
X181150000Y-105787500D03*
%TD*%
D23*
%TO.C,C20*%
X65896000Y-77237500D03*
X65896000Y-75162500D03*
%TD*%
D11*
%TO.C,SW7*%
X140286250Y-78422500D03*
X153748250Y-75882500D03*
D13*
X150192250Y-75882500D03*
X143842250Y-78422500D03*
D12*
X147652250Y-80962500D03*
D14*
X142572250Y-80962500D03*
X152732250Y-80962500D03*
%TD*%
D21*
%TO.C,D149*%
X320113805Y-139031250D03*
X320113805Y-135731250D03*
%TD*%
D11*
%TO.C,SW53*%
X221261305Y-135572500D03*
X234723305Y-133032500D03*
D12*
X228627305Y-138112500D03*
D13*
X231167305Y-133032500D03*
D14*
X233707305Y-138112500D03*
X223547305Y-138112500D03*
D13*
X224817305Y-135572500D03*
%TD*%
D11*
%TO.C,SW58*%
X330771500Y-135572500D03*
X344233500Y-133032500D03*
D13*
X334327500Y-135572500D03*
D14*
X333057500Y-138112500D03*
D13*
X340677500Y-133032500D03*
D14*
X343217500Y-138112500D03*
D12*
X338137500Y-138112500D03*
%TD*%
D21*
%TO.C,D118*%
X260364750Y-100868750D03*
X260364750Y-97568750D03*
%TD*%
D15*
%TO.C,C32*%
X343000000Y-160612500D03*
X343000000Y-162687500D03*
%TD*%
D11*
%TO.C,SW26*%
X245061250Y-97472500D03*
X258523250Y-94932500D03*
D14*
X257507250Y-100012500D03*
D13*
X254967250Y-94932500D03*
D14*
X247347250Y-100012500D03*
D12*
X252427250Y-100012500D03*
D13*
X248617250Y-97472500D03*
%TD*%
D21*
%TO.C,D155*%
X200833500Y-158081250D03*
X200833500Y-154781250D03*
%TD*%
%TO.C,D107*%
X309880625Y-82200000D03*
X309880625Y-78900000D03*
%TD*%
%TO.C,D110*%
X108218750Y-100868750D03*
X108218750Y-97568750D03*
%TD*%
D15*
%TO.C,C28*%
X280900000Y-122950000D03*
X280900000Y-125025000D03*
%TD*%
D11*
%TO.C,SW33*%
X97423750Y-116522500D03*
X110885750Y-113982500D03*
D14*
X99709750Y-119062500D03*
D13*
X100979750Y-116522500D03*
D14*
X109869750Y-119062500D03*
D13*
X107329750Y-113982500D03*
D12*
X104789750Y-119062500D03*
%TD*%
D15*
%TO.C,C52*%
X300050000Y-123062500D03*
X300050000Y-125137500D03*
%TD*%
D11*
%TO.C,SW8*%
X159368000Y-78422500D03*
X172830000Y-75882500D03*
D14*
X161654000Y-80962500D03*
D13*
X169274000Y-75882500D03*
D14*
X171814000Y-80962500D03*
D13*
X162924000Y-78422500D03*
D12*
X166734000Y-80962500D03*
%TD*%
D15*
%TO.C,C16*%
X223950000Y-123062500D03*
X223950000Y-125137500D03*
%TD*%
%TO.C,C34*%
X123830000Y-104142500D03*
X123830000Y-106217500D03*
%TD*%
D11*
%TO.C,SW27*%
X264111250Y-97472500D03*
X277573250Y-94932500D03*
D13*
X267667250Y-97472500D03*
D14*
X266397250Y-100012500D03*
D12*
X271477250Y-100012500D03*
D13*
X274017250Y-94932500D03*
D14*
X276557250Y-100012500D03*
%TD*%
D26*
%TO.C,R2*%
X90450000Y-102200000D03*
X90450000Y-104200000D03*
%TD*%
D21*
%TO.C,D106*%
X289243125Y-82200000D03*
X289243125Y-78900000D03*
%TD*%
D15*
%TO.C,C9*%
X126450000Y-160762500D03*
X126450000Y-162837500D03*
%TD*%
%TO.C,C54*%
X81050000Y-104000000D03*
X81050000Y-106075000D03*
%TD*%
D21*
%TO.C,D104*%
X251143125Y-82262500D03*
X251143125Y-78962500D03*
%TD*%
D27*
%TO.C,D1*%
X90273167Y-98391464D03*
D28*
X90273167Y-100091464D03*
X88273167Y-100091464D03*
X88273167Y-98191464D03*
%TD*%
D11*
%TO.C,SW64*%
X256967500Y-154622500D03*
X270429500Y-152082500D03*
D12*
X264333500Y-157162500D03*
D13*
X260523500Y-154622500D03*
X266873500Y-152082500D03*
D14*
X259253500Y-157162500D03*
X269413500Y-157162500D03*
%TD*%
D15*
%TO.C,C6*%
X170500000Y-150502500D03*
X170500000Y-152577500D03*
%TD*%
D21*
%TO.C,D148*%
X294555055Y-138968750D03*
X294555055Y-135668750D03*
%TD*%
D11*
%TO.C,SW9*%
X178386250Y-78422500D03*
X191848250Y-75882500D03*
D13*
X181942250Y-78422500D03*
D14*
X180672250Y-80962500D03*
D12*
X185752250Y-80962500D03*
D13*
X188292250Y-75882500D03*
D14*
X190832250Y-80962500D03*
%TD*%
D15*
%TO.C,C41*%
X78650000Y-160800000D03*
X78650000Y-162875000D03*
%TD*%
D29*
%TO.C,R3*%
X86891917Y-83343750D03*
X84891917Y-83343750D03*
%TD*%
D21*
%TO.C,D130*%
X207928500Y-119918750D03*
X207928500Y-116618750D03*
%TD*%
%TO.C,D98*%
X155589750Y-81818750D03*
X155589750Y-78518750D03*
%TD*%
D11*
%TO.C,SW45*%
X349821500Y-116522500D03*
X363283500Y-113982500D03*
D13*
X353377500Y-116522500D03*
D14*
X352107500Y-119062500D03*
D13*
X359727500Y-113982500D03*
D14*
X362267500Y-119062500D03*
D12*
X357187500Y-119062500D03*
%TD*%
D30*
%TO.C,D94*%
X76277250Y-89693750D03*
X72977250Y-89693750D03*
%TD*%
D25*
%TO.C,C2*%
X175710667Y-150216464D03*
X173635667Y-150216464D03*
%TD*%
D23*
%TO.C,C23*%
X234950000Y-159125000D03*
X234950000Y-157050000D03*
%TD*%
D11*
%TO.C,SW13*%
X254586250Y-78422500D03*
X268048250Y-75882500D03*
D13*
X264492250Y-75882500D03*
D14*
X267032250Y-80962500D03*
X256872250Y-80962500D03*
D13*
X258142250Y-78422500D03*
D12*
X261952250Y-80962500D03*
%TD*%
D31*
%TO.C,U1*%
X158392750Y-148933500D03*
X159192750Y-148933500D03*
X159992750Y-148933500D03*
X160792750Y-148933500D03*
X161592750Y-148933500D03*
X162392750Y-148933500D03*
X163192750Y-148933500D03*
X163992750Y-148933500D03*
X164792750Y-148933500D03*
X165592750Y-148933500D03*
X166392750Y-148933500D03*
D32*
X168092750Y-150633500D03*
X168092750Y-151433500D03*
X168092750Y-152233500D03*
X168092750Y-153033500D03*
X168092750Y-153833500D03*
X168092750Y-154633500D03*
X168092750Y-155433500D03*
X168092750Y-156233500D03*
X168092750Y-157033500D03*
X168092750Y-157833500D03*
X168092750Y-158633500D03*
D31*
X166392750Y-160333500D03*
X165592750Y-160333500D03*
X164792750Y-160333500D03*
X163992750Y-160333500D03*
X163192750Y-160333500D03*
X162392750Y-160333500D03*
X161592750Y-160333500D03*
X160792750Y-160333500D03*
X159992750Y-160333500D03*
X159192750Y-160333500D03*
X158392750Y-160333500D03*
D32*
X156692750Y-158633500D03*
X156692750Y-157833500D03*
X156692750Y-157033500D03*
X156692750Y-156233500D03*
X156692750Y-155433500D03*
X156692750Y-154633500D03*
X156692750Y-153833500D03*
X156692750Y-153033500D03*
X156692750Y-152233500D03*
X156692750Y-151433500D03*
X156692750Y-150633500D03*
%TD*%
D11*
%TO.C,SW11*%
X216486250Y-78422500D03*
X229948250Y-75882500D03*
D14*
X218772250Y-80962500D03*
D12*
X223852250Y-80962500D03*
D13*
X226392250Y-75882500D03*
D14*
X228932250Y-80962500D03*
D13*
X220042250Y-78422500D03*
%TD*%
D15*
%TO.C,C61*%
X271600000Y-142100000D03*
X271600000Y-144175000D03*
%TD*%
%TO.C,C17*%
X91000000Y-143250000D03*
X91000000Y-145325000D03*
%TD*%
D21*
%TO.C,D119*%
X279414750Y-100868750D03*
X279414750Y-97568750D03*
%TD*%
D15*
%TO.C,C48*%
X157100000Y-141942500D03*
X157100000Y-144017500D03*
%TD*%
D21*
%TO.C,D147*%
X274664805Y-138968750D03*
X274664805Y-135668750D03*
%TD*%
%TO.C,D129*%
X188978500Y-119981250D03*
X188978500Y-116681250D03*
%TD*%
%TO.C,D156*%
X272271000Y-158018750D03*
X272271000Y-154718750D03*
%TD*%
D15*
%TO.C,C53*%
X362100000Y-160750000D03*
X362100000Y-162825000D03*
%TD*%
D21*
%TO.C,D116*%
X222264750Y-100868750D03*
X222264750Y-97568750D03*
%TD*%
D11*
%TO.C,SW48*%
X125998750Y-135572500D03*
X139460750Y-133032500D03*
D13*
X135904750Y-133032500D03*
X129554750Y-135572500D03*
D14*
X128284750Y-138112500D03*
X138444750Y-138112500D03*
D12*
X133364750Y-138112500D03*
%TD*%
D11*
%TO.C,SW43*%
X287909000Y-116522500D03*
X301371000Y-113982500D03*
D12*
X295275000Y-119062500D03*
D13*
X297815000Y-113982500D03*
D14*
X290195000Y-119062500D03*
D13*
X291465000Y-116522500D03*
D14*
X300355000Y-119062500D03*
%TD*%
D33*
%TO.C,USB1*%
X83462330Y-72865635D03*
X82687330Y-72865635D03*
D34*
X81987330Y-72865635D03*
X81487330Y-72865635D03*
X80987330Y-72865635D03*
X80487330Y-72865635D03*
X79987330Y-72865635D03*
X79487330Y-72865635D03*
X78987330Y-72865635D03*
X78487330Y-72865635D03*
D33*
X77787330Y-72865635D03*
X77012330Y-72865635D03*
D35*
X77347330Y-70920635D03*
X83127330Y-70920635D03*
%TD*%
D21*
%TO.C,D127*%
X150778500Y-119918750D03*
X150778500Y-116618750D03*
%TD*%
%TO.C,D102*%
X231789750Y-81818750D03*
X231789750Y-78518750D03*
%TD*%
%TO.C,D146*%
X255614805Y-138968750D03*
X255614805Y-135668750D03*
%TD*%
D11*
%TO.C,SW17*%
X68848750Y-97472500D03*
X82310750Y-94932500D03*
D14*
X71134750Y-100012500D03*
D12*
X76214750Y-100012500D03*
D13*
X72404750Y-97472500D03*
X78754750Y-94932500D03*
D14*
X81294750Y-100012500D03*
%TD*%
D11*
%TO.C,SW65*%
X280780000Y-154622500D03*
X294242000Y-152082500D03*
D13*
X290686000Y-152082500D03*
X284336000Y-154622500D03*
D14*
X283066000Y-157162500D03*
D12*
X288146000Y-157162500D03*
D14*
X293226000Y-157162500D03*
%TD*%
D21*
%TO.C,D135*%
X303178500Y-119918750D03*
X303178500Y-116618750D03*
%TD*%
D15*
%TO.C,C55*%
X190530000Y-85050000D03*
X190530000Y-87125000D03*
%TD*%
D21*
%TO.C,D120*%
X298464750Y-100868750D03*
X298464750Y-97568750D03*
%TD*%
D15*
%TO.C,C45*%
X171510000Y-84650000D03*
X171510000Y-86725000D03*
%TD*%
D11*
%TO.C,SW34*%
X116425000Y-116522500D03*
X129887000Y-113982500D03*
D14*
X118711000Y-119062500D03*
D13*
X119981000Y-116522500D03*
D12*
X123791000Y-119062500D03*
D13*
X126331000Y-113982500D03*
D14*
X128871000Y-119062500D03*
%TD*%
D21*
%TO.C,D141*%
X160364805Y-139031250D03*
X160364805Y-135731250D03*
%TD*%
D15*
%TO.C,C5*%
X153704246Y-158891000D03*
X153704246Y-160966000D03*
%TD*%
%TO.C,C51*%
X290500000Y-142150000D03*
X290500000Y-144225000D03*
%TD*%
D21*
%TO.C,D123*%
X365139750Y-100868750D03*
X365139750Y-97568750D03*
%TD*%
D15*
%TO.C,C7*%
X154563867Y-150247714D03*
X154563867Y-152322714D03*
%TD*%
D21*
%TO.C,D136*%
X318410000Y-125870000D03*
X318410000Y-122570000D03*
%TD*%
%TO.C,D160*%
X365125000Y-158240000D03*
X365125000Y-154940000D03*
%TD*%
%TO.C,D137*%
X365137500Y-119918750D03*
X365137500Y-116618750D03*
%TD*%
D15*
%TO.C,C47*%
X292850000Y-160900000D03*
X292850000Y-162975000D03*
%TD*%
D30*
%TO.C,D95*%
X96183500Y-89693750D03*
X92883500Y-89693750D03*
%TD*%
D15*
%TO.C,C40*%
X333750000Y-84760000D03*
X333750000Y-86835000D03*
%TD*%
%TO.C,C75*%
X338250000Y-103925000D03*
X338250000Y-106000000D03*
%TD*%
D11*
%TO.C,SW68*%
X349821500Y-154622500D03*
X363283500Y-152082500D03*
D13*
X359727500Y-152082500D03*
X353377500Y-154622500D03*
D12*
X357187500Y-157162500D03*
D14*
X362267500Y-157162500D03*
X352107500Y-157162500D03*
%TD*%
D15*
%TO.C,C72*%
X109600000Y-123050000D03*
X109600000Y-125125000D03*
%TD*%
D21*
%TO.C,D144*%
X218355055Y-138968750D03*
X218355055Y-135668750D03*
%TD*%
%TO.C,D133*%
X265078500Y-119918750D03*
X265078500Y-116618750D03*
%TD*%
D15*
%TO.C,C67*%
X233300000Y-142050000D03*
X233300000Y-144125000D03*
%TD*%
%TO.C,C26*%
X176400000Y-142000000D03*
X176400000Y-144075000D03*
%TD*%
%TO.C,C19*%
X261950000Y-122950000D03*
X261950000Y-125025000D03*
%TD*%
%TO.C,C24*%
X152540000Y-84970000D03*
X152540000Y-87045000D03*
%TD*%
%TO.C,C25*%
X197600000Y-160712500D03*
X197600000Y-162787500D03*
%TD*%
%TO.C,C21*%
X162000000Y-104050000D03*
X162000000Y-106125000D03*
%TD*%
D21*
%TO.C,D152*%
X81993250Y-158018750D03*
X81993250Y-154718750D03*
%TD*%
D11*
%TO.C,SW19*%
X111711250Y-97472500D03*
X125173250Y-94932500D03*
D14*
X113997250Y-100012500D03*
D13*
X121617250Y-94932500D03*
D14*
X124157250Y-100012500D03*
D12*
X119077250Y-100012500D03*
D13*
X115267250Y-97472500D03*
%TD*%
D15*
%TO.C,C63*%
X209680000Y-84950000D03*
X209680000Y-87025000D03*
%TD*%
D11*
%TO.C,SW62*%
X114092500Y-154622500D03*
X127554500Y-152082500D03*
D13*
X117648500Y-154622500D03*
D12*
X121458500Y-157162500D03*
D13*
X123998500Y-152082500D03*
D14*
X126538500Y-157162500D03*
X116378500Y-157162500D03*
%TD*%
D15*
%TO.C,C56*%
X295400000Y-103750000D03*
X295400000Y-105825000D03*
%TD*%
D11*
%TO.C,SW32*%
X71230000Y-116522500D03*
X84692000Y-113982500D03*
D12*
X78596000Y-119062500D03*
D13*
X74786000Y-116522500D03*
D14*
X83676000Y-119062500D03*
D13*
X81136000Y-113982500D03*
D14*
X73516000Y-119062500D03*
%TD*%
D11*
%TO.C,SW41*%
X249809000Y-116522500D03*
X263271000Y-113982500D03*
D12*
X257175000Y-119062500D03*
D14*
X262255000Y-119062500D03*
D13*
X259715000Y-113982500D03*
D14*
X252095000Y-119062500D03*
D13*
X253365000Y-116522500D03*
%TD*%
D21*
%TO.C,D157*%
X295876000Y-158081250D03*
X295876000Y-154781250D03*
%TD*%
%TO.C,D158*%
X327818750Y-158018750D03*
X327818750Y-154718750D03*
%TD*%
%TO.C,D145*%
X236564805Y-138968750D03*
X236564805Y-135668750D03*
%TD*%
%TO.C,D111*%
X127014750Y-100868750D03*
X127014750Y-97568750D03*
%TD*%
D36*
%TO.C,C3*%
X162816417Y-146563264D03*
X164891417Y-146563264D03*
%TD*%
D15*
%TO.C,C74*%
X238200000Y-104050000D03*
X238200000Y-106125000D03*
%TD*%
%TO.C,C58*%
X228630000Y-84790000D03*
X228630000Y-86865000D03*
%TD*%
D11*
%TO.C,SW15*%
X292686250Y-78422500D03*
X306148250Y-75882500D03*
D14*
X305132250Y-80962500D03*
X294972250Y-80962500D03*
D13*
X302592250Y-75882500D03*
X296242250Y-78422500D03*
D12*
X300052250Y-80962500D03*
%TD*%
D24*
%TO.C,SW3*%
X78818250Y-83502500D03*
X65356250Y-86042500D03*
D14*
X76532250Y-80962500D03*
D13*
X68912250Y-86042500D03*
D12*
X71452250Y-80962500D03*
D14*
X66372250Y-80962500D03*
D13*
X75262250Y-83502500D03*
%TD*%
D15*
%TO.C,C69*%
X242900000Y-123050000D03*
X242900000Y-125125000D03*
%TD*%
D21*
%TO.C,D122*%
X341327250Y-100868750D03*
X341327250Y-97568750D03*
%TD*%
D15*
%TO.C,C57*%
X166750000Y-122975000D03*
X166750000Y-125050000D03*
%TD*%
%TO.C,C46*%
X214450000Y-142050000D03*
X214450000Y-144125000D03*
%TD*%
D21*
%TO.C,D126*%
X131728500Y-119918750D03*
X131728500Y-116618750D03*
%TD*%
D11*
%TO.C,SW40*%
X230759000Y-116522500D03*
X244221000Y-113982500D03*
D13*
X240665000Y-113982500D03*
X234315000Y-116522500D03*
D12*
X238125000Y-119062500D03*
D14*
X233045000Y-119062500D03*
X243205000Y-119062500D03*
%TD*%
D11*
%TO.C,SW25*%
X226011250Y-97472500D03*
X239473250Y-94932500D03*
D12*
X233377250Y-100012500D03*
D14*
X238457250Y-100012500D03*
D13*
X229567250Y-97472500D03*
X235917250Y-94932500D03*
D14*
X228297250Y-100012500D03*
%TD*%
D21*
%TO.C,D153*%
X105583500Y-158018750D03*
X105583500Y-154718750D03*
%TD*%
%TO.C,D142*%
X180208555Y-138968750D03*
X180208555Y-135668750D03*
%TD*%
%TO.C,D96*%
X117793125Y-81818750D03*
X117793125Y-78518750D03*
%TD*%
D11*
%TO.C,SW20*%
X130761250Y-97472500D03*
X144223250Y-94932500D03*
D13*
X140667250Y-94932500D03*
D14*
X133047250Y-100012500D03*
X143207250Y-100012500D03*
D13*
X134317250Y-97472500D03*
D12*
X138127250Y-100012500D03*
%TD*%
D11*
%TO.C,SW52*%
X202257805Y-135572500D03*
X215719805Y-133032500D03*
D14*
X204543805Y-138112500D03*
D13*
X205813805Y-135572500D03*
D14*
X214703805Y-138112500D03*
D13*
X212163805Y-133032500D03*
D12*
X209623805Y-138112500D03*
%TD*%
D26*
%TO.C,R1*%
X88000000Y-102150000D03*
X88000000Y-104150000D03*
%TD*%
D15*
%TO.C,C50*%
X304900000Y-85040000D03*
X304900000Y-87115000D03*
%TD*%
D21*
%TO.C,D99*%
X174639750Y-81818750D03*
X174639750Y-78518750D03*
%TD*%
D11*
%TO.C,SW24*%
X206935710Y-97472500D03*
X220397710Y-94932500D03*
D14*
X219381710Y-100012500D03*
D13*
X210491710Y-97472500D03*
D12*
X214301710Y-100012500D03*
D14*
X209221710Y-100012500D03*
D13*
X216841710Y-94932500D03*
%TD*%
D15*
%TO.C,C13*%
X200150000Y-103962500D03*
X200150000Y-106037500D03*
%TD*%
D21*
%TO.C,D159*%
X346868750Y-158018750D03*
X346868750Y-154718750D03*
%TD*%
%TO.C,D143*%
X199258555Y-138968750D03*
X199258555Y-135668750D03*
%TD*%
D15*
%TO.C,C39*%
X252550000Y-141975000D03*
X252550000Y-144050000D03*
%TD*%
D36*
%TO.C,C4*%
X165250917Y-162320000D03*
X167325917Y-162320000D03*
%TD*%
D15*
%TO.C,C37*%
X133370000Y-85040000D03*
X133370000Y-87115000D03*
%TD*%
D21*
%TO.C,D114*%
X184164750Y-100868750D03*
X184164750Y-97568750D03*
%TD*%
D11*
%TO.C,SW35*%
X135475000Y-116522500D03*
X148937000Y-113982500D03*
D13*
X139031000Y-116522500D03*
D14*
X137761000Y-119062500D03*
D13*
X145381000Y-113982500D03*
D14*
X147921000Y-119062500D03*
D12*
X142841000Y-119062500D03*
%TD*%
D15*
%TO.C,C31*%
X269550000Y-160600000D03*
X269550000Y-162675000D03*
%TD*%
%TO.C,C12*%
X331000000Y-123162500D03*
X331000000Y-125237500D03*
%TD*%
D26*
%TO.C,R5*%
X204008500Y-158337500D03*
X204008500Y-160337500D03*
%TD*%
D11*
%TO.C,SW10*%
X197436250Y-78422500D03*
X210898250Y-75882500D03*
D13*
X207342250Y-75882500D03*
D12*
X204802250Y-80962500D03*
D14*
X199722250Y-80962500D03*
X209882250Y-80962500D03*
D13*
X200992250Y-78422500D03*
%TD*%
D36*
%TO.C,C1*%
X173494667Y-157899964D03*
X175569667Y-157899964D03*
%TD*%
D21*
%TO.C,D139*%
X122360680Y-138968750D03*
X122360680Y-135668750D03*
%TD*%
%TO.C,D103*%
X347980000Y-79755000D03*
X347980000Y-76455000D03*
%TD*%
%TO.C,D101*%
X212739750Y-81818750D03*
X212739750Y-78518750D03*
%TD*%
D37*
%TO.C,Y1*%
X173269667Y-155497714D03*
X173269667Y-152597714D03*
X175569667Y-152597714D03*
X175569667Y-155497714D03*
%TD*%
D11*
%TO.C,SW47*%
X106948750Y-135572500D03*
X120410750Y-133032500D03*
D13*
X116854750Y-133032500D03*
D12*
X114314750Y-138112500D03*
D13*
X110504750Y-135572500D03*
D14*
X119394750Y-138112500D03*
X109234750Y-138112500D03*
%TD*%
D21*
%TO.C,D105*%
X270193125Y-81818750D03*
X270193125Y-78518750D03*
%TD*%
D15*
%TO.C,C70*%
X361950000Y-142162500D03*
X361950000Y-144237500D03*
%TD*%
D21*
%TO.C,D132*%
X246028500Y-119981250D03*
X246028500Y-116681250D03*
%TD*%
%TO.C,D115*%
X203214750Y-100868750D03*
X203214750Y-97568750D03*
%TD*%
D11*
%TO.C,SW56*%
X278457805Y-135572500D03*
X291919805Y-133032500D03*
D13*
X288363805Y-133032500D03*
D14*
X290903805Y-138112500D03*
X280743805Y-138112500D03*
D13*
X282013805Y-135572500D03*
D12*
X285823805Y-138112500D03*
%TD*%
D11*
%TO.C,SW18*%
X92665000Y-97472500D03*
X106127000Y-94932500D03*
D13*
X102571000Y-94932500D03*
X96221000Y-97472500D03*
D14*
X94951000Y-100012500D03*
D12*
X100031000Y-100012500D03*
D14*
X105111000Y-100012500D03*
%TD*%
D11*
%TO.C,SW12*%
X235536250Y-78422500D03*
X248998250Y-75882500D03*
D13*
X245442250Y-75882500D03*
D12*
X242902250Y-80962500D03*
D13*
X239092250Y-78422500D03*
D14*
X247982250Y-80962500D03*
X237822250Y-80962500D03*
%TD*%
D21*
%TO.C,D113*%
X165114750Y-100868750D03*
X165114750Y-97568750D03*
%TD*%
D11*
%TO.C,SW44*%
X318865250Y-116522500D03*
X332327250Y-113982500D03*
D14*
X321151250Y-119062500D03*
D12*
X314293250Y-110807500D03*
D13*
X338169250Y-126047500D03*
X314293250Y-126047500D03*
D14*
X331311250Y-119062500D03*
D13*
X322421250Y-116522500D03*
D12*
X338169250Y-110807500D03*
X326231250Y-119062500D03*
D13*
X328771250Y-113982500D03*
%TD*%
D15*
%TO.C,C71*%
X147700000Y-122875000D03*
X147700000Y-124950000D03*
%TD*%
D11*
%TO.C,SW49*%
X145061305Y-135572500D03*
X158523305Y-133032500D03*
D13*
X148617305Y-135572500D03*
D14*
X157507305Y-138112500D03*
X147347305Y-138112500D03*
D13*
X154967305Y-133032500D03*
D12*
X152427305Y-138112500D03*
%TD*%
D15*
%TO.C,C38*%
X314350000Y-103950000D03*
X314350000Y-106025000D03*
%TD*%
D11*
%TO.C,SW63*%
X185530007Y-154622500D03*
X198992007Y-152082500D03*
D13*
X242934007Y-164147500D03*
D12*
X192896007Y-157162500D03*
X142858007Y-148907500D03*
D13*
X142858007Y-164147500D03*
D14*
X187816007Y-157162500D03*
D13*
X195436007Y-152082500D03*
X189086007Y-154622500D03*
D14*
X197976007Y-157162500D03*
D12*
X242934007Y-148907500D03*
%TD*%
D21*
%TO.C,D108*%
X322292000Y-87312500D03*
X322292000Y-84012500D03*
%TD*%
D15*
%TO.C,C68*%
X128450000Y-122612500D03*
X128450000Y-124687500D03*
%TD*%
D21*
%TO.C,D109*%
X84152250Y-100868750D03*
X84152250Y-97568750D03*
%TD*%
D15*
%TO.C,C73*%
X195350000Y-142012500D03*
X195350000Y-144087500D03*
%TD*%
%TO.C,C49*%
X114200000Y-84902500D03*
X114200000Y-86977500D03*
%TD*%
D11*
%TO.C,SW21*%
X149811250Y-97472500D03*
X163273250Y-94932500D03*
D14*
X162257250Y-100012500D03*
D13*
X159717250Y-94932500D03*
D14*
X152097250Y-100012500D03*
D13*
X153367250Y-97472500D03*
D12*
X157177250Y-100012500D03*
%TD*%
D21*
%TO.C,D154*%
X129396000Y-157956250D03*
X129396000Y-154656250D03*
%TD*%
D15*
%TO.C,C36*%
X219050000Y-104000000D03*
X219050000Y-106075000D03*
%TD*%
%TO.C,C29*%
X266630000Y-84642500D03*
X266630000Y-86717500D03*
%TD*%
%TO.C,C27*%
X185650000Y-122975000D03*
X185650000Y-125050000D03*
%TD*%
D11*
%TO.C,SW23*%
X187911250Y-97472500D03*
X201373250Y-94932500D03*
D13*
X191467250Y-97472500D03*
D14*
X200357250Y-100012500D03*
X190197250Y-100012500D03*
D12*
X195277250Y-100012500D03*
D13*
X197817250Y-94932500D03*
%TD*%
M02*
