%TF.GenerationSoftware,KiCad,Pcbnew,(6.0.8)*%
%TF.CreationDate,2023-04-08T23:36:12-04:00*%
%TF.ProjectId,keeb,6b656562-2e6b-4696-9361-645f70636258,rev?*%
%TF.SameCoordinates,Original*%
%TF.FileFunction,Drillmap*%
%TF.FilePolarity,Positive*%
%FSLAX45Y45*%
G04 Gerber Fmt 4.5, Leading zero omitted, Abs format (unit mm)*
G04 Created by KiCad (PCBNEW (6.0.8)) date 2023-04-08 23:36:12*
%MOMM*%
%LPD*%
G01*
G04 APERTURE LIST*
%ADD10C,0.250000*%
%ADD11C,0.200000*%
%ADD12C,0.065000*%
%ADD13C,0.170180*%
%ADD14C,0.304800*%
%ADD15C,0.398780*%
G04 APERTURE END LIST*
D10*
X8543605Y-6665056D02*
X8538764Y-6637624D01*
X8525386Y-6614306D01*
X8505192Y-6596823D01*
X8479900Y-6586893D01*
X8463821Y-6585273D01*
X7586218Y-6585273D02*
X7558785Y-6590114D01*
X7535468Y-6603491D01*
X7517984Y-6623685D01*
X7508055Y-6648977D01*
X7506434Y-6665056D01*
X6190028Y-7383097D02*
X6190028Y-16159140D01*
X20790174Y-7143750D02*
X36427486Y-7143750D01*
X6429375Y-7143750D02*
X7346871Y-7143750D01*
X36666830Y-7383097D02*
X36666830Y-16159140D01*
X7586218Y-6585273D02*
X8463821Y-6585273D01*
X8543605Y-6984185D02*
X8546847Y-7016343D01*
X8556144Y-7046295D01*
X8570856Y-7073399D01*
X8590339Y-7097014D01*
X8613954Y-7116499D01*
X8641058Y-7131210D01*
X8671010Y-7140508D01*
X8703168Y-7143750D01*
X8703168Y-7143750D02*
X20790174Y-7143750D01*
X6429375Y-7143750D02*
X6392925Y-7146508D01*
X6358201Y-7154510D01*
X6325609Y-7167352D01*
X6295554Y-7184626D01*
X6268444Y-7205927D01*
X6244684Y-7230849D01*
X6224679Y-7258986D01*
X6208837Y-7289931D01*
X6197564Y-7323280D01*
X6191264Y-7358625D01*
X6190028Y-7383097D01*
X6429375Y-16398486D02*
X36427486Y-16398486D01*
X36427486Y-16398486D02*
X36463935Y-16395729D01*
X36498658Y-16387726D01*
X36531250Y-16374884D01*
X36561304Y-16357610D01*
X36588414Y-16336309D01*
X36612174Y-16311387D01*
X36632179Y-16283250D01*
X36648021Y-16252305D01*
X36659295Y-16218957D01*
X36665595Y-16183612D01*
X36666830Y-16159140D01*
X7346871Y-7143750D02*
X7379029Y-7140508D01*
X7408981Y-7131210D01*
X7436085Y-7116499D01*
X7459700Y-7097014D01*
X7479183Y-7073399D01*
X7493895Y-7046295D01*
X7503192Y-7016343D01*
X7506434Y-6984185D01*
X6190028Y-16159140D02*
X6192786Y-16195590D01*
X6200789Y-16230315D01*
X6213631Y-16262907D01*
X6230905Y-16292961D01*
X6252206Y-16320072D01*
X6277129Y-16343832D01*
X6305265Y-16363836D01*
X6336211Y-16379677D01*
X6369559Y-16390951D01*
X6404903Y-16397251D01*
X6429375Y-16398486D01*
X7506434Y-6665056D02*
X7506434Y-6984185D01*
X8543605Y-6665056D02*
X8543605Y-6984185D01*
X36666830Y-7383094D02*
X36664073Y-7346644D01*
X36656070Y-7311920D01*
X36643228Y-7279328D01*
X36625953Y-7249274D01*
X36604652Y-7222164D01*
X36579729Y-7198404D01*
X36551593Y-7178400D01*
X36520648Y-7162559D01*
X36487301Y-7151285D01*
X36451957Y-7144986D01*
X36427486Y-7143750D01*
D11*
D12*
X7702233Y-7059563D02*
X7767233Y-7124563D01*
X7767233Y-7059563D02*
X7702233Y-7124563D01*
X8280233Y-7059563D02*
X8345233Y-7124563D01*
X8345233Y-7059563D02*
X8280233Y-7124563D01*
D13*
X6722315Y-8096250D02*
G75*
G03*
X6722315Y-8096250I-85090J0D01*
G01*
X6960440Y-15716250D02*
G75*
G03*
X6960440Y-15716250I-85090J0D01*
G01*
X7198565Y-10001250D02*
G75*
G03*
X7198565Y-10001250I-85090J0D01*
G01*
X7436690Y-11906250D02*
G75*
G03*
X7436690Y-11906250I-85090J0D01*
G01*
X7738315Y-8096250D02*
G75*
G03*
X7738315Y-8096250I-85090J0D01*
G01*
X7912940Y-13811250D02*
G75*
G03*
X7912940Y-13811250I-85090J0D01*
G01*
X7976440Y-15716250D02*
G75*
G03*
X7976440Y-15716250I-85090J0D01*
G01*
X8214565Y-10001250D02*
G75*
G03*
X8214565Y-10001250I-85090J0D01*
G01*
X8452690Y-11906250D02*
G75*
G03*
X8452690Y-11906250I-85090J0D01*
G01*
X8627315Y-8096250D02*
G75*
G03*
X8627315Y-8096250I-85090J0D01*
G01*
X8928940Y-13811250D02*
G75*
G03*
X8928940Y-13811250I-85090J0D01*
G01*
X9341690Y-15716250D02*
G75*
G03*
X9341690Y-15716250I-85090J0D01*
G01*
X9580190Y-10001250D02*
G75*
G03*
X9580190Y-10001250I-85090J0D01*
G01*
X9643315Y-8096250D02*
G75*
G03*
X9643315Y-8096250I-85090J0D01*
G01*
X10056065Y-11906250D02*
G75*
G03*
X10056065Y-11906250I-85090J0D01*
G01*
X10357690Y-15716250D02*
G75*
G03*
X10357690Y-15716250I-85090J0D01*
G01*
X10532315Y-8096250D02*
G75*
G03*
X10532315Y-8096250I-85090J0D01*
G01*
X10596190Y-10001250D02*
G75*
G03*
X10596190Y-10001250I-85090J0D01*
G01*
X11008565Y-13811250D02*
G75*
G03*
X11008565Y-13811250I-85090J0D01*
G01*
X11072065Y-11906250D02*
G75*
G03*
X11072065Y-11906250I-85090J0D01*
G01*
X11484815Y-10001250D02*
G75*
G03*
X11484815Y-10001250I-85090J0D01*
G01*
X11548315Y-8096250D02*
G75*
G03*
X11548315Y-8096250I-85090J0D01*
G01*
X11722940Y-15716250D02*
G75*
G03*
X11722940Y-15716250I-85090J0D01*
G01*
X11956190Y-11906250D02*
G75*
G03*
X11956190Y-11906250I-85090J0D01*
G01*
X12024565Y-13811250D02*
G75*
G03*
X12024565Y-13811250I-85090J0D01*
G01*
X12437315Y-8096250D02*
G75*
G03*
X12437315Y-8096250I-85090J0D01*
G01*
X12500815Y-10001250D02*
G75*
G03*
X12500815Y-10001250I-85090J0D01*
G01*
X12738940Y-15716250D02*
G75*
G03*
X12738940Y-15716250I-85090J0D01*
G01*
X12913565Y-13811250D02*
G75*
G03*
X12913565Y-13811250I-85090J0D01*
G01*
X12972190Y-11906250D02*
G75*
G03*
X12972190Y-11906250I-85090J0D01*
G01*
X13389815Y-10001250D02*
G75*
G03*
X13389815Y-10001250I-85090J0D01*
G01*
X13453315Y-8096250D02*
G75*
G03*
X13453315Y-8096250I-85090J0D01*
G01*
X13861190Y-11906250D02*
G75*
G03*
X13861190Y-11906250I-85090J0D01*
G01*
X13929565Y-13811250D02*
G75*
G03*
X13929565Y-13811250I-85090J0D01*
G01*
X14342315Y-8096250D02*
G75*
G03*
X14342315Y-8096250I-85090J0D01*
G01*
X14405815Y-10001250D02*
G75*
G03*
X14405815Y-10001250I-85090J0D01*
G01*
X14819820Y-13811250D02*
G75*
G03*
X14819820Y-13811250I-85090J0D01*
G01*
X14877190Y-11906250D02*
G75*
G03*
X14877190Y-11906250I-85090J0D01*
G01*
X15294815Y-10001250D02*
G75*
G03*
X15294815Y-10001250I-85090J0D01*
G01*
X15358315Y-8096250D02*
G75*
G03*
X15358315Y-8096250I-85090J0D01*
G01*
X15766190Y-11906250D02*
G75*
G03*
X15766190Y-11906250I-85090J0D01*
G01*
X15835820Y-13811250D02*
G75*
G03*
X15835820Y-13811250I-85090J0D01*
G01*
X16250490Y-8096250D02*
G75*
G03*
X16250490Y-8096250I-85090J0D01*
G01*
X16310815Y-10001250D02*
G75*
G03*
X16310815Y-10001250I-85090J0D01*
G01*
X16724820Y-13811250D02*
G75*
G03*
X16724820Y-13811250I-85090J0D01*
G01*
X16782190Y-11906250D02*
G75*
G03*
X16782190Y-11906250I-85090J0D01*
G01*
X17199815Y-10001250D02*
G75*
G03*
X17199815Y-10001250I-85090J0D01*
G01*
X17266490Y-8096250D02*
G75*
G03*
X17266490Y-8096250I-85090J0D01*
G01*
X17674590Y-11906250D02*
G75*
G03*
X17674590Y-11906250I-85090J0D01*
G01*
X17740821Y-13811250D02*
G75*
G03*
X17740821Y-13811250I-85090J0D01*
G01*
X18152315Y-8096250D02*
G75*
G03*
X18152315Y-8096250I-85090J0D01*
G01*
X18215815Y-10001250D02*
G75*
G03*
X18215815Y-10001250I-85090J0D01*
G01*
X18629821Y-13811250D02*
G75*
G03*
X18629821Y-13811250I-85090J0D01*
G01*
X18690590Y-11906250D02*
G75*
G03*
X18690590Y-11906250I-85090J0D01*
G01*
X18866691Y-15716250D02*
G75*
G03*
X18866691Y-15716250I-85090J0D01*
G01*
X19104815Y-10001250D02*
G75*
G03*
X19104815Y-10001250I-85090J0D01*
G01*
X19168315Y-8096250D02*
G75*
G03*
X19168315Y-8096250I-85090J0D01*
G01*
X19579590Y-11906250D02*
G75*
G03*
X19579590Y-11906250I-85090J0D01*
G01*
X19645821Y-13811250D02*
G75*
G03*
X19645821Y-13811250I-85090J0D01*
G01*
X19882691Y-15716250D02*
G75*
G03*
X19882691Y-15716250I-85090J0D01*
G01*
X20057315Y-8096250D02*
G75*
G03*
X20057315Y-8096250I-85090J0D01*
G01*
X20120815Y-10001250D02*
G75*
G03*
X20120815Y-10001250I-85090J0D01*
G01*
X20539471Y-13811250D02*
G75*
G03*
X20539471Y-13811250I-85090J0D01*
G01*
X20595590Y-11906250D02*
G75*
G03*
X20595590Y-11906250I-85090J0D01*
G01*
X21007261Y-10001250D02*
G75*
G03*
X21007261Y-10001250I-85090J0D01*
G01*
X21073315Y-8096250D02*
G75*
G03*
X21073315Y-8096250I-85090J0D01*
G01*
X21484590Y-11906250D02*
G75*
G03*
X21484590Y-11906250I-85090J0D01*
G01*
X21555471Y-13811250D02*
G75*
G03*
X21555471Y-13811250I-85090J0D01*
G01*
X21962315Y-8096250D02*
G75*
G03*
X21962315Y-8096250I-85090J0D01*
G01*
X22023261Y-10001250D02*
G75*
G03*
X22023261Y-10001250I-85090J0D01*
G01*
X22439820Y-13811250D02*
G75*
G03*
X22439820Y-13811250I-85090J0D01*
G01*
X22500590Y-11906250D02*
G75*
G03*
X22500590Y-11906250I-85090J0D01*
G01*
X22914815Y-10001250D02*
G75*
G03*
X22914815Y-10001250I-85090J0D01*
G01*
X22978315Y-8096250D02*
G75*
G03*
X22978315Y-8096250I-85090J0D01*
G01*
X23389590Y-11906250D02*
G75*
G03*
X23389590Y-11906250I-85090J0D01*
G01*
X23455820Y-13811250D02*
G75*
G03*
X23455820Y-13811250I-85090J0D01*
G01*
X23867315Y-8096250D02*
G75*
G03*
X23867315Y-8096250I-85090J0D01*
G01*
X23930815Y-10001250D02*
G75*
G03*
X23930815Y-10001250I-85090J0D01*
G01*
X24344820Y-13811250D02*
G75*
G03*
X24344820Y-13811250I-85090J0D01*
G01*
X24405590Y-11906250D02*
G75*
G03*
X24405590Y-11906250I-85090J0D01*
G01*
X24819815Y-10001250D02*
G75*
G03*
X24819815Y-10001250I-85090J0D01*
G01*
X24883315Y-8096250D02*
G75*
G03*
X24883315Y-8096250I-85090J0D01*
G01*
X25294590Y-11906250D02*
G75*
G03*
X25294590Y-11906250I-85090J0D01*
G01*
X25360820Y-13811250D02*
G75*
G03*
X25360820Y-13811250I-85090J0D01*
G01*
X25772315Y-8096250D02*
G75*
G03*
X25772315Y-8096250I-85090J0D01*
G01*
X25835815Y-10001250D02*
G75*
G03*
X25835815Y-10001250I-85090J0D01*
G01*
X26010440Y-15716250D02*
G75*
G03*
X26010440Y-15716250I-85090J0D01*
G01*
X26249820Y-13811250D02*
G75*
G03*
X26249820Y-13811250I-85090J0D01*
G01*
X26310590Y-11906250D02*
G75*
G03*
X26310590Y-11906250I-85090J0D01*
G01*
X26724815Y-10001250D02*
G75*
G03*
X26724815Y-10001250I-85090J0D01*
G01*
X26788315Y-8096250D02*
G75*
G03*
X26788315Y-8096250I-85090J0D01*
G01*
X27026440Y-15716250D02*
G75*
G03*
X27026440Y-15716250I-85090J0D01*
G01*
X27199590Y-11906250D02*
G75*
G03*
X27199590Y-11906250I-85090J0D01*
G01*
X27265820Y-13811250D02*
G75*
G03*
X27265820Y-13811250I-85090J0D01*
G01*
X27677315Y-8096250D02*
G75*
G03*
X27677315Y-8096250I-85090J0D01*
G01*
X27740815Y-10001250D02*
G75*
G03*
X27740815Y-10001250I-85090J0D01*
G01*
X28159470Y-13811250D02*
G75*
G03*
X28159470Y-13811250I-85090J0D01*
G01*
X28215590Y-11906250D02*
G75*
G03*
X28215590Y-11906250I-85090J0D01*
G01*
X28391690Y-15716250D02*
G75*
G03*
X28391690Y-15716250I-85090J0D01*
G01*
X28628340Y-10001250D02*
G75*
G03*
X28628340Y-10001250I-85090J0D01*
G01*
X28693315Y-8096250D02*
G75*
G03*
X28693315Y-8096250I-85090J0D01*
G01*
X29104590Y-11906250D02*
G75*
G03*
X29104590Y-11906250I-85090J0D01*
G01*
X29175470Y-13811250D02*
G75*
G03*
X29175470Y-13811250I-85090J0D01*
G01*
X29407690Y-15716250D02*
G75*
G03*
X29407690Y-15716250I-85090J0D01*
G01*
X29582315Y-8096250D02*
G75*
G03*
X29582315Y-8096250I-85090J0D01*
G01*
X29644340Y-10001250D02*
G75*
G03*
X29644340Y-10001250I-85090J0D01*
G01*
X30120590Y-11906250D02*
G75*
G03*
X30120590Y-11906250I-85090J0D01*
G01*
X30533340Y-10001250D02*
G75*
G03*
X30533340Y-10001250I-85090J0D01*
G01*
X30598315Y-8096250D02*
G75*
G03*
X30598315Y-8096250I-85090J0D01*
G01*
X30778845Y-13811250D02*
G75*
G03*
X30778845Y-13811250I-85090J0D01*
G01*
X31485840Y-15716250D02*
G75*
G03*
X31485840Y-15716250I-85090J0D01*
G01*
X31549340Y-10001250D02*
G75*
G03*
X31549340Y-10001250I-85090J0D01*
G01*
X31794845Y-13811250D02*
G75*
G03*
X31794845Y-13811250I-85090J0D01*
G01*
X32200215Y-11906250D02*
G75*
G03*
X32200215Y-11906250I-85090J0D01*
G01*
X32439815Y-8096250D02*
G75*
G03*
X32439815Y-8096250I-85090J0D01*
G01*
X32501840Y-15716250D02*
G75*
G03*
X32501840Y-15716250I-85090J0D01*
G01*
X32914590Y-10001250D02*
G75*
G03*
X32914590Y-10001250I-85090J0D01*
G01*
X33216215Y-11906250D02*
G75*
G03*
X33216215Y-11906250I-85090J0D01*
G01*
X33390840Y-13811250D02*
G75*
G03*
X33390840Y-13811250I-85090J0D01*
G01*
X33390840Y-15716250D02*
G75*
G03*
X33390840Y-15716250I-85090J0D01*
G01*
X33455815Y-8096250D02*
G75*
G03*
X33455815Y-8096250I-85090J0D01*
G01*
X33930590Y-10001250D02*
G75*
G03*
X33930590Y-10001250I-85090J0D01*
G01*
X34406840Y-13811250D02*
G75*
G03*
X34406840Y-13811250I-85090J0D01*
G01*
X34406840Y-15716250D02*
G75*
G03*
X34406840Y-15716250I-85090J0D01*
G01*
X35295840Y-10001250D02*
G75*
G03*
X35295840Y-10001250I-85090J0D01*
G01*
X35295840Y-11906250D02*
G75*
G03*
X35295840Y-11906250I-85090J0D01*
G01*
X35295840Y-13811250D02*
G75*
G03*
X35295840Y-13811250I-85090J0D01*
G01*
X35295840Y-15716250D02*
G75*
G03*
X35295840Y-15716250I-85090J0D01*
G01*
X36311840Y-10001250D02*
G75*
G03*
X36311840Y-10001250I-85090J0D01*
G01*
X36311840Y-11906250D02*
G75*
G03*
X36311840Y-11906250I-85090J0D01*
G01*
X36311840Y-13811250D02*
G75*
G03*
X36311840Y-13811250I-85090J0D01*
G01*
X36311840Y-15716250D02*
G75*
G03*
X36311840Y-15716250I-85090J0D01*
G01*
D14*
X6891225Y-8451850D02*
X6891225Y-8756650D01*
X6738825Y-8604250D02*
X7043625Y-8604250D01*
X7002350Y-15309850D02*
X7002350Y-15614650D01*
X6849950Y-15462250D02*
X7154750Y-15462250D01*
X7142050Y-14357350D02*
X7142050Y-14662150D01*
X6989650Y-14509750D02*
X7294450Y-14509750D01*
X7240475Y-9594850D02*
X7240475Y-9899650D01*
X7088075Y-9747250D02*
X7392875Y-9747250D01*
X7478600Y-11499850D02*
X7478600Y-11804650D01*
X7326200Y-11652250D02*
X7631000Y-11652250D01*
X7526225Y-8197850D02*
X7526225Y-8502650D01*
X7373825Y-8350250D02*
X7678625Y-8350250D01*
X7637350Y-15055850D02*
X7637350Y-15360650D01*
X7484950Y-15208250D02*
X7789750Y-15208250D01*
X7875475Y-9340850D02*
X7875475Y-9645650D01*
X7723075Y-9493250D02*
X8027875Y-9493250D01*
X7954850Y-13404850D02*
X7954850Y-13709650D01*
X7802450Y-13557250D02*
X8107250Y-13557250D01*
X8113600Y-11245850D02*
X8113600Y-11550650D01*
X7961200Y-11398250D02*
X8266000Y-11398250D01*
X8589850Y-13150850D02*
X8589850Y-13455650D01*
X8437450Y-13303250D02*
X8742250Y-13303250D01*
X8796225Y-8451850D02*
X8796225Y-8756650D01*
X8643825Y-8604250D02*
X8948625Y-8604250D01*
X9383600Y-15309850D02*
X9383600Y-15614650D01*
X9231200Y-15462250D02*
X9536000Y-15462250D01*
X9431225Y-8197850D02*
X9431225Y-8502650D01*
X9278825Y-8350250D02*
X9583625Y-8350250D01*
X9529650Y-14357350D02*
X9529650Y-14662150D01*
X9377250Y-14509750D02*
X9682050Y-14509750D01*
X9622100Y-9594850D02*
X9622100Y-9899650D01*
X9469700Y-9747250D02*
X9774500Y-9747250D01*
X10018600Y-15055850D02*
X10018600Y-15360650D01*
X9866200Y-15208250D02*
X10171000Y-15208250D01*
X10097975Y-11499850D02*
X10097975Y-11804650D01*
X9945575Y-11652250D02*
X10250375Y-11652250D01*
X10257100Y-9340850D02*
X10257100Y-9645650D01*
X10104700Y-9493250D02*
X10409500Y-9493250D01*
X10574225Y-7689850D02*
X10574225Y-7994650D01*
X10421825Y-7842250D02*
X10726625Y-7842250D01*
X10732975Y-11245850D02*
X10732975Y-11550650D01*
X10580575Y-11398250D02*
X10885375Y-11398250D01*
X11050475Y-13404850D02*
X11050475Y-13709650D01*
X10898075Y-13557250D02*
X11202875Y-13557250D01*
X11209225Y-7435850D02*
X11209225Y-7740650D01*
X11056825Y-7588250D02*
X11361625Y-7588250D01*
X11526725Y-9594850D02*
X11526725Y-9899650D01*
X11374325Y-9747250D02*
X11679125Y-9747250D01*
X11685475Y-13150850D02*
X11685475Y-13455650D01*
X11533075Y-13303250D02*
X11837875Y-13303250D01*
X11764850Y-15309850D02*
X11764850Y-15614650D01*
X11612450Y-15462250D02*
X11917250Y-15462250D01*
X11998100Y-11499850D02*
X11998100Y-11804650D01*
X11845700Y-11652250D02*
X12150500Y-11652250D01*
X12161725Y-9340850D02*
X12161725Y-9645650D01*
X12009325Y-9493250D02*
X12314125Y-9493250D01*
X12399850Y-15055850D02*
X12399850Y-15360650D01*
X12247450Y-15208250D02*
X12552250Y-15208250D01*
X12479225Y-7689850D02*
X12479225Y-7994650D01*
X12326825Y-7842250D02*
X12631625Y-7842250D01*
X12633100Y-11245850D02*
X12633100Y-11550650D01*
X12480700Y-11398250D02*
X12785500Y-11398250D01*
X12955475Y-13404850D02*
X12955475Y-13709650D01*
X12803075Y-13557250D02*
X13107875Y-13557250D01*
X13114225Y-7435850D02*
X13114225Y-7740650D01*
X12961825Y-7588250D02*
X13266625Y-7588250D01*
X13431725Y-9594850D02*
X13431725Y-9899650D01*
X13279325Y-9747250D02*
X13584125Y-9747250D01*
X13590475Y-13150850D02*
X13590475Y-13455650D01*
X13438075Y-13303250D02*
X13742875Y-13303250D01*
X13903100Y-11499850D02*
X13903100Y-11804650D01*
X13750700Y-11652250D02*
X14055500Y-11652250D01*
X14066725Y-9340850D02*
X14066725Y-9645650D01*
X13914325Y-9493250D02*
X14219125Y-9493250D01*
X14285801Y-16262350D02*
X14285801Y-16567150D01*
X14133401Y-16414750D02*
X14438201Y-16414750D01*
X14384225Y-7689850D02*
X14384225Y-7994650D01*
X14231825Y-7842250D02*
X14536625Y-7842250D01*
X14538100Y-11245850D02*
X14538100Y-11550650D01*
X14385700Y-11398250D02*
X14690500Y-11398250D01*
X14861730Y-13404850D02*
X14861730Y-13709650D01*
X14709330Y-13557250D02*
X15014130Y-13557250D01*
X15019225Y-7435850D02*
X15019225Y-7740650D01*
X14866825Y-7588250D02*
X15171625Y-7588250D01*
X15336725Y-9594850D02*
X15336725Y-9899650D01*
X15184325Y-9747250D02*
X15489125Y-9747250D01*
X15496730Y-13150850D02*
X15496730Y-13455650D01*
X15344330Y-13303250D02*
X15649130Y-13303250D01*
X15808100Y-11499850D02*
X15808100Y-11804650D01*
X15655700Y-11652250D02*
X15960500Y-11652250D01*
X15971725Y-9340850D02*
X15971725Y-9645650D01*
X15819325Y-9493250D02*
X16124125Y-9493250D01*
X16292400Y-7689850D02*
X16292400Y-7994650D01*
X16140000Y-7842250D02*
X16444800Y-7842250D01*
X16443100Y-11245850D02*
X16443100Y-11550650D01*
X16290700Y-11398250D02*
X16595500Y-11398250D01*
X16766730Y-13404850D02*
X16766730Y-13709650D01*
X16614330Y-13557250D02*
X16919131Y-13557250D01*
X16927400Y-7435850D02*
X16927400Y-7740650D01*
X16775000Y-7588250D02*
X17079800Y-7588250D01*
X17241725Y-9594850D02*
X17241725Y-9899650D01*
X17089325Y-9747250D02*
X17394125Y-9747250D01*
X17401731Y-13150850D02*
X17401731Y-13455650D01*
X17249331Y-13303250D02*
X17554131Y-13303250D01*
X17716500Y-11499850D02*
X17716500Y-11804650D01*
X17564100Y-11652250D02*
X17868900Y-11652250D01*
X17876725Y-9340850D02*
X17876725Y-9645650D01*
X17724325Y-9493250D02*
X18029125Y-9493250D01*
X18194225Y-7689850D02*
X18194225Y-7994650D01*
X18041825Y-7842250D02*
X18346625Y-7842250D01*
X18351500Y-11245850D02*
X18351500Y-11550650D01*
X18199100Y-11398250D02*
X18503900Y-11398250D01*
X18671731Y-13404850D02*
X18671731Y-13709650D01*
X18519331Y-13557250D02*
X18824131Y-13557250D01*
X18829225Y-7435850D02*
X18829225Y-7740650D01*
X18676825Y-7588250D02*
X18981625Y-7588250D01*
X18908601Y-15309850D02*
X18908601Y-15614650D01*
X18756201Y-15462250D02*
X19061001Y-15462250D01*
X19146725Y-9594850D02*
X19146725Y-9899650D01*
X18994325Y-9747250D02*
X19299125Y-9747250D01*
X19306731Y-13150850D02*
X19306731Y-13455650D01*
X19154331Y-13303250D02*
X19459131Y-13303250D01*
X19543601Y-15055850D02*
X19543601Y-15360650D01*
X19391201Y-15208250D02*
X19696001Y-15208250D01*
X19621500Y-11499850D02*
X19621500Y-11804650D01*
X19469100Y-11652250D02*
X19773900Y-11652250D01*
X19781725Y-9340850D02*
X19781725Y-9645650D01*
X19629325Y-9493250D02*
X19934125Y-9493250D01*
X20099225Y-7689850D02*
X20099225Y-7994650D01*
X19946825Y-7842250D02*
X20251625Y-7842250D01*
X20256500Y-11245850D02*
X20256500Y-11550650D01*
X20104100Y-11398250D02*
X20408900Y-11398250D01*
X20581381Y-13404850D02*
X20581381Y-13709650D01*
X20428981Y-13557250D02*
X20733781Y-13557250D01*
X20734225Y-7435850D02*
X20734225Y-7740650D01*
X20581825Y-7588250D02*
X20886625Y-7588250D01*
X21049171Y-9594850D02*
X21049171Y-9899650D01*
X20896771Y-9747250D02*
X21201571Y-9747250D01*
X21216381Y-13150850D02*
X21216381Y-13455650D01*
X21063981Y-13303250D02*
X21368781Y-13303250D01*
X21526500Y-11499850D02*
X21526500Y-11804650D01*
X21374100Y-11652250D02*
X21678900Y-11652250D01*
X21684171Y-9340850D02*
X21684171Y-9645650D01*
X21531771Y-9493250D02*
X21836571Y-9493250D01*
X22004225Y-7689850D02*
X22004225Y-7994650D01*
X21851825Y-7842250D02*
X22156625Y-7842250D01*
X22161500Y-11245850D02*
X22161500Y-11550650D01*
X22009100Y-11398250D02*
X22313900Y-11398250D01*
X22481730Y-13404850D02*
X22481730Y-13709650D01*
X22329331Y-13557250D02*
X22634130Y-13557250D01*
X22639225Y-7435850D02*
X22639225Y-7740650D01*
X22486825Y-7588250D02*
X22791625Y-7588250D01*
X22956725Y-9594850D02*
X22956725Y-9899650D01*
X22804325Y-9747250D02*
X23109125Y-9747250D01*
X23116730Y-13150850D02*
X23116730Y-13455650D01*
X22964330Y-13303250D02*
X23269130Y-13303250D01*
X23431500Y-11499850D02*
X23431500Y-11804650D01*
X23279100Y-11652250D02*
X23583900Y-11652250D01*
X23591725Y-9340850D02*
X23591725Y-9645650D01*
X23439325Y-9493250D02*
X23744125Y-9493250D01*
X23909225Y-7689850D02*
X23909225Y-7994650D01*
X23756825Y-7842250D02*
X24061625Y-7842250D01*
X24066500Y-11245850D02*
X24066500Y-11550650D01*
X23914100Y-11398250D02*
X24218900Y-11398250D01*
X24293401Y-16262350D02*
X24293401Y-16567150D01*
X24141001Y-16414750D02*
X24445801Y-16414750D01*
X24386730Y-13404850D02*
X24386730Y-13709650D01*
X24234330Y-13557250D02*
X24539130Y-13557250D01*
X24544225Y-7435850D02*
X24544225Y-7740650D01*
X24391825Y-7588250D02*
X24696625Y-7588250D01*
X24861725Y-9594850D02*
X24861725Y-9899650D01*
X24709325Y-9747250D02*
X25014125Y-9747250D01*
X25021730Y-13150850D02*
X25021730Y-13455650D01*
X24869330Y-13303250D02*
X25174130Y-13303250D01*
X25336500Y-11499850D02*
X25336500Y-11804650D01*
X25184100Y-11652250D02*
X25488900Y-11652250D01*
X25496725Y-9340850D02*
X25496725Y-9645650D01*
X25344325Y-9493250D02*
X25649125Y-9493250D01*
X25814225Y-7689850D02*
X25814225Y-7994650D01*
X25661825Y-7842250D02*
X25966625Y-7842250D01*
X25971500Y-11245850D02*
X25971500Y-11550650D01*
X25819100Y-11398250D02*
X26123900Y-11398250D01*
X26052350Y-15309850D02*
X26052350Y-15614650D01*
X25899950Y-15462250D02*
X26204750Y-15462250D01*
X26291730Y-13404850D02*
X26291730Y-13709650D01*
X26139330Y-13557250D02*
X26444130Y-13557250D01*
X26449225Y-7435850D02*
X26449225Y-7740650D01*
X26296825Y-7588250D02*
X26601625Y-7588250D01*
X26687350Y-15055850D02*
X26687350Y-15360650D01*
X26534950Y-15208250D02*
X26839750Y-15208250D01*
X26766725Y-9594850D02*
X26766725Y-9899650D01*
X26614325Y-9747250D02*
X26919125Y-9747250D01*
X26926730Y-13150850D02*
X26926730Y-13455650D01*
X26774330Y-13303250D02*
X27079130Y-13303250D01*
X27241500Y-11499850D02*
X27241500Y-11804650D01*
X27089100Y-11652250D02*
X27393900Y-11652250D01*
X27401725Y-9340850D02*
X27401725Y-9645650D01*
X27249325Y-9493250D02*
X27554125Y-9493250D01*
X27719225Y-7689850D02*
X27719225Y-7994650D01*
X27566825Y-7842250D02*
X27871625Y-7842250D01*
X27876500Y-11245850D02*
X27876500Y-11550650D01*
X27724100Y-11398250D02*
X28028900Y-11398250D01*
X28201380Y-13404850D02*
X28201380Y-13709650D01*
X28048980Y-13557250D02*
X28353780Y-13557250D01*
X28354225Y-7435850D02*
X28354225Y-7740650D01*
X28201825Y-7588250D02*
X28506625Y-7588250D01*
X28433600Y-15309850D02*
X28433600Y-15614650D01*
X28281200Y-15462250D02*
X28586000Y-15462250D01*
X28670250Y-9594850D02*
X28670250Y-9899650D01*
X28517850Y-9747250D02*
X28822650Y-9747250D01*
X28836380Y-13150850D02*
X28836380Y-13455650D01*
X28683980Y-13303250D02*
X28988780Y-13303250D01*
X29068600Y-15055850D02*
X29068600Y-15360650D01*
X28916200Y-15208250D02*
X29221000Y-15208250D01*
X29146500Y-11499850D02*
X29146500Y-11804650D01*
X28994100Y-11652250D02*
X29298900Y-11652250D01*
X29305250Y-9340850D02*
X29305250Y-9645650D01*
X29152850Y-9493250D02*
X29457650Y-9493250D01*
X29624225Y-7689850D02*
X29624225Y-7994650D01*
X29471825Y-7842250D02*
X29776625Y-7842250D01*
X29781500Y-11245850D02*
X29781500Y-11550650D01*
X29629100Y-11398250D02*
X29933900Y-11398250D01*
X30259225Y-7435850D02*
X30259225Y-7740650D01*
X30106825Y-7588250D02*
X30411625Y-7588250D01*
X30575250Y-9594850D02*
X30575250Y-9899650D01*
X30422850Y-9747250D02*
X30727650Y-9747250D01*
X30820755Y-13404850D02*
X30820755Y-13709650D01*
X30668355Y-13557250D02*
X30973155Y-13557250D01*
X31210250Y-9340850D02*
X31210250Y-9645650D01*
X31057850Y-9493250D02*
X31362650Y-9493250D01*
X31429325Y-12452350D02*
X31429325Y-12757150D01*
X31276925Y-12604750D02*
X31581725Y-12604750D01*
X31455755Y-13150850D02*
X31455755Y-13455650D01*
X31303355Y-13303250D02*
X31608155Y-13303250D01*
X31527750Y-15309850D02*
X31527750Y-15614650D01*
X31375350Y-15462250D02*
X31680150Y-15462250D01*
X31668925Y-8642350D02*
X31668925Y-8947150D01*
X31516525Y-8794750D02*
X31821325Y-8794750D01*
X32162750Y-15055850D02*
X32162750Y-15360650D01*
X32010350Y-15208250D02*
X32315150Y-15208250D01*
X32242125Y-11499850D02*
X32242125Y-11804650D01*
X32089725Y-11652250D02*
X32394525Y-11652250D01*
X32481725Y-7689850D02*
X32481725Y-7994650D01*
X32329325Y-7842250D02*
X32634125Y-7842250D01*
X32877125Y-11245850D02*
X32877125Y-11550650D01*
X32724725Y-11398250D02*
X33029525Y-11398250D01*
X32956500Y-9594850D02*
X32956500Y-9899650D01*
X32804100Y-9747250D02*
X33108900Y-9747250D01*
X33116725Y-7435850D02*
X33116725Y-7740650D01*
X32964325Y-7588250D02*
X33269125Y-7588250D01*
X33432750Y-13404850D02*
X33432750Y-13709650D01*
X33280350Y-13557250D02*
X33585150Y-13557250D01*
X33432750Y-15309850D02*
X33432750Y-15614650D01*
X33280350Y-15462250D02*
X33585150Y-15462250D01*
X33591500Y-9340850D02*
X33591500Y-9645650D01*
X33439100Y-9493250D02*
X33743900Y-9493250D01*
X33816925Y-12452350D02*
X33816925Y-12757150D01*
X33664525Y-12604750D02*
X33969325Y-12604750D01*
X34056525Y-8642350D02*
X34056525Y-8947150D01*
X33904125Y-8794750D02*
X34208925Y-8794750D01*
X34067750Y-13150850D02*
X34067750Y-13455650D01*
X33915350Y-13303250D02*
X34220150Y-13303250D01*
X34067750Y-15055850D02*
X34067750Y-15360650D01*
X33915350Y-15208250D02*
X34220150Y-15208250D01*
X35337750Y-9594850D02*
X35337750Y-9899650D01*
X35185350Y-9747250D02*
X35490150Y-9747250D01*
X35337750Y-11499850D02*
X35337750Y-11804650D01*
X35185350Y-11652250D02*
X35490150Y-11652250D01*
X35337750Y-13404850D02*
X35337750Y-13709650D01*
X35185350Y-13557250D02*
X35490150Y-13557250D01*
X35337750Y-15309850D02*
X35337750Y-15614650D01*
X35185350Y-15462250D02*
X35490150Y-15462250D01*
X35972750Y-9340850D02*
X35972750Y-9645650D01*
X35820350Y-9493250D02*
X36125150Y-9493250D01*
X35972750Y-11245850D02*
X35972750Y-11550650D01*
X35820350Y-11398250D02*
X36125150Y-11398250D01*
X35972750Y-13150850D02*
X35972750Y-13455650D01*
X35820350Y-13303250D02*
X36125150Y-13303250D01*
X35972750Y-15055850D02*
X35972750Y-15360650D01*
X35820350Y-15208250D02*
X36125150Y-15208250D01*
D15*
X7283041Y-13126741D02*
X7283041Y-12844759D01*
X7001059Y-12844759D01*
X7001059Y-13126741D01*
X7283041Y-13126741D01*
X7286216Y-8237241D02*
X7286216Y-7955259D01*
X7004234Y-7955259D01*
X7004234Y-8237241D01*
X7286216Y-8237241D01*
X7524341Y-15857241D02*
X7524341Y-15575259D01*
X7242359Y-15575259D01*
X7242359Y-15857241D01*
X7524341Y-15857241D01*
X7762466Y-10142241D02*
X7762466Y-9860259D01*
X7480484Y-9860259D01*
X7480484Y-10142241D01*
X7762466Y-10142241D01*
X8000591Y-12047241D02*
X8000591Y-11765259D01*
X7718609Y-11765259D01*
X7718609Y-12047241D01*
X8000591Y-12047241D01*
X8476841Y-13952241D02*
X8476841Y-13670259D01*
X8194859Y-13670259D01*
X8194859Y-13952241D01*
X8476841Y-13952241D01*
X9191216Y-8237241D02*
X9191216Y-7955259D01*
X8909234Y-7955259D01*
X8909234Y-8237241D01*
X9191216Y-8237241D01*
X9670641Y-13126741D02*
X9670641Y-12844759D01*
X9388659Y-12844759D01*
X9388659Y-13126741D01*
X9670641Y-13126741D01*
X9905591Y-15857241D02*
X9905591Y-15575259D01*
X9623609Y-15575259D01*
X9623609Y-15857241D01*
X9905591Y-15857241D01*
X10144091Y-10142241D02*
X10144091Y-9860259D01*
X9862109Y-9860259D01*
X9862109Y-10142241D01*
X10144091Y-10142241D01*
X10619966Y-12047241D02*
X10619966Y-11765259D01*
X10337984Y-11765259D01*
X10337984Y-12047241D01*
X10619966Y-12047241D01*
X11096216Y-8237241D02*
X11096216Y-7955259D01*
X10814234Y-7955259D01*
X10814234Y-8237241D01*
X11096216Y-8237241D01*
X11572466Y-13952241D02*
X11572466Y-13670259D01*
X11290484Y-13670259D01*
X11290484Y-13952241D01*
X11572466Y-13952241D01*
X12048716Y-10142241D02*
X12048716Y-9860259D01*
X11766734Y-9860259D01*
X11766734Y-10142241D01*
X12048716Y-10142241D01*
X12286841Y-15857241D02*
X12286841Y-15575259D01*
X12004859Y-15575259D01*
X12004859Y-15857241D01*
X12286841Y-15857241D01*
X12520091Y-12047241D02*
X12520091Y-11765259D01*
X12238109Y-11765259D01*
X12238109Y-12047241D01*
X12520091Y-12047241D01*
X13001216Y-8237241D02*
X13001216Y-7955259D01*
X12719234Y-7955259D01*
X12719234Y-8237241D01*
X13001216Y-8237241D01*
X13477466Y-13952241D02*
X13477466Y-13670259D01*
X13195484Y-13670259D01*
X13195484Y-13952241D01*
X13477466Y-13952241D01*
X13953716Y-10142241D02*
X13953716Y-9860259D01*
X13671734Y-9860259D01*
X13671734Y-10142241D01*
X13953716Y-10142241D01*
X14425091Y-12047241D02*
X14425091Y-11765259D01*
X14143109Y-11765259D01*
X14143109Y-12047241D01*
X14425091Y-12047241D01*
X14426792Y-15031741D02*
X14426792Y-14749759D01*
X14144809Y-14749759D01*
X14144809Y-15031741D01*
X14426792Y-15031741D01*
X14906216Y-8237241D02*
X14906216Y-7955259D01*
X14624234Y-7955259D01*
X14624234Y-8237241D01*
X14906216Y-8237241D01*
X15383722Y-13952241D02*
X15383722Y-13670259D01*
X15101739Y-13670259D01*
X15101739Y-13952241D01*
X15383722Y-13952241D01*
X15858716Y-10142241D02*
X15858716Y-9860259D01*
X15576734Y-9860259D01*
X15576734Y-10142241D01*
X15858716Y-10142241D01*
X16330091Y-12047241D02*
X16330091Y-11765259D01*
X16048109Y-11765259D01*
X16048109Y-12047241D01*
X16330091Y-12047241D01*
X16814391Y-8237241D02*
X16814391Y-7955259D01*
X16532409Y-7955259D01*
X16532409Y-8237241D01*
X16814391Y-8237241D01*
X17288722Y-13952241D02*
X17288722Y-13670259D01*
X17006739Y-13670259D01*
X17006739Y-13952241D01*
X17288722Y-13952241D01*
X17763716Y-10142241D02*
X17763716Y-9860259D01*
X17481734Y-9860259D01*
X17481734Y-10142241D01*
X17763716Y-10142241D01*
X18238491Y-12047241D02*
X18238491Y-11765259D01*
X17956509Y-11765259D01*
X17956509Y-12047241D01*
X18238491Y-12047241D01*
X18716216Y-8237241D02*
X18716216Y-7955259D01*
X18434234Y-7955259D01*
X18434234Y-8237241D01*
X18716216Y-8237241D01*
X19193722Y-13952241D02*
X19193722Y-13670259D01*
X18911739Y-13670259D01*
X18911739Y-13952241D01*
X19193722Y-13952241D01*
X19430592Y-15857241D02*
X19430592Y-15575259D01*
X19148609Y-15575259D01*
X19148609Y-15857241D01*
X19430592Y-15857241D01*
X19668716Y-10142241D02*
X19668716Y-9860259D01*
X19386734Y-9860259D01*
X19386734Y-10142241D01*
X19668716Y-10142241D01*
X20143491Y-12047241D02*
X20143491Y-11765259D01*
X19861509Y-11765259D01*
X19861509Y-12047241D01*
X20143491Y-12047241D01*
X20621216Y-8237241D02*
X20621216Y-7955259D01*
X20339234Y-7955259D01*
X20339234Y-8237241D01*
X20621216Y-8237241D01*
X21103372Y-13952241D02*
X21103372Y-13670259D01*
X20821389Y-13670259D01*
X20821389Y-13952241D01*
X21103372Y-13952241D01*
X21571162Y-10142241D02*
X21571162Y-9860259D01*
X21289180Y-9860259D01*
X21289180Y-10142241D01*
X21571162Y-10142241D01*
X22048491Y-12047241D02*
X22048491Y-11765259D01*
X21766509Y-11765259D01*
X21766509Y-12047241D01*
X22048491Y-12047241D01*
X22526216Y-8237241D02*
X22526216Y-7955259D01*
X22244234Y-7955259D01*
X22244234Y-8237241D01*
X22526216Y-8237241D01*
X23003722Y-13952241D02*
X23003722Y-13670259D01*
X22721739Y-13670259D01*
X22721739Y-13952241D01*
X23003722Y-13952241D01*
X23478716Y-10142241D02*
X23478716Y-9860259D01*
X23196734Y-9860259D01*
X23196734Y-10142241D01*
X23478716Y-10142241D01*
X23953491Y-12047241D02*
X23953491Y-11765259D01*
X23671509Y-11765259D01*
X23671509Y-12047241D01*
X23953491Y-12047241D01*
X24431216Y-8237241D02*
X24431216Y-7955259D01*
X24149234Y-7955259D01*
X24149234Y-8237241D01*
X24431216Y-8237241D01*
X24434392Y-15031741D02*
X24434392Y-14749759D01*
X24152409Y-14749759D01*
X24152409Y-15031741D01*
X24434392Y-15031741D01*
X24908722Y-13952241D02*
X24908722Y-13670259D01*
X24626739Y-13670259D01*
X24626739Y-13952241D01*
X24908722Y-13952241D01*
X25383716Y-10142241D02*
X25383716Y-9860259D01*
X25101734Y-9860259D01*
X25101734Y-10142241D01*
X25383716Y-10142241D01*
X25858491Y-12047241D02*
X25858491Y-11765259D01*
X25576509Y-11765259D01*
X25576509Y-12047241D01*
X25858491Y-12047241D01*
X26336216Y-8237241D02*
X26336216Y-7955259D01*
X26054234Y-7955259D01*
X26054234Y-8237241D01*
X26336216Y-8237241D01*
X26574341Y-15857241D02*
X26574341Y-15575259D01*
X26292359Y-15575259D01*
X26292359Y-15857241D01*
X26574341Y-15857241D01*
X26813722Y-13952241D02*
X26813722Y-13670259D01*
X26531739Y-13670259D01*
X26531739Y-13952241D01*
X26813722Y-13952241D01*
X27288716Y-10142241D02*
X27288716Y-9860259D01*
X27006734Y-9860259D01*
X27006734Y-10142241D01*
X27288716Y-10142241D01*
X27763491Y-12047241D02*
X27763491Y-11765259D01*
X27481509Y-11765259D01*
X27481509Y-12047241D01*
X27763491Y-12047241D01*
X28241216Y-8237241D02*
X28241216Y-7955259D01*
X27959234Y-7955259D01*
X27959234Y-8237241D01*
X28241216Y-8237241D01*
X28723372Y-13952241D02*
X28723372Y-13670259D01*
X28441389Y-13670259D01*
X28441389Y-13952241D01*
X28723372Y-13952241D01*
X28955591Y-15857241D02*
X28955591Y-15575259D01*
X28673609Y-15575259D01*
X28673609Y-15857241D01*
X28955591Y-15857241D01*
X29192241Y-10142241D02*
X29192241Y-9860259D01*
X28910259Y-9860259D01*
X28910259Y-10142241D01*
X29192241Y-10142241D01*
X29668491Y-12047241D02*
X29668491Y-11765259D01*
X29386509Y-11765259D01*
X29386509Y-12047241D01*
X29668491Y-12047241D01*
X30146216Y-8237241D02*
X30146216Y-7955259D01*
X29864234Y-7955259D01*
X29864234Y-8237241D01*
X30146216Y-8237241D01*
X31097241Y-10142241D02*
X31097241Y-9860259D01*
X30815259Y-9860259D01*
X30815259Y-10142241D01*
X31097241Y-10142241D01*
X31342747Y-13952241D02*
X31342747Y-13670259D01*
X31060764Y-13670259D01*
X31060764Y-13952241D01*
X31342747Y-13952241D01*
X31570316Y-11221741D02*
X31570316Y-10939759D01*
X31288334Y-10939759D01*
X31288334Y-11221741D01*
X31570316Y-11221741D01*
X31809916Y-7411741D02*
X31809916Y-7129759D01*
X31527934Y-7129759D01*
X31527934Y-7411741D01*
X31809916Y-7411741D01*
X32049741Y-15857241D02*
X32049741Y-15575259D01*
X31767759Y-15575259D01*
X31767759Y-15857241D01*
X32049741Y-15857241D01*
X32764116Y-12047241D02*
X32764116Y-11765259D01*
X32482134Y-11765259D01*
X32482134Y-12047241D01*
X32764116Y-12047241D01*
X33003716Y-8237241D02*
X33003716Y-7955259D01*
X32721734Y-7955259D01*
X32721734Y-8237241D01*
X33003716Y-8237241D01*
X33478491Y-10142241D02*
X33478491Y-9860259D01*
X33196509Y-9860259D01*
X33196509Y-10142241D01*
X33478491Y-10142241D01*
X33954741Y-13952241D02*
X33954741Y-13670259D01*
X33672759Y-13670259D01*
X33672759Y-13952241D01*
X33954741Y-13952241D01*
X33954741Y-15857241D02*
X33954741Y-15575259D01*
X33672759Y-15575259D01*
X33672759Y-15857241D01*
X33954741Y-15857241D01*
X33957916Y-11221741D02*
X33957916Y-10939759D01*
X33675934Y-10939759D01*
X33675934Y-11221741D01*
X33957916Y-11221741D01*
X34197516Y-7411741D02*
X34197516Y-7129759D01*
X33915534Y-7129759D01*
X33915534Y-7411741D01*
X34197516Y-7411741D01*
X35859741Y-10142241D02*
X35859741Y-9860259D01*
X35577759Y-9860259D01*
X35577759Y-10142241D01*
X35859741Y-10142241D01*
X35859741Y-12047241D02*
X35859741Y-11765259D01*
X35577759Y-11765259D01*
X35577759Y-12047241D01*
X35859741Y-12047241D01*
X35859741Y-13952241D02*
X35859741Y-13670259D01*
X35577759Y-13670259D01*
X35577759Y-13952241D01*
X35859741Y-13952241D01*
X35859741Y-15857241D02*
X35859741Y-15575259D01*
X35577759Y-15575259D01*
X35577759Y-15857241D01*
X35859741Y-15857241D01*
D11*
X6435147Y-16721462D02*
X6435147Y-16521462D01*
X6482766Y-16521462D01*
X6511338Y-16530986D01*
X6530385Y-16550034D01*
X6539909Y-16569082D01*
X6549433Y-16607177D01*
X6549433Y-16635748D01*
X6539909Y-16673843D01*
X6530385Y-16692891D01*
X6511338Y-16711939D01*
X6482766Y-16721462D01*
X6435147Y-16721462D01*
X6635147Y-16721462D02*
X6635147Y-16588129D01*
X6635147Y-16626224D02*
X6644671Y-16607177D01*
X6654195Y-16597653D01*
X6673242Y-16588129D01*
X6692290Y-16588129D01*
X6758957Y-16721462D02*
X6758957Y-16588129D01*
X6758957Y-16521462D02*
X6749433Y-16530986D01*
X6758957Y-16540510D01*
X6768481Y-16530986D01*
X6758957Y-16521462D01*
X6758957Y-16540510D01*
X6882766Y-16721462D02*
X6863719Y-16711939D01*
X6854195Y-16692891D01*
X6854195Y-16521462D01*
X6987528Y-16721462D02*
X6968481Y-16711939D01*
X6958957Y-16692891D01*
X6958957Y-16521462D01*
X7216100Y-16721462D02*
X7216100Y-16521462D01*
X7282766Y-16664320D01*
X7349433Y-16521462D01*
X7349433Y-16721462D01*
X7530385Y-16721462D02*
X7530385Y-16616701D01*
X7520862Y-16597653D01*
X7501814Y-16588129D01*
X7463719Y-16588129D01*
X7444671Y-16597653D01*
X7530385Y-16711939D02*
X7511338Y-16721462D01*
X7463719Y-16721462D01*
X7444671Y-16711939D01*
X7435147Y-16692891D01*
X7435147Y-16673843D01*
X7444671Y-16654796D01*
X7463719Y-16645272D01*
X7511338Y-16645272D01*
X7530385Y-16635748D01*
X7625623Y-16588129D02*
X7625623Y-16788129D01*
X7625623Y-16597653D02*
X7644671Y-16588129D01*
X7682766Y-16588129D01*
X7701814Y-16597653D01*
X7711338Y-16607177D01*
X7720862Y-16626224D01*
X7720862Y-16683367D01*
X7711338Y-16702415D01*
X7701814Y-16711939D01*
X7682766Y-16721462D01*
X7644671Y-16721462D01*
X7625623Y-16711939D01*
X7806576Y-16702415D02*
X7816100Y-16711939D01*
X7806576Y-16721462D01*
X7797052Y-16711939D01*
X7806576Y-16702415D01*
X7806576Y-16721462D01*
X7806576Y-16597653D02*
X7816100Y-16607177D01*
X7806576Y-16616701D01*
X7797052Y-16607177D01*
X7806576Y-16597653D01*
X7806576Y-16616701D01*
D12*
X6112528Y-17018486D02*
X6177528Y-17083486D01*
X6177528Y-17018486D02*
X6112528Y-17083486D01*
D11*
X6473242Y-16941463D02*
X6492290Y-16941463D01*
X6511338Y-16950986D01*
X6520862Y-16960510D01*
X6530385Y-16979558D01*
X6539909Y-17017653D01*
X6539909Y-17065272D01*
X6530385Y-17103367D01*
X6520862Y-17122415D01*
X6511338Y-17131939D01*
X6492290Y-17141463D01*
X6473242Y-17141463D01*
X6454195Y-17131939D01*
X6444671Y-17122415D01*
X6435147Y-17103367D01*
X6425623Y-17065272D01*
X6425623Y-17017653D01*
X6435147Y-16979558D01*
X6444671Y-16960510D01*
X6454195Y-16950986D01*
X6473242Y-16941463D01*
X6625623Y-17122415D02*
X6635147Y-17131939D01*
X6625623Y-17141463D01*
X6616100Y-17131939D01*
X6625623Y-17122415D01*
X6625623Y-17141463D01*
X6806576Y-16941463D02*
X6768481Y-16941463D01*
X6749433Y-16950986D01*
X6739909Y-16960510D01*
X6720862Y-16989082D01*
X6711338Y-17027177D01*
X6711338Y-17103367D01*
X6720862Y-17122415D01*
X6730385Y-17131939D01*
X6749433Y-17141463D01*
X6787528Y-17141463D01*
X6806576Y-17131939D01*
X6816100Y-17122415D01*
X6825623Y-17103367D01*
X6825623Y-17055748D01*
X6816100Y-17036701D01*
X6806576Y-17027177D01*
X6787528Y-17017653D01*
X6749433Y-17017653D01*
X6730385Y-17027177D01*
X6720862Y-17036701D01*
X6711338Y-17055748D01*
X7006576Y-16941463D02*
X6911338Y-16941463D01*
X6901814Y-17036701D01*
X6911338Y-17027177D01*
X6930385Y-17017653D01*
X6978004Y-17017653D01*
X6997052Y-17027177D01*
X7006576Y-17036701D01*
X7016100Y-17055748D01*
X7016100Y-17103367D01*
X7006576Y-17122415D01*
X6997052Y-17131939D01*
X6978004Y-17141463D01*
X6930385Y-17141463D01*
X6911338Y-17131939D01*
X6901814Y-17122415D01*
X7139909Y-16941463D02*
X7158957Y-16941463D01*
X7178004Y-16950986D01*
X7187528Y-16960510D01*
X7197052Y-16979558D01*
X7206576Y-17017653D01*
X7206576Y-17065272D01*
X7197052Y-17103367D01*
X7187528Y-17122415D01*
X7178004Y-17131939D01*
X7158957Y-17141463D01*
X7139909Y-17141463D01*
X7120862Y-17131939D01*
X7111338Y-17122415D01*
X7101814Y-17103367D01*
X7092290Y-17065272D01*
X7092290Y-17017653D01*
X7101814Y-16979558D01*
X7111338Y-16960510D01*
X7120862Y-16950986D01*
X7139909Y-16941463D01*
X7292290Y-17141463D02*
X7292290Y-17008129D01*
X7292290Y-17027177D02*
X7301814Y-17017653D01*
X7320862Y-17008129D01*
X7349433Y-17008129D01*
X7368481Y-17017653D01*
X7378004Y-17036701D01*
X7378004Y-17141463D01*
X7378004Y-17036701D02*
X7387528Y-17017653D01*
X7406576Y-17008129D01*
X7435147Y-17008129D01*
X7454195Y-17017653D01*
X7463719Y-17036701D01*
X7463719Y-17141463D01*
X7558957Y-17141463D02*
X7558957Y-17008129D01*
X7558957Y-17027177D02*
X7568481Y-17017653D01*
X7587528Y-17008129D01*
X7616100Y-17008129D01*
X7635147Y-17017653D01*
X7644671Y-17036701D01*
X7644671Y-17141463D01*
X7644671Y-17036701D02*
X7654195Y-17017653D01*
X7673242Y-17008129D01*
X7701814Y-17008129D01*
X7720862Y-17017653D01*
X7730385Y-17036701D01*
X7730385Y-17141463D01*
X8120862Y-16931939D02*
X7949433Y-17189082D01*
X8378004Y-16941463D02*
X8397052Y-16941463D01*
X8416100Y-16950986D01*
X8425624Y-16960510D01*
X8435147Y-16979558D01*
X8444671Y-17017653D01*
X8444671Y-17065272D01*
X8435147Y-17103367D01*
X8425624Y-17122415D01*
X8416100Y-17131939D01*
X8397052Y-17141463D01*
X8378004Y-17141463D01*
X8358957Y-17131939D01*
X8349433Y-17122415D01*
X8339909Y-17103367D01*
X8330385Y-17065272D01*
X8330385Y-17017653D01*
X8339909Y-16979558D01*
X8349433Y-16960510D01*
X8358957Y-16950986D01*
X8378004Y-16941463D01*
X8530385Y-17122415D02*
X8539909Y-17131939D01*
X8530385Y-17141463D01*
X8520862Y-17131939D01*
X8530385Y-17122415D01*
X8530385Y-17141463D01*
X8663719Y-16941463D02*
X8682766Y-16941463D01*
X8701814Y-16950986D01*
X8711338Y-16960510D01*
X8720862Y-16979558D01*
X8730385Y-17017653D01*
X8730385Y-17065272D01*
X8720862Y-17103367D01*
X8711338Y-17122415D01*
X8701814Y-17131939D01*
X8682766Y-17141463D01*
X8663719Y-17141463D01*
X8644671Y-17131939D01*
X8635147Y-17122415D01*
X8625624Y-17103367D01*
X8616100Y-17065272D01*
X8616100Y-17017653D01*
X8625624Y-16979558D01*
X8635147Y-16960510D01*
X8644671Y-16950986D01*
X8663719Y-16941463D01*
X8806576Y-16960510D02*
X8816100Y-16950986D01*
X8835147Y-16941463D01*
X8882766Y-16941463D01*
X8901814Y-16950986D01*
X8911338Y-16960510D01*
X8920862Y-16979558D01*
X8920862Y-16998605D01*
X8911338Y-17027177D01*
X8797052Y-17141463D01*
X8920862Y-17141463D01*
X9101814Y-16941463D02*
X9006576Y-16941463D01*
X8997052Y-17036701D01*
X9006576Y-17027177D01*
X9025624Y-17017653D01*
X9073243Y-17017653D01*
X9092290Y-17027177D01*
X9101814Y-17036701D01*
X9111338Y-17055748D01*
X9111338Y-17103367D01*
X9101814Y-17122415D01*
X9092290Y-17131939D01*
X9073243Y-17141463D01*
X9025624Y-17141463D01*
X9006576Y-17131939D01*
X8997052Y-17122415D01*
X9282766Y-16941463D02*
X9244671Y-16941463D01*
X9225624Y-16950986D01*
X9216100Y-16960510D01*
X9197052Y-16989082D01*
X9187528Y-17027177D01*
X9187528Y-17103367D01*
X9197052Y-17122415D01*
X9206576Y-17131939D01*
X9225624Y-17141463D01*
X9263719Y-17141463D01*
X9282766Y-17131939D01*
X9292290Y-17122415D01*
X9301814Y-17103367D01*
X9301814Y-17055748D01*
X9292290Y-17036701D01*
X9282766Y-17027177D01*
X9263719Y-17017653D01*
X9225624Y-17017653D01*
X9206576Y-17027177D01*
X9197052Y-17036701D01*
X9187528Y-17055748D01*
X9378004Y-16941463D02*
X9378004Y-16979558D01*
X9454195Y-16941463D02*
X9454195Y-16979558D01*
X9749433Y-17217653D02*
X9739909Y-17208129D01*
X9720862Y-17179558D01*
X9711338Y-17160510D01*
X9701814Y-17131939D01*
X9692290Y-17084320D01*
X9692290Y-17046224D01*
X9701814Y-16998605D01*
X9711338Y-16970034D01*
X9720862Y-16950986D01*
X9739909Y-16922415D01*
X9749433Y-16912891D01*
X9816100Y-16960510D02*
X9825624Y-16950986D01*
X9844671Y-16941463D01*
X9892290Y-16941463D01*
X9911338Y-16950986D01*
X9920862Y-16960510D01*
X9930385Y-16979558D01*
X9930385Y-16998605D01*
X9920862Y-17027177D01*
X9806576Y-17141463D01*
X9930385Y-17141463D01*
X10168481Y-17141463D02*
X10168481Y-16941463D01*
X10254195Y-17141463D02*
X10254195Y-17036701D01*
X10244671Y-17017653D01*
X10225624Y-17008129D01*
X10197052Y-17008129D01*
X10178004Y-17017653D01*
X10168481Y-17027177D01*
X10378004Y-17141463D02*
X10358957Y-17131939D01*
X10349433Y-17122415D01*
X10339909Y-17103367D01*
X10339909Y-17046224D01*
X10349433Y-17027177D01*
X10358957Y-17017653D01*
X10378004Y-17008129D01*
X10406576Y-17008129D01*
X10425624Y-17017653D01*
X10435147Y-17027177D01*
X10444671Y-17046224D01*
X10444671Y-17103367D01*
X10435147Y-17122415D01*
X10425624Y-17131939D01*
X10406576Y-17141463D01*
X10378004Y-17141463D01*
X10558957Y-17141463D02*
X10539909Y-17131939D01*
X10530385Y-17112891D01*
X10530385Y-16941463D01*
X10711338Y-17131939D02*
X10692290Y-17141463D01*
X10654195Y-17141463D01*
X10635147Y-17131939D01*
X10625624Y-17112891D01*
X10625624Y-17036701D01*
X10635147Y-17017653D01*
X10654195Y-17008129D01*
X10692290Y-17008129D01*
X10711338Y-17017653D01*
X10720862Y-17036701D01*
X10720862Y-17055748D01*
X10625624Y-17074796D01*
X10797052Y-17131939D02*
X10816100Y-17141463D01*
X10854195Y-17141463D01*
X10873243Y-17131939D01*
X10882766Y-17112891D01*
X10882766Y-17103367D01*
X10873243Y-17084320D01*
X10854195Y-17074796D01*
X10825624Y-17074796D01*
X10806576Y-17065272D01*
X10797052Y-17046224D01*
X10797052Y-17036701D01*
X10806576Y-17017653D01*
X10825624Y-17008129D01*
X10854195Y-17008129D01*
X10873243Y-17017653D01*
X10949433Y-17217653D02*
X10958957Y-17208129D01*
X10978004Y-17179558D01*
X10987528Y-17160510D01*
X10997052Y-17131939D01*
X11006576Y-17084320D01*
X11006576Y-17046224D01*
X10997052Y-16998605D01*
X10987528Y-16970034D01*
X10978004Y-16950986D01*
X10958957Y-16922415D01*
X10949433Y-16912891D01*
X11311338Y-17217653D02*
X11301814Y-17208129D01*
X11282766Y-17179558D01*
X11273242Y-17160510D01*
X11263719Y-17131939D01*
X11254195Y-17084320D01*
X11254195Y-17046224D01*
X11263719Y-16998605D01*
X11273242Y-16970034D01*
X11282766Y-16950986D01*
X11301814Y-16922415D01*
X11311338Y-16912891D01*
X11387528Y-17008129D02*
X11387528Y-17141463D01*
X11387528Y-17027177D02*
X11397052Y-17017653D01*
X11416100Y-17008129D01*
X11444671Y-17008129D01*
X11463719Y-17017653D01*
X11473242Y-17036701D01*
X11473242Y-17141463D01*
X11597052Y-17141463D02*
X11578004Y-17131939D01*
X11568481Y-17122415D01*
X11558957Y-17103367D01*
X11558957Y-17046224D01*
X11568481Y-17027177D01*
X11578004Y-17017653D01*
X11597052Y-17008129D01*
X11625623Y-17008129D01*
X11644671Y-17017653D01*
X11654195Y-17027177D01*
X11663719Y-17046224D01*
X11663719Y-17103367D01*
X11654195Y-17122415D01*
X11644671Y-17131939D01*
X11625623Y-17141463D01*
X11597052Y-17141463D01*
X11720862Y-17008129D02*
X11797052Y-17008129D01*
X11749433Y-16941463D02*
X11749433Y-17112891D01*
X11758957Y-17131939D01*
X11778004Y-17141463D01*
X11797052Y-17141463D01*
X12016100Y-17008129D02*
X12016100Y-17208129D01*
X12016100Y-17017653D02*
X12035147Y-17008129D01*
X12073242Y-17008129D01*
X12092290Y-17017653D01*
X12101814Y-17027177D01*
X12111338Y-17046224D01*
X12111338Y-17103367D01*
X12101814Y-17122415D01*
X12092290Y-17131939D01*
X12073242Y-17141463D01*
X12035147Y-17141463D01*
X12016100Y-17131939D01*
X12225623Y-17141463D02*
X12206576Y-17131939D01*
X12197052Y-17112891D01*
X12197052Y-16941463D01*
X12387528Y-17141463D02*
X12387528Y-17036701D01*
X12378004Y-17017653D01*
X12358957Y-17008129D01*
X12320862Y-17008129D01*
X12301814Y-17017653D01*
X12387528Y-17131939D02*
X12368481Y-17141463D01*
X12320862Y-17141463D01*
X12301814Y-17131939D01*
X12292290Y-17112891D01*
X12292290Y-17093844D01*
X12301814Y-17074796D01*
X12320862Y-17065272D01*
X12368481Y-17065272D01*
X12387528Y-17055748D01*
X12454195Y-17008129D02*
X12530385Y-17008129D01*
X12482766Y-16941463D02*
X12482766Y-17112891D01*
X12492290Y-17131939D01*
X12511338Y-17141463D01*
X12530385Y-17141463D01*
X12673242Y-17131939D02*
X12654195Y-17141463D01*
X12616100Y-17141463D01*
X12597052Y-17131939D01*
X12587528Y-17112891D01*
X12587528Y-17036701D01*
X12597052Y-17017653D01*
X12616100Y-17008129D01*
X12654195Y-17008129D01*
X12673242Y-17017653D01*
X12682766Y-17036701D01*
X12682766Y-17055748D01*
X12587528Y-17074796D01*
X12854195Y-17141463D02*
X12854195Y-16941463D01*
X12854195Y-17131939D02*
X12835147Y-17141463D01*
X12797052Y-17141463D01*
X12778004Y-17131939D01*
X12768481Y-17122415D01*
X12758957Y-17103367D01*
X12758957Y-17046224D01*
X12768481Y-17027177D01*
X12778004Y-17017653D01*
X12797052Y-17008129D01*
X12835147Y-17008129D01*
X12854195Y-17017653D01*
X12930385Y-17217653D02*
X12939909Y-17208129D01*
X12958957Y-17179558D01*
X12968481Y-17160510D01*
X12978004Y-17131939D01*
X12987528Y-17084320D01*
X12987528Y-17046224D01*
X12978004Y-16998605D01*
X12968481Y-16970034D01*
X12958957Y-16950986D01*
X12939909Y-16922415D01*
X12930385Y-16912891D01*
D13*
X6177528Y-17314986D02*
G75*
G03*
X6177528Y-17314986I-85090J0D01*
G01*
D11*
X6539909Y-17405463D02*
X6425623Y-17405463D01*
X6482766Y-17405463D02*
X6482766Y-17205463D01*
X6463719Y-17234034D01*
X6444671Y-17253082D01*
X6425623Y-17262605D01*
X6625623Y-17386415D02*
X6635147Y-17395939D01*
X6625623Y-17405463D01*
X6616100Y-17395939D01*
X6625623Y-17386415D01*
X6625623Y-17405463D01*
X6701814Y-17205463D02*
X6835147Y-17205463D01*
X6749433Y-17405463D01*
X6949433Y-17205463D02*
X6968481Y-17205463D01*
X6987528Y-17214986D01*
X6997052Y-17224510D01*
X7006576Y-17243558D01*
X7016100Y-17281653D01*
X7016100Y-17329272D01*
X7006576Y-17367367D01*
X6997052Y-17386415D01*
X6987528Y-17395939D01*
X6968481Y-17405463D01*
X6949433Y-17405463D01*
X6930385Y-17395939D01*
X6920862Y-17386415D01*
X6911338Y-17367367D01*
X6901814Y-17329272D01*
X6901814Y-17281653D01*
X6911338Y-17243558D01*
X6920862Y-17224510D01*
X6930385Y-17214986D01*
X6949433Y-17205463D01*
X7092290Y-17224510D02*
X7101814Y-17214986D01*
X7120862Y-17205463D01*
X7168481Y-17205463D01*
X7187528Y-17214986D01*
X7197052Y-17224510D01*
X7206576Y-17243558D01*
X7206576Y-17262605D01*
X7197052Y-17291177D01*
X7082766Y-17405463D01*
X7206576Y-17405463D01*
X7292290Y-17405463D02*
X7292290Y-17272129D01*
X7292290Y-17291177D02*
X7301814Y-17281653D01*
X7320862Y-17272129D01*
X7349433Y-17272129D01*
X7368481Y-17281653D01*
X7378004Y-17300701D01*
X7378004Y-17405463D01*
X7378004Y-17300701D02*
X7387528Y-17281653D01*
X7406576Y-17272129D01*
X7435147Y-17272129D01*
X7454195Y-17281653D01*
X7463719Y-17300701D01*
X7463719Y-17405463D01*
X7558957Y-17405463D02*
X7558957Y-17272129D01*
X7558957Y-17291177D02*
X7568481Y-17281653D01*
X7587528Y-17272129D01*
X7616100Y-17272129D01*
X7635147Y-17281653D01*
X7644671Y-17300701D01*
X7644671Y-17405463D01*
X7644671Y-17300701D02*
X7654195Y-17281653D01*
X7673242Y-17272129D01*
X7701814Y-17272129D01*
X7720862Y-17281653D01*
X7730385Y-17300701D01*
X7730385Y-17405463D01*
X8120862Y-17195939D02*
X7949433Y-17453082D01*
X8378004Y-17205463D02*
X8397052Y-17205463D01*
X8416100Y-17214986D01*
X8425624Y-17224510D01*
X8435147Y-17243558D01*
X8444671Y-17281653D01*
X8444671Y-17329272D01*
X8435147Y-17367367D01*
X8425624Y-17386415D01*
X8416100Y-17395939D01*
X8397052Y-17405463D01*
X8378004Y-17405463D01*
X8358957Y-17395939D01*
X8349433Y-17386415D01*
X8339909Y-17367367D01*
X8330385Y-17329272D01*
X8330385Y-17281653D01*
X8339909Y-17243558D01*
X8349433Y-17224510D01*
X8358957Y-17214986D01*
X8378004Y-17205463D01*
X8530385Y-17386415D02*
X8539909Y-17395939D01*
X8530385Y-17405463D01*
X8520862Y-17395939D01*
X8530385Y-17386415D01*
X8530385Y-17405463D01*
X8663719Y-17205463D02*
X8682766Y-17205463D01*
X8701814Y-17214986D01*
X8711338Y-17224510D01*
X8720862Y-17243558D01*
X8730385Y-17281653D01*
X8730385Y-17329272D01*
X8720862Y-17367367D01*
X8711338Y-17386415D01*
X8701814Y-17395939D01*
X8682766Y-17405463D01*
X8663719Y-17405463D01*
X8644671Y-17395939D01*
X8635147Y-17386415D01*
X8625624Y-17367367D01*
X8616100Y-17329272D01*
X8616100Y-17281653D01*
X8625624Y-17243558D01*
X8635147Y-17224510D01*
X8644671Y-17214986D01*
X8663719Y-17205463D01*
X8901814Y-17205463D02*
X8863719Y-17205463D01*
X8844671Y-17214986D01*
X8835147Y-17224510D01*
X8816100Y-17253082D01*
X8806576Y-17291177D01*
X8806576Y-17367367D01*
X8816100Y-17386415D01*
X8825624Y-17395939D01*
X8844671Y-17405463D01*
X8882766Y-17405463D01*
X8901814Y-17395939D01*
X8911338Y-17386415D01*
X8920862Y-17367367D01*
X8920862Y-17319748D01*
X8911338Y-17300701D01*
X8901814Y-17291177D01*
X8882766Y-17281653D01*
X8844671Y-17281653D01*
X8825624Y-17291177D01*
X8816100Y-17300701D01*
X8806576Y-17319748D01*
X8987528Y-17205463D02*
X9120862Y-17205463D01*
X9035147Y-17405463D01*
X9235147Y-17205463D02*
X9254195Y-17205463D01*
X9273243Y-17214986D01*
X9282766Y-17224510D01*
X9292290Y-17243558D01*
X9301814Y-17281653D01*
X9301814Y-17329272D01*
X9292290Y-17367367D01*
X9282766Y-17386415D01*
X9273243Y-17395939D01*
X9254195Y-17405463D01*
X9235147Y-17405463D01*
X9216100Y-17395939D01*
X9206576Y-17386415D01*
X9197052Y-17367367D01*
X9187528Y-17329272D01*
X9187528Y-17281653D01*
X9197052Y-17243558D01*
X9206576Y-17224510D01*
X9216100Y-17214986D01*
X9235147Y-17205463D01*
X9378004Y-17205463D02*
X9378004Y-17243558D01*
X9454195Y-17205463D02*
X9454195Y-17243558D01*
X9749433Y-17481653D02*
X9739909Y-17472129D01*
X9720862Y-17443558D01*
X9711338Y-17424510D01*
X9701814Y-17395939D01*
X9692290Y-17348320D01*
X9692290Y-17310224D01*
X9701814Y-17262605D01*
X9711338Y-17234034D01*
X9720862Y-17214986D01*
X9739909Y-17186415D01*
X9749433Y-17176891D01*
X9930385Y-17405463D02*
X9816100Y-17405463D01*
X9873243Y-17405463D02*
X9873243Y-17205463D01*
X9854195Y-17234034D01*
X9835147Y-17253082D01*
X9816100Y-17262605D01*
X9997052Y-17205463D02*
X10120862Y-17205463D01*
X10054195Y-17281653D01*
X10082766Y-17281653D01*
X10101814Y-17291177D01*
X10111338Y-17300701D01*
X10120862Y-17319748D01*
X10120862Y-17367367D01*
X10111338Y-17386415D01*
X10101814Y-17395939D01*
X10082766Y-17405463D01*
X10025624Y-17405463D01*
X10006576Y-17395939D01*
X9997052Y-17386415D01*
X10197052Y-17224510D02*
X10206576Y-17214986D01*
X10225624Y-17205463D01*
X10273243Y-17205463D01*
X10292290Y-17214986D01*
X10301814Y-17224510D01*
X10311338Y-17243558D01*
X10311338Y-17262605D01*
X10301814Y-17291177D01*
X10187528Y-17405463D01*
X10311338Y-17405463D01*
X10549433Y-17405463D02*
X10549433Y-17205463D01*
X10635147Y-17405463D02*
X10635147Y-17300701D01*
X10625624Y-17281653D01*
X10606576Y-17272129D01*
X10578004Y-17272129D01*
X10558957Y-17281653D01*
X10549433Y-17291177D01*
X10758957Y-17405463D02*
X10739909Y-17395939D01*
X10730385Y-17386415D01*
X10720862Y-17367367D01*
X10720862Y-17310224D01*
X10730385Y-17291177D01*
X10739909Y-17281653D01*
X10758957Y-17272129D01*
X10787528Y-17272129D01*
X10806576Y-17281653D01*
X10816100Y-17291177D01*
X10825624Y-17310224D01*
X10825624Y-17367367D01*
X10816100Y-17386415D01*
X10806576Y-17395939D01*
X10787528Y-17405463D01*
X10758957Y-17405463D01*
X10939909Y-17405463D02*
X10920862Y-17395939D01*
X10911338Y-17376891D01*
X10911338Y-17205463D01*
X11092290Y-17395939D02*
X11073243Y-17405463D01*
X11035147Y-17405463D01*
X11016100Y-17395939D01*
X11006576Y-17376891D01*
X11006576Y-17300701D01*
X11016100Y-17281653D01*
X11035147Y-17272129D01*
X11073243Y-17272129D01*
X11092290Y-17281653D01*
X11101814Y-17300701D01*
X11101814Y-17319748D01*
X11006576Y-17338796D01*
X11178004Y-17395939D02*
X11197052Y-17405463D01*
X11235147Y-17405463D01*
X11254195Y-17395939D01*
X11263719Y-17376891D01*
X11263719Y-17367367D01*
X11254195Y-17348320D01*
X11235147Y-17338796D01*
X11206576Y-17338796D01*
X11187528Y-17329272D01*
X11178004Y-17310224D01*
X11178004Y-17300701D01*
X11187528Y-17281653D01*
X11206576Y-17272129D01*
X11235147Y-17272129D01*
X11254195Y-17281653D01*
X11330385Y-17481653D02*
X11339909Y-17472129D01*
X11358957Y-17443558D01*
X11368481Y-17424510D01*
X11378004Y-17395939D01*
X11387528Y-17348320D01*
X11387528Y-17310224D01*
X11378004Y-17262605D01*
X11368481Y-17234034D01*
X11358957Y-17214986D01*
X11339909Y-17186415D01*
X11330385Y-17176891D01*
X11692290Y-17481653D02*
X11682766Y-17472129D01*
X11663719Y-17443558D01*
X11654195Y-17424510D01*
X11644671Y-17395939D01*
X11635147Y-17348320D01*
X11635147Y-17310224D01*
X11644671Y-17262605D01*
X11654195Y-17234034D01*
X11663719Y-17214986D01*
X11682766Y-17186415D01*
X11692290Y-17176891D01*
X11768481Y-17272129D02*
X11768481Y-17405463D01*
X11768481Y-17291177D02*
X11778004Y-17281653D01*
X11797052Y-17272129D01*
X11825623Y-17272129D01*
X11844671Y-17281653D01*
X11854195Y-17300701D01*
X11854195Y-17405463D01*
X11978004Y-17405463D02*
X11958957Y-17395939D01*
X11949433Y-17386415D01*
X11939909Y-17367367D01*
X11939909Y-17310224D01*
X11949433Y-17291177D01*
X11958957Y-17281653D01*
X11978004Y-17272129D01*
X12006576Y-17272129D01*
X12025623Y-17281653D01*
X12035147Y-17291177D01*
X12044671Y-17310224D01*
X12044671Y-17367367D01*
X12035147Y-17386415D01*
X12025623Y-17395939D01*
X12006576Y-17405463D01*
X11978004Y-17405463D01*
X12101814Y-17272129D02*
X12178004Y-17272129D01*
X12130385Y-17205463D02*
X12130385Y-17376891D01*
X12139909Y-17395939D01*
X12158957Y-17405463D01*
X12178004Y-17405463D01*
X12397052Y-17272129D02*
X12397052Y-17472129D01*
X12397052Y-17281653D02*
X12416100Y-17272129D01*
X12454195Y-17272129D01*
X12473242Y-17281653D01*
X12482766Y-17291177D01*
X12492290Y-17310224D01*
X12492290Y-17367367D01*
X12482766Y-17386415D01*
X12473242Y-17395939D01*
X12454195Y-17405463D01*
X12416100Y-17405463D01*
X12397052Y-17395939D01*
X12606576Y-17405463D02*
X12587528Y-17395939D01*
X12578004Y-17376891D01*
X12578004Y-17205463D01*
X12768481Y-17405463D02*
X12768481Y-17300701D01*
X12758957Y-17281653D01*
X12739909Y-17272129D01*
X12701814Y-17272129D01*
X12682766Y-17281653D01*
X12768481Y-17395939D02*
X12749433Y-17405463D01*
X12701814Y-17405463D01*
X12682766Y-17395939D01*
X12673242Y-17376891D01*
X12673242Y-17357844D01*
X12682766Y-17338796D01*
X12701814Y-17329272D01*
X12749433Y-17329272D01*
X12768481Y-17319748D01*
X12835147Y-17272129D02*
X12911338Y-17272129D01*
X12863719Y-17205463D02*
X12863719Y-17376891D01*
X12873242Y-17395939D01*
X12892290Y-17405463D01*
X12911338Y-17405463D01*
X13054195Y-17395939D02*
X13035147Y-17405463D01*
X12997052Y-17405463D01*
X12978004Y-17395939D01*
X12968481Y-17376891D01*
X12968481Y-17300701D01*
X12978004Y-17281653D01*
X12997052Y-17272129D01*
X13035147Y-17272129D01*
X13054195Y-17281653D01*
X13063719Y-17300701D01*
X13063719Y-17319748D01*
X12968481Y-17338796D01*
X13235147Y-17405463D02*
X13235147Y-17205463D01*
X13235147Y-17395939D02*
X13216100Y-17405463D01*
X13178004Y-17405463D01*
X13158957Y-17395939D01*
X13149433Y-17386415D01*
X13139909Y-17367367D01*
X13139909Y-17310224D01*
X13149433Y-17291177D01*
X13158957Y-17281653D01*
X13178004Y-17272129D01*
X13216100Y-17272129D01*
X13235147Y-17281653D01*
X13311338Y-17481653D02*
X13320862Y-17472129D01*
X13339909Y-17443558D01*
X13349433Y-17424510D01*
X13358957Y-17395939D01*
X13368481Y-17348320D01*
X13368481Y-17310224D01*
X13358957Y-17262605D01*
X13349433Y-17234034D01*
X13339909Y-17214986D01*
X13320862Y-17186415D01*
X13311338Y-17176891D01*
X6077528Y-17505166D02*
X6077528Y-17705166D01*
X5977528Y-17605166D02*
X6177528Y-17605166D01*
X6416100Y-17495643D02*
X6539909Y-17495643D01*
X6473242Y-17571833D01*
X6501814Y-17571833D01*
X6520862Y-17581357D01*
X6530385Y-17590881D01*
X6539909Y-17609928D01*
X6539909Y-17657547D01*
X6530385Y-17676595D01*
X6520862Y-17686119D01*
X6501814Y-17695643D01*
X6444671Y-17695643D01*
X6425623Y-17686119D01*
X6416100Y-17676595D01*
X6625623Y-17676595D02*
X6635147Y-17686119D01*
X6625623Y-17695643D01*
X6616100Y-17686119D01*
X6625623Y-17676595D01*
X6625623Y-17695643D01*
X6758957Y-17495643D02*
X6778004Y-17495643D01*
X6797052Y-17505166D01*
X6806576Y-17514690D01*
X6816100Y-17533738D01*
X6825623Y-17571833D01*
X6825623Y-17619452D01*
X6816100Y-17657547D01*
X6806576Y-17676595D01*
X6797052Y-17686119D01*
X6778004Y-17695643D01*
X6758957Y-17695643D01*
X6739909Y-17686119D01*
X6730385Y-17676595D01*
X6720862Y-17657547D01*
X6711338Y-17619452D01*
X6711338Y-17571833D01*
X6720862Y-17533738D01*
X6730385Y-17514690D01*
X6739909Y-17505166D01*
X6758957Y-17495643D01*
X6997052Y-17562309D02*
X6997052Y-17695643D01*
X6949433Y-17486119D02*
X6901814Y-17628976D01*
X7025623Y-17628976D01*
X7130385Y-17581357D02*
X7111338Y-17571833D01*
X7101814Y-17562309D01*
X7092290Y-17543262D01*
X7092290Y-17533738D01*
X7101814Y-17514690D01*
X7111338Y-17505166D01*
X7130385Y-17495643D01*
X7168481Y-17495643D01*
X7187528Y-17505166D01*
X7197052Y-17514690D01*
X7206576Y-17533738D01*
X7206576Y-17543262D01*
X7197052Y-17562309D01*
X7187528Y-17571833D01*
X7168481Y-17581357D01*
X7130385Y-17581357D01*
X7111338Y-17590881D01*
X7101814Y-17600404D01*
X7092290Y-17619452D01*
X7092290Y-17657547D01*
X7101814Y-17676595D01*
X7111338Y-17686119D01*
X7130385Y-17695643D01*
X7168481Y-17695643D01*
X7187528Y-17686119D01*
X7197052Y-17676595D01*
X7206576Y-17657547D01*
X7206576Y-17619452D01*
X7197052Y-17600404D01*
X7187528Y-17590881D01*
X7168481Y-17581357D01*
X7292290Y-17695643D02*
X7292290Y-17562309D01*
X7292290Y-17581357D02*
X7301814Y-17571833D01*
X7320862Y-17562309D01*
X7349433Y-17562309D01*
X7368481Y-17571833D01*
X7378004Y-17590881D01*
X7378004Y-17695643D01*
X7378004Y-17590881D02*
X7387528Y-17571833D01*
X7406576Y-17562309D01*
X7435147Y-17562309D01*
X7454195Y-17571833D01*
X7463719Y-17590881D01*
X7463719Y-17695643D01*
X7558957Y-17695643D02*
X7558957Y-17562309D01*
X7558957Y-17581357D02*
X7568481Y-17571833D01*
X7587528Y-17562309D01*
X7616100Y-17562309D01*
X7635147Y-17571833D01*
X7644671Y-17590881D01*
X7644671Y-17695643D01*
X7644671Y-17590881D02*
X7654195Y-17571833D01*
X7673242Y-17562309D01*
X7701814Y-17562309D01*
X7720862Y-17571833D01*
X7730385Y-17590881D01*
X7730385Y-17695643D01*
X8120862Y-17486119D02*
X7949433Y-17743262D01*
X8378004Y-17495643D02*
X8397052Y-17495643D01*
X8416100Y-17505166D01*
X8425624Y-17514690D01*
X8435147Y-17533738D01*
X8444671Y-17571833D01*
X8444671Y-17619452D01*
X8435147Y-17657547D01*
X8425624Y-17676595D01*
X8416100Y-17686119D01*
X8397052Y-17695643D01*
X8378004Y-17695643D01*
X8358957Y-17686119D01*
X8349433Y-17676595D01*
X8339909Y-17657547D01*
X8330385Y-17619452D01*
X8330385Y-17571833D01*
X8339909Y-17533738D01*
X8349433Y-17514690D01*
X8358957Y-17505166D01*
X8378004Y-17495643D01*
X8530385Y-17676595D02*
X8539909Y-17686119D01*
X8530385Y-17695643D01*
X8520862Y-17686119D01*
X8530385Y-17676595D01*
X8530385Y-17695643D01*
X8730385Y-17695643D02*
X8616100Y-17695643D01*
X8673243Y-17695643D02*
X8673243Y-17495643D01*
X8654195Y-17524214D01*
X8635147Y-17543262D01*
X8616100Y-17552785D01*
X8806576Y-17514690D02*
X8816100Y-17505166D01*
X8835147Y-17495643D01*
X8882766Y-17495643D01*
X8901814Y-17505166D01*
X8911338Y-17514690D01*
X8920862Y-17533738D01*
X8920862Y-17552785D01*
X8911338Y-17581357D01*
X8797052Y-17695643D01*
X8920862Y-17695643D01*
X9044671Y-17495643D02*
X9063719Y-17495643D01*
X9082766Y-17505166D01*
X9092290Y-17514690D01*
X9101814Y-17533738D01*
X9111338Y-17571833D01*
X9111338Y-17619452D01*
X9101814Y-17657547D01*
X9092290Y-17676595D01*
X9082766Y-17686119D01*
X9063719Y-17695643D01*
X9044671Y-17695643D01*
X9025624Y-17686119D01*
X9016100Y-17676595D01*
X9006576Y-17657547D01*
X8997052Y-17619452D01*
X8997052Y-17571833D01*
X9006576Y-17533738D01*
X9016100Y-17514690D01*
X9025624Y-17505166D01*
X9044671Y-17495643D01*
X9235147Y-17495643D02*
X9254195Y-17495643D01*
X9273243Y-17505166D01*
X9282766Y-17514690D01*
X9292290Y-17533738D01*
X9301814Y-17571833D01*
X9301814Y-17619452D01*
X9292290Y-17657547D01*
X9282766Y-17676595D01*
X9273243Y-17686119D01*
X9254195Y-17695643D01*
X9235147Y-17695643D01*
X9216100Y-17686119D01*
X9206576Y-17676595D01*
X9197052Y-17657547D01*
X9187528Y-17619452D01*
X9187528Y-17571833D01*
X9197052Y-17533738D01*
X9206576Y-17514690D01*
X9216100Y-17505166D01*
X9235147Y-17495643D01*
X9378004Y-17495643D02*
X9378004Y-17533738D01*
X9454195Y-17495643D02*
X9454195Y-17533738D01*
X9749433Y-17771833D02*
X9739909Y-17762309D01*
X9720862Y-17733738D01*
X9711338Y-17714690D01*
X9701814Y-17686119D01*
X9692290Y-17638500D01*
X9692290Y-17600404D01*
X9701814Y-17552785D01*
X9711338Y-17524214D01*
X9720862Y-17505166D01*
X9739909Y-17476595D01*
X9749433Y-17467071D01*
X9930385Y-17695643D02*
X9816100Y-17695643D01*
X9873243Y-17695643D02*
X9873243Y-17495643D01*
X9854195Y-17524214D01*
X9835147Y-17543262D01*
X9816100Y-17552785D01*
X10101814Y-17562309D02*
X10101814Y-17695643D01*
X10054195Y-17486119D02*
X10006576Y-17628976D01*
X10130385Y-17628976D01*
X10244671Y-17495643D02*
X10263719Y-17495643D01*
X10282766Y-17505166D01*
X10292290Y-17514690D01*
X10301814Y-17533738D01*
X10311338Y-17571833D01*
X10311338Y-17619452D01*
X10301814Y-17657547D01*
X10292290Y-17676595D01*
X10282766Y-17686119D01*
X10263719Y-17695643D01*
X10244671Y-17695643D01*
X10225624Y-17686119D01*
X10216100Y-17676595D01*
X10206576Y-17657547D01*
X10197052Y-17619452D01*
X10197052Y-17571833D01*
X10206576Y-17533738D01*
X10216100Y-17514690D01*
X10225624Y-17505166D01*
X10244671Y-17495643D01*
X10549433Y-17695643D02*
X10549433Y-17495643D01*
X10635147Y-17695643D02*
X10635147Y-17590881D01*
X10625624Y-17571833D01*
X10606576Y-17562309D01*
X10578004Y-17562309D01*
X10558957Y-17571833D01*
X10549433Y-17581357D01*
X10758957Y-17695643D02*
X10739909Y-17686119D01*
X10730385Y-17676595D01*
X10720862Y-17657547D01*
X10720862Y-17600404D01*
X10730385Y-17581357D01*
X10739909Y-17571833D01*
X10758957Y-17562309D01*
X10787528Y-17562309D01*
X10806576Y-17571833D01*
X10816100Y-17581357D01*
X10825624Y-17600404D01*
X10825624Y-17657547D01*
X10816100Y-17676595D01*
X10806576Y-17686119D01*
X10787528Y-17695643D01*
X10758957Y-17695643D01*
X10939909Y-17695643D02*
X10920862Y-17686119D01*
X10911338Y-17667071D01*
X10911338Y-17495643D01*
X11092290Y-17686119D02*
X11073243Y-17695643D01*
X11035147Y-17695643D01*
X11016100Y-17686119D01*
X11006576Y-17667071D01*
X11006576Y-17590881D01*
X11016100Y-17571833D01*
X11035147Y-17562309D01*
X11073243Y-17562309D01*
X11092290Y-17571833D01*
X11101814Y-17590881D01*
X11101814Y-17609928D01*
X11006576Y-17628976D01*
X11178004Y-17686119D02*
X11197052Y-17695643D01*
X11235147Y-17695643D01*
X11254195Y-17686119D01*
X11263719Y-17667071D01*
X11263719Y-17657547D01*
X11254195Y-17638500D01*
X11235147Y-17628976D01*
X11206576Y-17628976D01*
X11187528Y-17619452D01*
X11178004Y-17600404D01*
X11178004Y-17590881D01*
X11187528Y-17571833D01*
X11206576Y-17562309D01*
X11235147Y-17562309D01*
X11254195Y-17571833D01*
X11330385Y-17771833D02*
X11339909Y-17762309D01*
X11358957Y-17733738D01*
X11368481Y-17714690D01*
X11378004Y-17686119D01*
X11387528Y-17638500D01*
X11387528Y-17600404D01*
X11378004Y-17552785D01*
X11368481Y-17524214D01*
X11358957Y-17505166D01*
X11339909Y-17476595D01*
X11330385Y-17467071D01*
X11692290Y-17771833D02*
X11682766Y-17762309D01*
X11663719Y-17733738D01*
X11654195Y-17714690D01*
X11644671Y-17686119D01*
X11635147Y-17638500D01*
X11635147Y-17600404D01*
X11644671Y-17552785D01*
X11654195Y-17524214D01*
X11663719Y-17505166D01*
X11682766Y-17476595D01*
X11692290Y-17467071D01*
X11768481Y-17562309D02*
X11768481Y-17695643D01*
X11768481Y-17581357D02*
X11778004Y-17571833D01*
X11797052Y-17562309D01*
X11825623Y-17562309D01*
X11844671Y-17571833D01*
X11854195Y-17590881D01*
X11854195Y-17695643D01*
X11978004Y-17695643D02*
X11958957Y-17686119D01*
X11949433Y-17676595D01*
X11939909Y-17657547D01*
X11939909Y-17600404D01*
X11949433Y-17581357D01*
X11958957Y-17571833D01*
X11978004Y-17562309D01*
X12006576Y-17562309D01*
X12025623Y-17571833D01*
X12035147Y-17581357D01*
X12044671Y-17600404D01*
X12044671Y-17657547D01*
X12035147Y-17676595D01*
X12025623Y-17686119D01*
X12006576Y-17695643D01*
X11978004Y-17695643D01*
X12101814Y-17562309D02*
X12178004Y-17562309D01*
X12130385Y-17495643D02*
X12130385Y-17667071D01*
X12139909Y-17686119D01*
X12158957Y-17695643D01*
X12178004Y-17695643D01*
X12397052Y-17562309D02*
X12397052Y-17762309D01*
X12397052Y-17571833D02*
X12416100Y-17562309D01*
X12454195Y-17562309D01*
X12473242Y-17571833D01*
X12482766Y-17581357D01*
X12492290Y-17600404D01*
X12492290Y-17657547D01*
X12482766Y-17676595D01*
X12473242Y-17686119D01*
X12454195Y-17695643D01*
X12416100Y-17695643D01*
X12397052Y-17686119D01*
X12606576Y-17695643D02*
X12587528Y-17686119D01*
X12578004Y-17667071D01*
X12578004Y-17495643D01*
X12768481Y-17695643D02*
X12768481Y-17590881D01*
X12758957Y-17571833D01*
X12739909Y-17562309D01*
X12701814Y-17562309D01*
X12682766Y-17571833D01*
X12768481Y-17686119D02*
X12749433Y-17695643D01*
X12701814Y-17695643D01*
X12682766Y-17686119D01*
X12673242Y-17667071D01*
X12673242Y-17648024D01*
X12682766Y-17628976D01*
X12701814Y-17619452D01*
X12749433Y-17619452D01*
X12768481Y-17609928D01*
X12835147Y-17562309D02*
X12911338Y-17562309D01*
X12863719Y-17495643D02*
X12863719Y-17667071D01*
X12873242Y-17686119D01*
X12892290Y-17695643D01*
X12911338Y-17695643D01*
X13054195Y-17686119D02*
X13035147Y-17695643D01*
X12997052Y-17695643D01*
X12978004Y-17686119D01*
X12968481Y-17667071D01*
X12968481Y-17590881D01*
X12978004Y-17571833D01*
X12997052Y-17562309D01*
X13035147Y-17562309D01*
X13054195Y-17571833D01*
X13063719Y-17590881D01*
X13063719Y-17609928D01*
X12968481Y-17628976D01*
X13235147Y-17695643D02*
X13235147Y-17495643D01*
X13235147Y-17686119D02*
X13216100Y-17695643D01*
X13178004Y-17695643D01*
X13158957Y-17686119D01*
X13149433Y-17676595D01*
X13139909Y-17657547D01*
X13139909Y-17600404D01*
X13149433Y-17581357D01*
X13158957Y-17571833D01*
X13178004Y-17562309D01*
X13216100Y-17562309D01*
X13235147Y-17571833D01*
X13311338Y-17771833D02*
X13320862Y-17762309D01*
X13339909Y-17733738D01*
X13349433Y-17714690D01*
X13358957Y-17686119D01*
X13368481Y-17638500D01*
X13368481Y-17600404D01*
X13358957Y-17552785D01*
X13349433Y-17524214D01*
X13339909Y-17505166D01*
X13320862Y-17476595D01*
X13311338Y-17467071D01*
X6148240Y-17995878D02*
X6148240Y-17854455D01*
X6006817Y-17854455D01*
X6006817Y-17995878D01*
X6148240Y-17995878D01*
X6416100Y-17815643D02*
X6539909Y-17815643D01*
X6473242Y-17891833D01*
X6501814Y-17891833D01*
X6520862Y-17901357D01*
X6530385Y-17910881D01*
X6539909Y-17929928D01*
X6539909Y-17977547D01*
X6530385Y-17996595D01*
X6520862Y-18006119D01*
X6501814Y-18015643D01*
X6444671Y-18015643D01*
X6425623Y-18006119D01*
X6416100Y-17996595D01*
X6625623Y-17996595D02*
X6635147Y-18006119D01*
X6625623Y-18015643D01*
X6616100Y-18006119D01*
X6625623Y-17996595D01*
X6625623Y-18015643D01*
X6730385Y-18015643D02*
X6768481Y-18015643D01*
X6787528Y-18006119D01*
X6797052Y-17996595D01*
X6816100Y-17968024D01*
X6825623Y-17929928D01*
X6825623Y-17853738D01*
X6816100Y-17834690D01*
X6806576Y-17825166D01*
X6787528Y-17815643D01*
X6749433Y-17815643D01*
X6730385Y-17825166D01*
X6720862Y-17834690D01*
X6711338Y-17853738D01*
X6711338Y-17901357D01*
X6720862Y-17920404D01*
X6730385Y-17929928D01*
X6749433Y-17939452D01*
X6787528Y-17939452D01*
X6806576Y-17929928D01*
X6816100Y-17920404D01*
X6825623Y-17901357D01*
X6939909Y-17901357D02*
X6920862Y-17891833D01*
X6911338Y-17882309D01*
X6901814Y-17863262D01*
X6901814Y-17853738D01*
X6911338Y-17834690D01*
X6920862Y-17825166D01*
X6939909Y-17815643D01*
X6978004Y-17815643D01*
X6997052Y-17825166D01*
X7006576Y-17834690D01*
X7016100Y-17853738D01*
X7016100Y-17863262D01*
X7006576Y-17882309D01*
X6997052Y-17891833D01*
X6978004Y-17901357D01*
X6939909Y-17901357D01*
X6920862Y-17910881D01*
X6911338Y-17920404D01*
X6901814Y-17939452D01*
X6901814Y-17977547D01*
X6911338Y-17996595D01*
X6920862Y-18006119D01*
X6939909Y-18015643D01*
X6978004Y-18015643D01*
X6997052Y-18006119D01*
X7006576Y-17996595D01*
X7016100Y-17977547D01*
X7016100Y-17939452D01*
X7006576Y-17920404D01*
X6997052Y-17910881D01*
X6978004Y-17901357D01*
X7130385Y-17901357D02*
X7111338Y-17891833D01*
X7101814Y-17882309D01*
X7092290Y-17863262D01*
X7092290Y-17853738D01*
X7101814Y-17834690D01*
X7111338Y-17825166D01*
X7130385Y-17815643D01*
X7168481Y-17815643D01*
X7187528Y-17825166D01*
X7197052Y-17834690D01*
X7206576Y-17853738D01*
X7206576Y-17863262D01*
X7197052Y-17882309D01*
X7187528Y-17891833D01*
X7168481Y-17901357D01*
X7130385Y-17901357D01*
X7111338Y-17910881D01*
X7101814Y-17920404D01*
X7092290Y-17939452D01*
X7092290Y-17977547D01*
X7101814Y-17996595D01*
X7111338Y-18006119D01*
X7130385Y-18015643D01*
X7168481Y-18015643D01*
X7187528Y-18006119D01*
X7197052Y-17996595D01*
X7206576Y-17977547D01*
X7206576Y-17939452D01*
X7197052Y-17920404D01*
X7187528Y-17910881D01*
X7168481Y-17901357D01*
X7292290Y-18015643D02*
X7292290Y-17882309D01*
X7292290Y-17901357D02*
X7301814Y-17891833D01*
X7320862Y-17882309D01*
X7349433Y-17882309D01*
X7368481Y-17891833D01*
X7378004Y-17910881D01*
X7378004Y-18015643D01*
X7378004Y-17910881D02*
X7387528Y-17891833D01*
X7406576Y-17882309D01*
X7435147Y-17882309D01*
X7454195Y-17891833D01*
X7463719Y-17910881D01*
X7463719Y-18015643D01*
X7558957Y-18015643D02*
X7558957Y-17882309D01*
X7558957Y-17901357D02*
X7568481Y-17891833D01*
X7587528Y-17882309D01*
X7616100Y-17882309D01*
X7635147Y-17891833D01*
X7644671Y-17910881D01*
X7644671Y-18015643D01*
X7644671Y-17910881D02*
X7654195Y-17891833D01*
X7673242Y-17882309D01*
X7701814Y-17882309D01*
X7720862Y-17891833D01*
X7730385Y-17910881D01*
X7730385Y-18015643D01*
X8120862Y-17806119D02*
X7949433Y-18063262D01*
X8378004Y-17815643D02*
X8397052Y-17815643D01*
X8416100Y-17825166D01*
X8425624Y-17834690D01*
X8435147Y-17853738D01*
X8444671Y-17891833D01*
X8444671Y-17939452D01*
X8435147Y-17977547D01*
X8425624Y-17996595D01*
X8416100Y-18006119D01*
X8397052Y-18015643D01*
X8378004Y-18015643D01*
X8358957Y-18006119D01*
X8349433Y-17996595D01*
X8339909Y-17977547D01*
X8330385Y-17939452D01*
X8330385Y-17891833D01*
X8339909Y-17853738D01*
X8349433Y-17834690D01*
X8358957Y-17825166D01*
X8378004Y-17815643D01*
X8530385Y-17996595D02*
X8539909Y-18006119D01*
X8530385Y-18015643D01*
X8520862Y-18006119D01*
X8530385Y-17996595D01*
X8530385Y-18015643D01*
X8730385Y-18015643D02*
X8616100Y-18015643D01*
X8673243Y-18015643D02*
X8673243Y-17815643D01*
X8654195Y-17844214D01*
X8635147Y-17863262D01*
X8616100Y-17872785D01*
X8911338Y-17815643D02*
X8816100Y-17815643D01*
X8806576Y-17910881D01*
X8816100Y-17901357D01*
X8835147Y-17891833D01*
X8882766Y-17891833D01*
X8901814Y-17901357D01*
X8911338Y-17910881D01*
X8920862Y-17929928D01*
X8920862Y-17977547D01*
X8911338Y-17996595D01*
X8901814Y-18006119D01*
X8882766Y-18015643D01*
X8835147Y-18015643D01*
X8816100Y-18006119D01*
X8806576Y-17996595D01*
X8987528Y-17815643D02*
X9120862Y-17815643D01*
X9035147Y-18015643D01*
X9235147Y-17815643D02*
X9254195Y-17815643D01*
X9273243Y-17825166D01*
X9282766Y-17834690D01*
X9292290Y-17853738D01*
X9301814Y-17891833D01*
X9301814Y-17939452D01*
X9292290Y-17977547D01*
X9282766Y-17996595D01*
X9273243Y-18006119D01*
X9254195Y-18015643D01*
X9235147Y-18015643D01*
X9216100Y-18006119D01*
X9206576Y-17996595D01*
X9197052Y-17977547D01*
X9187528Y-17939452D01*
X9187528Y-17891833D01*
X9197052Y-17853738D01*
X9206576Y-17834690D01*
X9216100Y-17825166D01*
X9235147Y-17815643D01*
X9378004Y-17815643D02*
X9378004Y-17853738D01*
X9454195Y-17815643D02*
X9454195Y-17853738D01*
X9749433Y-18091833D02*
X9739909Y-18082309D01*
X9720862Y-18053738D01*
X9711338Y-18034690D01*
X9701814Y-18006119D01*
X9692290Y-17958500D01*
X9692290Y-17920404D01*
X9701814Y-17872785D01*
X9711338Y-17844214D01*
X9720862Y-17825166D01*
X9739909Y-17796595D01*
X9749433Y-17787071D01*
X9806576Y-17815643D02*
X9939909Y-17815643D01*
X9854195Y-18015643D01*
X10101814Y-17882309D02*
X10101814Y-18015643D01*
X10054195Y-17806119D02*
X10006576Y-17948976D01*
X10130385Y-17948976D01*
X10358957Y-18015643D02*
X10358957Y-17815643D01*
X10444671Y-18015643D02*
X10444671Y-17910881D01*
X10435147Y-17891833D01*
X10416100Y-17882309D01*
X10387528Y-17882309D01*
X10368481Y-17891833D01*
X10358957Y-17901357D01*
X10568481Y-18015643D02*
X10549433Y-18006119D01*
X10539909Y-17996595D01*
X10530385Y-17977547D01*
X10530385Y-17920404D01*
X10539909Y-17901357D01*
X10549433Y-17891833D01*
X10568481Y-17882309D01*
X10597052Y-17882309D01*
X10616100Y-17891833D01*
X10625624Y-17901357D01*
X10635147Y-17920404D01*
X10635147Y-17977547D01*
X10625624Y-17996595D01*
X10616100Y-18006119D01*
X10597052Y-18015643D01*
X10568481Y-18015643D01*
X10749433Y-18015643D02*
X10730385Y-18006119D01*
X10720862Y-17987071D01*
X10720862Y-17815643D01*
X10901814Y-18006119D02*
X10882766Y-18015643D01*
X10844671Y-18015643D01*
X10825624Y-18006119D01*
X10816100Y-17987071D01*
X10816100Y-17910881D01*
X10825624Y-17891833D01*
X10844671Y-17882309D01*
X10882766Y-17882309D01*
X10901814Y-17891833D01*
X10911338Y-17910881D01*
X10911338Y-17929928D01*
X10816100Y-17948976D01*
X10987528Y-18006119D02*
X11006576Y-18015643D01*
X11044671Y-18015643D01*
X11063719Y-18006119D01*
X11073243Y-17987071D01*
X11073243Y-17977547D01*
X11063719Y-17958500D01*
X11044671Y-17948976D01*
X11016100Y-17948976D01*
X10997052Y-17939452D01*
X10987528Y-17920404D01*
X10987528Y-17910881D01*
X10997052Y-17891833D01*
X11016100Y-17882309D01*
X11044671Y-17882309D01*
X11063719Y-17891833D01*
X11139909Y-18091833D02*
X11149433Y-18082309D01*
X11168481Y-18053738D01*
X11178004Y-18034690D01*
X11187528Y-18006119D01*
X11197052Y-17958500D01*
X11197052Y-17920404D01*
X11187528Y-17872785D01*
X11178004Y-17844214D01*
X11168481Y-17825166D01*
X11149433Y-17796595D01*
X11139909Y-17787071D01*
X11501814Y-18091833D02*
X11492290Y-18082309D01*
X11473242Y-18053738D01*
X11463719Y-18034690D01*
X11454195Y-18006119D01*
X11444671Y-17958500D01*
X11444671Y-17920404D01*
X11454195Y-17872785D01*
X11463719Y-17844214D01*
X11473242Y-17825166D01*
X11492290Y-17796595D01*
X11501814Y-17787071D01*
X11578004Y-17882309D02*
X11578004Y-18015643D01*
X11578004Y-17901357D02*
X11587528Y-17891833D01*
X11606576Y-17882309D01*
X11635147Y-17882309D01*
X11654195Y-17891833D01*
X11663719Y-17910881D01*
X11663719Y-18015643D01*
X11787528Y-18015643D02*
X11768481Y-18006119D01*
X11758957Y-17996595D01*
X11749433Y-17977547D01*
X11749433Y-17920404D01*
X11758957Y-17901357D01*
X11768481Y-17891833D01*
X11787528Y-17882309D01*
X11816100Y-17882309D01*
X11835147Y-17891833D01*
X11844671Y-17901357D01*
X11854195Y-17920404D01*
X11854195Y-17977547D01*
X11844671Y-17996595D01*
X11835147Y-18006119D01*
X11816100Y-18015643D01*
X11787528Y-18015643D01*
X11911338Y-17882309D02*
X11987528Y-17882309D01*
X11939909Y-17815643D02*
X11939909Y-17987071D01*
X11949433Y-18006119D01*
X11968481Y-18015643D01*
X11987528Y-18015643D01*
X12206576Y-17882309D02*
X12206576Y-18082309D01*
X12206576Y-17891833D02*
X12225623Y-17882309D01*
X12263719Y-17882309D01*
X12282766Y-17891833D01*
X12292290Y-17901357D01*
X12301814Y-17920404D01*
X12301814Y-17977547D01*
X12292290Y-17996595D01*
X12282766Y-18006119D01*
X12263719Y-18015643D01*
X12225623Y-18015643D01*
X12206576Y-18006119D01*
X12416100Y-18015643D02*
X12397052Y-18006119D01*
X12387528Y-17987071D01*
X12387528Y-17815643D01*
X12578004Y-18015643D02*
X12578004Y-17910881D01*
X12568481Y-17891833D01*
X12549433Y-17882309D01*
X12511338Y-17882309D01*
X12492290Y-17891833D01*
X12578004Y-18006119D02*
X12558957Y-18015643D01*
X12511338Y-18015643D01*
X12492290Y-18006119D01*
X12482766Y-17987071D01*
X12482766Y-17968024D01*
X12492290Y-17948976D01*
X12511338Y-17939452D01*
X12558957Y-17939452D01*
X12578004Y-17929928D01*
X12644671Y-17882309D02*
X12720862Y-17882309D01*
X12673242Y-17815643D02*
X12673242Y-17987071D01*
X12682766Y-18006119D01*
X12701814Y-18015643D01*
X12720862Y-18015643D01*
X12863719Y-18006119D02*
X12844671Y-18015643D01*
X12806576Y-18015643D01*
X12787528Y-18006119D01*
X12778004Y-17987071D01*
X12778004Y-17910881D01*
X12787528Y-17891833D01*
X12806576Y-17882309D01*
X12844671Y-17882309D01*
X12863719Y-17891833D01*
X12873242Y-17910881D01*
X12873242Y-17929928D01*
X12778004Y-17948976D01*
X13044671Y-18015643D02*
X13044671Y-17815643D01*
X13044671Y-18006119D02*
X13025623Y-18015643D01*
X12987528Y-18015643D01*
X12968481Y-18006119D01*
X12958957Y-17996595D01*
X12949433Y-17977547D01*
X12949433Y-17920404D01*
X12958957Y-17901357D01*
X12968481Y-17891833D01*
X12987528Y-17882309D01*
X13025623Y-17882309D01*
X13044671Y-17891833D01*
X13120862Y-18091833D02*
X13130385Y-18082309D01*
X13149433Y-18053738D01*
X13158957Y-18034690D01*
X13168481Y-18006119D01*
X13178004Y-17958500D01*
X13178004Y-17920404D01*
X13168481Y-17872785D01*
X13158957Y-17844214D01*
X13149433Y-17825166D01*
X13130385Y-17796595D01*
X13120862Y-17787071D01*
M02*
